<?xml version="1.0" encoding="utf-8"?>
<!-- Generator: Adobe Illustrator 22.1.0, SVG Export Plug-In . SVG Version: 6.00 Build 0)  -->
<svg version="1.1" id="Layer_1" xmlns="http://www.w3.org/2000/svg" xmlns:xlink="http://www.w3.org/1999/xlink" x="0px" y="0px"
	 viewBox="0 0 150 150" style="enable-background:new 0 0 150 150;" xml:space="preserve">
<style type="text/css">
	.st0{fill:none;stroke:#2D2D2D;stroke-width:2.5505;stroke-linecap:round;stroke-linejoin:round;stroke-miterlimit:10;}
	.st1{fill:#E60000;}
	.st2{fill:#303030;stroke:#2D2D2D;stroke-width:1.2747;stroke-miterlimit:10;}
</style>
<g id="Icons">
	<g>
		<g>
			<path class="st0" d="M117.4,56.9c0,11.9-4.7,22.7-12.3,30.7c-0.3-1.8-1-3.6-2.1-5.2l-6.2-9l-6.2,9c-2.9,4.2-3.2,9.8-0.4,14
				c0.3,0.4,0.6,0.8,0.9,1.1c-5.6,2.6-11.8,4-18.4,4c-24.7,0-44.6-20-44.6-44.6s20-44.6,44.6-44.6C97.5,12.3,117.4,32.2,117.4,56.9z
				"/>
		</g>
		<path class="st0" d="M105.1,87.6c0.6,3,0,6.2-1.7,8.8c-1.7,2.4-4,4-6.5,4c-2.1,0-4.1-1.1-5.6-2.8"/>
		<ellipse class="st1" cx="53" cy="52.7" rx="4.6" ry="5.5"/>
		<ellipse class="st1" cx="53" cy="52.7" rx="4.6" ry="5.5"/>
		<path class="st0" d="M54.4,38.1c0,0-7.5-2.5-10,6.4"/>
		<ellipse class="st2" cx="92.6" cy="52.7" rx="4.6" ry="5.5"/>
		<ellipse class="st1" cx="92.6" cy="52.7" rx="4.6" ry="5.5"/>
		<path class="st0" d="M91.2,38.1c0,0,7.5-2.5,10,6.4"/>
		<path class="st0" d="M60.2,76.5c9-7.4,17.5-7.2,25.4,0"/>
	</g>
</g>
<g>
	<path d="M18,139v-6.5H7v-2.1l10.6-15.2h3.5V130h3.3v2.5h-3.3v6.5H18z M18,130.1v-7.9c0-1.2,0-2.5,0.1-3.7H18
		c-0.7,1.4-1.3,2.4-2,3.5l-5.8,8.1v0.1H18V130.1z"/>
	<path d="M42.6,126.9c0,8.1-3,12.5-8.3,12.5c-4.6,0-7.8-4.3-7.9-12.2c0-8,3.4-12.3,8.3-12.3C39.8,114.9,42.6,119.4,42.6,126.9z
		 M29.7,127.3c0,6.2,1.9,9.7,4.8,9.7c3.3,0,4.9-3.8,4.9-9.9c0-5.8-1.5-9.7-4.8-9.7C31.8,117.4,29.7,120.8,29.7,127.3z"/>
	<path d="M55.5,139v-6.5h-11v-2.1l10.6-15.2h3.5V130h3.3v2.5h-3.3v6.5H55.5z M55.5,130.1v-7.9c0-1.2,0-2.5,0.1-3.7h-0.1
		c-0.7,1.4-1.3,2.4-2,3.5l-5.8,8.1v0.1h7.8V130.1z"/>
	<path class="st1" d="M85.9,127.5h-9.6v8.9H87v2.7H73.2v-24.6h13.3v2.7H76.3v7.8h9.6V127.5z"/>
	<path class="st1" d="M91,126.9c0-2.1,0-3.9-0.1-5.5h2.8l0.1,3.5h0.1c0.8-2.4,2.7-3.9,4.9-3.9c0.4,0,0.6,0,0.9,0.1v3
		c-0.3-0.1-0.7-0.1-1.1-0.1c-2.3,0-3.9,1.7-4.3,4.1c-0.1,0.4-0.1,0.9-0.1,1.5v9.4H91V126.9z"/>
	<path class="st1" d="M103.1,126.9c0-2.1,0-3.9-0.1-5.5h2.8l0.1,3.5h0.1c0.8-2.4,2.7-3.9,4.9-3.9c0.4,0,0.6,0,0.9,0.1v3
		c-0.3-0.1-0.7-0.1-1.1-0.1c-2.3,0-3.9,1.7-4.3,4.1c-0.1,0.4-0.1,0.9-0.1,1.5v9.4h-3.2C103.1,139,103.1,126.9,103.1,126.9z"/>
	<path class="st1" d="M130.7,130.1c0,6.5-4.5,9.4-8.8,9.4c-4.8,0-8.5-3.5-8.5-9.1c0-5.9,3.9-9.4,8.8-9.4
		C127.2,121,130.7,124.7,130.7,130.1z M116.7,130.2c0,3.9,2.2,6.8,5.4,6.8c3.1,0,5.4-2.9,5.4-6.9c0-3-1.5-6.8-5.3-6.8
		C118.3,123.4,116.7,126.9,116.7,130.2z"/>
	<path class="st1" d="M134.7,126.9c0-2.1,0-3.9-0.1-5.5h2.8l0.1,3.5h0.1c0.8-2.4,2.7-3.9,4.9-3.9c0.4,0,0.6,0,0.9,0.1v3
		c-0.3-0.1-0.7-0.1-1.1-0.1c-2.3,0-3.9,1.7-4.3,4.1c-0.1,0.4-0.1,0.9-0.1,1.5v9.4h-3.2L134.7,126.9L134.7,126.9z"/>
</g>
</svg>
