<?xml version="1.0" encoding="utf-8"?>
<!-- Generator: Adobe Illustrator 23.0.6, SVG Export Plug-In . SVG Version: 6.00 Build 0)  -->
<svg version="1.1" id="Layer_1" xmlns="http://www.w3.org/2000/svg" xmlns:xlink="http://www.w3.org/1999/xlink" x="0px" y="0px"
	 viewBox="0 0 100 100" style="enable-background:new 0 0 100 100;" xml:space="preserve">
<style type="text/css">
	.st0{fill-rule:evenodd;clip-rule:evenodd;fill:#949494;}
	.st1{fill:none;stroke:#E60000;stroke-width:3;stroke-linecap:round;stroke-linejoin:round;}
	.st2{fill-rule:evenodd;clip-rule:evenodd;fill:#E60000;}
</style>
<g>
	<title></title>
	<path class="st0" d="M57.9,81.1H14.1c-4.2,0-7.6-3.2-7.6-7.2V20c0-4,3.4-7.2,7.6-7.2h71.8c4.2,0,7.6,3.2,7.6,7.2v57
		C92,62.4,61.3,39.8,57.9,81.1z M89.7,20c0-2-1.7-3.6-3.8-3.6H14.1c-2.1,0-3.8,1.6-3.8,3.6v10.8h79.4C89.7,30.8,89.7,20,89.7,20z
		 M89.7,34.4H10.3V74c0,2,1.7,3.6,3.8,3.6H57l5.2-15.8c16.4-8.5,27.4,4.5,27.4,2.6L89.7,34.4L89.7,34.4z M67,47h-3.8
		c-1,0-1.9-0.8-1.9-1.8v-3.6c0-1,0.8-1.8,1.9-1.8H67c1,0,1.9,0.8,1.9,1.8v3.6C68.9,46.2,68.1,47,67,47z M51.9,59.6h-3.8
		c-1,0-1.9-0.8-1.9-1.8v-3.6c0-1,0.8-1.8,1.9-1.8h3.8c1,0,1.9,0.8,1.9,1.8v3.6C53.8,58.8,52.9,59.6,51.9,59.6z M51.9,47h-3.8
		c-1,0-1.9-0.8-1.9-1.8v-3.6c0-1,0.8-1.8,1.9-1.8h3.8c1,0,1.9,0.8,1.9,1.8v3.6C53.8,46.2,52.9,47,51.9,47z M36.8,72.2H33
		c-1,0-1.9-0.8-1.9-1.8v-3.6c0-1,0.8-1.8,1.9-1.8h3.8c1,0,1.9,0.8,1.9,1.8v3.6C38.7,71.4,37.8,72.2,36.8,72.2z M36.8,59.6H33
		c-1,0-1.9-0.8-1.9-1.8v-3.6c0-1,0.8-1.8,1.9-1.8h3.8c1,0,1.9,0.8,1.9,1.8v3.6C38.7,58.8,37.8,59.6,36.8,59.6z M36.8,47H33
		c-1,0-1.9-0.8-1.9-1.8v-3.6c0-1,0.8-1.8,1.9-1.8h3.8c1,0,1.9,0.8,1.9,1.8v3.6C38.7,46.2,37.8,47,36.8,47z M21.6,72.2h-3.8
		c-1,0-1.9-0.8-1.9-1.8v-3.6c0-1,0.8-1.8,1.9-1.8h3.8c1,0,1.9,0.8,1.9,1.8v3.6C23.5,71.4,22.7,72.2,21.6,72.2z M21.6,59.6h-3.8
		c-1,0-1.9-0.8-1.9-1.8v-3.6c0-1,0.8-1.8,1.9-1.8h3.8c1,0,1.9,0.8,1.9,1.8v3.6C23.5,58.8,22.7,59.6,21.6,59.6z"/>
	<ellipse class="st1" cx="74.9" cy="75" rx="17.1" ry="17"/>
	<line class="st1" x1="74.9" y1="68.2" x2="74.9" y2="81.8"/>
	<line class="st1" x1="68.1" y1="75" x2="81.8" y2="75"/>
	<path class="st2" d="M50,81.1"/>
</g>
</svg>
