<?xml version="1.0" encoding="utf-8"?>
<!-- Generator: Adobe Illustrator 22.1.0, SVG Export Plug-In . SVG Version: 6.00 Build 0)  -->
<svg version="1.1" id="Layer_1" xmlns="http://www.w3.org/2000/svg" xmlns:xlink="http://www.w3.org/1999/xlink" x="0px" y="0px"
	 viewBox="0 0 24 24" style="enable-background:new 0 0 24 24;" xml:space="preserve">
<style type="text/css">
	.st0{fill:#000333;}
</style>
<path class="st0" d="M23.5,14.6h-8.9v8.9c0,0.3-0.2,0.5-0.5,0.5H9.9c-0.3,0-0.5-0.2-0.5-0.5v-8.9H0.5c-0.3,0-0.5-0.2-0.5-0.5V9.9
	c0-0.3,0.2-0.5,0.5-0.5h8.9V0.5C9.4,0.2,9.6,0,9.9,0h4.2c0.3,0,0.5,0.2,0.5,0.5v8.9h8.9c0.3,0,0.5,0.2,0.5,0.5v4.2
	C24,14.4,23.8,14.6,23.5,14.6z"/>
</svg>
