<?xml version="1.0" encoding="utf-8"?>
<!-- Generator: Adobe Illustrator 22.1.0, SVG Export Plug-In . SVG Version: 6.00 Build 0)  -->
<svg version="1.1" id="Layer_1" xmlns="http://www.w3.org/2000/svg" xmlns:xlink="http://www.w3.org/1999/xlink" x="0px" y="0px"
	 viewBox="0 0 100 100" style="enable-background:new 0 0 100 100;" xml:space="preserve">
<style type="text/css">
	.st0{fill:none;stroke:#242E3C;stroke-width:3;stroke-linecap:round;stroke-linejoin:round;}
	.st1{fill:none;stroke:#E60000;stroke-width:3;stroke-linecap:round;stroke-linejoin:round;}
</style>
<title></title>
<path class="st0" d="M78,31.5V81c0,3.1-2.5,5.7-5.7,5.7H27c-3.1,0-5.7-2.5-5.7-5.7V20.1c0-3.1,2.5-5.7,5.7-5.7h39.6L78,25.8h-8.5
	c-1.6,0-2.8-1.3-2.8-2.8v-8.5"/>
<path class="st1" d="M49.5,41.9c-11.1,0-20.1,9.7-20.1,20.8c0,4.3,1.3,8.6,3.6,12.2h33.1c2.3-3.6,3.6-7.9,3.6-12.2
	C69.6,51.6,60.6,41.9,49.5,41.9z"/>
<line class="st1" x1="49.5" y1="43.5" x2="49.5" y2="45.3"/>
<line class="st1" x1="35.4" y1="49.5" x2="37.4" y2="51.5"/>
<line class="st1" x1="63.5" y1="49.5" x2="61.6" y2="51.5"/>
<line class="st1" x1="30.3" y1="62.7" x2="32" y2="62.7"/>
<line class="st1" x1="66.9" y1="62.7" x2="68.6" y2="62.7"/>
<line class="st1" x1="49.5" y1="74.9" x2="55.9" y2="59.5"/>
</svg>
