<?xml version="1.0" encoding="utf-8"?>
<!-- Generator: Adobe Illustrator 22.1.0, SVG Export Plug-In . SVG Version: 6.00 Build 0)  -->
<svg version="1.1" id="Layer_1" xmlns="http://www.w3.org/2000/svg" xmlns:xlink="http://www.w3.org/1999/xlink" x="0px" y="0px"
	 viewBox="0 0 103 103" style="enable-background:new 0 0 103 103;" xml:space="preserve">
<style type="text/css">
	.st0{fill:#949494;}
	.st1{fill:#E60000;}
</style>
<path class="st0" d="M25.8,8.4l-5.3,1.4c-1.8,0.6-3.1,2.5-2.6,4.4l0.3,1c0.3,1-0.4,2.1-1.4,2.4C15,18,13.7,20,14.2,21.8l0.3,1.2
	l0.5,1.3l-9.9,2.8c-2,0.7-3.3,3-2.7,5l15.5,55.3c0.6,2.2,2.9,3.5,5,2.7l38.3-10.7l-19.6-4.8l10.4-57c-0.6-2.2-2-3-4.2-2.3L38,18.1
	l-0.8-2.5c-0.6-1.8-2.5-3.1-4.4-2.6c-1,0.3-2.1-0.4-2.4-1.4l0.3,1.2l-0.6-2.2C29.7,9.1,27.6,7.9,25.8,8.4z M39.1,22.2l-0.5-1.3
	l8.7-2.5c1.3-0.5,2.9,1.5,2.9,1.5l0.1,1.9l-10,52.4l14.4,4l-31.4,8.9c-1.3,0.5-2.6-0.5-2.9-1.5L5.7,32.9c-0.5-1.3,0.5-2.6,1.5-2.9
	l8.7-2.5l0.3,1.2c0.6,1.8,2.5,3.1,4.3,2.4l0,0l16-4.6c2.1-0.6,2.7-3.7,2.2-5.6L39.1,22.2z M32.4,16.3c1-0.3,2.1,0.4,2.4,1.4l1.2,4
	c0.3,1-0.4,2.1-1.4,2.4l-13.4,3.8c-1,0.3-2.1-0.4-2.4-1.4l-1.2-4c-0.3-1,0.4-2.1,1.4-2.4l-1.2,0.3c1.8-0.6,4.1-2.8,3.7-4.7l-0.3-1
	c-0.3-1,0.4-2.1,1.4-2.4l2.9-0.7c1-0.3,2.1,0.4,2.4,1.4l0.3,1c0.7,1.8,3.8,2.5,5.7,2l0,0L32.4,16.3z"/>
<path class="st1" d="M23,37.5L18,44l-2.9-2.2c-0.4-0.2-1.5,0.1-1.8,0.6c-0.2,0.4,0.3,1.6,0.7,1.9l4,3c0.4,0.2,0.8,0.2,1.2-0.2l0,0
	l6.4-8.7c0.2-0.4-0.2-1.1-0.5-1.4C24.7,36.6,23.3,37.2,23,37.5z"/>
<path class="st1" d="M48.1,32.8L31.4,38c-0.2,0.2-0.2,0.8,0,1.6c0.4,0.7,0.7,1.3,1.1,1.1l16.8-5.2c0.2-0.2,0.2-0.8,0-1.6
	C49,33.4,48.5,32.7,48.1,32.8z"/>
<path class="st1" d="M25.9,52.3l-5,6.5L18,56.7c-0.4-0.2-1.5,0.1-1.8,0.6c-0.2,0.4,0.3,1.6,0.7,1.9l4,3c0.4,0.2,0.8,0.2,1.2-0.2l0,0
	l6.4-8.7c0.2-0.4-0.2-1.1-0.5-1.4C27.6,51.4,26.1,52,25.9,52.3z"/>
<path class="st1" d="M43.8,49.9l-9.5,2.9c-0.2,0.2-0.2,0.8,0,1.6c0.4,0.7,0.7,1.3,1.1,1.1l7.8-2.4c0.2-0.2,2.1-1.2,1.9-2.1
	C44.8,50.6,44.2,50,43.8,49.9z"/>
<path class="st1" d="M30.1,66.8L25,73.4l-2.9-2.2c-0.4-0.2-1.5,0.1-1.8,0.6c-0.2,0.4,0.3,1.6,0.7,1.9l4,3c0.4,0.2,0.8,0.2,1.2-0.2
	l0,0l6.4-8.7c0.2-0.4-0.2-1.1-0.5-1.4C31.7,65.9,30.3,66.6,30.1,66.8z"/>
<path class="st1" d="M42.4,66.1l-3.9,1.2c-0.2,0.2-0.2,0.8,0,1.6c0.3,0.8,0.7,1.3,1.1,1.1l2.4-0.7c0.2-0.2,1-0.9,0.7-1.8
	C42.4,67.1,42.7,66.2,42.4,66.1z"/>
<path class="st1" d="M90.5,34.3l-35.6-6.5c-0.4-0.1-0.8,0.6-0.8,1.2s0.1,1.5,0.4,1.2l35.6,6.5c0.4,0.1,0.8-0.6,0.8-1.2
	C91.1,35,90.9,34.4,90.5,34.3z"/>
<path class="st0" d="M42.6,76.9l17.5,3.2l-0.7,4.1c-0.9,5,2.4,9.7,7.4,10.6s9.7-2.4,10.6-7.4l0.7-4.1l6.9,1.2c2,0.4,3.8-0.9,4.2-2.9
	l10.1-56.1c0-0.2,0-0.4-0.1-0.6l-4.5-6.4l0,0c-0.1-0.2-0.3-0.3-0.5-0.3L54.5,11c-2-0.4-3.8,0.9-4.2,2.9L39.7,72.7
	C39.3,74.7,40.6,76.5,42.6,76.9z M93.4,20.9l3.2,4.6l-3.9-0.7L93.4,20.9z M53,15.6c0.2-1.1,1.2-1.7,2.2-1.6l35.3,6.4l-1.1,5.9
	c-0.1,0.5,0.2,0.9,0.7,1l5.9,1.1L86.7,80c-0.2,1.1-1.2,1.7-2.2,1.6l-5.7-1l1.5-8.6c0.1-0.5-0.2-0.9-0.7-1c-3.5-0.6-6.9,1.7-7.5,5.2
	l-0.5,3l-27.1-4.9c-1.1-0.2-1.7-1.2-1.6-2.2L53,15.6z"/>
<path class="st1" d="M88.9,43.4l-35.6-6.5c-0.4-0.1-0.8,0.6-0.8,1.2s0.1,1.5,0.4,1.2l35.6,6.5c0.4,0.1,0.8-0.6,0.8-1.2
	C89.5,44.1,89.3,43.5,88.9,43.4z"/>
<path class="st1" d="M87.3,52.4l-35.6-6.5c-0.4-0.1-0.8,0.6-0.8,1.2s0.1,1.5,0.4,1.2l35.6,6.5c0.4,0.1,0.8-0.6,0.8-1.2
	C87.9,53.1,87.7,52.5,87.3,52.4z"/>
<path class="st1" d="M85.7,61.5L50.1,55c-0.4-0.1-0.8,0.6-0.8,1.2s0.1,1.5,0.4,1.2l35.6,6.5c0.4,0.1,0.8-0.6,0.8-1.2
	C86.3,62.2,86.1,61.6,85.7,61.5z"/>
</svg>
