<?xml version="1.0" encoding="utf-8"?>
<!-- Generator: Adobe Illustrator 23.0.6, SVG Export Plug-In . SVG Version: 6.00 Build 0)  -->
<svg version="1.1" xmlns="http://www.w3.org/2000/svg" xmlns:xlink="http://www.w3.org/1999/xlink" x="0px" y="0px"
	 viewBox="0 0 100 100" style="enable-background:new 0 0 100 100;" xml:space="preserve">
<style type="text/css">
	.st0{fill:#949494;stroke:#949494;stroke-miterlimit:10;}
	.st1{fill:#FFFFFF;}
	.st2{fill:#E60000;stroke:#E60000;stroke-miterlimit:10;}
</style>
<g id="Layer_3">
</g>
<g id="Layer_2">
	<path class="st0" d="M17.9,90c-4.4,0-8-3.6-7.9-8c0-2.1,0.8-4.1,2.3-5.6l17.4-17.3c0.5-0.5,1.3-0.5,1.8,0c0.5,0.5,0.5,1.3,0,1.8
		L14.1,78.2c-2.1,2.2-2.1,5.6,0.1,7.7c2.1,2.1,5.5,2.1,7.6,0l17.3-17.4c0.5-0.5,1.3-0.5,1.8,0c0.5,0.5,0.5,1.3,0,1.8l0,0L23.6,87.7
		C22.1,89.2,20.1,90,17.9,90z"/>
	<path class="st0" d="M57.5,75C39.5,75,25,60.4,25,42.5S39.6,10,57.5,10S90,24.6,90,42.5c0,8.6-3.4,16.9-9.5,23l0,0
		C74.4,71.6,66.1,75,57.5,75z M57.5,12.5c-16.6,0-30,13.5-30,30s13.5,30,30,30s30-13.5,30-30c0-8-3.2-15.6-8.8-21.2
		C73.1,15.6,65.4,12.5,57.5,12.5z M79.6,64.6L79.6,64.6z"/>
	<path class="st0" d="M57.5,67.5c-13.8,0-25-11.2-25-25c0-13.8,11.2-25,25-25c13.8,0,25,11.2,25,25c0,6.6-2.6,13-7.3,17.7
		C70.5,64.9,64.1,67.5,57.5,67.5z M57.5,20C45.1,20,35,30.1,35,42.5S45.1,65,57.5,65S80,54.9,80,42.5c0-6-2.4-11.7-6.6-15.9
		C69.2,22.4,63.5,20,57.5,20z"/>
	<path class="st1" d="M76.2,42.5c0,0-7.3,11.2-18.7,11.2S38.7,42.5,38.7,42.5s7.3-11.2,18.7-11.2S76.2,42.5,76.2,42.5z"/>
	<path class="st2" d="M57.5,55c-12,0-19.5-11.3-19.8-11.8c-0.3-0.4-0.3-0.9,0-1.4C38,41.3,45.5,30,57.5,30S77,41.3,77.3,41.8
		c0.3,0.4,0.3,0.9,0,1.4C77,43.7,69.5,55,57.5,55z M40.3,42.5c1.8,2.4,8.2,10,17.2,10s15.4-7.6,17.2-10c-1.8-2.4-8.2-10-17.2-10
		S42,40.1,40.3,42.5z"/>
	<path class="st2" d="M57.5,50c-4.1,0-7.5-3.4-7.5-7.5s3.4-7.5,7.5-7.5s7.5,3.4,7.5,7.5S61.6,50,57.5,50z M57.5,37.5
		c-2.8,0-5,2.2-5,5c0,2.8,2.2,5,5,5c2.8,0,5-2.2,5-5C62.5,39.7,60.3,37.5,57.5,37.5z"/>
</g>
</svg>
