<svg xmlns="http://www.w3.org/2000/svg" viewBox="0 0 106.32 99.93"><defs><style>.cls-1{fill:#e60000;stroke:#e60000;}.cls-1,.cls-4{stroke-miterlimit:10;stroke-width:0.5px;}.cls-2{fill:none;}.cls-3,.cls-4{fill:#242e3c;}.cls-4{stroke:#242e3c;}</style></defs><title>AustraliaSearch</title><g id="Layer_2" data-name="Layer 2"><g id="AustraliaSearch"><path class="cls-1" d="M66,35.17c.24-.26.49-.52.75-.77a2,2,0,0,1,1.36-.57l.51-15.34a6,6,0,0,0,2.12.87c.08-.37.17-.74.26-1.1a5.65,5.65,0,0,1-4.7-3.15,15.3,15.3,0,0,1-.46,1.5l.76.51Z"/><path class="cls-1" d="M72.18,65.26l-.83,12.4a7.6,7.6,0,0,1-.68-.71c.13.62.28,1.25.43,1.88a6.25,6.25,0,0,1,1.8.4A5.07,5.07,0,0,1,73.41,78l.84-12.7A6.82,6.82,0,0,1,72.18,65.26Z"/><path class="cls-1" d="M74.9,57.37,76,40.12a2.36,2.36,0,0,0-.6-1.72,2.3,2.3,0,0,0-1.66-.75l-2.5-.06a20.84,20.84,0,0,0-5,4.52l5,.12L70.18,58.52a18.52,18.52,0,0,1,2,.92c.36,0,.72,0,1.07-.1,2.48-.34,4.8-1,7.32-1.07C81.42,58.22,74.9,57.37,74.9,57.37Z"/><path class="cls-1" d="M103.92,55l0,.5L91,54.63a8.27,8.27,0,0,1-1,2l13.54.87a19.75,19.75,0,0,1-1.1,3.42,10.61,10.61,0,0,1,1.15-.17,6.28,6.28,0,0,1,.47-1.1,7.11,7.11,0,0,1,.83-2.89,4.74,4.74,0,0,1,.56-.82A16.26,16.26,0,0,1,103.92,55Z"/><path class="cls-1" d="M43.88,46.14l16.19.38.18-.6q0-.08,0-.18a2.27,2.27,0,0,1,.18-1.29l-16.61-.39L42.4,11.2a6,6,0,0,0,.71-.26,4.77,4.77,0,0,1-.16-.73,6.37,6.37,0,0,1-2.75.58l-.5,0c0,.19-.05.38-.09.56a5.93,5.93,0,0,0,.72.1l2.1,49.37-1,.34v0c.05.49.06,1,.08,1.48a6,6,0,0,1,3.51-1l.25,0a7.21,7.21,0,0,1,.11-1.74c-.31.06-.62.12-.92.21Z"/><path class="cls-2" d="M85.52,92l-4.26-.36h-.08a.87.87,0,0,0-.68.34.86.86,0,0,0-.15.75l1.12,4.1,4.14-4.6a.12.12,0,0,0,0-.14A.12.12,0,0,0,85.52,92Z"/><path class="cls-3" d="M85.69,89.89l-4.26-.35a2.93,2.93,0,0,0-3.07,3.7L80,99.16a1,1,0,0,0,.76.74,1,1,0,0,0,.24,0,1,1,0,0,0,.77-.35l5.41-6a2.16,2.16,0,0,0,.41-2.29A2.21,2.21,0,0,0,85.69,89.89Zm-.08,2.3-4.14,4.6-1.12-4.1a.86.86,0,0,1,.15-.75.87.87,0,0,1,.68-.34h.08l4.26.36a.12.12,0,0,1,.12.09A.12.12,0,0,1,85.61,92.19Z"/><path class="cls-4" d="M102.27,41.13,92,26.24l-2.6-11.88a3.35,3.35,0,0,0-3.25-2.63,3.68,3.68,0,0,0-.58,0,1.28,1.28,0,0,1-1.47-1L82.25,1.09a1,1,0,0,0-2-.14L75.58,14.79a3.87,3.87,0,0,1-3.66,2.63,3.8,3.8,0,0,1-2.16-.67l-5.7-3.87a2.81,2.81,0,0,1-1-3.51,4.89,4.89,0,0,0-2.73-6.63L56,1.1a4.89,4.89,0,0,0-4.84.82L43.28,8.45a4.06,4.06,0,0,1-2.56.92,4.12,4.12,0,0,1-1.86-.45,5.84,5.84,0,0,0-7.25,1.52L19.48,25.56,6.08,31.69A9.91,9.91,0,0,0,1,44.61l7.2,17.11a4.58,4.58,0,0,1-.3,4.12l-.32.53a4.57,4.57,0,0,0,2.17,6.56A10.3,10.3,0,0,0,18,72.77l10.72-4.94a40.48,40.48,0,0,1,3.82-1.52l12.26-4.13a8.14,8.14,0,0,1,2.63-.43,8.26,8.26,0,0,1,7.15,4.14l2.16,3.78a3,3,0,0,0,4.75.53L63,68.61a1,1,0,0,1,.75-.33,1,1,0,0,1,.95.64L67.11,75a11.43,11.43,0,0,0,10.34,7.19l6.13.16h.36a14.5,14.5,0,0,0,12.3-6.89l1-1.61a8.53,8.53,0,0,1-1.8-1l-1,1.56a12.41,12.41,0,0,1-10.53,5.9c-.1,0-6.41.48-9.75-.86a5.51,5.51,0,0,1-2.83-1.84v0A9.28,9.28,0,0,1,69,74.27l-2.45-6.12a3.07,3.07,0,0,0-2.87-1.94,3,3,0,0,0-2.28,1L60,68.8a.89.89,0,0,1-.65.29.87.87,0,0,1-.77-.45L56.4,64.87c-1.83-3.21-5.31-5.77-8.95-5.19-5,.78-15.55,4.67-15.55,4.67a42.21,42.21,0,0,0-4,1.6L17.15,70.89a8.12,8.12,0,0,1-3.43.75A8.25,8.25,0,0,1,10.58,71,2.49,2.49,0,0,1,9.4,67.44l.32-.53a6.67,6.67,0,0,0,.42-6L3,43.81a7.85,7.85,0,0,1,4-10.23l13.62-6.24a1.1,1.1,0,0,0,.38-.29L33.23,11.74a3.74,3.74,0,0,1,2.94-1.41,3.91,3.91,0,0,1,1.74.42A6.1,6.1,0,0,0,44.6,10l7.87-6.53A2.84,2.84,0,0,1,55.26,3l4.38,1.64a2.8,2.8,0,0,1,1.61,1.57,2.76,2.76,0,0,1,0,2.25,4.86,4.86,0,0,0,1.69,6.09l5.74,3.9a5.91,5.91,0,0,0,3.27,1h0a5.94,5.94,0,0,0,5.62-4L81,5.31l1.15,5.87a3.34,3.34,0,0,0,3.27,2.69,2.78,2.78,0,0,0,.58,0,1.28,1.28,0,0,1,1.46,1l2.64,12.08a1,1,0,0,0,.16.36L100.57,42.3A19.17,19.17,0,0,1,104,54.18a18.79,18.79,0,0,1-2.85,9.35l-1.67,2.74A5.32,5.32,0,0,1,101,67.72l1.9-3.11a21.57,21.57,0,0,0-.63-23.48Z"/><path class="cls-3" d="M89.78,58.62l1.59,1.6-4,4-1.59-1.6a17.22,17.22,0,0,0,4-4m-.07-.77-.34.48a16.82,16.82,0,0,1-3.83,3.84l-.48.34.41.42,1.6,1.59.35.35.36-.35,3.94-3.95.36-.35-.36-.36-1.59-1.59-.42-.42Z"/><path class="cls-3" d="M75.8,33.1A15.5,15.5,0,1,1,60.3,48.6,15.53,15.53,0,0,1,75.8,33.1m0-.5h0a16,16,0,1,0,16,16,16.07,16.07,0,0,0-16-16Z"/><path class="cls-3" d="M92.59,61.43l8.22,8.23a2.78,2.78,0,0,1,0,3.94,2.79,2.79,0,0,1-4,0l-8.22-8.22,4-3.95m0-.7-.36.35-3.94,4-.36.35.36.36L96.51,74a3.3,3.3,0,0,0,4.65,0,3.28,3.28,0,0,0,0-4.66l-8.22-8.22-.35-.35Z"/><path class="cls-3" d="M98.83,76.06a4.4,4.4,0,0,1-3.13-1.3L84.36,63.42l0,0a17.15,17.15,0,1,1,6.35-6.35l0,.06L102,68.5a4.43,4.43,0,0,1-3.14,7.56Zm-2-2.4a2.87,2.87,0,1,0,4.07-4.06l-8.28-8.29-4.07,4.07Zm-9.38-9.37,4.07-4.07-1.72-1.73-.06.08a17,17,0,0,1-3.93,3.93l-.08.06ZM75.8,33A15.58,15.58,0,1,0,91.38,48.6,15.64,15.64,0,0,0,75.8,33Z"/><path class="cls-3" d="M75.8,31.72A16.86,16.86,0,0,1,90.44,57l-.13.22.18.18,11.3,11.3a4.18,4.18,0,1,1-5.91,5.9L84.59,63.29l-.19-.18-.22.13A16.88,16.88,0,1,1,75.8,31.72m0,32.71h0A15.83,15.83,0,1,0,60,48.6,15.89,15.89,0,0,0,75.8,64.43m11.62.21.24-.24,4-4,.23-.23L91.61,60,90,58.39l-.28-.28-.23.32a16.72,16.72,0,0,1-3.87,3.87l-.32.23.28.28,1.59,1.59.24.24M98.83,74.76h0A3.13,3.13,0,0,0,101,69.42L92.82,61.2,92.59,61l-.24.24-3.95,4-.24.23.24.24,8.22,8.22a3.12,3.12,0,0,0,2.21.92m-23-43.54a17.38,17.38,0,1,0,8.52,32.51L95.53,74.94a4.68,4.68,0,0,0,6.61-6.62l-11.2-11.2A17.37,17.37,0,0,0,75.8,31.22Zm0,32.71A15.33,15.33,0,1,1,91.13,48.6,15.4,15.4,0,0,1,75.8,63.93Zm10.28-1.34a17.45,17.45,0,0,0,3.72-3.71l1.34,1.34-3.72,3.71-1.34-1.34Zm2.79,2.79,3.72-3.71,8.1,8.1A2.63,2.63,0,1,1,97,73.49l-8.11-8.11Z"/><path class="cls-3" d="M75.8,60.66A12.07,12.07,0,1,1,87.87,48.6,12.07,12.07,0,0,1,75.8,60.66ZM75.8,38A10.57,10.57,0,1,0,86.37,48.6,10.58,10.58,0,0,0,75.8,38Z"/><path class="cls-3" d="M75.8,36.78A11.82,11.82,0,1,1,64,48.6,11.83,11.83,0,0,1,75.8,36.78m0,22.63A10.82,10.82,0,1,0,65,48.6,10.83,10.83,0,0,0,75.8,59.41m0-23.13A12.32,12.32,0,1,0,88.12,48.6,12.33,12.33,0,0,0,75.8,36.28Zm0,22.63A10.32,10.32,0,1,1,86.12,48.6,10.32,10.32,0,0,1,75.8,58.91Z"/></g></g></svg>