<svg xmlns="http://www.w3.org/2000/svg" viewBox="0 0 80.38 102.6"><defs><style>.cls-1,.cls-2{fill:none;stroke-linejoin:round;stroke-width:2.6px;}.cls-1{stroke:#242e3c;}.cls-2{stroke:#e60000;}</style></defs><title>Award</title><g id="Layer_2" data-name="Layer 2"><g id="Award"><circle class="cls-1" cx="40.19" cy="40.19" r="25.93"/><polygon class="cls-1" points="40.19 6.64 50.61 1.3 56.96 11.13 68.66 11.72 69.25 23.41 79.08 29.77 73.74 40.19 79.08 50.61 69.24 56.97 68.66 68.66 56.96 69.25 50.61 79.08 40.19 73.74 29.77 79.08 23.41 69.25 11.72 68.66 11.13 56.97 1.3 50.61 6.64 40.19 1.3 29.77 11.13 23.41 11.72 11.72 23.41 11.13 29.77 1.3 40.19 6.64"/><polygon class="cls-2" points="45.85 43.69 55 36.48 43.69 36.48 40.19 25.37 36.69 36.48 25.37 36.48 34.53 43.69 31.03 55 40.19 48.01 49.34 55 45.85 43.69"/><polyline class="cls-1" points="14.43 68.8 3.15 88.34 17.16 90.01 25.6 101.3 40.19 76.04 54.77 101.3 63.22 90.01 77.23 88.34 65.94 68.8"/></g></g></svg>