<svg xmlns="http://www.w3.org/2000/svg" viewBox="0 0 70.42 100"><defs><style>.cls-1{fill:#242e3c;}.cls-2{fill:#e60000;}</style></defs><title>Book</title><g id="Layer_2" data-name="Layer 2"><g id="Book"><path class="cls-1" d="M70.42,86.93H29.63V84.34H67.84V69.12H10.2a7.61,7.61,0,1,0,0,15.22h4.52v2.59H10.2a10.2,10.2,0,1,1,0-20.39H70.42Z"/><polygon class="cls-1" points="70.42 67.83 67.84 67.83 67.84 2.59 11.68 2.59 11.68 61.6 9.1 61.6 9.1 0 70.42 0 70.42 67.83"/><path class="cls-1" d="M2.59,76.73H0V10.2A10.2,10.2,0,0,1,10.2,0V2.59a7.61,7.61,0,0,0-7.61,7.6Z"/><path class="cls-2" d="M13.43,100V78.45H30.92V100l-8.75-6.31Zm8.74-9.5L28.33,95V80H16v14.9Z"/><path class="cls-2" d="M56.12,30.9H23.65V14.6H56.12ZM26.24,28.32H53.53V17.19H26.24Z"/><rect class="cls-2" x="23.65" y="36.17" width="32.47" height="2.59"/><rect class="cls-2" x="23.65" y="42.87" width="32.47" height="2.59"/><polygon class="cls-1" points="64.32 80.04 10.39 80.04 10.39 77.45 61.73 77.45 61.73 67.83 64.32 67.83 64.32 80.04"/></g></g></svg>