<?xml version="1.0" encoding="utf-8"?>
<!-- Generator: Adobe Illustrator 22.1.0, SVG Export Plug-In . SVG Version: 6.00 Build 0)  -->
<svg version="1.1"
	 id="Layer_1" xmlns:cc="http://creativecommons.org/ns#" xmlns:dc="http://purl.org/dc/elements/1.1/" xmlns:inkscape="http://www.inkscape.org/namespaces/inkscape" xmlns:rdf="http://www.w3.org/1999/02/22-rdf-syntax-ns#" xmlns:sodipodi="http://sodipodi.sourceforge.net/DTD/sodipodi-0.dtd" xmlns:svg="http://www.w3.org/2000/svg"
	 xmlns="http://www.w3.org/2000/svg" xmlns:xlink="http://www.w3.org/1999/xlink" x="0px" y="0px" viewBox="0 0 100 100"
	 style="enable-background:new 0 0 100 100;" xml:space="preserve">
<style type="text/css">
	.st0{fill:none;stroke:#E60000;stroke-width:2.5;stroke-miterlimit:10;}
	.st1{fill:none;stroke:#242E3C;stroke-width:2.5;stroke-miterlimit:10;}
</style>
<g id="g3767">
	<path id="path9" class="st0" d="M6,28.5v44h13.7v-44H6z M39.3,28.5c-3,0-13.6,8.2-15.2,8.2h-1.7v22h1.7c1.5,0,4.5,3.9,4.5,3.9
		l10.6,10.6c0,0,2.1,2,5.1,2s4-2,4-2s1.2,2,4.3,2c3.8,0,4.8-3.5,4.8-3.5s0.8,0.8,3.4,0.8c4.1,0,4.2-3.8,4.2-3.8s1.5,1,3,1
		c2.4,0,3.8-2.6,3.8-4.1c0-2.8-1.2-5-2-6.1c-1.3-1-3.8-3.7-10.4-10.9c-2.2-2.5-4.6-5.1-6.4-7.1c-2-2.2-2.9-3-3.3-3.3
		c-1.2,0.5-4.5,2.5-6.7,3.8c-5.6,3.4-7.3,4.3-8.3,4.3c-0.8,0-2.1-0.4-3.7-2.5c-0.4-0.5-1.7-2.4-1.7-4c0-0.7,0.2-1.3,3.2-4.2
		c1.6-1.6,3.9-3.7,6.3-5.8c0.4-0.4,0.8-0.7,1.2-1C39.8,28.6,39.5,28.5,39.3,28.5z M13,62.2c1.5,0,2.8,1.2,2.8,2.7s-1.2,2.7-2.8,2.7
		c-1.5,0-2.7-1.2-2.7-2.7S11.5,62.2,13,62.2z"/>
</g>
<path class="st1" d="M49.9,23c-1.5,0-19.2,15.3-19.2,16.9c0,1.5,2.6,5.1,4.1,5.1s13.6-8.2,15.2-8.2c1.5,0,19.7,22,21.2,22h6.3v-22
	c0,0-1.2-0.1-2.8-0.1C73.1,36.7,52.7,23,49.9,23z"/>
<rect x="80.2" y="28.5" class="st1" width="13.7" height="44"/>
<path class="st1" d="M87,62.2c1.5,0,2.7,1.2,2.7,2.7s-1.2,2.7-2.7,2.7s-2.8-1.2-2.8-2.7C84.3,63.4,85.5,62.2,87,62.2z"/>
</svg>
