<?xml version="1.0" encoding="utf-8"?>
<!-- Generator: Adobe Illustrator 22.1.0, SVG Export Plug-In . SVG Version: 6.00 Build 0)  -->
<svg version="1.1" id="Layer_1" xmlns="http://www.w3.org/2000/svg" xmlns:xlink="http://www.w3.org/1999/xlink" x="0px" y="0px"
	 viewBox="0 0 100 100" style="enable-background:new 0 0 100 100;" xml:space="preserve">
<style type="text/css">
	.st0{display:none;opacity:0.49;}
	.st1{display:inline;}
	.st2{fill:none;stroke:#949494;stroke-width:3;stroke-miterlimit:10;}
	.st3{fill:none;stroke:#E60000;stroke-width:3;stroke-miterlimit:10;}
</style>
<g id="Page-1" class="st0">
	<g id="Core" transform="translate(-170.000000, -86.000000)" class="st1">
		<g id="check-circle-outline-blank" transform="translate(170.000000, 86.000000)">
			<path id="Shape" d="M-38,52.5c-13.9,0-25.3,11.4-25.3,25.3s11.4,25.3,25.3,25.3c7.5,0,14.3-3.3,19-8.6c4-4.5,6.4-10.3,6.4-16.7
				c0-5.7-1.9-11-5.2-15.3C-22.4,56.5-29.8,52.5-38,52.5L-38,52.5z M-38,85.3c-4.1,0-7.5-3.4-7.5-7.5s3.4-7.5,7.5-7.5
				c2.1,0,3.9,0.8,5.3,2.2c1.4,1.4,2.2,3.2,2.2,5.3c0,2.1-0.8,3.9-2.2,5.3C-34,84.5-35.9,85.3-38,85.3L-38,85.3z"/>
		</g>
	</g>
</g>
<g id="Page-1_1_">
	<g id="Core_1_" transform="translate(-128.000000, -86.000000)">
		<g id="check-circle-outline" transform="translate(128.000000, 86.000000)">
			<path id="Shape_1_" class="st2" d="M55.6,70.4c-2.8,3.3-7.6,4.2-11.5,1.9c-4.3-2.5-5.8-8.1-3.3-12.4s8.1-5.8,12.4-3.3
				c0.8,0.5,1.4,1,2,1.5l16-11.1c-2.4-2.7-5.1-5.2-8.2-7c-6.6-3.8-14.2-4.6-21.1-2.9h-0.1L41.4,7.7H20.8v56.1c0,0,0,0.3,0,0.5
				c0,9.7,5,19.1,14,24.3c11.7,6.8,26.4,4.1,35-5.6c0.1-0.1,0.2-0.2,0.2-0.2L55.6,70.4L55.6,70.4z"/>
		</g>
	</g>
</g>
<polygon class="st3" points="81.2,74.9 74.7,75 73.8,76.9 72.7,78.7 55.2,64 73.7,51.3 74.2,52.5 75.3,55.4 81.2,55.4 "/>
</svg>
