<?xml version="1.0" encoding="utf-8"?>
<!-- Generator: Adobe Illustrator 22.1.0, SVG Export Plug-In . SVG Version: 6.00 Build 0)  -->
<svg version="1.1" id="Layer_1" xmlns="http://www.w3.org/2000/svg" xmlns:xlink="http://www.w3.org/1999/xlink" x="0px" y="0px"
	 viewBox="0 0 256 256" style="enable-background:new 0 0 256 256;" xml:space="preserve">
<style type="text/css">
	.st0{fill:#E60000;}
</style>
<path class="st0" d="M94.6,80.3h66.9V63.7H94.6V80.3z M245,163.7v62.5c0,5.7-2,10.6-6.1,14.7s-9,6.1-14.8,6.1H31.9
	c-5.7,0-10.7-2-14.8-6.1s-6.1-9-6.1-14.7v-62.5h87.8v20.8c0,2.3,0.8,4.2,2.5,5.9s3.6,2.5,5.9,2.5h41.8c2.3,0,4.2-0.8,5.9-2.5
	c1.7-1.6,2.5-3.6,2.5-5.9v-20.8H245z M144.7,163.7v16.7h-33.4v-16.7H144.7z M245,101.2v50H11v-50c0-5.7,2-10.6,6.1-14.7
	s9-6.1,14.8-6.1h46V59.5c0-3.5,1.2-6.4,3.7-8.9c2.4-2.4,5.4-3.6,8.9-3.6h75.2c3.5,0,6.4,1.2,8.9,3.6c2.4,2.4,3.7,5.4,3.7,8.9v20.8
	h46c5.7,0,10.7,2,14.8,6.1S245,95.4,245,101.2z"/>
</svg>
