<?xml version="1.0" encoding="utf-8"?>
<!-- Generator: Adobe Illustrator 22.1.0, SVG Export Plug-In . SVG Version: 6.00 Build 0)  -->
<svg version="1.1" id="Layer_1" xmlns="http://www.w3.org/2000/svg" xmlns:xlink="http://www.w3.org/1999/xlink" x="0px" y="0px"
	 viewBox="0 0 100 100" style="enable-background:new 0 0 100 100;" xml:space="preserve">
<style type="text/css">
	.st0{fill:#E60000;}
	.st1{fill:#485A65;}
</style>
<polygon class="st0" points="58.3,59.1 52.5,59.1 52.5,61.6 49.2,61.6 49.2,59.1 43.3,59.1 43.3,50.8 45.8,50.8 45.8,56.7 
	49.2,56.7 49.2,54.2 52.5,54.2 52.5,56.7 55.8,56.7 55.8,50.8 58.3,50.8 "/>
<g id="Layer_1_1_">
	<path class="st1" d="M62.8,25.7c0-3.5-2.9-6.4-6.4-6.4H43.6c-3.5,0-6.4,2.9-6.4,6.4v3.8H19.3v21.8h2.6v29.4h56.3V51.3h2.6V29.5
		H62.8V25.7z M39.8,25.7c0-2.1,1.8-3.9,3.9-3.9h12.8c2.1,0,3.9,1.8,3.9,3.9v3.8H39.8V25.7z M24.4,71.9c3.2,0.5,5.8,3.1,6.3,6.3h-6.3
		V71.9z M69.3,78.1c0.5-3.2,3.1-5.8,6.3-6.3v6.3H69.3z M75.6,51.3v18c-4.6,0.6-8.3,4.2-8.8,8.8H33.3c-0.6-4.6-4.2-8.3-8.8-8.8v-18
		 M78.1,48.8H57.7H42.3H21.9V32.1h56.3V48.8z"/>
</g>
</svg>
