<?xml version="1.0" encoding="utf-8"?>
<!-- Generator: Adobe Illustrator 23.0.6, SVG Export Plug-In . SVG Version: 6.00 Build 0)  -->
<svg version="1.1" id="Layer_1" xmlns="http://www.w3.org/2000/svg" xmlns:xlink="http://www.w3.org/1999/xlink" x="0px" y="0px"
	 viewBox="0 0 100 100" style="enable-background:new 0 0 100 100;" xml:space="preserve">
<style type="text/css">
	.st0{fill:none;}
	.st1{fill:#242E3C;}
	.st2{fill:#E60000;}
	.st3{fill:none;stroke:#E60000;stroke-width:3;stroke-linecap:round;stroke-linejoin:round;stroke-miterlimit:6.2;}
</style>
<path class="st0" d="M57.7,69.3L50,67L36.6,80.5c-1.3,1.3-3.5,1.3-4.8,0L18.3,67l-7.6,2.3c-3.2,1.1-5.4,4.1-5.4,7.6v17.7h5.6V83.1
	c-0.1-1.9,1.3-3.5,3.2-3.6s3.5,1.3,3.6,3.2c0,0.1,0,0.3,0,0.4v11.5h32.9V83.1c-0.1-1.9,1.3-3.5,3.2-3.6s3.5,1.3,3.6,3.2
	c0,0.1,0,0.3,0,0.4v11.5H63V76.9C63.1,73.5,60.9,70.4,57.7,69.3z"/>
<path class="st0" d="M34.2,54.8c7.7,0,14-6.3,14-14s-6.3-14-14-14s-14,6.3-14,14l0,0C20.2,48.5,26.5,54.8,34.2,54.8z"/>
<path class="st1" d="M65.2,64.6l-9.7-2.9c-0.5-0.2-1.1,0-1.5,0.4L40.2,75.9L26.4,62.1c-0.3-0.3-0.7-0.5-1.1-0.5
	c-0.1,0-0.3,0-0.4,0.1l-9.6,2.9c-5.3,1.7-8.9,6.7-8.9,12.3V98c0,0.4,0.2,0.8,0.5,1.1c0.3,0.3,0.7,0.4,1.1,0.5h64.6
	c0.9,0,1.5-0.7,1.6-1.6V76.9C74,71.3,70.5,66.3,65.2,64.6z M70.9,96.4h-9.3V83.1c0-0.9-0.7-1.6-1.6-1.6c-0.4,0-0.8,0.2-1.1,0.5
	s-0.5,0.7-0.5,1.1v13.3H21.9V83.1c0-0.9-0.7-1.6-1.5-1.6c-0.4,0-0.8,0.2-1.1,0.5s-0.5,0.7-0.5,1.1v13.3H9.4V76.9
	c0-4.2,2.7-8,6.7-9.3l8.7-2.6L39,79.2c0.6,0.6,1.6,0.6,2.2,0L55.5,65l8.7,2.6c4,1.3,6.7,5.1,6.7,9.3C70.9,76.9,70.9,96.4,70.9,96.4z
	"/>
<path class="st1" d="M40.2,59.8c10.5,0,18.9-8.5,18.9-18.9S50.6,22,40.2,22s-18.9,8.5-18.9,18.9l0,0C21.3,51.3,29.7,59.8,40.2,59.8z
	 M40.2,25L40.2,25C48.9,25,56,32.1,56,40.8s-7.1,15.8-15.8,15.8s-15.8-7.1-15.8-15.8l0,0C24.4,32.1,31.5,25.1,40.2,25z"/>
<path class="st2" d="M76.1,40.4c9.5,0,17.2-7.7,17.2-17.2S85.6,6,76.1,6s-17.2,7.7-17.2,17.2l0,0C58.9,32.7,66.6,40.4,76.1,40.4z
	 M76.1,8.8L76.1,8.8c7.9,0,14.4,6.4,14.4,14.4S84,37.6,76.1,37.6s-14.4-6.4-14.4-14.4l0,0C61.7,15.3,68.2,8.9,76.1,8.8z"/>
<g>
	<path id="path851" class="st3" d="M85.1,19.1c0.3-0.2,0.3-0.7,0-1l-3.5-3.5c-0.3-0.3-0.7-0.3-1,0l-5.6,5.6l-5.6,5.6
		c-0.3,1.9-0.6,3.6-0.9,5.5l5.4-0.9c2.9-2.9,4.3-4.3,5.7-5.7C80.8,23.3,82.3,21.9,85.1,19.1L85.1,19.1z"/>
	<path id="rect919" class="st2" d="M79.2,23.7L79.2,23.7c-0.2,0.2-0.4,0.2-0.6,0.1l-2.8-2.8c-0.2-0.2-0.2-0.4,0-0.5l0.1-0.1
		c0.2-0.2,0.4-0.2,0.5,0l2.8,2.8C79.3,23.3,79.3,23.6,79.2,23.7z"/>
	<path id="path925" class="st2" d="M70.7,31.2L68.4,29l-0.1,2.3L70.7,31.2z"/>
	<path id="rect927" class="st2" d="M72.6,30.3L72.6,30.3c-0.2,0.2-0.4,0.2-0.6,0.1l-2.8-2.8c-0.2-0.2-0.2-0.4,0-0.5l0.1-0.1
		c0.2-0.2,0.4-0.2,0.5,0l2.8,2.8C72.7,29.9,72.7,30.1,72.6,30.3z"/>
</g>
</svg>
