<?xml version="1.0" encoding="utf-8"?>
<!-- Generator: Adobe Illustrator 23.0.6, SVG Export Plug-In . SVG Version: 6.00 Build 0)  -->
<svg version="1.1" id="Layer_1" xmlns="http://www.w3.org/2000/svg" xmlns:xlink="http://www.w3.org/1999/xlink" x="0px" y="0px"
	 viewBox="0 0 100 100" style="enable-background:new 0 0 100 100;" xml:space="preserve">
<style type="text/css">
	.st0{fill:none;}
	.st1{fill:#242E3C;}
	.st2{fill:#E60000;}
	.st3{fill:none;stroke:#E60000;stroke-width:2;stroke-linecap:round;stroke-linejoin:round;stroke-miterlimit:6.2;}
</style>
<path class="st0" d="M1,0h100v100H1V0z"/>
<path class="st1" d="M100,0H-0.1L0,10v65.5h30V100l20-10.3L70,100V75.5h30V10V0z M97,72H66.5v22L50,85l-16.5,9V72H3V50.4h94V72z
	 M97,47.2H3V3h94V47.2z"/>
<path id="XMLID_11_" class="st2" d="M49.6,9.2c9,0,16.4,7.3,16.4,16.4S58.6,42,49.6,42s-16.4-7.3-16.4-16.4S40.5,9.2,49.6,9.2
	L49.6,9.2z M49.6,6.2c-10.7,0-19.4,8.7-19.4,19.4S38.9,45,49.6,45S69,36.3,69,25.6S60.3,6.2,49.6,6.2z"/>
<g>
	<path id="path851" class="st3" d="M61.1,20.2c0.4-0.3,0.4-0.9,0-1.3l-4.3-4.3c-0.4-0.4-0.9-0.4-1.3,0l-7,7l-7,7
		c-0.4,2.3-0.7,4.5-1.1,6.8l6.7-1.1c3.6-3.6,5.4-5.4,7.1-7.1C55.8,25.4,57.6,23.7,61.1,20.2L61.1,20.2z"/>
	<path id="rect919" class="st2" d="M53.8,25.9L53.8,25.9c-0.2,0.2-0.5,0.2-0.7,0.1l-3.5-3.5c-0.2-0.2-0.2-0.5,0-0.6l0.1-0.1
		c0.2-0.2,0.5-0.2,0.6,0l3.5,3.5C53.9,25.5,53.9,25.8,53.8,25.9z"/>
	<path id="path925" class="st2" d="M43.2,35.3l-2.8-2.8l-0.1,2.9L43.2,35.3z"/>
	<path id="rect927" class="st2" d="M45.6,34.1L45.6,34.1c-0.2,0.2-0.5,0.2-0.7,0.1l-3.5-3.5c-0.2-0.2-0.2-0.5,0-0.6l0.1-0.1
		c0.2-0.2,0.5-0.2,0.6,0l3.5,3.5C45.7,33.7,45.7,33.9,45.6,34.1z"/>
</g>
</svg>
