<?xml version="1.0" encoding="utf-8"?>
<!-- Generator: Adobe Illustrator 22.1.0, SVG Export Plug-In . SVG Version: 6.00 Build 0)  -->
<svg version="1.1" id="Layer_1" xmlns="http://www.w3.org/2000/svg" xmlns:xlink="http://www.w3.org/1999/xlink" x="0px" y="0px"
	 viewBox="0 0 100 100" style="enable-background:new 0 0 100 100;" xml:space="preserve">
<style type="text/css">
	.st0{fill:#949494;}
	.st1{fill:#E60000;}
</style>
<path class="st0" d="M53.6,65.9l-8-2.4c-0.4-0.2-0.9,0-1.2,0.3L33.1,75.2L21.8,63.8c-0.2-0.2-0.6-0.4-0.9-0.4c-0.1,0-0.2,0-0.3,0.1
	l-7.9,2.4C8.4,67.3,5.4,71.4,5.4,76v17.3c0,0.3,0.2,0.7,0.4,0.9s0.6,0.3,0.9,0.4h53c0.7,0,1.2-0.6,1.3-1.3V76
	C60.8,71.4,58,67.3,53.6,65.9z M58.3,92h-7.6V81.1c0-0.7-0.6-1.3-1.3-1.3c-0.3,0-0.7,0.2-0.9,0.4S48,80.7,48,81.1V92H18.1V81.1
	c0-0.7-0.6-1.3-1.2-1.3c-0.3,0-0.7,0.2-0.9,0.4s-0.4,0.6-0.4,0.9V92H7.9V76c0-3.4,2.2-6.6,5.5-7.6l7.1-2.1l11.6,11.6
	c0.5,0.5,1.3,0.5,1.8,0l11.7-11.6l7.1,2.1c3.3,1.1,5.5,4.2,5.5,7.6C58.3,76,58.3,92,58.3,92z"/>
<path class="st0" d="M33.1,62c8.6,0,15.5-7,15.5-15.5S41.6,31,33.1,31s-15.5,7-15.5,15.5l0,0C17.6,55,24.5,62,33.1,62z M33.1,33.4
	L33.1,33.4c7.1,0,13,5.8,13,13s-5.8,13-13,13s-13-5.8-13-13l0,0C20.2,39.2,26,33.5,33.1,33.4z"/>
<path class="st1" d="M92.2,32.9v5.8l-5.1,2.9l-2.9,5.1h-0.8l0,0v21.8l0,0c0,0.4-0.1,0.8-0.4,1c-0.3,0.3-0.6,0.4-1,0.4l0,0
	c-0.4,0-0.8-0.3-1.2-0.6l-7.6-7.6l-7.6,7.6C65.4,69.7,65,70,64.5,70l0,0c-0.4,0-0.8-0.1-1-0.4c-0.3-0.3-0.4-0.6-0.4-1l0,0V46.7l0,0
	h-0.8l-2.9-5.1l-5.1-2.9v-5.8l-2.9-5.1l2.9-5.1v-5.9l5.1-2.9l2.9-5.1h5.8L73.3,6l5.1,2.9h5.8l2.9,5.1l5.1,2.9v5.8l2.9,5.1L92.2,32.9
	z M64.7,46.7v20.9l7.4-7.4c0.1-0.1,0.1-0.1,0.1-0.2c0.3-0.3,0.6-0.4,1-0.4c0.4,0,0.8,0.1,1,0.4c0.1,0.1,0.1,0.1,0.1,0.2l7.4,7.4
	V46.7h-1.3h-2.2l-5,2.9l-5.1-2.9H66H64.7z M90.2,23.3V18l-4.5-2.6l-2.6-4.5h-5.2l-4.5-2.6l-4.5,2.6h-5.2l-2.6,4.5L56.3,18v5.2
	l-2.6,4.5l2.6,4.5v5.2l4.5,2.6l2.6,4.5h5.2l4.5,2.6l4.5-2.6h5.2l2.6-4.5l4.5-2.6v-5.2l2.6-4.5L90.2,23.3z"/>
<path id="XMLID_11_" class="st1" d="M73,17c5.8,0,10.5,4.7,10.5,10.5S78.8,38,73,38c-5.8,0-10.5-4.7-10.5-10.5S67.2,17,73,17L73,17z
	 M73,15.1c-6.8,0-12.4,5.6-12.4,12.4S66.2,39.9,73,39.9s12.4-5.6,12.4-12.4S79.9,15.1,73,15.1z"/>
<path id="XMLID_8_" class="st1" d="M71.2,28.7l6-6c0.9-0.9,2.4-0.9,3.3,0c0.9,0.9,0.9,2.4,0,3.3c-2.6,2.5-5.1,5.1-7.6,7.6
	c-0.9,0.9-2.2,0.9-3.1,0.1c-0.1-0.1-0.1-0.1-0.1-0.1l-4.3-4.3c-0.9-0.9-0.9-2.4,0-3.3c0.9-0.9,2.4-0.9,3.3,0L71.2,28.7L71.2,28.7z
	 M71.2,31L68,27.8c-0.6-0.6-1.2-0.7-1.3-0.7c-0.8,0-0.3,1,0.4,1.6l3,3l0,0l0,0c0.6,0.6,1.2,1.2,2.2,0c5.8-5.8,0.5-0.5,6.3-6.3
	c0.6-0.6,1.2-1,0.6-1.5c-0.6-0.6-1,0.1-1.5,0.6L71.2,31z"/>
</svg>
