<?xml version="1.0" encoding="utf-8"?>
<!-- Generator: Adobe Illustrator 22.1.0, SVG Export Plug-In . SVG Version: 6.00 Build 0)  -->
<svg version="1.1" id="Layer_1" xmlns="http://www.w3.org/2000/svg" xmlns:xlink="http://www.w3.org/1999/xlink" x="0px" y="0px"
	 viewBox="0 0 100 100" style="enable-background:new 0 0 100 100;" xml:space="preserve">
<style type="text/css">
	.st0{fill:#949494;}
	.st1{fill:#E60000;}
	.st2{fill:none;stroke:#E60000;stroke-width:2;stroke-miterlimit:10;}
</style>
<path class="st0" d="M57.8,51.5v7.1l-6.2,3.6L48,68.4H47l0,0v26.8l0,0c0,0.5-0.2,0.9-0.5,1.3s-0.8,0.5-1.3,0.5l0,0
	c-0.5,0-1-0.3-1.4-0.7L34.6,87l-9.3,9.3C25,96.7,24.5,97,23.9,97l0,0c-0.5,0-0.9-0.2-1.3-0.5c-0.3-0.3-0.5-0.8-0.5-1.3l0,0V68.4l0,0
	h-0.9l-3.6-6.2l-6.2-3.6v-7.1l-3.6-6.2l3.6-6.2v-7.2l6.2-3.6l3.6-6.2h7.1l6.3-3.5l6.2,3.6H48l3.6,6.2l6.2,3.6v7.1l3.6,6.2L57.8,51.5
	z M24.1,68.4v25.7l9-9c0.1-0.1,0.1-0.2,0.2-0.2c0.3-0.3,0.8-0.5,1.3-0.5c0.5,0,0.9,0.2,1.3,0.5c0.1,0.1,0.1,0.2,0.2,0.2l9,9V68.4
	h-1.6h-2.7L34.6,72l-6.2-3.6h-2.7H24.1z M55.4,39.7v-6.4l-5.6-3.2l-3.2-5.6h-6.4l-5.6-3.2l-5.6,3.2h-6.4l-3.2,5.6l-5.6,3.2v6.4
	l-3.2,5.6l3.2,5.6v6.4l5.6,3.2l3.2,5.6h6.4l5.6,3.2l5.6-3.2h6.4l3.2-5.6l5.6-3.2v-6.4l3.2-5.6L55.4,39.7z"/>
<path id="XMLID_11_" class="st1" d="M35.3,32c7.1,0,12.9,5.7,12.9,12.9s-5.8,12.9-12.9,12.9S22.5,52,22.5,44.9S28.2,32,35.3,32
	L35.3,32z M35.3,29.7c-8.4,0-15.2,6.8-15.2,15.2s6.8,15.2,15.2,15.2s15.2-6.8,15.2-15.2S43.7,29.7,35.3,29.7z"/>
<path id="XMLID_8_" class="st1" d="M33,46.3l7.3-7.3c1.1-1.1,2.9-1.1,4.1,0c1.1,1.1,1.1,2.9,0,4.1c-3.1,3.1-6.2,6.2-9.3,9.3
	c-1.1,1.1-2.7,1.1-3.8,0.2c-0.1-0.1-0.2-0.1-0.2-0.2l-5.3-5.3c-1.1-1.1-1.1-2.9,0-4.1c1.1-1.1,2.9-1.1,4.1,0L33,46.3L33,46.3z
	 M33,49.2l-3.9-3.9c-0.7-0.7-1.4-0.9-1.6-0.9c-1,0-0.3,1.3,0.5,2l3.7,3.7l0,0l0,0c0.7,0.7,1.4,1.4,2.7,0c7.1-7.1,0.6-0.6,7.8-7.7
	c0.7-0.7,1.5-1.2,0.8-1.9c-0.7-0.7-1.2,0.1-1.9,0.8L33,49.2z"/>
<g id="Layer_2_2_">
	<g id="Cogwheels">
		<path class="st2" d="M94.3,16.4L91,16.2c-0.5-1.2-1.2-2.3-2-3.3l1.3-3.1c0.2-0.3,0.1-0.8-0.2-1L86.2,6c-0.3-0.2-0.8-0.2-1,0.2l0,0
			l-2.6,2.1c-1.2-0.5-2.5-0.8-3.8-0.9l-1.2-3.1c-0.1-0.4-0.4-0.7-0.8-0.6L72,4.4c-0.4,0.1-0.7,0.4-0.6,0.8l0,0l-0.2,3.3
			c-1.2,0.5-2.3,1.2-3.3,2l-3.1-1.3c-0.3-0.2-0.8-0.1-1,0.2l-2.9,4c-0.2,0.3-0.1,0.8,0.2,1l2.2,2.5c-0.5,1.2-0.7,2.5-0.9,3.8
			l-3.1,1.2c-0.4,0.1-0.6,0.4-0.6,0.8l0.7,4.8c0.1,0.4,0.4,0.7,0.8,0.6l3.3,0.2c0.5,1.2,1.2,2.3,2,3.3l-1.3,3.1
			c-0.2,0.3-0.1,0.8,0.2,1l3.9,2.9c0.3,0.2,0.8,0.1,1-0.2l2.6-2.1c1.2,0.4,2.5,0.7,3.8,0.9l1.2,3.1c0.1,0.4,0.4,0.7,0.8,0.6l4.7-0.7
			c0.4-0.1,0.7-0.4,0.6-0.8l0.2-3.3c1.2-0.5,2.3-1.2,3.3-2l3.1,1.3c0.3,0.2,0.8,0.1,1-0.2l2.8-3.9c0.2-0.3,0.1-0.8-0.2-1L91,27.8
			c0.5-1.2,0.8-2.5,0.9-3.8l3.1-1.2c0.4-0.1,0.7-0.4,0.6-0.8l-0.8-4.8C95.1,16.6,94.7,16.3,94.3,16.4L94.3,16.4z M80.7,28.1
			c-3.2,1.9-7.4,0.8-9.3-2.4s-0.8-7.4,2.4-9.3c3.2-1.9,7.4-0.8,9.3,2.4C85,22,84,26.2,80.7,28.1L80.7,28.1L80.7,28.1z"/>
	</g>
</g>
</svg>
