<?xml version="1.0" encoding="utf-8"?>
<!-- Generator: Adobe Illustrator 22.1.0, SVG Export Plug-In . SVG Version: 6.00 Build 0)  -->
<svg version="1.1" id="Layer_1" xmlns="http://www.w3.org/2000/svg" xmlns:xlink="http://www.w3.org/1999/xlink" x="0px" y="0px"
	 viewBox="0 0 100 100" style="enable-background:new 0 0 100 100;" xml:space="preserve">
<style type="text/css">
	.st0{fill:#949494;}
	.st1{fill:#E60000;}
</style>
<path class="st0" d="M79.5,42v9.1l-7.9,4.6L67,63.6h-1.2l0,0v34.1l0,0c0,0.6-0.2,1.2-0.6,1.6s-1,0.7-1.6,0.6l0,0
	c-0.7,0-1.3-0.4-1.8-0.9L50,87.2L38.1,99.1c-0.4,0.5-1,0.9-1.8,0.9l0,0c-0.6,0-1.2-0.2-1.6-0.6c-0.4-0.4-0.7-1-0.6-1.6l0,0V63.6l0,0
	h-1.2l-4.6-7.9l-7.9-4.6V42l-4.6-7.9l4.6-7.9V17l7.9-4.6l4.6-7.9H42L50,0l7.9,4.6H67l4.6,7.9l7.9,4.6v9.1l4.6,7.9L79.5,42z
	 M36.6,63.6v32.7l11.5-11.5c0.1-0.1,0.1-0.2,0.2-0.3c0.4-0.4,1-0.7,1.6-0.6c0.6,0,1.2,0.2,1.6,0.6c0.1,0.1,0.1,0.2,0.2,0.3
	l11.5,11.5V63.6h-2h-3.4L50,68.2l-7.9-4.6h-3.5H36.6z M76.5,27v-8.2l-7.1-4.1l-4.1-7.1h-8.2L50,3.5l-7.1,4.1h-8.2l-4.1,7.1l-7.1,4.1
	V27l-4.1,7.1l4.1,7.1v8.2l7.1,4.1l4.1,7.1h8.2l7.1,4.1l7.1-4.1h8.2l4.1-7.1l7.1-4.1v-8.2l4.1-7.1L76.5,27z"/>
<path id="XMLID_11_" class="st1" d="M49.6,17.2c9,0,16.4,7.3,16.4,16.4S58.6,50,49.6,50s-16.4-7.3-16.4-16.4S40.5,17.2,49.6,17.2
	L49.6,17.2z M49.6,14.2c-10.7,0-19.4,8.7-19.4,19.4S38.9,53,49.6,53S69,44.3,69,33.6S60.3,14.2,49.6,14.2z"/>
<path id="XMLID_8_" class="st1" d="M46.7,35.4l9.3-9.3c1.4-1.4,3.7-1.4,5.2,0c1.4,1.4,1.4,3.7,0,5.2c-4,3.9-7.9,7.9-11.9,11.8
	c-1.4,1.4-3.5,1.4-4.9,0.2c-0.1-0.1-0.2-0.1-0.2-0.2l-6.7-6.7c-1.4-1.4-1.4-3.7,0-5.2c1.4-1.4,3.7-1.4,5.2,0L46.7,35.4L46.7,35.4z
	 M46.7,39.1l-5-5c-0.9-0.9-1.8-1.1-2-1.1c-1.3,0-0.4,1.6,0.6,2.5l4.7,4.7l0,0l0,0c0.9,0.9,1.8,1.8,3.4,0c9.1-9,0.8-0.8,9.9-9.8
	c0.9-0.9,1.9-1.5,1-2.4s-1.5,0.1-2.4,1L46.7,39.1z"/>
</svg>
