<svg xmlns="http://www.w3.org/2000/svg" viewBox="0 0 105.6 77.78"><defs><style>.cls-1,.cls-2{fill:none;stroke-miterlimit:10;stroke-width:2.6px;}.cls-1{stroke:#242e3c;}.cls-2{stroke:#e60000;}</style></defs><title>Cogwheels</title><g id="Layer_2" data-name="Layer 2"><g id="Cogwheels"><path class="cls-1" d="M23.74,70.34l1.15,5A1.12,1.12,0,0,0,26,76.48h7.46a1.12,1.12,0,0,0,1.12-1.12l1.15-5a22.77,22.77,0,0,0,5.53-2.28l4.36,2.73a1.11,1.11,0,0,0,1.58,0l5.28-5.28a1.12,1.12,0,0,0,0-1.58l-2.74-4.36A22.63,22.63,0,0,0,52,54l5-1.15a1.12,1.12,0,0,0,1.12-1.12V44.31a1.12,1.12,0,0,0-1.12-1.12L52,42a22.8,22.8,0,0,0-2.29-5.53l2.74-4.36a1.13,1.13,0,0,0,0-1.58l-5.28-5.28a1.13,1.13,0,0,0-1.58,0L41.27,28a22.77,22.77,0,0,0-5.53-2.28l-1.15-5a1.12,1.12,0,0,0-1.12-1.12H26a1.12,1.12,0,0,0-1.12,1.12l-1.15,5A23.18,23.18,0,0,0,18.21,28l-4.35-2.73a1.14,1.14,0,0,0-1.59,0L7,30.57a1.13,1.13,0,0,0,0,1.58l2.73,4.36A23,23,0,0,0,7.44,42l-5,1.15A1.12,1.12,0,0,0,1.3,44.31v7.46a1.12,1.12,0,0,0,1.12,1.12l5,1.15a23.18,23.18,0,0,0,2.28,5.53L7,63.92a1.14,1.14,0,0,0,0,1.59l5.28,5.28a1.13,1.13,0,0,0,1.58,0l4.36-2.74A22.63,22.63,0,0,0,23.74,70.34Zm6-34.11A11.81,11.81,0,1,1,17.93,48,11.82,11.82,0,0,1,29.74,36.23Z"/><path class="cls-2" d="M103.7,29.67l-3.57-2.47a17.65,17.65,0,0,0-.09-5.07l3.52-2.58a1,1,0,0,0,.5-1.25l-2.51-5.81a.94.94,0,0,0-1.24-.49L96,12.78a19.63,19.63,0,0,0-3.64-3.53l.67-4.31a1,1,0,0,0-.54-1.24L86.64,1.37a.94.94,0,0,0-1.23.53L82.94,5.48a17.13,17.13,0,0,0-5.08.08L75.28,2A1,1,0,0,0,74,1.55l-5.81,2.5a1,1,0,0,0-.49,1.25l.78,4.28A19.63,19.63,0,0,0,65,13.22l-4.31-.67a1,1,0,0,0-1.23.54L57.1,19a1,1,0,0,0,.53,1.24l3.58,2.46a16.37,16.37,0,0,0,.08,5.08l-3.52,2.58a1,1,0,0,0-.49,1.25l2.5,5.81a1,1,0,0,0,1.25.5l4.28-.79A19.63,19.63,0,0,0,69,40.62l-.66,4.31a1,1,0,0,0,.53,1.24L74.7,48.5A.94.94,0,0,0,75.93,48l2.46-3.58a17.81,17.81,0,0,0,5.09-.08l2.58,3.52a1,1,0,0,0,1.24.5l5.81-2.51a1,1,0,0,0,.5-1.25l-.79-4.28a19.63,19.63,0,0,0,3.53-3.64l4.31.66a1,1,0,0,0,1.24-.53l2.33-5.88A.94.94,0,0,0,103.7,29.67Zm-23,4.14a8.88,8.88,0,1,1,8.89-8.87A8.87,8.87,0,0,1,80.66,33.81Z"/></g></g></svg>