<svg xmlns="http://www.w3.org/2000/svg" viewBox="0 0 99.33 99.5"><defs><style>.cls-1{fill:none;}.cls-2{fill:#242e3c;}.cls-3{fill:#e60000;}</style></defs><title>Cogwheel</title><g id="Layer_2" data-name="Layer 2"><g id="Cogwheel"><path class="cls-1" d="M77.87,55.88a28.93,28.93,0,0,0-28.2-35.07A28.94,28.94,0,0,0,20.8,49.75a28.77,28.77,0,0,0,.66,6.13c.14.65.31,1.31.49,1.95a28.84,28.84,0,0,0,55.43,0C77.56,57.18,77.73,56.53,77.87,55.88Z"/><path class="cls-1" d="M90.26,45.93a41.86,41.86,0,0,0-.64-4.37c-.28-1.35-.62-2.68-1-3.94a1.38,1.38,0,0,1,.79-1.68l4.77-2-2-4.72-4.77,2a1.31,1.31,0,0,1-.54.11,1.4,1.4,0,0,1-1.22-.73,40.41,40.41,0,0,0-4.62-6.91,1.38,1.38,0,0,1,.08-1.86l3.66-3.66-3.62-3.62L77.51,18.2a1.37,1.37,0,0,1-1,.4,1.35,1.35,0,0,1-.88-.32,41.2,41.2,0,0,0-7.05-4.7A1.38,1.38,0,0,1,68,11.83l2-4.78L65.2,5.1l-2,4.77a1.4,1.4,0,0,1-1.29.86,1.44,1.44,0,0,1-.4-.06,40,40,0,0,0-8.15-1.6,1.38,1.38,0,0,1-1.26-1.38V2.51h-5V7.69a1.39,1.39,0,0,1-1.26,1.38,40,40,0,0,0-8.15,1.6,1.45,1.45,0,0,1-.41.06,1.4,1.4,0,0,1-1.28-.86l-2-4.77-4.74,2,2,4.78a1.37,1.37,0,0,1-.63,1.75,41.2,41.2,0,0,0-7,4.7,1.39,1.39,0,0,1-1.86-.08l-3.66-3.66-3.62,3.62,3.66,3.66a1.38,1.38,0,0,1,.08,1.86,40.41,40.41,0,0,0-4.62,6.91,1.39,1.39,0,0,1-1.22.73,1.23,1.23,0,0,1-.53-.11l-4.78-2L5.16,34l4.77,2a1.37,1.37,0,0,1,.79,1.68c-.39,1.25-.73,2.58-1,3.94a41.86,41.86,0,0,0-.64,4.37,1.39,1.39,0,0,1-1.38,1.26H2.51v5.12H7.69a1.39,1.39,0,0,1,1.38,1.25,39.24,39.24,0,0,0,.65,4.38,37.27,37.27,0,0,0,.95,3.78,1.39,1.39,0,0,1-.8,1.69l-4.77,2,2,4.74,4.78-2a1.44,1.44,0,0,1,.53-.11,1.38,1.38,0,0,1,1.22.74,41.2,41.2,0,0,0,4.7,7,1.38,1.38,0,0,1-.08,1.86l-3.66,3.66L18.16,85l3.66-3.66a1.39,1.39,0,0,1,1.86-.08,41.06,41.06,0,0,0,6.91,4.63,1.38,1.38,0,0,1,.62,1.75l-2,4.77,4.73,2,2-4.77a1.38,1.38,0,0,1,1.27-.84,1.45,1.45,0,0,1,.41.06,40.76,40.76,0,0,0,8.31,1.64,1.39,1.39,0,0,1,1.26,1.38V97h5V91.81a1.39,1.39,0,0,1,1.25-1.38,40.59,40.59,0,0,0,8.32-1.64,1.45,1.45,0,0,1,.41-.06,1.36,1.36,0,0,1,1.27.84l2,4.77,4.73-2-2-4.77a1.38,1.38,0,0,1,.62-1.75,41.06,41.06,0,0,0,6.91-4.63,1.35,1.35,0,0,1,.88-.32,1.37,1.37,0,0,1,1,.4L81.17,85l3.62-3.62-3.66-3.66a1.38,1.38,0,0,1-.08-1.86,41.2,41.2,0,0,0,4.7-7,1.36,1.36,0,0,1,1.75-.63l4.78,2,2-4.74-4.77-2a1.39,1.39,0,0,1-.8-1.69,38,38,0,0,0,1-3.78,39.24,39.24,0,0,0,.65-4.38,1.4,1.4,0,0,1,1.38-1.25h5.18V47.19H91.64A1.39,1.39,0,0,1,90.26,45.93ZM80.57,56.46c-.15.71-.34,1.43-.54,2.14a31.6,31.6,0,0,1-60.73,0c-.21-.71-.39-1.42-.54-2.14a31.63,31.63,0,0,1,.54-15.55A31.87,31.87,0,0,1,49.66,18h0A31.71,31.71,0,0,1,81.29,49.75,31.55,31.55,0,0,1,80.57,56.46Z"/><path class="cls-2" d="M98.2,44.68H92.66l0-.22c-.14-1.14-.32-2.28-.55-3.4s-.44-2-.71-3l-.06-.21.2-.09,4.9-2a1.08,1.08,0,0,0,.61-.61,1.1,1.1,0,0,0,0-.87L94,27a1.16,1.16,0,0,0-.62-.61,1.06,1.06,0,0,0-.43-.08,1,1,0,0,0-.43.08L87.6,28.42l-.2.08-.11-.19a43.82,43.82,0,0,0-3.52-5.26l-.14-.17.16-.16L87.54,19a1.1,1.1,0,0,0,.34-.8,1.15,1.15,0,0,0-.33-.8L82,11.79a1.16,1.16,0,0,0-1.6,0l-3.76,3.75-.16.16-.17-.13A43.89,43.89,0,0,0,70.87,12l-.19-.11.08-.2,2-4.92a1.14,1.14,0,0,0,0-.87,1.11,1.11,0,0,0-.61-.61l-7.29-3a1.07,1.07,0,0,0-.43-.09,1.12,1.12,0,0,0-1,.7l-2,4.91L61.3,8l-.21-.06A41.71,41.71,0,0,0,54.87,6.7l-.22,0V1.13A1.13,1.13,0,0,0,53.52,0H45.81a1.13,1.13,0,0,0-1.13,1.13V6.67l-.22,0a41.71,41.71,0,0,0-6.22,1.22L38,8,38,7.77l-2-4.91a1.12,1.12,0,0,0-1-.7,1.07,1.07,0,0,0-.43.09l-7.29,3a1.16,1.16,0,0,0-.62.61,1.19,1.19,0,0,0,0,.87l2,4.92.08.2-.19.11a42.78,42.78,0,0,0-5.41,3.61l-.18.13-.15-.16L19,11.79a1.16,1.16,0,0,0-1.6,0l-5.57,5.57a1.12,1.12,0,0,0-.34.8,1.1,1.1,0,0,0,.34.8l3.75,3.76.16.16-.14.17A44.22,44.22,0,0,0,12,28.31l-.11.19-.2-.08L6.82,26.37a1,1,0,0,0-.43-.08,1.06,1.06,0,0,0-.43.08,1.16,1.16,0,0,0-.62.61l-3,7.28a1.1,1.1,0,0,0,0,.87,1.08,1.08,0,0,0,.61.61l4.9,2,.2.09L8,38.08c-.27,1-.51,2-.71,3s-.41,2.27-.55,3.4l0,.22H1.13A1.13,1.13,0,0,0,0,45.81v7.88a1.14,1.14,0,0,0,1.13,1.14H6.67l0,.21c.14,1.13.32,2.27.55,3.4.19.94.42,1.89.67,2.82l.06.21-.21.08-4.9,2a1.12,1.12,0,0,0-.62,1.47l3,7.29a1.16,1.16,0,0,0,.61.62,1.12,1.12,0,0,0,.44.09A1.07,1.07,0,0,0,6.73,73l4.91-2,.21-.08L12,71a42.36,42.36,0,0,0,3.6,5.41l.14.18-.16.15-3.75,3.76a1.11,1.11,0,0,0,0,1.6l5.57,5.58a1.19,1.19,0,0,0,1.6,0L22.72,84l.15-.16.18.14a44.22,44.22,0,0,0,5.26,3.52l.19.11-.08.21-2.05,4.9A1.14,1.14,0,0,0,27,94.16l7.28,3a1.07,1.07,0,0,0,.43.09,1.13,1.13,0,0,0,1.05-.7l2-4.89.08-.21.22.06a42.36,42.36,0,0,0,6.38,1.26l.22,0v5.54a1.13,1.13,0,0,0,1.13,1.13h7.71a1.13,1.13,0,0,0,1.13-1.13V92.83l.22,0a42.6,42.6,0,0,0,6.38-1.26l.21-.06.09.21,2,4.89a1.13,1.13,0,0,0,1,.7,1.07,1.07,0,0,0,.43-.09l7.28-3a1.14,1.14,0,0,0,.61-.61,1.19,1.19,0,0,0,0-.87l-2-4.9-.08-.21.19-.11a42.66,42.66,0,0,0,5.26-3.52l.17-.14.16.16,3.76,3.76a1.19,1.19,0,0,0,1.6,0l5.57-5.58a1.11,1.11,0,0,0,0-1.6l-3.75-3.76-.16-.15.14-.18A43.81,43.81,0,0,0,87.37,71l.11-.19.21.08,4.91,2a1.07,1.07,0,0,0,.43.09,1.12,1.12,0,0,0,.44-.09,1.16,1.16,0,0,0,.61-.62l3-7.29a1.12,1.12,0,0,0-.62-1.47l-4.9-2-.21-.08.06-.21c.25-.93.48-1.88.67-2.82.23-1.14.41-2.28.55-3.39l0-.22H98.2a1.14,1.14,0,0,0,1.13-1.14V45.81A1.13,1.13,0,0,0,98.2,44.68Zm-1.13,2.51v5.37H91.64a1.15,1.15,0,0,0-1.13,1,39.93,39.93,0,0,1-.65,4.4c-.27,1.32-.59,2.6-1,3.81a1.12,1.12,0,0,0,.65,1.37l4.77,2,.24.1-.1.23L92.51,70.2l-.09.24-.24-.1-4.78-2a1.07,1.07,0,0,0-.43-.09,1.14,1.14,0,0,0-1,.61A41.68,41.68,0,0,1,81.24,76a1.13,1.13,0,0,0,.07,1.53L85,81.16l.17.18-.17.18-3.62,3.62-.18.18L81,85.14l-3.65-3.66a1.16,1.16,0,0,0-.81-.33,1.12,1.12,0,0,0-.72.26,41.16,41.16,0,0,1-7,4.66,1.11,1.11,0,0,0-.51,1.43l2,4.78.09.23-.23.09-4.73,2-.23.1-.09-.23-2-4.77a1.11,1.11,0,0,0-1-.69,1,1,0,0,0-.34,0,41.4,41.4,0,0,1-8.36,1.65,1.13,1.13,0,0,0-1,1.13v5.43H46.94V91.81a1.13,1.13,0,0,0-1-1.13A41.4,41.4,0,0,1,37.55,89a1,1,0,0,0-.34,0,1.11,1.11,0,0,0-1,.69l-2,4.77-.09.23-.23-.1-4.73-2-.23-.09.09-.23,2-4.78a1.11,1.11,0,0,0-.51-1.43,40.76,40.76,0,0,1-6.95-4.66,1.12,1.12,0,0,0-.73-.26,1.11,1.11,0,0,0-.79.33l-3.66,3.66-.18.18L18,85.14l-3.62-3.62-.17-.18.17-.18L18,77.51A1.13,1.13,0,0,0,18.09,76a40.91,40.91,0,0,1-4.73-7.09,1.14,1.14,0,0,0-1-.61,1.07,1.07,0,0,0-.43.09l-4.78,2-.24.1-.09-.24L4.87,65.47l-.1-.23.24-.1,4.77-2a1.12,1.12,0,0,0,.65-1.37c-.37-1.22-.69-2.5-1-3.81a40.65,40.65,0,0,1-.65-4.4,1.13,1.13,0,0,0-1.13-1H2.26V46.94H7.69a1.12,1.12,0,0,0,1.13-1,39.24,39.24,0,0,1,.65-4.4,37,37,0,0,1,1-4,1.13,1.13,0,0,0-.65-1.38l-4.76-2-.23-.09.09-.23,2-4.73L7,28.9l.23.09L12,31a1.12,1.12,0,0,0,1.43-.51,41.35,41.35,0,0,1,4.66-6.95A1.11,1.11,0,0,0,18,22l-3.66-3.66-.17-.18.17-.17L18,14.36l.18-.17.18.17L22,18a1.07,1.07,0,0,0,.79.33,1.12,1.12,0,0,0,.73-.26,41.48,41.48,0,0,1,7.09-4.73,1.12,1.12,0,0,0,.52-1.43l-2-4.78-.09-.24.23-.09L34,4.87l.23-.1.1.24,2,4.77a1.12,1.12,0,0,0,1,.7,1.14,1.14,0,0,0,.33-.05,41.42,41.42,0,0,1,8.21-1.61,1.12,1.12,0,0,0,1-1.13V2.26h5.45V7.69a1.12,1.12,0,0,0,1,1.13,41.42,41.42,0,0,1,8.21,1.61A1.12,1.12,0,0,0,63,9.78L65,5l.1-.24.23.1,4.73,2,.23.09-.09.24-2,4.78a1.13,1.13,0,0,0,.52,1.43,41.48,41.48,0,0,1,7.09,4.73A1.14,1.14,0,0,0,77.34,18L81,14.36l.18-.17.18.17L85,18l.17.17-.17.18L81.31,22a1.11,1.11,0,0,0-.07,1.52,40.76,40.76,0,0,1,4.66,7,1.12,1.12,0,0,0,1.43.51l4.77-2,.23-.09.1.23,2,4.73.09.23-.23.09-4.76,2a1.13,1.13,0,0,0-.65,1.38c.39,1.26.73,2.59,1,4a40.65,40.65,0,0,1,.65,4.4,1.13,1.13,0,0,0,1.13,1h5.43Z"/><path class="cls-2" d="M80.33,56.41A31.47,31.47,0,0,0,49.67,18.29h0A31.47,31.47,0,0,0,19,56.41c.16.71.34,1.42.54,2.12a31.35,31.35,0,0,0,60.25,0C80,57.82,80.17,57.11,80.33,56.41Zm-2.22-.48c-.14.66-.31,1.32-.49,2A29.36,29.36,0,0,1,49.67,79h0a29.38,29.38,0,0,1-28-21.05c-.19-.66-.35-1.32-.49-2a29.12,29.12,0,1,1,56.89,0Z"/><path class="cls-1" d="M77.87,55.88a28.89,28.89,0,0,0-.49-14.21,28.84,28.84,0,0,0-55.43,0,29.22,29.22,0,0,0-1.15,8.08,28.77,28.77,0,0,0,.66,6.13c.14.65.31,1.31.49,1.95a28.84,28.84,0,0,0,55.43,0C77.56,57.18,77.73,56.53,77.87,55.88ZM70,58.77a22.19,22.19,0,0,1-40.65,0,22.25,22.25,0,0,1,0-18A22.34,22.34,0,0,1,49.66,27.44h0A22.34,22.34,0,0,1,70,40.73a22.25,22.25,0,0,1,0,18Z"/><path class="cls-1" d="M69.13,49.75a19.56,19.56,0,1,0-1.67,7.9A19.5,19.5,0,0,0,69.13,49.75Z"/><path class="cls-3" d="M71.65,49.75a22.08,22.08,0,0,0-22-22.06h0a22,22,0,1,0,22,22.06Zm-4,8a19.83,19.83,0,0,1-18,11.79h0a19.8,19.8,0,1,1,18-27.8,19.51,19.51,0,0,1,1.69,8A19.72,19.72,0,0,1,67.69,57.76Z"/><path class="cls-3" d="M79.79,58.53c.2-.71.38-1.42.54-2.12a31.38,31.38,0,1,0-62-6.66A31.8,31.8,0,0,0,19,56.41c.16.71.34,1.42.54,2.12a31.35,31.35,0,0,0,60.25,0ZM49.67,79h0A29.36,29.36,0,0,1,21.71,57.9c-.19-.66-.35-1.32-.49-2a29.12,29.12,0,1,1,56.89,0c-.14.66-.31,1.32-.49,2A29.36,29.36,0,0,1,49.67,79Z"/></g></g></svg>