<?xml version="1.0" encoding="utf-8"?>
<!-- Generator: Adobe Illustrator 22.1.0, SVG Export Plug-In . SVG Version: 6.00 Build 0)  -->
<svg version="1.1" id="Layer_1" xmlns="http://www.w3.org/2000/svg" xmlns:xlink="http://www.w3.org/1999/xlink" x="0px" y="0px"
	 viewBox="0 0 100 100" style="enable-background:new 0 0 100 100;" xml:space="preserve">
<style type="text/css">
	.st0{fill:#E60000;}
	.st1{fill:#485A65;}
</style>
<g>
	<g>
		<g>
			<path class="st0" d="M41.4,54.5c0,0.5,0.4,0.9,0.9,0.9h3.6c0.5,0,0.9-0.4,0.9-0.9v-5.5c0-0.5-0.4-0.9-0.9-0.9h-3.6
				c-0.5,0-0.9,0.4-0.9,0.9L41.4,54.5L41.4,54.5z M43.2,50H45v3.6h-1.8V50z"/>
			<path class="st0" d="M42.3,44.5h3.6c0.5,0,0.9-0.4,0.9-0.9v-5.5c0-0.5-0.4-0.9-0.9-0.9h-3.6c-0.5,0-0.9,0.4-0.9,0.9v5.5
				C41.4,44.1,41.8,44.5,42.3,44.5z M43.2,39H45v3.6h-1.8V39z"/>
			<path class="st1" d="M35.5,38l13.2-7.9L61.8,38c0.1,0.1,0.3,0.1,0.5,0.1c0.3,0,0.6-0.2,0.8-0.4c0.3-0.4,0.1-1-0.3-1.2l-13.2-7.9
				v-5.9h4.6v1.8h-2.7c-0.5,0-0.9,0.4-0.9,0.9c0,0.5,0.4,0.9,0.9,0.9H55c0.5,0,0.9-0.4,0.9-0.9v-3.6c0-0.5-0.4-0.9-0.9-0.9h-6.4
				c-0.5,0-0.9,0.4-0.9,0.9v6.8l-13.2,7.9c-0.4,0.3-0.6,0.8-0.3,1.2C34.5,38.1,35,38.3,35.5,38z"/>
			<path class="st0" d="M31.4,55.4c0.5,0,0.9-0.4,0.9-0.9v-5.5c0-0.5-0.4-0.9-0.9-0.9h-3.6c-0.5,0-0.9,0.4-0.9,0.9v1.8
				c0,0.5,0.4,0.9,0.9,0.9c0.5,0,0.9-0.4,0.9-0.9V50h1.8v4.6C30.4,55,30.9,55.4,31.4,55.4z"/>
			<path class="st1" d="M37.7,67.3V40.9c0-0.5-0.4-0.9-0.9-0.9c-0.5,0-0.9,0.4-0.9,0.9v26.4c0,0.5,0.4,0.9,0.9,0.9
				S37.7,67.8,37.7,67.3z"/>
			<path class="st1" d="M33.2,71.8h30.9c0.5,0,0.9-0.4,0.9-0.9c0-0.5-0.4-0.9-0.9-0.9h-8.2v-9.1h0.9c0.5,0,0.9-0.4,0.9-0.9
				s-0.4-0.9-0.9-0.9H40.5c-0.5,0-0.9,0.4-0.9,0.9s0.4,0.9,0.9,0.9h0.9V70h-8.2c-0.5,0-0.9,0.4-0.9,0.9
				C32.3,71.4,32.7,71.8,33.2,71.8z M49.6,66.3c0.5,0,0.9-0.4,0.9-0.9c0-0.5-0.4-0.9-0.9-0.9v-3.6h4.6V70h-4.6L49.6,66.3L49.6,66.3z
				 M43.2,60.9h4.6v3.6c-0.5,0-0.9,0.4-0.9,0.9c0,0.5,0.4,0.9,0.9,0.9V70h-4.6V60.9z"/>
			<path class="st0" d="M69.6,60h-3.6c-0.5,0-0.9,0.4-0.9,0.9v5.5c0,0.5,0.4,0.9,0.9,0.9h3.6c0.5,0,0.9-0.4,0.9-0.9v-5.5
				C70.5,60.4,70.1,60,69.6,60z M68.7,65.4h-1.8v-3.6h1.8V65.4z"/>
			<path class="st0" d="M69.6,49.1h-3.6c-0.5,0-0.9,0.4-0.9,0.9v5.5c0,0.5,0.4,0.9,0.9,0.9h3.6c0.5,0,0.9-0.4,0.9-0.9V50
				C70.5,49.5,70.1,49.1,69.6,49.1z M68.7,54.5h-1.8v-3.6h1.8V54.5z"/>
			<path class="st0" d="M67.8,73.6H29.5c-0.5,0-0.9,0.4-0.9,0.9c0,0.5,0.4,0.9,0.9,0.9h38.2c0.5,0,0.9-0.4,0.9-0.9
				C68.7,74,68.3,73.6,67.8,73.6z"/>
			<path class="st1" d="M75,40.9c-0.5,0-0.9,0.4-0.9,0.9v0.9h-10c-0.5,0-0.9,0.4-0.9,0.9c0,0.5,0.4,0.9,0.9,0.9h10v30
				c0,0.5,0.4,0.9,0.9,0.9c0.5,0,0.9-0.4,0.9-0.9V41.8C76,41.3,75.6,40.9,75,40.9z"/>
			<path class="st0" d="M50.5,54.5c0,0.5,0.4,0.9,0.9,0.9H55c0.5,0,0.9-0.4,0.9-0.9v-5.5c0-0.5-0.4-0.9-0.9-0.9h-3.6
				c-0.5,0-0.9,0.4-0.9,0.9V54.5L50.5,54.5z M52.3,50h1.8v3.6h-1.8L52.3,50L52.3,50z"/>
			<path class="st1" d="M30.4,65.4c0-0.1-0.1-11.8-4.6-11.8c-4.5,0-4.6,11.7-4.6,11.8c0,2.2,1.6,4,3.6,4.5v4.6
				c0,0.5,0.4,0.9,0.9,0.9c0.5,0,0.9-0.4,0.9-0.9v-4.6C28.9,69.5,30.4,67.6,30.4,65.4z M25.9,68.2c-1.5,0-2.7-1.2-2.7-2.7
				c0-4.5,1.2-10,2.7-10c1.5,0,2.7,5.5,2.7,10C28.6,66.9,27.4,68.2,25.9,68.2z"/>
			<path class="st1" d="M61.4,67.3V39.9c0-0.5-0.4-0.9-0.9-0.9s-0.9,0.4-0.9,0.9v27.3c0,0.5,0.4,0.9,0.9,0.9S61.4,67.8,61.4,67.3z"
				/>
			<path class="st0" d="M51.4,44.5H55c0.5,0,0.9-0.4,0.9-0.9v-5.5c0-0.5-0.4-0.9-0.9-0.9h-3.6c-0.5,0-0.9,0.4-0.9,0.9v5.5
				C50.5,44.1,50.9,44.5,51.4,44.5z M52.3,39h1.8v3.6h-1.8L52.3,39L52.3,39z"/>
			<path class="st1" d="M22.3,52.7c0.5,0,0.9-0.4,0.9-0.9v-7.3h10c0.5,0,0.9-0.4,0.9-0.9c0-0.5-0.4-0.9-0.9-0.9h-10v-0.9
				c0-0.5-0.4-0.9-0.9-0.9c-0.5,0-0.9,0.4-0.9,0.9v10C21.3,52.3,21.8,52.7,22.3,52.7z"/>
		</g>
	</g>
</g>
</svg>
