<?xml version="1.0" encoding="utf-8"?>
<!-- Generator: Adobe Illustrator 22.1.0, SVG Export Plug-In . SVG Version: 6.00 Build 0)  -->
<svg version="1.1" id="Layer_1" xmlns="http://www.w3.org/2000/svg" xmlns:xlink="http://www.w3.org/1999/xlink" x="0px" y="0px"
	 viewBox="0 0 100 100" style="enable-background:new 0 0 100 100;" xml:space="preserve">
<style type="text/css">
	.st0{fill:#485A65;}
	.st1{fill:#E60000;}
</style>
<title></title>
<desc></desc>
<g id="People">
	<g id="Icon-1">
		<path id="newspaper" class="st0" d="M25.4,35c-0.6,0-1,0.4-1,1v32.7c0,0.6,0.4,1,1,1c0.6,0,1-0.4,1-1V36
			C26.4,35.4,25.9,35,25.4,35L25.4,35z M78.2,26.4v44.1c0,5.4-3.3,8.6-8.6,8.6H29.2c-5.3,0.1-8.6-3.3-8.6-8.6V34
			c0-2.6,2.2-4.8,4.8-4.8c0.6,0,1,0.4,1,1c0,0.6-0.4,1-1,1c-1.6,0-2.9,1.3-2.9,2.9v36.5c0,4.2,2.4,6.8,6.8,6.8h40.3
			c4.2,0,6.8-2.4,6.8-6.8V26.4c0-1.6-1.3-2.9-2.9-2.9H33c-1.5,0-2.9,1.3-2.9,2.9v46.1c0,0.6-0.4,1-1,1c-0.6,0-1-0.4-1-1V26.4
			c0-2.6,2.2-4.8,4.8-4.8h40.3C76.1,21.6,78.2,23.7,78.2,26.4L78.2,26.4z"/>
	</g>
</g>
<path class="st1" d="M41.6,42.7c0,1,0.8,1.9,1.9,1.9c1.1,0,1.9-0.8,1.9-1.9c0-1.1-0.8-1.9-1.9-1.9C42.4,40.7,41.6,41.6,41.6,42.7
	L41.6,42.7z"/>
<path class="st1" d="M37.8,51.4c0,0.6,0.4,1,1,1h5.8c0.3,0,0.5-0.1,0.7-0.3l6.1-6.1l2.2,2.2c0.3,0.3,1,0.3,1.4,0l4.1-4.1l4.1,4.1
	c0.3,0.3,1,0.3,1.4,0s0.3-1,0-1.4L59.6,42c-0.3-0.3-1-0.3-1.4,0l-4.1,4.1l-2.2-2.2c-0.3-0.3-1-0.3-1.4,0L44,50.4h-4.4V38.8h26.9
	v11.5H50.2c-0.6,0-1,0.4-1,1s0.4,1,1,1h17.3c0.6,0,1-0.4,1-1V37.9c0-0.6-0.4-1-1-1H38.7c-0.6,0-1,0.4-1,1L37.8,51.4
	C37.7,51.4,37.8,51.4,37.8,51.4z"/>
<path class="st1" d="M65.6,67.7H56c-0.6,0-1,0.4-1,1s0.4,1,1,1h9.6c0.6,0,1-0.4,1-1C66.5,68.1,66.1,67.7,65.6,67.7L65.6,67.7z"/>
<path class="st1" d="M38.7,69.6h9.6c0.6,0,1-0.4,1-1s-0.4-1-1-1h-9.6c-0.6,0-1,0.4-1,1C37.8,69.1,38.2,69.6,38.7,69.6L38.7,69.6z"/>
<path class="st1" d="M65.6,61.9H56c-0.6,0-1,0.4-1,1c0,0.6,0.4,1,1,1h9.6c0.6,0,1-0.4,1-1C66.6,62.3,66.1,61.9,65.6,61.9L65.6,61.9z
	"/>
<path class="st1" d="M38.7,63.8h11.6c0.6,0,1-0.4,1-1c0-0.6-0.4-1-1-1H38.7c-0.6,0-1,0.4-1,1C37.7,63.4,38.2,63.8,38.7,63.8
	L38.7,63.8z"/>
<path class="st1" d="M68.5,57.1c0-0.6-0.4-1-1-1H56c-0.6,0-1,0.4-1,1c0,0.6,0.4,1,1,1h11.5C68.1,58,68.5,57.6,68.5,57.1L68.5,57.1z"
	/>
<path class="st1" d="M67.5,33c0.6,0,1-0.4,1-1c0-0.6-0.4-1-1-1h-3.8c-0.6,0-1,0.4-1,1c0,0.6,0.4,1,1,1H67.5z"/>
<path class="st1" d="M38.7,33h15.4c0.6,0,1-0.4,1-1c0-0.6-0.4-1-1-1H38.7c-0.6,0-1,0.4-1,1C37.8,32.6,38.2,33,38.7,33L38.7,33z"/>
<path class="st1" d="M38.7,58h9.6c0.6,0,1-0.4,1-1s-0.4-1-1-1h-9.6c-0.6,0-1,0.4-1,1C37.8,57.6,38.2,58,38.7,58L38.7,58z"/>
</svg>
