<?xml version="1.0" encoding="utf-8"?>
<!-- Generator: Adobe Illustrator 22.1.0, SVG Export Plug-In . SVG Version: 6.00 Build 0)  -->
<svg version="1.1" id="Layer_1" xmlns="http://www.w3.org/2000/svg" xmlns:xlink="http://www.w3.org/1999/xlink" x="0px" y="0px"
	 viewBox="0 0 100 100" style="enable-background:new 0 0 100 100;" xml:space="preserve">
<style type="text/css">
	.st0{fill:none;stroke:#949494;stroke-width:3;stroke-linecap:round;stroke-linejoin:round;}
	.st1{fill:none;stroke:#E60000;stroke-width:3;stroke-linecap:round;stroke-linejoin:round;}
	.st2{fill:#949494;}
	.st3{fill:#E60000;}
</style>
<title></title>
<path class="st0" d="M64,34v-3.1c0-1.8-1.5-3.3-3.3-3.3c-0.2,0-0.4,0-0.6,0.1l-28,5.1C29.5,33.3,27,35.3,27,38"/>
<path class="st0" d="M71,46v-8c0-2.2-1.8-4-4-4H31c-2.2,0-4,1.8-4,4v27c0,2.2,1.8,4,4,4h36c2.2,0,4-1.8,4-4v-8"/>
<path class="st1" d="M60,57h12c1.1,0,2-0.9,2-2v-7c0-1.1-0.9-2-2-2H60l-3,5.5L60,57z"/>
<circle class="st2" cx="64" cy="51.5" r="2"/>
<path class="st3" d="M92.4,62.4c0.3-1,0.5-2,0.8-3C98.5,35.8,83.6,12.3,59.9,7S12.7,16.5,7.4,40.2c-0.7,3.2-1.1,6.6-1.1,9.9
	c0,3.1,0.3,6.3,0.9,9.3c0.2,1,0.5,2,0.8,3c6.7,23.3,31.1,36.8,54.4,30C76.9,88.3,88.3,77,92.4,62.4z M50.2,91.1L50.2,91.1
	C32.1,91,16.2,79,11.1,61.6c-0.3-0.9-0.5-1.8-0.7-2.8c-4.8-22,9.1-43.8,31.1-48.6s43.8,9.1,48.6,31.1c1.3,5.8,1.3,11.7,0,17.5
	c-0.2,0.9-0.4,1.8-0.7,2.8C84.3,79,68.4,91,50.2,91.1z"/>
</svg>
