<?xml version="1.0" encoding="utf-8"?>
<!-- Generator: Adobe Illustrator 23.0.3, SVG Export Plug-In . SVG Version: 6.00 Build 0)  -->
<svg version="1.1" id="Layer_1" xmlns="http://www.w3.org/2000/svg" xmlns:xlink="http://www.w3.org/1999/xlink" x="0px" y="0px"
	 viewBox="0 0 100 100" style="enable-background:new 0 0 100 100;" xml:space="preserve">
<style type="text/css">
	.st0{fill:#949494;}
	.st1{fill:#E60000;}
</style>
<g>
	<path class="st0" d="M92.6,6H7.1C6.3,6,5.7,6.6,5.7,7.4v62.7c0,0.8,0.6,1.4,1.4,1.4h16.8L21.4,87c-0.1,0.5,0.1,1.1,0.6,1.4
		c0.4,0.3,1,0.4,1.5,0.1l10.8-5.4l10.8,5.4c0.2,0.1,0.4,0.2,0.6,0.2c0.3,0,0.6-0.1,0.8-0.3c0.4-0.3,0.6-0.9,0.6-1.4l-2.6-15.4h29.7
		v8.6h-4.3c-0.8,0-1.4,0.6-1.4,1.4v4.3H67c-0.8,0-1.4,0.6-1.4,1.4v5.7c0,0.8,0.6,1.4,1.4,1.4h22.8c0.8,0,1.4-0.6,1.4-1.4v-5.7
		c0-0.8-0.6-1.4-1.4-1.4h-1.4v-4.3c0-0.8-0.6-1.4-1.4-1.4h-4.3v-8.6h10c0.8,0,1.4-0.6,1.4-1.4V7.4C94,6.6,93.4,6,92.6,6z M20.7,55.4
		C20.7,55.4,20.7,55.4,20.7,55.4c-0.5,1.3-0.7,2.6-0.8,4c-1.7-1-2.9-2.9-2.9-4.9V23.1c0-3.1,2.6-5.7,5.7-5.7h54.2
		c3.1,0,5.7,2.6,5.7,5.7v31.4c0,1-0.3,2-0.8,2.9h-9.2c-0.8,0-1.4,0.6-1.4,1.4v1.4H48.4c0-7.9-6.4-14.3-14.3-14.3
		C28.1,45.9,22.7,49.7,20.7,55.4z M81.2,63h-5.7h-1.4v-2.9h8.6V63H81.2z M23.4,56.3c1.6-4.5,5.9-7.6,10.8-7.6
		c6.3,0,11.4,5.1,11.4,11.4s-5.1,11.4-11.4,11.4s-11.4-5.1-11.4-11.4C22.8,58.8,23,57.5,23.4,56.3z M34.8,80.2
		c-0.4-0.2-0.9-0.2-1.3,0l-8.9,4.4l2.1-12.4c2.2,1.3,4.7,2.1,7.5,2.1c2.7,0,5.3-0.8,7.5-2.1l2.1,12.4L34.8,80.2z M45.5,68.7
		c1.3-1.7,2.2-3.6,2.6-5.7h23.1v1.4c0,0.8,0.6,1.4,1.4,1.4h1.4v2.9H45.5z M88.3,91.5h-20v-2.9h1.4h17.1h1.4V91.5z M85.5,85.8H71.2
		v-2.9h4.3h5.7h4.3V85.8z M76.9,80.1V65.8h2.9v14.3H76.9z M91.2,68.7h-8.6v-2.9h1.4c0.8,0,1.4-0.6,1.4-1.4v-5.7
		c0-0.5-0.3-0.9-0.6-1.1c0.4-1,0.6-2,0.6-3.1V23.1c0-4.7-3.8-8.6-8.6-8.6H22.8c-4.7,0-8.6,3.8-8.6,8.6v31.4c0,3.7,2.4,7,5.9,8.1
		c0.4,2.3,1.3,4.4,2.7,6.1H8.5V8.8h82.7V68.7z"/>
	<path class="st1" d="M34.2,68.7c4.7,0,8.6-3.8,8.6-8.6s-3.8-8.6-8.6-8.6s-8.6,3.8-8.6,8.6S29.5,68.7,34.2,68.7z M34.2,54.4
		c3.1,0,5.7,2.6,5.7,5.7c0,3.1-2.6,5.7-5.7,5.7s-5.7-2.6-5.7-5.7C28.5,57,31,54.4,34.2,54.4z"/>
	<rect x="41.3" y="23.1" class="st1" width="17.1" height="2.9"/>
	<rect x="34.2" y="28.8" class="st1" width="31.4" height="2.9"/>
	<rect x="41.3" y="34.5" class="st1" width="17.1" height="2.9"/>
</g>
</svg>
