<?xml version="1.0" encoding="utf-8"?>
<!-- Generator: Adobe Illustrator 22.1.0, SVG Export Plug-In . SVG Version: 6.00 Build 0)  -->
<svg version="1.1" id="Layer_1" xmlns="http://www.w3.org/2000/svg" xmlns:xlink="http://www.w3.org/1999/xlink" x="0px" y="0px"
	 viewBox="0 0 100 100" style="enable-background:new 0 0 100 100;" xml:space="preserve">
<style type="text/css">
	.st0{fill:#949494;}
	.st1{fill:none;stroke:#FFFFFF;stroke-width:2;stroke-linecap:round;stroke-linejoin:round;stroke-miterlimit:10;}
	.st2{fill:#E60000;stroke:#E60000;stroke-miterlimit:10;}
</style>
<g id="avatar-avatar_1_">
	<path class="st0" d="M79.9,72.7c-2-3.2-7.2-5.1-13.1-7.5c-1.6-0.6-3.2-1.3-4.9-1.9c-4.8-2-7.2-3.2-8.3-3.7L53.5,54
		c0.9-1,2.6-3.4,3.5-8.1c0.3-0.1,0.7-0.3,1.1-0.5c1.6-1.2,2.7-3.5,2.8-5.1c0,0,0.3-4.7-1.8-6.5c-0.1-0.1-0.3-0.2-0.4-0.3
		c0.4-3.5,0.6-5.5,0.4-6.8c-0.6-6.5-7-13.2-16.5-13.2s-15.9,6.7-16.5,13.2c-0.1,1.3,0,3.3,0.4,6.8c-0.1,0.1-0.3,0.2-0.4,0.3
		c-2.1,1.8-1.8,6.5-1.8,6.5c0.1,1.5,1.2,3.9,2.8,5.1c0.4,0.3,0.7,0.4,1.1,0.5c0.8,4.7,2.5,7.1,3.5,8.1l-0.1,5.6
		c-1.1,0.5-3.5,1.7-8.3,3.7c-1.6,0.7-3.3,1.3-4.9,1.9c-6,2.3-11.1,4.3-13.1,7.5c-2.2,3.4-1.8,16.5-1.7,19.1l3.1-0.1
		c-0.2-6.1,0-15.5,1.2-17.4c1.5-2.3,6.4-4.2,11.6-6.3c1.6-0.6,3.3-1.3,4.9-2c7.5-3.1,9.4-4.3,9.5-4.3l0.7-0.4l0.1-8v-0.8L34.1,52
		c0,0-2.3-2-3.1-7.9l-0.2-1.8l-1.7,0.5c-0.5-0.1-1.7-1.8-1.8-2.9c-0.1-1.6,0.3-3.4,0.7-3.9l2,0.4l-0.3-2.1c-0.4-2.7-0.7-6-0.6-7.5
		c0.5-5.1,5.7-10.5,13.4-10.5c7.8,0,12.9,5.3,13.4,10.5c0.1,1.5-0.2,4.8-0.6,7.5l-0.2,2L57,36c0.4,0.5,0.8,2.4,0.7,3.9
		c-0.1,1-1.2,2.8-1.7,2.9l-1.7-0.5l-0.2,1.8C53.3,50,51,52,51,52l-0.6,0.5l0.1,8.8l0.7,0.4c0.1,0,2,1.2,9.5,4.3
		c1.7,0.7,3.3,1.3,4.9,2c5.2,2,10.2,3.9,11.6,6.3c1.2,1.9,1.4,11.3,1.2,17.4l3.1,0.1C81.6,89.2,82,76.1,79.9,72.7z"/>
</g>
<g>
	<polyline class="st1" points="360,105 386,105 386,123 372,123 	"/>
	<polyline class="st1" points="364,123 360,123 360,109 	"/>
	<polyline class="st1" points="372,123 364,129 364,123 	"/>
</g>
<g>
	<path class="st2" d="M81.6,38c-3.7,0-7.3-1.5-9.9-4.1c-4.3-4.3-5.3-10.9-2.6-16.3c0.3-0.5,0.9-0.7,1.3-0.4c0.5,0.3,0.7,0.9,0.4,1.3
		c-2.4,4.7-1.5,10.3,2.2,14c2.3,2.3,5.3,3.5,8.5,3.5c3.2,0,6.2-1.2,8.5-3.5c2.3-2.3,3.5-5.3,3.5-8.5c0-3.2-1.2-6.2-3.5-8.5
		c-2.3-2.3-5.3-3.5-8.5-3.5c-3.2,0-6.2,1.2-8.5,3.5c-0.4,0.4-1,0.4-1.4,0s-0.4-1,0-1.4c2.6-2.6,6.2-4.1,9.9-4.1
		c3.7,0,7.3,1.5,9.9,4.1c2.6,2.6,4.1,6.2,4.1,9.9c0,3.7-1.5,7.3-4.1,9.9C88.9,36.5,85.3,38,81.6,38z"/>
</g>
<g>
	<path class="st2" d="M81.6,30c-0.6,0-1-0.4-1-1V19c0-0.6,0.4-1,1-1c0.6,0,1,0.4,1,1v10C82.6,29.6,82.2,30,81.6,30z"/>
</g>
<g>
	<path class="st2" d="M86.6,25h-10c-0.6,0-1-0.4-1-1s0.4-1,1-1h10c0.6,0,1,0.4,1,1S87.2,25,86.6,25z"/>
</g>
</svg>
