<?xml version="1.0" encoding="utf-8"?>
<!-- Generator: Adobe Illustrator 22.1.0, SVG Export Plug-In . SVG Version: 6.00 Build 0)  -->
<svg version="1.1" id="Layer_1" xmlns="http://www.w3.org/2000/svg" xmlns:xlink="http://www.w3.org/1999/xlink" x="0px" y="0px"
	 viewBox="0 0 100 100" style="enable-background:new 0 0 100 100;" xml:space="preserve">
<style type="text/css">
	.st0{fill:#949494;}
	.st1{fill:#E60000;}
</style>
<g id="XMLID_4926_">
	<g id="XMLID_4921_">
		<g id="XMLID_4931_">
			<polyline id="XMLID_4936_" points="-6887,-3719.9 -6982.9,-3719.9 -6982.9,-3816.3 			"/>
			<g id="XMLID_4932_">
				<path id="XMLID_4933_" d="M-6879.7-3323.5h-388.1v-500h295.7l92.4,96.7V-3323.5z M-7253.3-3338.1h359V-3721l-84.1-88h-274.9
					V-3338.1z"/>
			</g>
		</g>
		<g id="XMLID_4927_">
			<path id="XMLID_4928_" d="M-6921.2-3365.1h-305.3v-272.3h305.3V-3365.1z M-7211.8-3379.7h276.1v-243.2h-276.1V-3379.7z"/>
		</g>
		<g id="XMLID_4924_">
			
				<rect id="XMLID_4925_" x="-6875" y="-3632.3" transform="matrix(0.7516 -0.6596 0.6596 0.7516 669.9382 -5424.709)" width="14.5" height="60.8"/>
		</g>
		<g id="XMLID_4922_">
			
				<rect id="XMLID_4923_" x="-7310" y="-3608.8" transform="matrix(0.6596 -0.7516 0.7516 0.6596 229.0688 -6697.3872)" width="60.8" height="14.5"/>
		</g>
	</g>
	<path id="XMLID_7465_" d="M-7305.3-3583.7v164.9h463v-164.9H-7305.3z M-7143.6-3481.4c2.7,3.6,6.3,5.3,10.9,5.3
		c4.5,0,7.9-1.2,10.3-3.5c2.3-2.4,3.5-5.8,3.5-10.2h10.6l0.1,0.3c0.1,6.7-2,12-6.5,16.1c-4.4,4.1-10.5,6.1-18,6.1
		c-7.7,0-13.9-2.6-18.7-7.8c-4.8-5.2-7.2-11.8-7.2-19.9v-12.6c0-8,2.4-14.7,7.1-19.9s10.9-7.8,18.5-7.8c7.8,0,13.9,2,18.4,5.9
		c4.5,4,6.6,9.4,6.5,16.3l-0.1,0.3h-10.7c0-4.4-1.2-7.8-3.6-10.1s-5.9-3.5-10.5-3.5c-4.5,0-8,1.8-10.6,5.3c-2.6,3.6-3.9,8-3.9,13.5
		v12.7C-7147.5-3489.5-7146.2-3485-7143.6-3481.4z M-7055.4-3472.2c-4.3,3.3-9.9,4.9-16.9,4.9c-6.7,0-12.6-1.8-17.6-5.4
		c-5-3.6-7.4-8.6-7.3-15.1l0.1-0.3h10.6c0,4,1.4,6.9,4.1,9c2.7,2,6.1,3,10,3s6.9-0.8,9.1-2.5c2.2-1.6,3.2-3.9,3.2-6.7s-1-5-2.9-6.8
		c-2-1.8-5.4-3.3-10.4-4.7c-7.1-2-12.6-4.5-16.4-7.7c-3.9-3.2-5.8-7.4-5.8-12.5c0-5.3,2.1-9.7,6.4-13.2c4.2-3.4,9.7-5.2,16.3-5.2
		c7.1,0,12.8,1.9,17.1,5.7c4.3,3.8,6.3,8.6,6.2,14.2l-0.1,0.3h-10.6c0-3.5-1.2-6.2-3.5-8.3s-5.4-3.1-9.2-3.1c-3.7,0-6.6,0.9-8.6,2.6
		c-2,1.8-3,4-3,6.8c0,2.5,1.1,4.6,3.3,6.3c2.2,1.6,5.9,3.2,11,4.7c6.9,1.9,12.2,4.6,15.8,7.9c3.6,3.3,5.4,7.6,5.4,12.8
		C-7048.9-3479.8-7051.1-3475.5-7055.4-3472.2z M-6995.5-3472.2c-4.3,3.3-9.9,4.9-16.9,4.9c-6.7,0-12.6-1.8-17.6-5.4
		c-5-3.6-7.4-8.6-7.3-15.1l0.1-0.3h10.6c0,4,1.4,6.9,4.1,9c2.7,2,6.1,3,10,3s6.9-0.8,9.1-2.5c2.2-1.6,3.2-3.9,3.2-6.7s-1-5-2.9-6.8
		c-2-1.8-5.4-3.3-10.4-4.7c-7.1-2-12.6-4.5-16.4-7.7c-3.9-3.2-5.8-7.4-5.8-12.5c0-5.3,2.1-9.7,6.4-13.2c4.2-3.4,9.7-5.2,16.3-5.2
		c7.1,0,12.8,1.9,17.1,5.7c4.3,3.8,6.3,8.6,6.2,14.2l-0.1,0.3h-10.6c0-3.5-1.2-6.2-3.5-8.3s-5.4-3.1-9.2-3.1c-3.7,0-6.6,0.9-8.6,2.6
		c-2,1.8-3,4-3,6.8c0,2.5,1.1,4.6,3.3,6.3c2.2,1.6,5.9,3.2,11,4.7c6.9,1.9,12.2,4.6,15.8,7.9s5.4,7.6,5.4,12.8
		C-6989-3479.8-6991.2-3475.5-6995.5-3472.2z"/>
</g>
<g id="XMLID_7392_">
	<g id="XMLID_5935_">
		<g id="XMLID_5949_">
			<path id="XMLID_5950_" class="st0" d="M88.6,24.3H78.1c-4.1,0-7.5-3.4-7.5-7.5V6.2h2.7v10.6c0,2.6,2.1,4.8,4.8,4.8h10.6V24.3z"/>
		</g>
		<g id="XMLID_5947_">
			<path id="XMLID_5948_" class="st0" d="M82.5,95.4H27.1c-4.1,0-7.5-3.4-7.5-7.5V44.7h2.7v43.2c0,2.6,2.1,4.8,4.8,4.8h55.4
				c2.6,0,4.8-2.1,4.8-4.8V23.5L72,7.6H43.4V4.8h29.9L90,22.4v65.5C90,92.1,86.7,95.4,82.5,95.4z"/>
		</g>
		<g id="XMLID_5936_">
			<g id="XMLID_5945_">
				<rect id="XMLID_5946_" x="28" y="54.9" class="st0" width="53.5" height="2.7"/>
			</g>
			<g id="XMLID_5943_">
				<rect id="XMLID_5944_" x="28" y="62" class="st0" width="38" height="2.7"/>
			</g>
			<g id="XMLID_5941_">
				<rect id="XMLID_5942_" x="28" y="69.1" class="st0" width="25.1" height="2.7"/>
			</g>
			<g id="XMLID_5939_">
				<rect id="XMLID_5940_" x="28" y="76.2" class="st0" width="51.5" height="2.7"/>
			</g>
			<g id="XMLID_5937_">
				<rect id="XMLID_5938_" x="28" y="83.2" class="st0" width="47.3" height="2.7"/>
			</g>
		</g>
	</g>
</g>
<g>
	<path class="st1" d="M48.6,35.2H20.5c-4.2,0-9-3.4-9-7.7v-6.7l-2.5-2.9v9.6c0,6.3,5.2,10.4,11.5,10.4h28.1v4.6l5.2-6l-5.2-6V35.2z"
		/>
	<path class="st1" d="M43.5,13.3h-29V8.5l-5.4,5.6l5.4,6.2V16l29,0.2c4.2,0,7.7,2.3,7.7,6.5v6.7l2.7,2.9v-9.6
		C53.9,16.4,49.8,13.3,43.5,13.3z"/>
</g>
</svg>
