<?xml version="1.0" encoding="utf-8"?>
<!-- Generator: Adobe Illustrator 23.0.6, SVG Export Plug-In . SVG Version: 6.00 Build 0)  -->
<svg version="1.1" xmlns="http://www.w3.org/2000/svg" xmlns:xlink="http://www.w3.org/1999/xlink" x="0px" y="0px"
	 viewBox="0 0 100 100" style="enable-background:new 0 0 100 100;" xml:space="preserve">
<style type="text/css">
	.st0{fill:#E60000;}
	.st1{fill:#242E3C;}
	.st2{fill:#242E3C;stroke:#242E3C;stroke-width:1.5;stroke-miterlimit:10;}
	.st3{fill:none;stroke:#242E3C;stroke-width:3;stroke-linecap:round;stroke-linejoin:round;stroke-miterlimit:10;}
	.st4{fill-rule:evenodd;clip-rule:evenodd;fill:#E60000;}
</style>
<g id="Layer_1">
	<g id="_13_Tax">
		<path class="st0" d="M69.5,56.3l3.7-5.2l3.7,5.2c0.2,0.3,0.7,0.4,1,0.1c0.3-0.2,0.4-0.6,0.2-0.9l-4-5.6l4-5.6
			c0.2-0.3,0.1-0.7-0.2-0.9s-0.7-0.1-1,0.1l-3.7,5.2l-3.7-5.2c-0.2-0.3-0.7-0.4-1-0.1c-0.3,0.2-0.4,0.6-0.2,0.9l4,5.6l-4,5.6
			c-0.2,0.3-0.1,0.7,0.3,0.9C68.9,56.6,69.3,56.5,69.5,56.3z"/>
		<path class="st0" d="M58,56.2l2-5.5h3.3l2,5.5c0.1,0.4,0.5,0.5,0.9,0.4c0.4-0.1,0.6-0.5,0.4-0.8l-4.3-12c-0.1-0.4-0.5-0.5-0.9-0.4
			c-0.2,0.1-0.4,0.2-0.4,0.4l-4.3,12c-0.1,0.4,0.1,0.7,0.6,0.7C57.5,56.5,57.9,56.4,58,56.2z M61.6,46.1l1.2,3.2h-2.3L61.6,46.1z"/>
		<path class="st0" d="M47.2,44.6h3.6v11.3c0,0.4,0.3,0.7,0.7,0.7c0.4,0,0.7-0.3,0.7-0.7V44.6h3.6c0.4,0,0.7-0.3,0.7-0.7
			s-0.3-0.7-0.7-0.7h-8.7c-0.4,0-0.7,0.3-0.7,0.7C46.5,44.3,46.8,44.6,47.2,44.6z"/>
		<path class="st0" d="M51.5,84.4c0,0.4,0.3,0.7,0.7,0.7s0.7-0.3,0.7-0.7c0-1.6-1.2-2.9-2.9-3.3v-0.4c0-0.4-0.3-0.7-0.7-0.7
			c-0.4,0-0.7,0.3-0.7,0.7v0.4c-1.9,0.4-3.2,2.1-2.8,3.9c0.3,1.3,1.4,2.3,2.8,2.6v4c-0.9-0.3-1.4-1-1.4-1.9c0-0.4-0.3-0.7-0.7-0.7
			s-0.7,0.3-0.7,0.7c0,1.6,1.2,2.9,2.9,3.3v0.4c0,0.4,0.3,0.7,0.7,0.7c0.4,0,0.7-0.3,0.7-0.7v-0.4c1.9-0.4,3.2-2.1,2.8-3.9
			c-0.3-1.3-1.4-2.3-2.8-2.6v-3.9C51,82.8,51.5,83.6,51.5,84.4z M48.7,82.5v3.7c-1.1-0.4-1.7-1.5-1.3-2.5
			C47.6,83.2,48.1,82.7,48.7,82.5L48.7,82.5z M50.1,91.6v-3.7c1.1,0.4,1.7,1.5,1.3,2.5C51.2,91,50.7,91.4,50.1,91.6L50.1,91.6z"/>
		<path class="st1" d="M78.2,67.9H46.5c-0.4,0-0.7,0.3-0.7,0.7s0.3,0.7,0.7,0.7h31.8c0.4,0,0.7-0.3,0.7-0.7S78.7,67.9,78.2,67.9z"/>
		<path class="st1" d="M78.2,83.8H62.4c-0.4,0-0.7,0.3-0.7,0.7s0.3,0.7,0.7,0.7h15.9c0.4,0,0.7-0.3,0.7-0.7S78.7,83.8,78.2,83.8z"/>
		<path class="st1" d="M78.2,89.1H62.4c-0.4,0-0.7,0.3-0.7,0.7s0.3,0.7,0.7,0.7h15.9c0.4,0,0.7-0.3,0.7-0.7S78.7,89.1,78.2,89.1z"/>
		<path class="st1" d="M78.2,73.2H46.5c-0.4,0-0.7,0.3-0.7,0.7s0.3,0.7,0.7,0.7h31.8c0.4,0,0.7-0.3,0.7-0.7
			C79,73.5,78.7,73.2,78.2,73.2z"/>
		<path class="st2" d="M94.2,73.2h-3.6c-0.4,0-0.7,0.3-0.7,0.7s0.3,0.7,0.7,0.7h3.6c1.2,0,2.2,0.9,2.2,2v17.3c0,1.9-1.6,3.3-3.6,3.3
			c-1.9,0-3.6-1.5-3.6-3.3V36.6c0-1.9-1.6-3.3-3.6-3.3H39.3c-1.9,0-3.6,1.5-3.6,3.3v57.1c0,2.5,2.2,4.6,5.1,4.6h52
			c2.8,0,5.1-2.1,5.1-4.6V76.5C97.8,74.7,96.1,73.2,94.2,73.2z M89.2,97H40.8c-2,0-3.6-1.5-3.6-3.3V36.6c0-1.1,1-2,2.2-2h46.2
			c1.2,0,2.2,0.9,2.2,2v57.1C87.7,95,88.2,96.2,89.2,97z"/>
	</g>
</g>
<g id="Layer_2">
	<g>
		<g>
			<path class="st3" d="M39.3,33.8L36.8,35l-0.4,3.5H9.7c-2.6,0-4.7-1.3-4.7-2.9V7.9C5,6.3,7.2,5,9.7,5h62.6C74.9,5,77,6.3,77,7.9
				v25.6L39.3,33.8z"/>
			<path class="st4" d="M37.4,15.7h2.9c0,0,2.8-0.1,2.8,2.5c0,1.9-2.7,2.2-2.7,2.2h-2.9L37.4,15.7L37.4,15.7z M46,25
				c0.1,0.4,0.3,0.8,1.3,0.8c1.2,0,1.9-0.4,1.9-0.4v0.9c0,0-1.3,0.3-1.9,0.3c-0.6,0-2.6-0.2-2.6-1.9c0-1.5,1.6-1.9,2.5-1.9
				c1.6,0.1,2.4,0.6,2.3,2.3C49.5,25,46.8,25,46,25L46,25z M46,24.3h2.2c0,0,0-0.8-1-0.8C46.4,23.4,46.1,23.9,46,24.3L46,24.3z
				 M53,23.4c0.3-0.3,0.9-0.6,1.8-0.6c1.8,0,2.1,1.5,2,1.9c0,0.4-0.2,1.9-2.3,1.9c-0.8,0-1.3-0.2-1.5-0.6v0.5h-1.5v-5.2H53L53,23.4
				L53,23.4z M54.3,25.8c0.8,0,1.2-0.7,1.2-1.1c0-0.3-0.2-1-1.3-1c-0.8,0-1,0.6-1.1,1V25C53.1,25.2,53.4,25.8,54.3,25.8L54.3,25.8z
				 M66.4,25.6v0.8c0,0-0.6,0.2-1.1,0.2c-0.4,0-1.5-0.2-1.5-1.4c0-0.5,0-1,0-1.7h-1.2v-0.7h1.2c0-0.5,0-0.9,0-0.9h1.5v0.9h1.2v0.7
				h-1.2V25c0,0,0,0.7,0.6,0.7S66.4,25.6,66.4,25.6L66.4,25.6z M62.1,16.4h1.6v4h1.4v-4h1.7v-0.8h-4.7V16.4L62.1,16.4z M61.4,16.7
				l0.2-0.8c0,0-0.7-0.3-2-0.3c-1.2,0-3.2,0.7-3.2,2.6c0,1.9,2.1,2.5,3.4,2.5s1.7-0.2,1.7-0.2l-0.2-0.9c0,0-0.6,0.2-1.5,0.2
				c-1,0-1.9-0.8-1.9-1.6c0-0.7,0.9-1.6,2-1.6C60.8,16.4,61.4,16.7,61.4,16.7L61.4,16.7z M48.8,15.6c0,0,2.3-0.1,2.3,1.3
				c0,1.2-1.4,1.3-1.4,1.3s0.4,0.1,0.6,0.3c0.2,0.2,1.1,1.9,1.1,1.9H50c0,0-0.2-0.3-0.3-0.5c-0.1-0.2-0.3-0.6-0.3-0.6
				s-0.2-0.7-0.9-0.7c0,0-0.3,0-0.5,0v1.9h-1.4v-4.8H48.8L48.8,15.6z M47.9,17.8h0.7c0,0,1-0.1,1.1-0.7c0-0.6-1-0.7-1-0.7H48
				L47.9,17.8L47.9,17.8z M53.6,18.5h2.3v-0.9h-2.3v-1.1h2.5v-0.9h-4v4.8h4v-0.9h-2.5V18.5L53.6,18.5z M59.3,22.2h1.4v-1h-1.4V22.2
				L59.3,22.2z M59.3,26.4h1.4v-3.6h-1.4V26.4L59.3,26.4z M43.9,20.5h1.4v-4.8h-1.4V20.5L43.9,20.5z M37.4,21.7h2.9
				c0,0,2.8-0.1,2.8,2.5c0,1.9-2.7,2.2-2.7,2.2h-2.9L37.4,21.7L37.4,21.7z M38.9,25.5h0.9c0,0,1.9-0.1,1.9-1.6c0-1.5-2-1.6-2-1.6
				h-0.8V25.5L38.9,25.5z M38.9,19.5h0.9c0,0,1.9-0.2,1.9-1.6c0-1.5-2-1.6-2-1.6h-0.8V19.5L38.9,19.5z"/>
			<path class="st4" d="M24.5,18.5v9.7c0,0-5.6-1-5.6-4.8C18.9,20.3,23.1,18.9,24.5,18.5L24.5,18.5z M24.5,18.4
				c-3.4-0.2-11,1.3-11,4.8c0,2.3,4,5.6,10.6,5.6c0.2,0,7.7-0.3,7.6-8.3c-0.1-6.7-5.2-7.9-6.8-8.1V12c6.5,0.4,11.4,4.3,11.4,8.9
				c0,4.9-5.6,8.9-12.6,8.9s-12.6-4-12.6-8.9S16.8,12,23.8,12c0.2,0,0.4,0,0.6,0L24.5,18.4L24.5,18.4z"/>
		</g>
	</g>
</g>
</svg>
