<?xml version="1.0" encoding="utf-8"?>
<!-- Generator: Adobe Illustrator 22.1.0, SVG Export Plug-In . SVG Version: 6.00 Build 0)  -->
<svg version="1.1" id="Layer_1" xmlns="http://www.w3.org/2000/svg" xmlns:xlink="http://www.w3.org/1999/xlink" x="0px" y="0px"
	 viewBox="0 0 100 100" style="enable-background:new 0 0 100 100;" xml:space="preserve">
<style type="text/css">
	.st0{fill:#485A65;stroke:#485A65;stroke-width:0.3598;stroke-miterlimit:10;}
	.st1{fill:#E60000;stroke:#E60000;stroke-width:0.3598;stroke-miterlimit:10;}
</style>
<g>
	<path class="st0" d="M34.7,28.8l-6.5,2.7c-0.4,0.2-0.6,0.7-0.5,1.2c0.2,0.4,0.7,0.6,1.2,0.5l6.5-2.7c0.4-0.2,0.6-0.7,0.5-1.2
		C35.7,28.8,35.1,28.6,34.7,28.8z"/>
	<circle class="st0" cx="26.3" cy="33.3" r="0.9"/>
	<path class="st0" d="M38.2,24.6l-18.7,7.9c-1.6,0.6-2.3,2.5-1.7,4.1l1.2,2.8l13.8,32.5l2.2,5.3c0.6,1.6,2.5,2.3,4.1,1.7L58,71
		c1.6-0.6,2.3-2.5,1.7-4.1l-2.2-5.3L43.5,29l-1.2-2.8C41.6,24.6,39.8,23.9,38.2,24.6z M58,67.5c0.3,0.6,0,1.4-0.7,1.7l-18.7,7.9
		c-0.6,0.3-1.4,0-1.7-0.7L34.9,72L56,63.1L58,67.5z M55.3,61.4l-21.1,8.9L21.1,39.5l21.1-8.9L55.3,61.4z M41.5,28.9l-21.1,8.9
		l-0.8-1.9c-0.3-0.6,0-1.4,0.7-1.7L39,26.2c0.6-0.3,1.4,0,1.7,0.7L41.5,28.9z"/>
	<path class="st0" d="M47.8,72.9c1.4-0.6,2.1-2.3,1.5-3.7c-0.6-1.4-2.3-2.2-3.7-1.5s-2.1,2.3-1.5,3.7S46.4,73.6,47.8,72.9z
		 M46.3,69.4c0.5-0.2,1.2,0,1.4,0.6c0.2,0.5,0,1.2-0.6,1.4c-0.5,0.2-1.2,0-1.4-0.6C45.5,70.2,45.7,69.6,46.3,69.4z"/>
</g>
<g>
	<g>
		<g>
			<path class="st1" d="M63.5,23.5c8.8,0,15.8,7.1,15.8,15.8s-7.1,15.8-15.8,15.8S47.7,48,47.7,39.3S54.8,23.5,63.5,23.5 M63.5,21.7
				c-9.7,0-17.6,7.9-17.6,17.6S53.8,57,63.5,57S81.1,49,81.1,39.3S73.2,21.7,63.5,21.7L63.5,21.7z"/>
		</g>
	</g>
	<g>
		<path class="st1" d="M68.1,48.5c-1.7,0.8-3.3,1.2-5.3,1.2c-4.9,0-9.1-3.5-9.1-9.3c0-6,4.3-11.3,10.9-11.3c5.2,0,8.8,3.6,8.8,8.6
			c0,4.4-2.4,7.1-5.5,7.1c-1.3,0-2.3-0.7-2.4-2.4h-0.1c-1,1.7-2.3,2.4-4,2.4c-1.8,0-3.3-1.4-3.3-3.8c0-3.7,2.8-7,7-7
			c1.3,0,2.6,0.3,3.4,0.6L67.6,40c-0.4,2-0.1,2.9,0.8,2.9c1.4,0.1,3-1.7,3-5.2c0-4.1-2.5-7.1-7.1-7.1c-4.7,0-8.6,3.7-8.6,9.5
			c0,5,3.2,7.8,7.6,7.8c1.6,0,3.2-0.3,4.4-1L68.1,48.5z M65.9,36c-0.3-0.1-0.6-0.1-1.2-0.1c-2.2,0-4,2.2-4,4.7c0,1.2,0.6,2,1.7,2
			c1.4,0,2.7-1.8,3-3.5L65.9,36z"/>
	</g>
</g>
</svg>
