<?xml version="1.0" encoding="utf-8"?>
<!-- Generator: Adobe Illustrator 23.0.6, SVG Export Plug-In . SVG Version: 6.00 Build 0)  -->
<svg version="1.1" xmlns="http://www.w3.org/2000/svg" xmlns:xlink="http://www.w3.org/1999/xlink" x="0px" y="0px"
	 viewBox="0 0 100 100" style="enable-background:new 0 0 100 100;" xml:space="preserve">
<style type="text/css">
	.st0{display:none;}
	.st1{display:inline;}
	.st2{fill:#242E3C;stroke:#000000;stroke-width:0.9987;stroke-miterlimit:10;}
	.st3{fill:none;stroke:#242E3C;stroke-width:3;stroke-linecap:round;stroke-linejoin:round;stroke-miterlimit:10;}
	.st4{fill-rule:evenodd;clip-rule:evenodd;fill:#E60000;}
</style>
<g id="Layer_1" class="st0">
	<g id="_13_Tax" class="st1">
		<path class="st2" d="M53.2,33.4l5-6.9l5,6.9c0.3,0.4,0.9,0.5,1.4,0.2c0.4-0.3,0.5-0.8,0.3-1.2l-5.4-7.5l5.4-7.5
			c0.3-0.4,0.1-1-0.3-1.2s-1-0.1-1.3,0.2l-5,6.9l-5-6.9c-0.3-0.4-0.9-0.5-1.4-0.2c-0.4,0.3-0.5,0.8-0.3,1.2l5.4,7.5l-5.4,7.5
			c-0.3,0.4-0.1,1,0.4,1.2C52.4,33.8,52.9,33.7,53.2,33.4z"/>
		<path class="st2" d="M37.9,33.2l2.7-7.4H45l2.7,7.4c0.2,0.5,0.7,0.7,1.2,0.6c0.5-0.2,0.8-0.7,0.6-1.1l-5.8-16
			c-0.2-0.5-0.7-0.7-1.2-0.6c-0.3,0.1-0.5,0.3-0.6,0.6l-5.8,16c-0.1,0.5,0.2,0.9,0.8,1C37.2,33.7,37.7,33.5,37.9,33.2z M42.7,19.7
			l1.6,4.3h-3.1L42.7,19.7z"/>
		<path class="st2" d="M23.4,17.8h4.8v15.1c0,0.5,0.4,0.9,1,0.9c0.5,0,1-0.4,1-0.9V17.8H35c0.5,0,1-0.4,1-0.9S35.6,16,35,16H23.4
			c-0.5,0-1,0.4-1,0.9C22.5,17.4,22.9,17.8,23.4,17.8z"/>
		<path class="st2" d="M29.2,76.3c0,0.5,0.4,0.9,1,0.9s1-0.4,1-0.9c0-2.1-1.6-3.9-3.9-4.4v-0.5c0-0.5-0.4-0.9-1-0.9s-1,0.4-1,0.9V72
			c-2.6,0.5-4.3,2.8-3.8,5.2c0.4,1.7,1.9,3.1,3.8,3.5V86c-1.2-0.4-1.9-1.4-1.9-2.5c0-0.5-0.4-0.9-1-0.9s-1,0.4-1,0.9
			c0,2.1,1.6,3.9,3.9,4.4v0.5c0,0.5,0.4,0.9,1,0.9s1-0.4,1-0.9v-0.5c2.6-0.5,4.3-2.8,3.8-5.2c-0.4-1.7-1.9-3.1-3.8-3.5V74
			C28.5,74.2,29.2,75.2,29.2,76.3z M25.4,73.8v5c-1.5-0.5-2.3-2-1.7-3.4C24,74.7,24.6,74.1,25.4,73.8L25.4,73.8z M27.3,85.9v-5
			c1.5,0.5,2.3,2,1.7,3.4C28.7,85.1,28.1,85.7,27.3,85.9L27.3,85.9z"/>
		<path class="st2" d="M64.9,47.1H22.5c-0.5,0-1,0.4-1,0.9s0.4,0.9,1,0.9H65c0.5,0,1-0.4,1-0.9C65.9,47.4,65.5,47.1,64.9,47.1z"/>
		<path class="st2" d="M64.9,54.2H22.5c-0.5,0-1,0.4-1,0.9s0.4,0.9,1,0.9H65c0.5,0,1-0.4,1-0.9S65.5,54.2,64.9,54.2z"/>
		<path class="st2" d="M64.9,75.5H43.7c-0.5,0-1,0.4-1,0.9s0.4,0.9,1,0.9h21.2c0.5,0,1-0.4,1-0.9S65.5,75.5,64.9,75.5z"/>
		<path class="st2" d="M64.9,82.6H43.7c-0.5,0-1,0.4-1,0.9s0.4,0.9,1,0.9h21.2c0.5,0,1-0.4,1-0.9S65.5,82.6,64.9,82.6z"/>
		<path class="st2" d="M64.9,61.3H22.5c-0.5,0-1,0.4-1,0.9s0.4,0.9,1,0.9H65c0.5,0,1-0.4,1-0.9C65.9,61.7,65.5,61.3,64.9,61.3z"/>
		<path class="st2" d="M64.9,40H22.5c-0.5,0-1,0.4-1,0.9s0.4,0.9,1,0.9H65c0.5,0,1-0.4,1-0.9C65.9,40.3,65.5,40,64.9,40z"/>
		<path class="st2" d="M86.2,61.3h-4.8c-0.5,0-1,0.4-1,0.9s0.4,0.9,1,0.9h4.8c1.6,0,2.9,1.2,2.9,2.7v23.1c0,2.5-2.2,4.4-4.8,4.4
			s-4.8-2-4.8-4.4V12.4c0-2.5-2.2-4.4-4.8-4.4H12.8C10.2,8,8,10,8,12.4v76.3c0,3.4,3,6.2,6.8,6.2h69.5c3.7,0,6.8-2.8,6.8-6.2v-23
			C91,63.3,88.8,61.3,86.2,61.3z M79.5,93.2H14.8c-2.7,0-4.8-2-4.8-4.4V12.4c0-1.5,1.3-2.7,2.9-2.7h61.8c1.6,0,2.9,1.2,2.9,2.7v76.3
			C77.5,90.5,78.2,92.1,79.5,93.2z"/>
	</g>
</g>
<g id="Layer_2">
	<g>
		<path class="st3" d="M87.7,84H11.2c-3.2,0-5.7-2.6-5.7-5.7V24.7c0-3.2,2.6-5.7,5.7-5.7h76.5c3.2,0,5.7,2.6,5.7,5.7v53.6
			C93.5,81.4,90.9,84,87.7,84z"/>
		<path class="st4" d="M47.4,45.5H51c0,0,3.5-0.1,3.5,3.1c0,2.4-3.4,2.7-3.4,2.7h-3.6V45.5L47.4,45.5z M58.1,57c0.1,0.5,0.4,1,1.6,1
			c1.5,0,2.4-0.5,2.4-0.5v1.1c0,0-1.6,0.4-2.4,0.4c-0.8,0-3.2-0.2-3.2-2.4c0-1.8,2-2.4,3.1-2.4c2,0.1,3,0.8,2.9,2.8
			C62.4,57,59.1,57,58.1,57L58.1,57z M58.1,56.1h2.7c0,0,0-1-1.3-1C58.5,55.1,58.2,55.6,58.1,56.1L58.1,56.1z M66.8,55
			c0.4-0.4,1.1-0.8,2.2-0.8c2.2,0,2.6,1.9,2.5,2.4c0,0.5-0.2,2.4-2.8,2.4c-1,0-1.6-0.3-1.9-0.7v0.6H65v-6.4h1.7V55L66.8,55z
			 M68.3,58c1,0,1.5-0.9,1.5-1.4c0-0.4-0.2-1.3-1.6-1.3c-1,0-1.3,0.8-1.4,1.2v0.5C66.9,57.3,67.2,58,68.3,58L68.3,58z M83.4,57.8
			l0,1c0,0-0.8,0.2-1.4,0.2c-0.5,0-1.9-0.3-1.9-1.7c0-0.6,0-1.3,0-2.1h-1.5v-0.9h1.5c0-0.6,0-1.1,0-1.1h1.8v1.1h1.5v0.9h-1.5V57
			c0,0,0,0.9,0.7,0.9C83.3,57.9,83.4,57.8,83.4,57.8L83.4,57.8z M78,46.4H80v5h1.7v-5h2.1v-1H78V46.4L78,46.4z M77.2,46.7l0.2-1
			c0,0-0.9-0.4-2.5-0.4c-1.5,0-4,0.9-4,3.2c0,2.3,2.6,3.1,4.2,3.1c1.6,0,2.1-0.2,2.1-0.2l-0.2-1.1c0,0-0.7,0.2-1.9,0.2
			c-1.2,0-2.4-1-2.4-2c0-0.9,1.1-2,2.5-2C76.4,46.4,77.2,46.7,77.2,46.7L77.2,46.7z M61.5,45.4c0,0,2.9-0.1,2.9,1.6
			c0,1.5-1.7,1.6-1.7,1.6s0.5,0.1,0.7,0.4c0.2,0.3,1.4,2.4,1.4,2.4H63c0,0-0.3-0.4-0.4-0.6c-0.1-0.2-0.4-0.8-0.4-0.8
			s-0.2-0.9-1.1-0.9c0,0-0.4,0-0.6,0v2.3h-1.7v-6H61.5L61.5,45.4z M60.4,48.1h0.9c0,0,1.3-0.1,1.4-0.9c0-0.7-1.2-0.9-1.2-0.9h-1
			V48.1L60.4,48.1z M67.5,49h2.9v-1.1h-2.9v-1.4h3.1v-1.1h-4.9v6h4.9v-1.1h-3.1V49L67.5,49z M74.5,53.6h1.7v-1.2h-1.7V53.6
			L74.5,53.6z M74.5,58.8h1.7v-4.5h-1.7V58.8L74.5,58.8z M55.4,51.4h1.7v-6h-1.7V51.4L55.4,51.4z M47.4,52.9H51c0,0,3.5-0.1,3.5,3.1
			c0,2.4-3.4,2.7-3.4,2.7h-3.6V52.9L47.4,52.9z M49.2,57.7h1.1c0,0,2.4-0.1,2.4-2c0-1.8-2.5-2-2.5-2h-1V57.7L49.2,57.7z M49.2,50.2
			h1.1c0,0,2.4-0.2,2.4-2c0-1.9-2.5-2-2.5-2h-1V50.2L49.2,50.2z"/>
		<path class="st4" d="M31.4,49V61c0,0-6.9-1.2-6.9-6C24.5,51.2,29.6,49.5,31.4,49L31.4,49z M31.4,48.8c-4.2-0.3-13.6,1.6-13.6,5.9
			c0,2.8,5,6.9,13.1,7c0.3,0,9.6-0.4,9.4-10.3c-0.1-8.3-6.4-9.8-8.4-10v-0.5c8,0.5,14.2,5.3,14.2,11.1c0,6.1-7,11.1-15.6,11.1
			c-8.6,0-15.6-5-15.6-11.1c0-6.1,7-11.1,15.6-11.1c0.3,0,0.5,0,0.8,0V48.8L31.4,48.8z"/>
	</g>
</g>
</svg>
