<?xml version="1.0" encoding="utf-8"?>
<!-- Generator: Adobe Illustrator 22.1.0, SVG Export Plug-In . SVG Version: 6.00 Build 0)  -->
<svg version="1.1" id="Layer_1" xmlns="http://www.w3.org/2000/svg" xmlns:xlink="http://www.w3.org/1999/xlink" x="0px" y="0px"
	 viewBox="0 0 107.8 99.5" style="enable-background:new 0 0 107.8 99.5;" xml:space="preserve">
<style type="text/css">
	.st0{fill:none;}
	.st1{fill:#949494;}
	.st2{fill:#E60000;}
</style>
<title>Printer</title>
<g id="Layer_2_1_">
	<g id="Printer">
		<path class="st0" d="M87.5,12.8h-8.6c-0.8,0-1.5-0.7-1.5-1.5c0,0,0,0,0,0V2.7H20.3v32.1h67.2V12.8z"/>
		<path class="st0" d="M86.3,49.4c0,1.5,1.2,2.7,2.7,2.7s2.7-1.2,2.7-2.7s-1.2-2.7-2.7-2.7c0,0,0,0,0,0
			C87.5,46.7,86.3,47.9,86.3,49.4z"/>
		<polygon class="st0" points="80.4,4.8 80.4,9.9 85.4,9.9 		"/>
		<path class="st0" d="M20.3,80.7v16.1h67.2V64.6H20.3V80.7z M27.6,71.4h52.7v3H27.6L27.6,71.4z M27.6,80.6h52.7v3H27.6L27.6,80.6z"
			/>
		<path class="st0" d="M18.8,37.8H2.7v41.4h14.6V64.6H10v-3h87.8v3h-7.3v14.6h14.6V37.8H18.8z M94.4,49.4c0,2.9-2.4,5.3-5.3,5.3
			c-2.9,0-5.3-2.4-5.3-5.3c0-2.9,2.4-5.3,5.3-5.3C91.9,44.1,94.3,46.5,94.4,49.4C94.4,49.4,94.4,49.4,94.4,49.4z"/>
		<path class="st1" d="M106.6,35.1H90.3V11.4c0-0.2,0-0.4-0.1-0.5v-0.1c-0.1-0.1-0.1-0.2-0.2-0.3L79.8,0.4c-0.1-0.1-0.2-0.1-0.3-0.2
			h-0.1C79.3,0.1,79.1,0,78.9,0H18.8c-0.7,0-1.2,0.6-1.2,1.2v33.9H1.2c-0.7,0-1.2,0.6-1.2,1.2v44.3C0,81.4,0.5,82,1.2,82
			c0,0,0,0,0,0h16.3v16.3c0,0.7,0.6,1.2,1.2,1.2H89c0.7,0,1.2-0.6,1.2-1.2V82h16.3c0.7,0,1.2-0.6,1.2-1.3V36.3
			C107.8,35.7,107.3,35.1,106.6,35.1z M80.2,9.9V4.2l0.4,0.4l5,5l0.4,0.4h-5.8V9.9z M20,34.9V2.5h57.7v8.9c0,0.7,0.5,1.2,1.2,1.2
			c0,0,0,0,0,0h8.9v22.5H20V34.9z M87.8,64.6V97H20V64.4h67.8V64.6z M105.3,37.8v41.6H90.3V64.4h7.3v-2.5H10.3v2.5h7.3v15.1H2.5
			V37.6h102.9V37.8z"/>
		<rect x="27.8" y="71.6" class="st2" width="52.2" height="2.5"/>
		<rect x="27.8" y="80.8" class="st2" width="52.2" height="2.5"/>
		<path class="st0" d="M89,46.8c-1.4,0-2.6,1.2-2.6,2.6s1.2,2.6,2.6,2.6c1.4,0,2.6-1.2,2.6-2.6S90.4,46.8,89,46.8L89,46.8z"/>
		<path class="st2" d="M89,44.2c-2.9,0-5.2,2.3-5.2,5.2s2.3,5.2,5.2,5.2s5.2-2.3,5.2-5.2l0,0C94.2,46.6,91.9,44.2,89,44.2z M89,52.3
			c-1.6,0-2.9-1.3-2.9-2.9c0-1.6,1.3-2.9,2.9-2.9c1.6,0,2.9,1.3,2.9,2.9c0,0,0,0,0,0C91.9,51,90.6,52.3,89,52.3z"/>
	</g>
</g>
</svg>
