<?xml version="1.0" encoding="utf-8"?>
<!-- Generator: Adobe Illustrator 23.0.6, SVG Export Plug-In . SVG Version: 6.00 Build 0)  -->
<svg version="1.1" id="Layer_1" xmlns="http://www.w3.org/2000/svg" xmlns:xlink="http://www.w3.org/1999/xlink" x="0px" y="0px"
	 viewBox="0 0 100 100" style="enable-background:new 0 0 100 100;" xml:space="preserve">
<style type="text/css">
	.st0{fill-rule:evenodd;clip-rule:evenodd;fill:#242E3C;}
	.st1{fill:none;stroke:#E60000;stroke-width:3;stroke-miterlimit:10;}
</style>
<g>
	<title></title>
	<path class="st0" d="M59.3,77.1H14.1c-4.2,0-7.6-3.2-7.6-7.2V16c0-4,3.4-7.2,7.6-7.2h71.8c4.2,0,7.6,3.2,7.6,7.2v44.5L74,50.5
		L59.3,60.9V77.1z M89.7,16c0-2-1.7-3.6-3.8-3.6H14.1c-2.1,0-3.8,1.6-3.8,3.6v10.8h79.4C89.7,26.8,89.7,16,89.7,16z M89.7,30.4H10.3
		V70c0,2,1.7,3.6,3.8,3.6h44.3l0.9-12.7L77,50.5l12.1,7L89.7,30.4L89.7,30.4z M67,43h-3.8c-1,0-1.9-0.8-1.9-1.8v-3.6
		c0-1,0.8-1.8,1.9-1.8H67c1,0,1.9,0.8,1.9,1.8v3.6C68.9,42.2,68.1,43,67,43z M51.9,55.6h-3.8c-1,0-1.9-0.8-1.9-1.8v-3.6
		c0-1,0.8-1.8,1.9-1.8h3.8c1,0,1.9,0.8,1.9,1.8v3.6C53.8,54.8,52.9,55.6,51.9,55.6z M51.9,43h-3.8c-1,0-1.9-0.8-1.9-1.8v-3.6
		c0-1,0.8-1.8,1.9-1.8h3.8c1,0,1.9,0.8,1.9,1.8v3.6C53.8,42.2,52.9,43,51.9,43z M36.8,68.2H33c-1,0-1.9-0.8-1.9-1.8v-3.6
		c0-1,0.8-1.8,1.9-1.8h3.8c1,0,1.9,0.8,1.9,1.8v3.6C38.7,67.4,37.8,68.2,36.8,68.2z M36.8,55.6H33c-1,0-1.9-0.8-1.9-1.8v-3.6
		c0-1,0.8-1.8,1.9-1.8h3.8c1,0,1.9,0.8,1.9,1.8v3.6C38.7,54.8,37.8,55.6,36.8,55.6z M36.8,43H33c-1,0-1.9-0.8-1.9-1.8v-3.6
		c0-1,0.8-1.8,1.9-1.8h3.8c1,0,1.9,0.8,1.9,1.8v3.6C38.7,42.2,37.8,43,36.8,43z M21.6,68.2h-3.8c-1,0-1.9-0.8-1.9-1.8v-3.6
		c0-1,0.8-1.8,1.9-1.8h3.8c1,0,1.9,0.8,1.9,1.8v3.6C23.5,67.4,22.7,68.2,21.6,68.2z M21.6,55.6h-3.8c-1,0-1.9-0.8-1.9-1.8v-3.6
		c0-1,0.8-1.8,1.9-1.8h3.8c1,0,1.9,0.8,1.9,1.8v3.6C23.5,54.8,22.7,55.6,21.6,55.6z"/>
	<path class="st0" d="M50,77.1"/>
</g>
<path class="st1" d="M59.3,81.1V60.9L77,50.5l17.8,10.3v20.3c0,0-6.7-8.9-17.8-8.9C77,72.2,68.2,71.2,59.3,81.1z"/>
<path class="st1" d="M62.1,86l14.9,8.5L91.8,86c0,0-6.2-7.5-14.8-7.5C77,78.5,69.8,77.7,62.1,86z"/>
</svg>
