<?xml version="1.0" encoding="utf-8"?>
<!-- Generator: Adobe Illustrator 22.1.0, SVG Export Plug-In . SVG Version: 6.00 Build 0)  -->
<svg version="1.1" xmlns="http://www.w3.org/2000/svg" xmlns:xlink="http://www.w3.org/1999/xlink" x="0px" y="0px"
	 viewBox="0 0 100 100" style="enable-background:new 0 0 100 100;" xml:space="preserve">
<style type="text/css">
	.st0{fill:#241F21;}
	.st1{display:none;fill:#241F21;}
	.st2{fill:#E60000;}
	.st3{display:none;}
	.st4{display:inline;fill:#241F21;}
</style>
<g id="Layer_1">
	<path class="st0" d="M6.7,62.4L31,49.6l56.7,35.8L6.7,62.4z M5.9,33.8l22.3,14.1L5.9,59.6V33.8z M34,48l59.6-31.4v69.1L34,48z
		 M6.7,30.8L88,16.3l-56.9,30L6.7,30.8z M96.5,91L96.5,91L96.5,91L96.5,91l0-1.5V11.8h0L3,28.5v35.9"/>
	<polyline class="st1" points="3.3,64.4 12.7,67.1 12.7,84.9 32.1,72.6 96.7,91 	"/>
	<polygon class="st2" points="12.7,67.2 15.9,68.1 15.8,79.6 28.7,71.7 32.1,72.6 12.7,84.9 	"/>
</g>
<g id="Layer_2" class="st3">
	<path class="st4" d="M15.6,67.9l12.7,3.6l-12.7,8C15.6,79.5,15.6,67.9,15.6,67.9z M7,62.4l24.3-12.8l56.7,35.8L7,62.4z M6.1,33.8
		l22.3,14.1L6.1,59.6V33.8z M34.2,48l59.6-31.4v69.1L34.2,48z M6.9,30.8l81.4-14.5l-56.9,30L6.9,30.8z M96.7,11.8L3.2,28.5v35.9
		l9.4,2.7v17.8L32,72.6L96.7,91l0,0v0l0,0l-0.1-1.5L96.7,11.8L96.7,11.8z"/>
</g>
</svg>
