<svg xmlns="http://www.w3.org/2000/svg" viewBox="0 0 107.33 124"><defs><style>.cls-1{fill:#e60000;}</style></defs><title>EALogo</title><g id="Layer_2" data-name="Layer 2"><g id="EA-logo"><path class="cls-1" d="M0,92.33V31.5L53.5,0l53.83,31V92.33S87,65.5,53.5,65.5C53.5,65.5,26.83,62.67,0,92.33Zm8.89-58.4s-3.5,1.5-.17,4c0,0,1.5-.33,1.17-2.33l43.5-25.17s1.5-3.33-1.67-1.5Z"/><path class="cls-1" d="M53.5,75.5C79.33,75.5,98,98.17,98,98.17L53.33,124l-45-25.83C31.5,73,53.5,75.5,53.5,75.5Zm-5.75,6.42C34.58,80.5,19,94.17,19,94.17c-1.83,3.25,1.5,2,1.5,2,9-8.71,19.75-11.5,25.17-12.92C48.8,82.43,47.75,81.92,47.75,81.92Z"/></g></g></svg>