<?xml version="1.0" encoding="utf-8"?>
<!-- Generator: Adobe Illustrator 22.1.0, SVG Export Plug-In . SVG Version: 6.00 Build 0)  -->
<svg version="1.1" id="Layer_1" xmlns="http://www.w3.org/2000/svg" xmlns:xlink="http://www.w3.org/1999/xlink" x="0px" y="0px"
	 viewBox="0 0 100 100" style="enable-background:new 0 0 100 100;" xml:space="preserve">
<style type="text/css">
	.st0{fill:none;}
	.st1{fill:#949494;}
	.st2{fill:#E60000;}
</style>
<path class="st0" d="M1,0h100v100H1V0z"/>
<path class="st1" d="M100,0H-0.1L0,10v65.5h30V100l20-10.3L70,100V75.5h30V10V0z M97,72H66.5v22L50,85l-16.5,9V72H3V50.4h94V72z
	 M97,47.2H3V3h94V47.2z"/>
<path id="XMLID_11_" class="st2" d="M49.6,9.2c9,0,16.4,7.3,16.4,16.4S58.6,42,49.6,42s-16.4-7.3-16.4-16.4S40.5,9.2,49.6,9.2
	L49.6,9.2z M49.6,6.2c-10.7,0-19.4,8.7-19.4,19.4S38.9,45,49.6,45S69,36.3,69,25.6S60.3,6.2,49.6,6.2z"/>
<path id="XMLID_8_" class="st2" d="M46.7,27.4l9.3-9.3c1.4-1.4,3.7-1.4,5.2,0c1.4,1.4,1.4,3.7,0,5.2c-4,3.9-7.9,7.9-11.9,11.8
	c-1.4,1.4-3.5,1.4-4.9,0.2c-0.1-0.1-0.2-0.1-0.2-0.2l-6.7-6.7c-1.4-1.4-1.4-3.7,0-5.2c1.4-1.4,3.7-1.4,5.2,0L46.7,27.4L46.7,27.4z
	 M46.7,31.1l-5-5c-0.9-0.9-1.8-1.1-2-1.1c-1.3,0-0.4,1.6,0.6,2.5l4.7,4.7l0,0l0,0c0.9,0.9,1.8,1.8,3.4,0c9.1-9,0.8-0.8,9.9-9.8
	c0.9-0.9,1.9-1.5,1-2.4s-1.5,0.1-2.4,1L46.7,31.1z"/>
</svg>
