<?xml version="1.0" encoding="utf-8"?>
<!-- Generator: Adobe Illustrator 22.1.0, SVG Export Plug-In . SVG Version: 6.00 Build 0)  -->
<svg version="1.1" id="Layer_1" xmlns="http://www.w3.org/2000/svg" xmlns:xlink="http://www.w3.org/1999/xlink" x="0px" y="0px"
	 viewBox="0 0 99.3 99.5" style="enable-background:new 0 0 99.3 99.5;" xml:space="preserve">
<style type="text/css">
	.st0{fill:none;}
	.st1{fill:#242E3C;}
	.st2{fill:#E60000;}
	.st3{fill:none;stroke:#242E3C;stroke-width:1.5966;}
</style>
<title>Cogwheel</title>
<g id="Layer_2_1_">
	<g id="Cogwheel">
		<path class="st0" d="M82,56.8c3.9-17.9-7.5-35.6-25.4-39.5c-2.3-0.5-4.6-0.8-7-0.8c-18.3,0-33.1,14.9-33.1,33.2
			c0,2.4,0.3,4.7,0.8,7c0.2,0.7,0.4,1.5,0.6,2.2c5.1,17.6,23.4,27.7,40.9,22.6C69.8,78.5,78.3,70,81.5,59
			C81.7,58.3,81.9,57.5,82,56.8z"/>
		<path class="st0" d="M90.3,45.9c-0.1-1.5-0.3-2.9-0.6-4.4c-0.3-1.3-0.6-2.7-1-3.9c-0.2-0.7,0.1-1.4,0.8-1.7l4.8-2l-2-4.7l-4.8,2
			c-0.2,0.1-0.4,0.1-0.5,0.1c-0.5,0-1-0.3-1.2-0.7c-1.3-2.5-2.8-4.8-4.6-6.9c-0.5-0.5-0.4-1.4,0.1-1.9l3.7-3.7l-3.6-3.6l-3.6,3.6
			c-0.3,0.3-0.6,0.4-1,0.4c-0.3,0-0.6-0.1-0.9-0.3c-2.2-1.8-4.5-3.4-7.1-4.7c-0.6-0.3-0.9-1.1-0.6-1.8L70,7l-4.8-1.9l-2,4.8
			c-0.2,0.5-0.7,0.9-1.3,0.9c-0.1,0-0.3,0-0.4-0.1c-2.7-0.8-5.4-1.4-8.2-1.6c-0.7-0.1-1.3-0.7-1.3-1.4V2.5h-5v5.2
			c0,0.7-0.5,1.3-1.3,1.4c-2.8,0.2-5.5,0.8-8.2,1.6c-0.1,0-0.3,0.1-0.4,0.1c-0.6,0-1.1-0.3-1.3-0.9l-2-4.8l-4.7,2l2,4.8
			c0.3,0.7,0,1.4-0.6,1.8c-2.5,1.3-4.8,2.9-7,4.7c-0.5,0.5-1.4,0.4-1.9-0.1l-3.7-3.7l-3.6,3.6l3.7,3.7c0.5,0.5,0.5,1.3,0.1,1.9
			c-1.8,2.1-3.3,4.5-4.6,6.9c-0.2,0.4-0.7,0.7-1.2,0.7c-0.2,0-0.4,0-0.5-0.1l-4.8-2L5.2,34l4.8,2c0.7,0.3,1,1,0.8,1.7
			c-0.4,1.3-0.7,2.6-1,3.9c-0.3,1.4-0.5,2.9-0.6,4.4c-0.1,0.7-0.7,1.3-1.4,1.3H2.5v5.1h5.2c0.7,0,1.3,0.5,1.4,1.3
			c0.1,1.5,0.4,2.9,0.6,4.4c0.3,1.3,0.6,2.5,0.9,3.8c0.2,0.7-0.1,1.4-0.8,1.7l-4.8,2l2,4.7l4.8-2c0.2-0.1,0.3-0.1,0.5-0.1
			c0.5,0,1,0.3,1.2,0.7c1.3,2.5,2.9,4.8,4.7,7c0.5,0.5,0.4,1.4-0.1,1.9l-3.7,3.7l3.6,3.6l3.7-3.7c0.5-0.5,1.3-0.5,1.9-0.1
			c2.1,1.8,4.5,3.3,6.9,4.6c0.6,0.3,0.9,1.1,0.6,1.8l-2,4.8l4.7,2l2-4.8c0.2-0.5,0.7-0.8,1.3-0.8c0.1,0,0.3,0,0.4,0.1
			c2.7,0.8,5.5,1.4,8.3,1.6c0.7,0.1,1.3,0.7,1.3,1.4V97h5v-5.2c0-0.7,0.5-1.3,1.3-1.4c2.8-0.3,5.6-0.8,8.3-1.6
			c0.1,0,0.3-0.1,0.4-0.1c0.6,0,1.1,0.3,1.3,0.8l2,4.8l4.7-2l-2-4.8c-0.3-0.7,0-1.4,0.6-1.8c2.5-1.3,4.8-2.9,6.9-4.6
			c0.2-0.2,0.6-0.3,0.9-0.3c0.4,0,0.7,0.1,1,0.4l3.6,3.7l3.6-3.6l-3.7-3.7c-0.5-0.5-0.5-1.3-0.1-1.9c1.8-2.2,3.4-4.5,4.7-7
			c0.3-0.6,1.1-0.9,1.8-0.6l4.8,2l2-4.7l-4.8-2c-0.7-0.3-1-1-0.8-1.7c0.4-1.2,0.7-2.5,1-3.8c0.3-1.4,0.5-2.9,0.7-4.4
			c0.1-0.7,0.7-1.2,1.4-1.3h5.2v-5.2h-5.3C90.9,47.2,90.3,46.6,90.3,45.9z M85.1,57.4c-0.2,0.8-0.4,1.6-0.6,2.5
			C79,79.1,58.9,90.2,39.6,84.7c-12-3.5-21.3-12.8-24.8-24.8c-0.2-0.8-0.4-1.6-0.6-2.5c-1.3-5.9-1.1-12,0.6-17.8
			c4.5-15.5,18.7-26.2,34.8-26.3l0,0C69.7,13.4,86,29.7,85.9,49.8C85.9,52.3,85.7,54.9,85.1,57.4z"/>
		<path class="st1" d="M98.2,44.7h-5.5v-0.2c-0.1-1.1-0.3-2.3-0.6-3.4s-0.4-2-0.7-3l-0.1-0.2l0.2-0.1l4.9-2c0.3-0.1,0.5-0.3,0.6-0.6
			c0.1-0.3,0.1-0.6,0-0.9L94,27c-0.1-0.3-0.3-0.5-0.6-0.6c-0.1-0.1-0.3-0.1-0.4-0.1c-0.1,0-0.3,0-0.4,0.1l-4.9,2l-0.2,0.1l-0.1-0.2
			c-1-1.8-2.2-3.6-3.5-5.3l-0.1-0.2l0.2-0.2l3.7-3.7c0.2-0.2,0.3-0.5,0.3-0.8c0-0.3-0.1-0.6-0.3-0.8L82,11.8c-0.4-0.4-1.2-0.4-1.6,0
			l-3.8,3.8l-0.2,0.2l-0.2-0.1c-1.7-1.3-3.5-2.5-5.4-3.6l-0.2-0.1l0.1-0.2l2-4.9c0.1-0.3,0.1-0.6,0-0.9c-0.1-0.3-0.3-0.5-0.6-0.6
			l-7.3-3c-0.1-0.1-0.3-0.1-0.4-0.1c-0.4,0-0.8,0.3-1,0.7l-2,4.9L61.3,8l-0.2-0.1c-2-0.6-4.1-1-6.2-1.2h-0.2V1.1
			c0-0.6-0.5-1.1-1.1-1.1h-7.7c-0.6,0-1.1,0.5-1.1,1.1c0,0,0,0,0,0v5.5h-0.2c-2.1,0.2-4.2,0.7-6.2,1.2L38,8V7.8l-2-4.9
			c-0.2-0.4-0.6-0.7-1-0.7c-0.1,0-0.3,0-0.4,0.1l-7.3,3c-0.3,0.1-0.5,0.3-0.6,0.6c-0.1,0.3-0.1,0.6,0,0.9l2,4.9l0.1,0.2L28.5,12
			c-1.9,1.1-3.7,2.3-5.4,3.6L23,15.7l-0.1-0.2L19,11.8c-0.4-0.4-1.2-0.4-1.6,0l-5.6,5.6c-0.2,0.2-0.3,0.5-0.3,0.8
			c0,0.3,0.1,0.6,0.3,0.8l3.8,3.8l0.2,0.2L15.6,23c-1.3,1.7-2.5,3.4-3.6,5.3l-0.1,0.2l-0.2-0.1l-4.9-2c-0.1-0.1-0.3-0.1-0.4-0.1
			c-0.1,0-0.3,0-0.4,0.1c-0.3,0.1-0.5,0.3-0.6,0.6l-3,7.3c-0.1,0.3-0.1,0.6,0,0.9c0.1,0.3,0.3,0.5,0.6,0.6l4.9,2l0.2,0.1L8,38.1
			c-0.3,1-0.5,2-0.7,3s-0.4,2.3-0.6,3.4v0.2H1.1c-0.6,0-1.1,0.5-1.1,1.1v7.9c0,0.6,0.5,1.1,1.1,1.1h5.5V55c0.1,1.1,0.3,2.3,0.6,3.4
			c0.2,0.9,0.4,1.9,0.7,2.8L8,61.5l-0.2,0.1l-4.9,2C2.3,63.8,2,64.4,2.2,65c0,0,0,0,0,0l3,7.3c0.1,0.3,0.3,0.5,0.6,0.6
			C6,73,6.1,73,6.3,73c0.2,0,0.3,0,0.5,0l4.9-2l0.2-0.1L12,71c1.1,1.9,2.3,3.7,3.6,5.4l0.1,0.2l-0.2,0.2l-3.8,3.8
			c-0.4,0.4-0.5,1.1,0,1.6c0,0,0,0,0,0l5.6,5.6c0.5,0.4,1.1,0.4,1.6,0l3.7-3.7l0.1-0.2L23,84c1.7,1.3,3.4,2.5,5.3,3.5l0.2,0.1
			l-0.1,0.2l-2,4.9c-0.2,0.6,0.1,1.2,0.6,1.4l7.3,3c0.1,0.1,0.3,0.1,0.4,0.1c0.5,0,0.9-0.3,1-0.7l2-4.9l0.1-0.2l0.2,0.1
			c2.1,0.6,4.2,1,6.4,1.3h0.2v5.5c0,0.6,0.5,1.1,1.1,1.1h7.7c0.6,0,1.1-0.5,1.1-1.1v-5.5h0.2c2.2-0.3,4.3-0.7,6.4-1.3l0.2-0.1
			l0.1,0.2l2,4.9c0.2,0.4,0.6,0.7,1,0.7c0.1,0,0.3,0,0.4-0.1l7.3-3c0.3-0.1,0.5-0.3,0.6-0.6c0.1-0.3,0.1-0.6,0-0.9l-2-4.9l-0.1-0.2
			l0.2-0.1c1.8-1,3.6-2.2,5.3-3.5l0.2-0.1l0.2,0.2l3.8,3.8c0.5,0.4,1.1,0.4,1.6,0l5.6-5.6c0.4-0.4,0.5-1.1,0-1.6c0,0,0,0,0,0
			l-3.8-3.8l-0.2-0.2l0.1-0.2c1.4-1.7,2.6-3.6,3.7-5.5l0.1-0.2l0.2,0.1l4.9,2c0.1,0.1,0.3,0.1,0.4,0.1c0.2,0,0.3,0,0.4-0.1
			c0.3-0.1,0.5-0.3,0.6-0.6l3-7.3c0.2-0.6,0-1.2-0.6-1.5c0,0,0,0,0,0l-4.9-2l-0.2-0.1l0.1-0.2c0.3-0.9,0.5-1.9,0.7-2.8
			c0.2-1.1,0.4-2.3,0.6-3.4v-0.2h5.6c0.6,0,1.1-0.5,1.1-1.1v-7.8C99.3,45.2,98.8,44.7,98.2,44.7z M97.1,47.2v5.4h-5.4
			c-0.6,0-1.1,0.4-1.1,1c-0.1,1.5-0.4,2.9-0.7,4.4c-0.3,1.3-0.6,2.6-1,3.8c-0.2,0.6,0.1,1.2,0.7,1.4l4.8,2l0.2,0.1l-0.1,0.2
			l-1.9,4.7l-0.1,0.2l-0.2-0.1l-4.8-2c-0.1-0.1-0.3-0.1-0.4-0.1c-0.4,0-0.8,0.2-1,0.6c-1.3,2.5-2.9,4.9-4.7,7.1
			c-0.4,0.5-0.3,1.1,0.1,1.5l3.7,3.6l0.2,0.2L85,81.5l-3.6,3.6l-0.2,0.2L81,85.1l-3.7-3.7c-0.2-0.2-0.5-0.3-0.8-0.3
			c-0.3,0-0.5,0.1-0.7,0.3c-2.2,1.8-4.5,3.3-7,4.7c-0.5,0.3-0.7,0.9-0.5,1.4l2,4.8l0.1,0.2l-0.2,0.1l-4.7,2l-0.2,0.1l-0.1-0.2
			l-2-4.8c-0.2-0.4-0.6-0.7-1-0.7c-0.1,0-0.2,0-0.3,0c-2.7,0.8-5.5,1.4-8.4,1.7c-0.6,0.1-1,0.6-1,1.1v5.4h-5.5v-5.4
			c0-0.6-0.4-1.1-1-1.1c-2.8-0.3-5.7-0.8-8.4-1.7c-0.1,0-0.2,0-0.3,0c-0.4,0-0.8,0.3-1,0.7l-2,4.8l-0.1,0.2l-0.2-0.1l-4.7-2
			l-0.2-0.1l0.1-0.2l2-4.8c0.2-0.5,0-1.2-0.5-1.4c-2.5-1.3-4.8-2.9-6.9-4.7c-0.2-0.2-0.5-0.3-0.7-0.3c-0.3,0-0.6,0.1-0.8,0.3
			l-3.7,3.7l-0.2,0.2L18,85.1l-3.6-3.6l-0.2-0.2l0.2-0.2l3.6-3.6c0.4-0.4,0.5-1.1,0.1-1.5c-1.8-2.2-3.4-4.6-4.7-7.1
			c-0.2-0.4-0.6-0.6-1-0.6c-0.1,0-0.3,0-0.4,0.1l-4.8,2l-0.2,0.1l-0.1-0.2l-2-4.8l-0.1-0.2L5,65.1l4.8-2c0.5-0.2,0.8-0.8,0.6-1.4
			c-0.4-1.2-0.7-2.5-1-3.8c-0.3-1.5-0.5-2.9-0.6-4.4c-0.1-0.6-0.6-1-1.1-1H2.3v-5.6h5.4c0.6,0,1.1-0.4,1.1-1C9,44.5,9.2,43,9.5,41.5
			c0.3-1.4,0.6-2.7,1-4c0.2-0.6-0.1-1.2-0.6-1.4l-4.8-2l-0.2-0.1l0.1-0.2l2-4.7L7,28.9L7.2,29l4.8,2c0.5,0.2,1.2,0,1.4-0.5
			c1.3-2.5,2.9-4.8,4.7-6.9c0.4-0.5,0.4-1.1-0.1-1.5l-3.7-3.7l-0.2-0.2l0.2-0.2l3.7-3.6l0.2-0.2l0.2,0.2L22,18
			c0.2,0.2,0.5,0.3,0.8,0.3c0.3,0,0.5-0.1,0.7-0.3c2.2-1.8,4.6-3.4,7.1-4.7c0.5-0.3,0.7-0.9,0.5-1.4l-2-4.8L29,6.9l0.2-0.1L34,4.9
			l0.2-0.1L34.3,5l2,4.8c0.2,0.4,0.6,0.7,1,0.7c0.1,0,0.2,0,0.3-0.1c2.7-0.8,5.4-1.4,8.2-1.6c0.6-0.1,1-0.6,1-1.1V2.3h5.5v5.4
			c0,0.6,0.4,1.1,1,1.1c2.8,0.3,5.5,0.8,8.2,1.6c0.6,0.2,1.2,0,1.5-0.6c0,0,0,0,0,0L65,5l0.1-0.2l0.2,0.1l4.7,2L70.3,7l-0.1,0.2
			l-2,4.8c-0.2,0.5,0,1.2,0.5,1.4c2.5,1.3,4.9,2.9,7.1,4.7c0.5,0.4,1.1,0.3,1.5-0.1l3.7-3.6l0.2-0.2l0.2,0.2L85,18l0.2,0.2L85,18.4
			L81.3,22c-0.4,0.4-0.5,1.1-0.1,1.5c1.8,2.2,3.4,4.5,4.7,7c0.3,0.5,0.9,0.7,1.4,0.5l4.8-2l0.2-0.1l0.1,0.2l2,4.7l0.1,0.2l-0.2,0.1
			l-4.8,2c-0.5,0.2-0.8,0.8-0.7,1.4c0.4,1.3,0.7,2.6,1,4c0.3,1.5,0.5,2.9,0.7,4.4c0.1,0.6,0.6,1,1.1,1h5.4L97.1,47.2z"/>
		<path class="st1" d="M84.8,57.4c4.2-19.5-8.2-38.7-27.7-42.9c-2.5-0.5-5-0.8-7.5-0.8l0,0c-19.9,0.1-36.1,16.3-36,36.2
			c0,2.5,0.3,5.1,0.8,7.5c0.2,0.8,0.4,1.6,0.6,2.4c5.5,19.1,25.4,30.1,44.5,24.6C71.5,81,80.8,71.7,84.2,59.8
			C84.5,59,84.7,58.2,84.8,57.4z M82.3,56.8c-0.2,0.8-0.4,1.5-0.6,2.3c-4.2,14.2-17.2,24.1-32.1,24.2l0,0
			c-14.9-0.1-27.9-9.9-32.1-24.1c-0.2-0.8-0.4-1.5-0.6-2.3C13,38.8,24.4,21,42.5,17.1s35.8,7.5,39.8,25.5
			C83.3,47.3,83.3,52.2,82.3,56.8L82.3,56.8z"/>
		<path class="st0" d="M82,56.8c1.2-5.4,1-11-0.6-16.3c-5.1-17.6-23.4-27.7-40.9-22.6C29.6,21,21,29.5,17.9,40.5
			c-0.9,3-1.3,6.1-1.3,9.3c0,2.4,0.3,4.7,0.8,7c0.2,0.7,0.4,1.5,0.6,2.2c5.1,17.6,23.4,27.7,40.9,22.6C69.8,78.5,78.3,70,81.5,59
			C81.7,58.3,81.9,57.5,82,56.8z"/>
		<path class="st2" d="M84.2,59.8c0.2-0.8,0.4-1.6,0.6-2.4c4.3-19.4-7.9-38.6-27.3-43s-38.6,7.9-43,27.3c-0.6,2.7-0.9,5.4-0.9,8.1
			c0,2.6,0.2,5.1,0.8,7.6c0.2,0.8,0.4,1.6,0.6,2.4c5.5,19.1,25.4,30.1,44.5,24.6C71.5,81,80.8,71.7,84.2,59.8z M49.7,83.3L49.7,83.3
			c-14.9-0.1-27.9-9.9-32.1-24.2c-0.2-0.8-0.4-1.5-0.6-2.3C13.1,38.8,24.5,21,42.5,17s35.8,7.5,39.8,25.5c1,4.7,1,9.6,0,14.3
			c-0.2,0.8-0.4,1.5-0.6,2.3C77.6,73.4,64.5,83.2,49.7,83.3z"/>
	</g>
</g>
<g id="Page-1_1_">
	<g id="letter-H">
		<g id="Page-1" transform="translate(4.000000, 2.000000)">
			<path id="Stroke-3" class="st3" d="M36.3,31.6v11.9h18.9V31.1h8.8v34.1h-8.8V50.6H36.3v14.5h-8.8V31.1h8.8V31.6z"/>
		</g>
	</g>
</g>
</svg>
