<svg xmlns="http://www.w3.org/2000/svg" viewBox="0 0 102.6 102.6"><defs><style>.cls-1,.cls-3,.cls-4{fill:none;stroke-miterlimit:10;}.cls-1,.cls-4{stroke:#242e3c;}.cls-1{stroke-width:2.2px;}.cls-2{fill:#242e3c;}.cls-3{stroke:#e60000;stroke-width:2px;}.cls-4{stroke-width:2.6px;}</style></defs><title>Globe</title><g id="Layer_2" data-name="Layer 2"><g id="Globe-Australia"><path class="cls-1" d="M93.07,79.16s2-2.73-1-3.89l-.13-.12a1.87,1.87,0,0,0-2-.35,2.37,2.37,0,0,0-1.34,1.73l-.45,2.13A2.54,2.54,0,0,1,87.39,80l-4,3.53a2.69,2.69,0,0,0-.78,2.54l.07.34a2.4,2.4,0,0,0,1.13,1.62"/><path class="cls-1" d="M10.16,79c0-.06,1.75-3.68,1.72-3.74L14.6,72a1.67,1.67,0,0,0,.54-1.48l-.86-6.4a1.69,1.69,0,0,1,.46-1.4l6-6.3a1.67,1.67,0,0,0,.41-.69L22,53.1A1.69,1.69,0,0,0,20,51l-1.28.27A1.68,1.68,0,0,1,17,50.55l-7-10a1.28,1.28,0,0,1,.28-1.76l.13-.09a1.26,1.26,0,0,1,1.69.17L19,46.52a1.71,1.71,0,0,0,1.18.55l2.9.11a1.66,1.66,0,0,0,1.47-.75l2.07-3.09A1.69,1.69,0,0,0,26.12,41l-.21-.13a1.67,1.67,0,0,0-1.52-.13l-.93.38a1.71,1.71,0,0,1-2.17-.85l-1.13-2.43a.79.79,0,0,1,0-.64.85.85,0,0,1,.44-.47l.1-.05a.84.84,0,0,1,.81.06l2.07,1.37a1.73,1.73,0,0,0,.88.28l5.44.15a1.73,1.73,0,0,1,1.29.65l3.56,4.56a2,2,0,0,1,.19.31l4,8A1.69,1.69,0,0,0,40.4,53h.21a1.67,1.67,0,0,0,1.55-1l2-4.71a2.5,2.5,0,0,1,.21-.35l2.67-3.54a1.67,1.67,0,0,1,1.43-.67,1.66,1.66,0,0,1,1.36.8l2.24,3.64a1.28,1.28,0,0,1,.11.2l2.74,6.2a1.17,1.17,0,0,0,.15.27l3.21,4.7a1.67,1.67,0,0,0,.86.64l2.57.87a1.33,1.33,0,0,0,1.64-.72L65,55.71a1.69,1.69,0,0,0-2.65-2l-.79.68a1.67,1.67,0,0,1-1.47.35,1.66,1.66,0,0,1-.69-2.88L61.62,50a1.88,1.88,0,0,0,.41-.51l1.12-2.16A1.75,1.75,0,0,0,63.26,46L63,45.26a1.67,1.67,0,0,1,.43-1.72l1.07-1a1.69,1.69,0,0,0,.37-1.86l-2.95-7.07a1.5,1.5,0,0,1,2-2,1.49,1.49,0,0,0,1.17,0,1.53,1.53,0,0,0,.83-.81l2-4.79a1.63,1.63,0,0,0,0-1.19l-1.48-4.36a1.69,1.69,0,0,0-.91-1l-1.74-.77a1.67,1.67,0,0,1-.91-1A1.69,1.69,0,0,1,63,16.36l.34-.63a1.68,1.68,0,0,1,1.56-.89l5.87.25a1.69,1.69,0,0,1,1.44.93l1.33,2.67a1.69,1.69,0,0,0,1.9.89l.2,0a1.68,1.68,0,0,0,1.19-1.05l5.24-6.12"/><path class="cls-2" d="M51.48,60.44l2.41,2.1.77,1.65-2.14-1.58-1-2.17m-2.37-4.52a1.44,1.44,0,0,0-1.12.55,1.42,1.42,0,0,0-.15,1.47l2.74,5.73a1.81,1.81,0,0,0,.55.65l4.16,3.07a2,2,0,0,0,.52.26l1.24.38a1.49,1.49,0,0,0,.47.07,1.61,1.61,0,0,0,.9-.27,1.59,1.59,0,0,0,.69-1.2,1.43,1.43,0,0,0-1-1.49,1.44,1.44,0,0,1-.9-.77l-1.34-2.85A1.89,1.89,0,0,0,55.4,61L50,56.27a1.36,1.36,0,0,0-.66-.32,1.24,1.24,0,0,0-.27,0Z"/><path class="cls-2" d="M73.13,36.21v.94L71.22,38.9l1.72-2.4a2.9,2.9,0,0,0,.19-.29m.17-5.94a1.88,1.88,0,0,0-1.14.38,1.92,1.92,0,0,0-.76,1.64l.11,1.7a1.93,1.93,0,0,1-.36,1.23l-2.66,3.7A1.91,1.91,0,0,0,68.41,41l.14.23a1.88,1.88,0,0,0,1.35.9l.27,0a1.91,1.91,0,0,0,1.28-.5l3.26-3a1.88,1.88,0,0,0,.62-1.4V32.22a1.91,1.91,0,0,0-1.25-1.79l-.14-.05a2.05,2.05,0,0,0-.64-.11Z"/><path class="cls-3" d="M79.58,73.37h0l-1-4.12a1.53,1.53,0,0,0-.34-.67l-.4-.49a1.52,1.52,0,0,0-2.6.42,1.53,1.53,0,0,1-1.89.9l-1.09-.35a1.37,1.37,0,0,1-.94-1.3,1.36,1.36,0,0,0-1.65-1.32l-3.32.72a1.72,1.72,0,0,0-1,.65l-2.54,3.49a1.64,1.64,0,0,1-1,.64l-5.29,1.3a1.68,1.68,0,0,0-1.25,1.32l-.86,4.37a1.82,1.82,0,0,0,0,.32V81.8a1.69,1.69,0,0,0,2.25,1.6l6.55-2.3a1.69,1.69,0,0,1,1.13,0l2.55.92a1.72,1.72,0,0,1,.9.76l1.49,2.68a1.7,1.7,0,0,0,1.74.85l3.65-.55a1.72,1.72,0,0,0,1.19-.8l4.33-7.11a1.67,1.67,0,0,0,.2-1.29Z"/><path class="cls-2" d="M69.16,56v3.4a.44.44,0,0,1-.44.44.43.43,0,0,1-.35-.17.47.47,0,0,1-.08-.38L69.16,56m.1-2.87a2.11,2.11,0,0,0-2,1.56l-1.06,4a2.64,2.64,0,1,0,5.2.67V55.26a2.1,2.1,0,0,0-2.1-2.1Z"/><path class="cls-2" d="M77.47,59.15l3.71,2.49a4.38,4.38,0,0,0,1.33.58,5.39,5.39,0,0,0-.5.33H80l-.35-.87a4.15,4.15,0,0,0-2.24-2.27l-.23-.09.3-.17m0-2.24a1.86,1.86,0,0,0-.91.23l-.57.3a2,2,0,0,1-.91.23,1.68,1.68,0,0,1-.5-.07l-.42-.11a1.49,1.49,0,0,0-.36-.05,1.38,1.38,0,0,0-1.16,2.11,1.36,1.36,0,0,0,.63.53l3.26,1.36a1.92,1.92,0,0,1,1,1.06l.42,1a1.92,1.92,0,0,0,1.79,1.21h2.3a2,2,0,0,0,1.22-.43h0a2,2,0,0,1,1.22-.43,1.73,1.73,0,0,1,.5.07l.64.17a1.91,1.91,0,0,0,.48.06,1.88,1.88,0,0,0,1.13-.38,1.86,1.86,0,0,0-.92-3.32l-3.12-.36a1.94,1.94,0,0,1-.85-.31l-3.85-2.58a2,2,0,0,0-1.07-.32Z"/><path class="cls-2" d="M21.08,69.14h0l0,.06h0l-2.07,6v-.6s0-.06,0-.09l.7-4.21A.51.51,0,0,1,20,70L21,69.15h0m0-2.2a2.26,2.26,0,0,0-1.42.5l-1.08.88a2.72,2.72,0,0,0-1,1.67l-.7,4.21a3.42,3.42,0,0,0,0,.45V77a1.91,1.91,0,0,0,3.72.62l2.63-7.7a2.32,2.32,0,0,0,.07-1.2,2.26,2.26,0,0,0-1.46-1.65,2.35,2.35,0,0,0-.74-.13Z"/><path class="cls-3" d="M71.2,88.64A1.35,1.35,0,1,0,72.54,90,1.35,1.35,0,0,0,71.2,88.64Z"/><path class="cls-2" d="M72.77,25.79a.6.6,0,1,1,0,1.2.6.6,0,1,1,0-1.2m0-2.2a2.8,2.8,0,1,0,2.8,2.8,2.8,2.8,0,0,0-2.8-2.8Z"/><circle class="cls-4" cx="51.3" cy="51.3" r="50"/></g></g></svg>