<?xml version="1.0" encoding="utf-8"?>
<!-- Generator: Adobe Illustrator 22.1.0, SVG Export Plug-In . SVG Version: 6.00 Build 0)  -->
<svg version="1.1" id="Layer_1" xmlns="http://www.w3.org/2000/svg" xmlns:xlink="http://www.w3.org/1999/xlink" x="0px" y="0px"
	 viewBox="0 0 100 100" style="enable-background:new 0 0 100 100;" xml:space="preserve">
<style type="text/css">
	.st0{fill:none;stroke:#E60000;stroke-width:2.2785;stroke-linecap:round;stroke-linejoin:round;}
	.st1{fill:none;stroke:#485A65;stroke-width:2.2785;stroke-linecap:round;stroke-linejoin:round;}
</style>
<title></title>
<path class="st0" d="M56.2,37.5c0,3.9-3.1,10.6-7,10.6s-7-6.7-7-10.6c0.2-3.9,3.4-6.9,7.3-6.7C53.2,30.9,56.1,33.9,56.2,37.5
	L56.2,37.5z"/>
<path class="st1" d="M34.8,67.8c0-8,6.5-14.4,14.4-14.4s14.4,6.5,14.4,14.4"/>
<path class="st0" d="M73.7,42.2c0,3.3-2.7,9.1-5.9,9.1s-5.9-5.9-5.9-9.1c0-3.3,2.7-5.9,5.9-5.9C71.1,36.2,73.7,38.9,73.7,42.2
	L73.7,42.2z"/>
<path class="st1" d="M60.4,58.3c5.4-4.1,13-3,17.1,2.4c1.6,2.1,2.5,4.7,2.5,7.4"/>
<path class="st0" d="M24.8,42.2c0,3.3,2.7,9.1,5.9,9.1s5.9-5.9,5.9-9.1c0-3.3-2.7-5.9-5.9-5.9S24.7,38.9,24.8,42.2L24.8,42.2
	L24.8,42.2z"/>
<path class="st1" d="M38.1,58.3c-5.4-4.1-13-3-17.1,2.4c-1.6,2.1-2.5,4.7-2.5,7.4"/>
</svg>
