<?xml version="1.0" encoding="utf-8"?>
<!-- Generator: Adobe Illustrator 23.0.6, SVG Export Plug-In . SVG Version: 6.00 Build 0)  -->
<svg version="1.1" id="Layer_1" xmlns="http://www.w3.org/2000/svg" xmlns:xlink="http://www.w3.org/1999/xlink" x="0px" y="0px"
	 viewBox="0 0 100 100" style="enable-background:new 0 0 100 100;" xml:space="preserve">
<style type="text/css">
	.st0{fill:#E60000;stroke:#E60000;stroke-miterlimit:10;}
	.st1{fill:#949494;stroke:#949494;stroke-miterlimit:10;}
	.st2{display:none;fill:#949494;stroke:#949494;stroke-miterlimit:10;}
	.st3{fill-rule:evenodd;clip-rule:evenodd;fill:#E60000;}
</style>
<g id="patient_document">
	<path class="st0" d="M59.5,44.7h17.7c0.6,0,1-0.4,1-1V23.5c0-0.5-0.5-1-1-1H59.5c-0.6,0-1,0.4-1,1v20.3
		C58.5,44.3,59,44.7,59.5,44.7z M76.2,42.8H60.6v-0.1c0-1.5,1.2-2.9,2.8-3.2l2.3-0.2c0,0,0.1,0,0.1,0c1.1-0.2,1.8-1,1.8-2v-0.4
		c0-0.7-0.4-1.3-1-1.7c-0.8-0.5-1.4-1.4-1.4-2.4v-2.4c0-1.6,1.4-2.9,3.1-2.9c1.7,0,3.1,1.3,3.1,2.9v2.4c0,1-0.5,1.9-1.4,2.4
		c-0.6,0.4-1,1-1,1.7v0.4c0,1,0.8,1.9,1.8,2c0,0,0.1,0,0.1,0l2.3,0.2C75.1,39.8,76.2,41.1,76.2,42.8L76.2,42.8z M76.2,24.4v14.2
		c-0.7-0.5-1.5-0.9-2.4-1c0,0-0.1,0-0.1,0l-2.3-0.2c-0.1,0-0.1-0.1-0.1-0.1v-0.4c0,0,0-0.1,0.1-0.1c1.4-0.9,2.2-2.4,2.2-4v-2.4
		c0-2.7-2.3-4.8-5.2-4.8c-2.9,0-5.2,2.2-5.2,4.8v2.4c0,1.6,0.8,3.1,2.2,4c0,0,0.1,0.1,0.1,0.1v0.4c0,0.1,0,0.1-0.1,0.1l-2.3,0.2
		c0,0-0.1,0-0.1,0c-0.9,0.2-1.7,0.5-2.4,1V24.4L76.2,24.4z"/>
	<rect x="31.2" y="43.2" class="st0" width="16.9" height="1.9"/>
	<rect x="31.2" y="47.1" class="st0" width="10.5" height="1.9"/>
	<rect x="31.2" y="54.3" class="st0" width="16.9" height="1.9"/>
	<rect x="31.2" y="58.4" class="st0" width="16.9" height="1.9"/>
	<rect x="58.2" y="54.3" class="st0" width="16.9" height="1.9"/>
	<rect x="58.2" y="58.4" class="st0" width="16.9" height="1.9"/>
	<path class="st1" d="M89.1,66.9c-0.9-1-2-1.6-3.4-1.9V17.4c0-0.5-0.5-1-1-1H41L40.4,31l-18.3,0.2v18.6h-5.4c-3.2,0-5.8,2.4-5.8,5.4
		v38.4c0,0,0,0,0,0c0,0.5,0.4,1,1,1c0,0,0,0,0,0h72.9c0.5,0,0.9-0.3,1-0.8l4.5-22.5C90.6,69.7,90.1,68.1,89.1,66.9z M83.6,18.4v46.4
		H24.1v-33L40.4,31l1.8-12.6H83.6z M16.6,51.7h5.4v13.1h-0.4c-3,0-5.5,1.9-6,4.5l-2.8,13.8v-28C12.9,53.3,14.6,51.7,16.6,51.7z
		 M88.3,70.9l-4.3,21.7H13.1l4.6-22.9c0.3-1.7,2-2.9,4-2.9h62.6c1.2,0,2.4,0.5,3.2,1.4C88.2,68.9,88.4,69.9,88.3,70.9z"/>
	<path class="st2" d="M30.1,34.7h3v2.8c0,0.5,0.5,1,1,1h7c0.6,0,1-0.4,1-1v-2.8h3c0.6,0,1-0.4,1-1v-6.5c0-0.5-0.5-1-1-1h-3v-2.8
		c0-0.5-0.5-1-1-1h-7c-0.6,0-1,0.4-1,1v2.8h-3c-0.6,0-1,0.4-1,1v6.5C29.1,34.3,29.6,34.7,30.1,34.7z M31.2,28.2h3c0.6,0,1-0.4,1-1
		v-2.8h4.9v2.8c0,0.5,0.5,1,1,1h3v4.6h-3c-0.6,0-1,0.4-1,1v2.8h-4.9v-2.8c0-0.5-0.5-1-1-1h-3V28.2z"/>
</g>
<path class="st3" d="M29.2,6c0.8,0,1.5,0.7,1.5,1.5v13.1l3.5-3.5c0.6-0.6,1.6-0.6,2.2,0c0.6,0.6,0.6,1.6,0,2.2l-6.1,6.1
	c-0.3,0.3-0.7,0.4-1.1,0.4c-0.4,0-0.8-0.2-1.1-0.4L22,19.3c-0.6-0.6-0.6-1.6,0-2.2c0.6-0.6,1.6-0.6,2.2,0l3.5,3.5V7.5
	C27.7,6.7,28.3,6,29.2,6z M17,15.1c0.8,0,1.5,0.7,1.5,1.5v12.2c0,0.8,0.7,1.5,1.5,1.5h18.3c0.8,0,1.5-0.7,1.5-1.5V16.7
	c0-0.8,0.7-1.5,1.5-1.5c0.8,0,1.5,0.7,1.5,1.5v12.2c0,2.5-2,4.6-4.6,4.6H20c-2.5,0-4.6-2-4.6-4.6V16.7C15.5,15.8,16.2,15.1,17,15.1z
	"/>
</svg>
