<?xml version="1.0" encoding="utf-8"?>
<!-- Generator: Adobe Illustrator 22.1.0, SVG Export Plug-In . SVG Version: 6.00 Build 0)  -->
<svg version="1.1" id="Layer_1" xmlns="http://www.w3.org/2000/svg" xmlns:xlink="http://www.w3.org/1999/xlink" x="0px" y="0px"
	 viewBox="0 0 100 100" style="enable-background:new 0 0 100 100;" xml:space="preserve">
<style type="text/css">
	.st0{fill:none;stroke:#242E3C;stroke-width:3;stroke-miterlimit:10;}
	.st1{fill:#E60000;stroke:#E60000;stroke-width:0.5;stroke-miterlimit:10;}
</style>
<path class="st0" d="M27.5,8c0.6,0,1.2,0.2,1.7,0.7c0.5,0.5,0.7,1,0.7,1.7v32.8l19.7-15.8c0.4-0.3,0.9-0.5,1.5-0.5
	c0.6,0,1.2,0.2,1.7,0.7c0.5,0.5,0.7,1,0.7,1.7v14l19.7-15.8c0.4-0.3,0.9-0.5,1.5-0.5c0.6,0,1.2,0.2,1.7,0.7s0.7,1,0.7,1.7V51H54
	c0,0.6,0,23,0,23H13.4c-0.6,0-1.2-0.2-1.7-0.7c-0.5-0.5-0.7-1-0.7-1.7V10.4c0-0.6,0.2-1.2,0.7-1.7c0.5-0.5,1-0.7,1.7-0.7H27.5z"/>
<g id="_1">
	<path id="login_account_enter_door" class="st1" d="M88.5,59.3v32.5c0,0.7-0.6,1.3-1.3,1.3h-25c-0.7,0-1.3-0.6-1.3-1.3v-2.5h2.5
		v1.3H86v-30H63.5v3.8H61v-5c0-0.7,0.6-1.3,1.3-1.3h25C87.9,58,88.5,58.6,88.5,59.3z M70.1,80.9l1.8,1.8l6.3-6.3
		c0.5-0.5,0.5-1.3,0-1.8c0,0,0,0,0,0l-6.3-6.3l-1.8,1.8l4.1,4.1H61v2.5h13.2L70.1,80.9z"/>
</g>
</svg>
