<?xml version="1.0" encoding="utf-8"?>
<!-- Generator: Adobe Illustrator 22.1.0, SVG Export Plug-In . SVG Version: 6.00 Build 0)  -->
<svg version="1.1" id="Your_Icons" xmlns="http://www.w3.org/2000/svg" xmlns:xlink="http://www.w3.org/1999/xlink" x="0px" y="0px"
	 viewBox="0 0 100 100" style="enable-background:new 0 0 100 100;" xml:space="preserve">
<style type="text/css">
	.st0{fill:#E60000;stroke:#E60000;stroke-width:0.7172;stroke-miterlimit:10;}
	.st1{fill:#E60000;}
	.st2{fill:#485A65;stroke:#485A65;stroke-width:0.7172;stroke-miterlimit:10;}
</style>
<title></title>
<path class="st0" d="M60.7,80.9c-0.4,0-0.7-0.3-0.7-0.7v-8.9H40v8.9c0,0.4-0.3,0.7-0.7,0.7c-0.4,0-0.7-0.3-0.7-0.7V69.8h22.8v10.3
	C61.4,80.6,61.1,80.9,60.7,80.9z"/>
<path class="st1" d="M48.9,25.7l-0.8-0.3c-0.7-0.3-1.4-0.6-2.2-0.9c-1.5-0.8-2.9-3.2-3-3.5l-0.6-1.1l1.2-0.3c1.6-0.3,3.2,0.1,4.4,1
	c1.6,0.9,2.2,2.8,1.3,4.4l0,0L48.9,25.7z M44.6,20.8c0.5,0.9,1.2,1.7,2.1,2.3c0.5,0.3,1,0.5,1.6,0.7c0.2-0.9-0.2-1.8-1-2.2
	C46.4,21.2,45.5,20.8,44.6,20.8L44.6,20.8z"/>
<path class="st1" d="M51.2,25.7l-0.4-0.7c-0.9-1.6-0.3-3.6,1.3-4.4l0,0c1.3-0.9,2.9-1.3,4.4-1l1.2,0.3l-0.6,1.1
	c-0.1,0.3-1.5,2.7-3,3.5c-0.7,0.4-1.4,0.6-2.2,0.9L51.2,25.7z M55.5,20.8c-0.9,0.1-1.9,0.4-2.7,0.9c-0.8,0.4-1.2,1.3-1,2.2
	c0.5-0.2,1.1-0.4,1.6-0.7C54.3,22.5,55,21.7,55.5,20.8L55.5,20.8z"/>
<path class="st1" d="M26.6,28.8l-0.8-0.3c-0.7-0.3-1.4-0.6-2.2-0.9c-1.5-0.8-2.9-3.2-3-3.5L20,23l1.2-0.3c1.6-0.3,3.2,0.1,4.4,1
	c1.6,0.9,2.2,2.8,1.4,4.4c0,0,0,0.1-0.1,0.1L26.6,28.8z M22.3,24c0.5,0.9,1.2,1.7,2.1,2.4c0.5,0.3,1,0.5,1.6,0.7
	c0.1-0.5,0.1-1.4-1-2.2C24.1,24.4,23.1,24.1,22.3,24L22.3,24z"/>
<path class="st1" d="M28.7,28.8l-0.4-0.7c-0.9-1.6-0.3-3.5,1.3-4.4l0,0c1.3-0.9,2.9-1.3,4.4-1l1.2,0.3l-0.6,1.1
	c-0.1,0.3-1.5,2.7-3,3.5c-0.7,0.4-1.4,0.6-2.2,0.9L28.7,28.8z M33,24c-0.9,0.1-1.9,0.4-2.6,0.9c-0.8,0.4-1.2,1.3-1,2.2
	c0.5-0.2,1.1-0.4,1.6-0.7C31.8,25.7,32.5,24.9,33,24L33,24z"/>
<path class="st1" d="M71.5,28.7l-0.7-0.3c-0.7-0.3-1.4-0.6-2.2-0.9c-1.4-0.8-2.8-3.1-3-3.5l-0.6-1.1l1.2-0.3c1.6-0.3,3.2,0.1,4.4,1
	c1.6,0.9,2.2,2.8,1.4,4.4l0,0L71.5,28.7z M67.2,23.9c0.5,0.9,1.2,1.7,2.1,2.3c0.5,0.3,1,0.5,1.6,0.7c0.2-0.9-0.2-1.8-1-2.2
	C69.1,24.2,68.2,23.9,67.2,23.9z"/>
<path class="st1" d="M73.5,28.7l-0.4-0.7c-0.9-1.6-0.3-3.6,1.3-4.4l0,0c1.3-0.9,2.9-1.3,4.4-1l1.3,0.3l-0.6,1.1
	c-0.1,0.3-1.5,2.7-3,3.5c-0.7,0.4-1.4,0.6-2.2,0.9L73.5,28.7z M77.8,23.9c-0.9,0.1-1.9,0.4-2.7,0.9c-0.8,0.4-1.2,1.3-1,2.2
	c0.5-0.2,1.1-0.4,1.6-0.7C76.6,25.6,77.3,24.8,77.8,23.9L77.8,23.9z"/>
<path class="st2" d="M33.7,52.6L21.6,44V29.1h12.1V52.6z M23,43.3l9.3,6.5V30.5H23V43.3z"/>
<path class="st2" d="M81.6,80.9H18.5V40.1l17.8,12.6L50,46.2l13.8,6.5l17.8-11.5L81.6,80.9L81.6,80.9z M19.9,79.4h60.2V43.8
	L63.9,54.3L50,47.7l-13.9,6.6L19.9,42.8V79.4z"/>
<path class="st2" d="M66.6,52.5V29.1h12.1v15.7L66.6,52.5z M68,30.5V50l9.3-6V30.5H68z"/>
<path class="st2" d="M44.7,50.1c-0.4,0-0.7-0.3-0.7-0.7V25.9h12.2l0.2,23.5c0,0.4-0.3,0.7-0.7,0.7l0,0c-0.4,0-0.7-0.3-0.7-0.7
	l-0.1-22h-9.4v22.1C45.4,49.8,45.1,50.1,44.7,50.1z"/>
<path class="st2" d="M80.9,62.9H19.2c-0.4,0-0.7-0.3-0.7-0.7c0-0.4,0.3-0.7,0.7-0.7h61.7c0.4,0,0.7,0.3,0.7,0.7
	C81.6,62.6,81.3,62.9,80.9,62.9z"/>
<path class="st2" d="M36.2,62.9c-0.4,0-0.7-0.3-0.7-0.7v-8.7c0-0.4,0.3-0.7,0.7-0.7s0.7,0.3,0.7,0.7v8.7
	C36.9,62.5,36.5,62.9,36.2,62.9z"/>
<path class="st2" d="M63.9,62.9c-0.4,0-0.7-0.3-0.7-0.7v-8.7c0-0.4,0.3-0.7,0.7-0.7c0.4,0,0.7,0.3,0.7,0.7v8.7
	C64.6,62.5,64.3,62.9,63.9,62.9z"/>
</svg>
