<svg xmlns="http://www.w3.org/2000/svg" viewBox="0 0 73.71 98.5"><defs><style>.cls-1{fill:none;}.cls-2{fill:#242e3c;}.cls-3{fill:#e60000;}</style></defs><title>List</title><g id="Layer_2" data-name="Layer 2"><g id="List"><path class="cls-1" d="M41.19,7.18a4.34,4.34,0,0,0-8.67,0V8.86H25.38v8.67h23V8.86H41.19Z"/><polygon class="cls-1" points="6.26 8.85 2.85 8.85 2.85 95.65 70.87 95.65 70.87 8.85 67.45 8.85 67.45 92.24 6.26 92.24 6.26 8.85"/><polygon class="cls-1" points="22.04 8.85 9.61 8.85 9.61 88.89 64.11 88.89 64.11 8.85 51.68 8.85 51.68 20.88 22.04 20.88 22.04 8.85"/><path class="cls-2" d="M43.82,5.44a7.18,7.18,0,0,0-13.93,0L29.75,6H0V98.5H73.71V6H44ZM67,8.35h4.42v87.8h-69V8.35H6.76V91.74H67Zm-15.77,0H64.6v81H9.11v-81H22.54v12H51.18ZM48.83,18H24.88V8.36H32V7.18a4.84,4.84,0,0,1,9.67,0V8.36h7.14Z"/><rect class="cls-3" x="37.61" y="67.56" width="20.11" height="2.35"/><rect class="cls-3" x="37.61" y="75.25" width="9.3" height="2.35"/><rect class="cls-3" x="37.61" y="32.17" width="20.11" height="2.35"/><rect class="cls-3" x="37.61" y="39.87" width="9.3" height="2.35"/><rect class="cls-3" x="37.61" y="49.87" width="20.11" height="2.35"/><rect class="cls-3" x="37.61" y="57.56" width="9.3" height="2.35"/><polygon class="cls-3" points="28.5 31.32 22.7 37.13 22.35 37.48 22.17 37.66 22 37.48 21.64 37.13 19.69 35.17 18.03 36.83 22.17 40.97 30.16 32.98 28.5 31.32"/><polygon class="cls-3" points="28.5 49.01 22.7 54.82 22.35 55.17 22.17 55.35 22 55.17 21.64 54.82 19.69 52.86 18.03 54.52 22.17 58.66 30.16 50.67 28.5 49.01"/><polygon class="cls-3" points="28.5 66.71 22.7 72.51 22.35 72.86 22.17 73.04 22 72.86 21.64 72.51 19.69 70.55 18.03 72.21 22.17 76.36 30.16 68.36 28.5 66.71"/></g></g></svg>