<?xml version="1.0" encoding="utf-8"?>
<!-- Generator: Adobe Illustrator 22.1.0, SVG Export Plug-In . SVG Version: 6.00 Build 0)  -->
<svg version="1.1" id="Layer_1" xmlns="http://www.w3.org/2000/svg" xmlns:xlink="http://www.w3.org/1999/xlink" x="0px" y="0px"
	 viewBox="0 0 100 100" style="enable-background:new 0 0 100 100;" xml:space="preserve">
<style type="text/css">
	.st0{fill:#485A65;}
	.st1{fill:none;stroke:#E60000;stroke-width:2.1969;stroke-miterlimit:10;}
</style>
<g id="Layer_x0020_1">
	<path class="st0" d="M49.3,29.9h0.2c0.5,0,1,0,1.3,0c7.2,0,13.8,2.9,18.5,7.7l0,0l0,0c4.8,4.8,7.7,11.3,7.7,18.5
		s-2.9,13.8-7.7,18.5l0,0c-4.8,4.7-11.4,7.6-18.6,7.6c-7.2,0-13.8-2.9-18.5-7.7l-0.1-0.1c-4.7-4.7-7.6-11.2-7.6-18.5
		c0-2.6,0.4-5.2,1.2-7.6c0.7-2.3,1.7-4.5,3-6.4c-1.8-3.1-3.5-6.2-4.2-8.6v-0.1l0,0l0,0c-0.1-0.4-0.2-1-0.2-1.4
		c-0.1-0.5-0.1-1-0.1-1.5c0-3.4,1.4-6.6,3.7-8.9l0,0l0,0l0,0c2.3-2.3,5.4-3.7,8.9-3.7s6.6,1.4,8.9,3.7l0,0l0,0l0,0
		C47.8,23.7,49.1,26.7,49.3,29.9L49.3,29.9z M30.7,41.5L30.7,41.5L30.7,41.5L30.7,41.5L30.7,41.5L30.7,41.5c1,1.6,1.9,3.1,2.9,4.5
		c0,0.1,0.1,0.1,0.1,0.1l0.9,1.4c0.8,1.2,1.5,2.4,2.2,3.5c0.7-1.1,1.4-2.3,2.2-3.5l0.9-1.4c0-0.1,0.1-0.1,0.1-0.1
		c2.8-4.5,5.9-9.4,7-12.8v-0.1l0,0l0,0l0.1-0.2c0.1-0.4,0.1-0.7,0.2-1.2l0,0c0.1-0.4,0.1-0.8,0.1-1.2c0-2.9-1.2-5.6-3.1-7.5l0,0
		c-1.9-1.9-4.5-3.1-7.5-3.1s-5.6,1.1-7.5,3l0,0c-1.9,1.9-3.1,4.5-3.1,7.5c0,0.4,0,0.9,0.1,1.2l0,0c0.1,0.4,0.1,0.8,0.2,1.2
		C27.1,35.2,28.8,38.2,30.7,41.5L30.7,41.5z M29.9,43.9c-0.3,0.6-0.6,1.1-0.9,1.7h1.9L29.9,43.9z M32.2,47.7h-4
		c-0.1,0.4-0.3,0.9-0.4,1.4c-0.7,2.2-1,4.6-1,7c0,2.9,0.5,5.8,1.5,8.4h8.6c-1.1-3.7-1.4-7.5-1.1-11.2c-0.8-1.3-1.8-2.9-2.9-4.6
		L32.2,47.7L32.2,47.7z M37.7,53.4c-0.4,3.7,0.1,7.5,1.2,11.1h11V47.7h-8.6l-0.7,1C39.5,50.4,38.5,52,37.7,53.4z M42.5,45.6h7.3
		V33.3c-0.4,0.2-0.7,0.5-1.1,0.7C47.5,37.3,45,41.6,42.5,45.6L42.5,45.6z M53.5,32c4,2.6,7,6,9.1,9.9c0.7,1.2,1.2,2.4,1.7,3.7h8.4
		c-1.2-2.5-2.8-4.8-4.7-6.7l0,0C64.1,35.2,59,32.7,53.5,32z M64.9,47.6c0.8,2.7,1.2,5.5,1.2,8.3c0,2.9-0.4,5.7-1.2,8.5h8.6
		c1-2.6,1.5-5.4,1.5-8.4c0-3-0.5-5.8-1.5-8.4L64.9,47.6L64.9,47.6z M64.2,66.5c-0.4,1.2-1,2.4-1.6,3.6c-2.1,3.9-5.1,7.4-9.2,10
		c5.6-0.6,10.7-3.1,14.5-7c1.9-1.9,3.5-4.2,4.7-6.7H64.2z M51.8,78.7c4-2.5,7-5.9,9-9.7c0.4-0.9,0.9-1.8,1.2-2.6H51.8
		C51.8,66.4,51.8,78.7,51.8,78.7z M62.8,64.5c0.9-2.7,1.3-5.6,1.3-8.5c0-2.8-0.4-5.6-1.2-8.3h-11v16.8H62.8L62.8,64.5z M62,45.6
		c-0.4-1-0.8-1.9-1.3-2.8c-2.1-3.7-5.1-7-8.9-9.5v12.3H62z M39.6,66.5c0.3,0.7,0.7,1.5,1,2.2l0,0c2.1,4,5.1,7.5,9.2,10.1V66.5H39.6
		L39.6,66.5z M48.2,80.1c-4.2-2.8-7.3-6.4-9.4-10.5l0,0l0,0c-0.5-1-1-2.1-1.4-3.1H29c1.2,2.5,2.8,4.7,4.7,6.6l0.1,0.1
		C37.5,76.9,42.6,79.5,48.2,80.1z"/>
</g>
<path class="st1" d="M36.7,25.9c1.5,0,2.7,0.6,3.7,1.5l0,0c1,1,1.5,2.3,1.5,3.7c0,1.5-0.6,2.8-1.5,3.7l-0.1,0.1
	c-1,0.9-2.2,1.5-3.7,1.5c-1.5,0-2.8-0.6-3.7-1.5c-1-1-1.5-2.3-1.5-3.7s0.6-2.7,1.5-3.7l0,0C33.9,26.4,35.2,25.9,36.7,25.9z"/>
</svg>
