<?xml version="1.0" encoding="utf-8"?>
<!-- Generator: Adobe Illustrator 22.1.0, SVG Export Plug-In . SVG Version: 6.00 Build 0)  -->
<svg version="1.1" id="Layer_1" xmlns="http://www.w3.org/2000/svg" xmlns:xlink="http://www.w3.org/1999/xlink" x="0px" y="0px"
	 viewBox="0 0 150 150" style="enable-background:new 0 0 150 150;" xml:space="preserve">
<style type="text/css">
	.st0{fill:#242E3C;}
	.st1{fill:#E60000;}
</style>
<g id="Ladder_1_">
	<path class="st0" d="M142.3,140H127l-10.8-33.4l-3.8,1.2l3.2,10H86l-6.8-21.1h29.7l2.4,7.3l3.8-1.2L93.2,35l6.4-19.9
		c0.7-2.2,0.3-4.4-1-6.3C97.2,7.1,95.2,6,92.9,6H71.5c-4.2,0-7.8,2.7-9.1,6.6L21.3,140H7.7v4h134.5L142.3,140L142.3,140z M117,121.8
		l5.9,18.2H93.2l-5.9-18.2H117z M88.4,37H58.7l0.6-1.9H89L88.4,37z M61.1,53.5l3.8-1.2L61.3,41h25.8l-4.9,15.3H52.5l4.8-14.8
		L61.1,53.5z M80.9,60.2l-2.4,7.5h-8.6l-1.3-4.2h-4.2l5.7,17.8H44.4l6.8-21.1H80.9z M74.2,81.1l-3-9.5h6.1L74.2,81.1z M71.4,85.3
		l0.7,2.3L66,106.4H36.3l6.8-21.1H71.4z M74.2,94L89,140H59.4L74.2,94z M77.9,92.8l-1.7-5.2l5.1-15.9h19.5l6.8,21.1L77.9,92.8
		L77.9,92.8z M99.6,67.7H82.7l8.5-26.2L99.6,67.7z M66.1,13.8c0.7-2.3,2.9-3.9,5.3-3.9h21.5c1,0,1.9,0.5,2.5,1.2
		c0.6,0.8,0.7,1.8,0.4,2.7l-5.6,17.3H60.6L66.1,13.8z M35.1,110.3h29.7L55.2,140H25.5L35.1,110.3z"/>
</g>
<g id="Ladder_2_">
	<path class="st1" d="M99.6,15.1c0.7-2.2,0.3-4.4-1-6.3C97.2,7.1,95.2,6,92.9,6H71.5c-4.2,0-7.8,2.7-9.1,6.6L21.3,140H7.7v4l50.8,0
		L99.6,15.1z M88.4,37H58.7l0.6-1.9H89L88.4,37z M61.3,41h25.8l-4.9,15.3H52.5l4.8-14.8L61.3,41z M80.9,60.2l-2.4,7.5l-4.3,13.6
		H44.4l6.8-21.1H80.9z M71.1,71.7h6.1 M72.7,85.3l-0.6,2.3L66,106.4H36.3l6.8-21.1H72.7z M74.2,94l-14.8,46 M82.7,67.7l8.5-26.2
		 M66.1,13.8c0.7-2.3,2.9-3.9,5.3-3.9h21.5c1,0,1.9,0.5,2.5,1.2c0.6,0.8,0.7,1.8,0.4,2.7l-5.6,17.3H60.6L66.1,13.8z M35.1,110.3
		h29.7L55.2,140H25.5L35.1,110.3z"/>
</g>
</svg>
