<?xml version="1.0" encoding="utf-8"?>
<!-- Generator: Adobe Illustrator 22.1.0, SVG Export Plug-In . SVG Version: 6.00 Build 0)  -->
<svg version="1.1" id="Layer_1" xmlns="http://www.w3.org/2000/svg" xmlns:xlink="http://www.w3.org/1999/xlink" x="0px" y="0px"
	 viewBox="0 0 100 100" style="enable-background:new 0 0 100 100;" xml:space="preserve">
<style type="text/css">
	.st0{fill:#E60000;}
	.st1{fill:#949494;}
</style>
<g>
	<path class="st0" d="M70.6,62.4c-2.3,0-4.3,0.9-6,2.5c-1.6,1.6-2.5,3.7-2.5,6s0.9,4.3,2.5,6c1.6,1.6,3.7,2.5,6,2.5s4.3-0.9,6-2.5
		c1.6-1.6,2.5-3.7,2.5-6s-0.9-4.3-2.5-6C75.1,63.4,72.9,62.4,70.6,62.4z M70.6,77.5c-3.6,0-6.5-2.9-6.5-6.5s2.9-6.5,6.5-6.5
		s6.5,2.9,6.5,6.5S74.3,77.5,70.6,77.5z"/>
	<path class="st0" d="M86.3,67.1h-1.4c-1.2,0-2.2-1-2.2-2.2c0-0.6,0.3-1.2,0.7-1.6l0.9-0.9c0.9-0.9,0.9-2.3,0-3.2l-2.1-2.1
		c-0.4-0.4-1-0.7-1.7-0.7s-1.2,0.2-1.7,0.7L77.9,58c-0.4,0.5-1,0.7-1.6,0.7c-1.2,0-2.1-0.2-2.1-1.3L74,55.2c0-1.3-1-2.3-2.3-2.3
		h-2.8c-1.3,0-2.3,1.1-2.3,2.3v1.5c0,1.2-1,2.2-2.2,2.2c-0.6,0-1.2-0.3-1.6-0.7l-0.9-0.9c-0.4-0.4-1-0.7-1.7-0.7
		c-0.6,0-1.2,0.2-1.7,0.7l-2.1,2.1c-0.9,0.9-0.9,2.3,0,3.2l0.9,0.9c0.5,0.4,0.7,1,0.7,1.6c0,1.2-1,2.2-2.2,2.2h-1.4
		c-1.3,0-2.3,1.1-2.3,2.3V71v1.4c0,1.3,1.1,2.3,2.3,2.3h1.4c1.2,0,2.2,1,2.2,2.2c0,0.6-0.3,1.2-0.7,1.6l-0.8,0.9
		c-0.9,0.9-0.9,2.3,0,3.2l2.1,2.1c0.4,0.4,1,0.7,1.7,0.7s1.2-0.2,1.7-0.7l0.9-0.9c0.4-0.4,1-0.7,1.6-0.7c1.2,0,2.2,1,2.2,2.2v1.4
		c0,1.3,1,2.3,2.3,2.3h2.8c1.3,0,2.3-1.1,2.3-2.3v-1.4c0-1.2,1-2.2,2.2-2.2c0.6,0,1.2,0.3,1.6,0.7l0.9,0.9c0.4,0.4,1,0.7,1.7,0.7
		s1.2-0.2,1.7-0.7l2.1-2.1c0.9-0.9,0.9-2.3,0-3.2l-0.9-0.9c-0.5-0.4-0.7-1-0.7-1.6c0-1.2,1-2.3,2.2-2.3h1.4c1.3,0,2.2-1,2.2-2.3
		v-1.5v-1.4C88.6,68.2,87.6,67.1,86.3,67.1z M86.1,70.9v1.3c0,0.4-0.2,0.7-0.6,0.7h-1.3c-0.9,0-1.8,0.4-2.4,1s-1,1.6-1,2.5
		s0.4,1.8,1.1,2.5l0.8,0.8c0.3,0.3,0.3,0.8,0,1.1l-1.9,1.9c-0.2,0.1-0.4,0.2-0.6,0.2s-0.5-0.1-0.6-0.2L78.8,82
		c-0.6-0.7-1.6-1.1-2.5-1.1s-1.8,0.4-2.4,1c-0.7,0.6-1,1.5-1,2.4v1.3c0,0.5-0.4,0.8-0.7,0.8h-2.7c-0.4,0-0.7-0.4-0.7-0.8v-1.3
		c0-0.9-0.4-1.8-1-2.4s-1.6-1-2.4-1c-0.9,0-1.8,0.4-2.5,1.1L62,82.8c-0.2,0.1-0.4,0.2-0.6,0.2s-0.5-0.1-0.6-0.2l0,0l0,0l-1.9-1.9
		c-0.3-0.3-0.3-0.7,0-1.1l0.8-0.8c0.7-0.6,1.1-1.6,1.1-2.5s-0.4-1.8-1-2.4s-1.5-1-2.4-1H56c-0.5,0-0.8-0.4-0.8-0.7V71v-1.4
		c0-0.4,0.4-0.7,0.8-0.7h1.3c0.9,0,1.8-0.4,2.4-1c0.6-0.6,1-1.5,1-2.4s-0.4-1.8-1.1-2.5l-0.8-0.8c-0.2-0.2-0.2-0.4-0.2-0.6
		c0-0.1,0-0.4,0.2-0.6l1.9-1.9c0.2-0.1,0.4-0.2,0.6-0.2c0.2,0,0.5,0.1,0.6,0.2l0,0l0,0l0.8,0.8c0.6,0.7,1.6,1.1,2.5,1.1
		s1.8-0.4,2.4-1s1-1.5,1-2.4v-1.3c0-0.5,0.4-0.8,0.7-0.8H72c0.4,0,0.7,0.4,0.7,0.8v1.3c0,0.9,0.4,1.8,1,2.4s1.6,1,2.5,1
		s1.8-0.4,2.5-1.1l0.8-0.8c0.2-0.1,0.4-0.2,0.6-0.2s0.5,0.1,0.6,0.2l1.9,1.9c0.2,0.2,0.2,0.4,0.2,0.6s-0.1,0.4-0.2,0.6L81.8,63
		c-0.7,0.6-1.1,1.6-1.1,2.5s0.4,1.8,1,2.4s1.5,1,2.4,1h1.3c0.5,0,0.6,0.5,0.6,0.8L86.1,70.9L86.1,70.9z"/>
</g>
<g id="user_x5F_profile_x5F_edit">
	<path class="st1" d="M73.1,44.7V21.6L55.5,4H3.7v92.6h69.4v-0.2c13-1.5,23.2-12.5,23.2-25.9S86.1,46.1,73.1,44.7z M55.8,8.1
		l13.3,13.3H55.8V8.1z M44.7,67.2c-1.9,20,15.1,26.6,12.8,26.6h-48c-1.6,0-2.9-1.3-2.9-2.9V9.7c0-1.6,1.3-2.9,2.9-2.9h40.6
		c1.6,0,2.9,1.3,2.9,2.9v11.6c0,1.6,1.3,2.9,2.9,2.9h11.6c1.6,0,2.9,1.3,2.9,2.9v15.1c0,1.4-2.4,2.5-3.8,2.8
		c-9,1.8-18.7,7.5-21.7,20.7 M70.3,93.6c-12.6,0-23-10.3-23-23s10.3-23,23-23s23,10.3,23,23C93.3,83.2,82.9,93.5,70.3,93.6z"/>
</g>
<path id="XMLID_653_" class="st0" d="M37.3,68.9H15c-0.4,0-0.6,0.6-0.6,1.2l0,0c0,0.6,0.3,1.2,0.6,1.2h22.3c0.4,0,0.6-0.6,0.6-1.2
	l0,0C38,69.4,37.7,68.9,37.3,68.9z"/>
<path id="XMLID_8_" class="st0" d="M37.3,68.6H15c-0.4,0-0.6,0.6-0.6,1.5l0,0c0,0.8,0.3,1.5,0.6,1.5h22.3c0.4,0,0.6-0.6,0.6-1.5l0,0
	C38,69.3,37.7,68.6,37.3,68.6z"/>
<path id="XMLID_655_" class="st0" d="M37.3,78H15c-0.4,0-0.6,0.6-0.6,1.2l0,0c0,0.6,0.3,1.2,0.6,1.2h22.3c0.4,0,0.6-0.6,0.6-1.2l0,0
	C38,78.5,37.7,78,37.3,78z"/>
<path id="XMLID_7_" class="st0" d="M37.3,77.7H15c-0.4,0-0.6,0.6-0.6,1.5l0,0c0,0.8,0.3,1.5,0.6,1.5h22.3c0.4,0,0.6-0.6,0.6-1.5l0,0
	C38,78.3,37.7,77.7,37.3,77.7z"/>
<path id="XMLID_3_" class="st0" d="M41.2,50.7H15c-0.4,0-0.6,0.6-0.6,1.2l0,0c0,0.6,0.3,1.2,0.6,1.2h26.2c0.4,0,0.6-0.6,0.6-1.2l0,0
	C41.9,51.3,41.6,50.7,41.2,50.7z"/>
<path id="XMLID_6_" class="st0" d="M41.2,50.4H15c-0.4,0-0.6,0.6-0.6,1.5l0,0c0,0.8,0.3,1.5,0.6,1.5h26.2c0.4,0,0.6-0.6,0.6-1.5l0,0
	C41.9,51.1,41.6,50.4,41.2,50.4z"/>
<path id="XMLID_1_" class="st0" d="M37.3,59.8H15c-0.4,0-0.6,0.6-0.6,1.2l0,0c0,0.6,0.3,1.2,0.6,1.2h22.3c0.4,0,0.6-0.6,0.6-1.2l0,0
	C38,60.3,37.7,59.8,37.3,59.8z"/>
<path id="XMLID_4_" class="st0" d="M37.3,59.5H15c-0.4,0-0.6,0.6-0.6,1.5l0,0c0,0.8,0.3,1.5,0.6,1.5h22.3c0.4,0,0.6-0.6,0.6-1.5l0,0
	C38,60.2,37.7,59.5,37.3,59.5z"/>
<path id="XMLID_5_" class="st0" d="M50.9,41.7H15c-0.4,0-0.6,0.6-0.6,1.2l0,0c0,0.6,0.3,1.2,0.6,1.2h35.9c0.4,0,0.6-0.6,0.6-1.2l0,0
	C51.5,42.2,51.2,41.7,50.9,41.7z"/>
<path id="XMLID_2_" class="st0" d="M50.9,41.4H15c-0.4,0-0.6,0.6-0.6,1.5l0,0c0,0.8,0.3,1.5,0.6,1.5h35.9c0.4,0,0.6-0.6,0.6-1.5l0,0
	C51.5,42,51.2,41.4,50.9,41.4z"/>
<path id="XMLID_9_" class="st0" d="M50.9,32.2H15c-0.4,0-0.6,0.6-0.6,1.5l0,0c0,0.8,0.3,1.5,0.6,1.5h35.9c0.4,0,0.6-0.6,0.6-1.5l0,0
	C51.5,32.8,51.2,32.2,50.9,32.2z"/>
<path id="XMLID_10_" class="st0" d="M43.5,22H15c-0.4,0-0.6,0.6-0.6,1.5l0,0c0,0.8,0.3,1.5,0.6,1.5h28.5c0.4,0,0.6-0.6,0.6-1.5l0,0
	C44.1,22.7,43.9,22,43.5,22z"/>
</svg>
