<?xml version="1.0" encoding="utf-8"?>
<!-- Generator: Adobe Illustrator 23.0.6, SVG Export Plug-In . SVG Version: 6.00 Build 0)  -->
<svg version="1.1" id="Layer_1" xmlns="http://www.w3.org/2000/svg" xmlns:xlink="http://www.w3.org/1999/xlink" x="0px" y="0px"
	 viewBox="0 0 100 100" style="enable-background:new 0 0 100 100;" xml:space="preserve">
<style type="text/css">
	.st0{fill:none;}
	.st1{fill:#949494;}
	.st2{fill:none;stroke:#E60000;stroke-width:3;stroke-miterlimit:10;}
</style>
<path class="st0" d="M1,0h100v100H1V0z"/>
<path class="st1" d="M100,0H-0.1L0,10v65.5h30V100l20-10.3L70,100V75.5h30V10V0z M97,72H66.5v22L50,85l-16.5,9V72H3V50.4h94V72z
	 M97,47.2H3V3h94V47.2z"/>
<g id="Layer_2_2_">
	<g id="Cogwheels">
		<path class="st2" d="M66.1,19.6l-3.3-0.2c-0.5-1.2-1.2-2.3-2-3.3l1.3-3.1c0.2-0.3,0.1-0.8-0.2-1L58,9.2C57.7,9,57.2,9,57,9.4l0,0
			l-2.6,2.1c-1.2-0.5-2.5-0.8-3.8-0.9l-1.2-3.1c-0.1-0.4-0.4-0.7-0.8-0.6l-4.8,0.7c-0.4,0.1-0.7,0.4-0.6,0.8l0,0L43,11.7
			c-1.2,0.5-2.3,1.2-3.3,2l-3.1-1.3c-0.3-0.2-0.8-0.1-1,0.2l-2.9,4c-0.2,0.3-0.1,0.8,0.2,1l2.2,2.5c-0.5,1.2-0.7,2.5-0.9,3.8
			l-3.1,1.2c-0.4,0.1-0.6,0.4-0.6,0.8l0.7,4.8c0.1,0.4,0.4,0.7,0.8,0.6l3.3,0.2c0.5,1.2,1.2,2.3,2,3.3L36,37.9
			c-0.2,0.3-0.1,0.8,0.2,1l3.9,2.9c0.3,0.2,0.8,0.1,1-0.2l2.6-2.1c1.2,0.4,2.5,0.7,3.8,0.9l1.2,3.1c0.1,0.4,0.4,0.7,0.8,0.6l4.7-0.7
			c0.4-0.1,0.7-0.4,0.6-0.8l0.2-3.3c1.2-0.5,2.3-1.2,3.3-2l3.1,1.3c0.3,0.2,0.8,0.1,1-0.2l2.8-3.9c0.2-0.3,0.1-0.8-0.2-1L62.8,31
			c0.5-1.2,0.8-2.5,0.9-3.8l3.1-1.2c0.4-0.1,0.7-0.4,0.6-0.8l-0.8-4.8C66.9,19.8,66.5,19.5,66.1,19.6L66.1,19.6z M52.5,31.3
			c-3.2,1.9-7.4,0.8-9.3-2.4s-0.8-7.4,2.4-9.3c3.2-1.9,7.4-0.8,9.3,2.4C56.8,25.2,55.8,29.4,52.5,31.3L52.5,31.3L52.5,31.3z"/>
	</g>
</g>
</svg>
