<?xml version="1.0" encoding="utf-8"?>
<!-- Generator: Adobe Illustrator 22.1.0, SVG Export Plug-In . SVG Version: 6.00 Build 0)  -->
<svg version="1.1" id="Layer_1" xmlns="http://www.w3.org/2000/svg" xmlns:xlink="http://www.w3.org/1999/xlink" x="0px" y="0px"
	 viewBox="0 0 100 100" style="enable-background:new 0 0 100 100;" xml:space="preserve">
<style type="text/css">
	.st0{fill:#E60000;}
	.st1{fill:none;}
	.st2{fill:#949494;}
	.st3{fill:none;stroke:#E60000;stroke-width:2;stroke-miterlimit:10;}
</style>
<g id="Layer_2_1_">
	<g id="Tech-Societies">
		<path class="st0" d="M24.8,72.4c-2.4,0-4.3-1.9-4.3-4.3v-0.7c-0.1-2.4,1.7-4.4,4.1-4.5s4.4,1.7,4.5,4.1c0,0.1,0,0.2,0,0.4v0.7
			C29.1,70.5,27.1,72.4,24.8,72.4z M24.8,64.4c-1.6,0-3,1.3-3,3l0,0v0.7c0,1.6,1.3,3,3,3c1.6,0,3-1.3,3-3v-0.7
			C27.7,65.7,26.4,64.4,24.8,64.4z"/>
		<path class="st0" d="M24.8,63.2c2.3,0,4.2,1.9,4.2,4.2l0,0v0.7c0,2.3-1.9,4.2-4.2,4.2l0,0c-2.3,0-4.2-1.9-4.2-4.2v-0.7
			C20.6,65.1,22.4,63.2,24.8,63.2 M24.8,71.2L24.8,71.2c0.8,0,1.6-0.3,2.2-0.9c0.6-0.6,0.9-1.4,0.9-2.2v-0.7c0-1.7-1.4-3.1-3.1-3.1
			c-1.7,0-3.1,1.4-3.1,3.1l0,0v0.7C21.7,69.8,23.1,71.2,24.8,71.2 M24.8,63c-2.4,0-4.4,2-4.4,4.4v0.7c0,2.4,2,4.4,4.4,4.4
			s4.4-2,4.4-4.4v-0.7C29.2,65,27.2,63,24.8,63z M24.8,71c-1.6,0-2.9-1.3-2.9-2.9v-0.7c0-1.6,1.3-2.9,2.9-2.9s2.9,1.3,2.9,2.9v0.7
			C27.6,69.7,26.4,71,24.8,71z"/>
		<rect x="20.1" y="79.4" class="st0" width="1.3" height="10.1"/>
		<path class="st0" d="M21.4,79.5v9.9h-1.2v-9.9H21.4 M21.5,79.3H20v10.2h1.5C21.6,89.6,21.6,79.3,21.5,79.3z"/>
		<rect x="28.1" y="79.4" class="st0" width="1.3" height="10.1"/>
		<path class="st0" d="M29.3,79.5v9.9h-1.1v-9.9H29.3 M29.5,79.3H28v10.3h1.5L29.5,79.3L29.5,79.3z"/>
		<path class="st0" d="M31.4,86.3v-8.6c0-1.2-0.7-2.2-1.8-2.5c-3.1-1-6.5-1-9.6,0c-1.1,0.4-1.8,1.4-1.8,2.5v8.6h-1.3v-8.6
			c0-1.7,1.1-3.3,2.8-3.8c3.4-1.1,7.1-1.1,10.5,0c1.6,0.6,2.7,2.1,2.7,3.8v8.6H31.4z"/>
		<path class="st0" d="M24.8,73.1c1.8,0,3.5,0.3,5.2,0.8c1.6,0.5,2.7,2,2.7,3.7v8.5h-1.1v-8.5c0-1.2-0.8-2.3-1.9-2.6
			c-1.6-0.5-3.2-0.8-4.8-0.8c-1.6,0-3.3,0.3-4.8,0.8c-1.1,0.4-1.9,1.4-1.9,2.6v8.5h-1.1v-8.5c0-1.7,1.1-3.2,2.7-3.7
			C21.2,73.4,23,73.1,24.8,73.1 M24.8,72.9c-1.8,0-3.6,0.3-5.3,0.8c-1.7,0.6-2.8,2.2-2.8,3.9v8.7h1.5v-8.8c0-1.1,0.7-2.1,1.8-2.5
			c3.1-1,6.5-1,9.6,0c1.1,0.3,1.8,1.3,1.8,2.5v8.8h1.6v-8.8c0-1.8-1.1-3.4-2.8-3.9C28.4,73.2,26.6,72.9,24.8,72.9L24.8,72.9z"/>
		<path class="st0" d="M40.2,45.6c-2.4,0-4.3-1.9-4.3-4.3v-0.7c-0.1-2.4,1.7-4.4,4.1-4.5s4.4,1.7,4.5,4.1c0,0.1,0,0.2,0,0.4v0.7
			C44.5,43.7,42.6,45.6,40.2,45.6L40.2,45.6z M40.2,37.6c-1.6,0-3,1.3-3,3l0,0v0.7c0,1.6,1.3,3,3,3c0.8,0,1.5-0.3,2.1-0.9
			c0.6-0.6,0.9-1.3,0.9-2.1v-0.7C43.2,38.9,41.8,37.6,40.2,37.6L40.2,37.6z"/>
		<path class="st0" d="M40.2,36.4c2.3,0,4.2,1.9,4.2,4.2v0.7c0,2.3-1.9,4.2-4.2,4.2l0,0c-2.3,0-4.2-1.9-4.2-4.2v-0.7
			C36,38.3,37.9,36.4,40.2,36.4 M40.2,44.4L40.2,44.4c1.7,0,3.1-1.4,3.1-3.1v-0.7c-0.1-1.7-1.5-3-3.2-2.9c-1.6,0.1-2.8,1.3-2.9,2.9
			v0.7C37.1,43,38.5,44.4,40.2,44.4 M40.2,36.2c-2.4,0-4.4,2-4.4,4.4v0.7c0.1,2.4,2.2,4.3,4.6,4.2c2.3-0.1,4.1-1.9,4.2-4.2v-0.7
			C44.6,38.1,42.6,36.2,40.2,36.2z M40.2,44.2c-1.6,0-2.9-1.3-2.9-2.9v-0.7c0.1-1.6,1.4-2.8,3-2.7c1.5,0.1,2.6,1.3,2.7,2.7v0.7
			C43.1,42.9,41.8,44.2,40.2,44.2L40.2,44.2z"/>
		<rect x="35.5" y="52.6" class="st0" width="1.3" height="10.1"/>
		<path class="st0" d="M36.8,52.7v9.9h-1.1v-9.9H36.8 M37,52.5h-1.5v10.3H37V52.5L37,52.5z"/>
		<rect x="43.5" y="52.6" class="st0" width="1.3" height="10.1"/>
		<path class="st0" d="M44.8,52.7v9.9h-1.2v-9.9H44.8 M44.9,52.5h-1.6v10.3h1.5L44.9,52.5L44.9,52.5z"/>
		<path class="st0" d="M46.8,59.5v-8.7c0-1.2-0.7-2.2-1.8-2.5c-3.1-1-6.5-1-9.6,0c-1.1,0.4-1.9,1.4-1.9,2.6v8.6h-1.3v-8.6
			c0-1.7,1.1-3.3,2.8-3.8c3.4-1.1,7.1-1.1,10.5,0c1.6,0.5,2.8,2.1,2.8,3.8v8.7L46.8,59.5z"/>
		<path class="st0" d="M40.2,46.3c1.8,0,3.5,0.3,5.2,0.8c1.6,0.5,2.7,2,2.7,3.7v8.5h-1.2v-8.5c0-1.2-0.8-2.3-1.9-2.6
			c-1.6-0.5-3.2-0.8-4.8-0.8c-1.6,0-3.3,0.3-4.8,0.8c-1.1,0.4-1.9,1.4-1.9,2.6v8.5h-1.1v-8.5c0-1.7,1.1-3.2,2.7-3.7
			C36.7,46.6,38.4,46.3,40.2,46.3 M40.2,46.1c-1.8,0-3.6,0.3-5.3,0.8c-1.7,0.6-2.8,2.2-2.8,3.9v8.7h1.6v-8.8c0-1.1,0.7-2.1,1.8-2.5
			c3.1-1,6.5-1,9.6,0c1.1,0.4,1.8,1.3,1.8,2.5v8.8h1.6v-8.8c0-1.8-1.1-3.4-2.8-3.9C43.8,46.4,42.1,46.1,40.2,46.1L40.2,46.1z"/>
		<polygon class="st1" points="36.5,44.6 36.5,48.9 40.2,51 43.9,48.9 43.9,44.6 40.2,42.5 		"/>
		<path class="st1" d="M26.4,38.8v15.9l13.8,7.9L54,54.7V38.8l-13.8-7.9L26.4,38.8z"/>
		<path class="st1" d="M11,65.5v15.9l13.8,7.9l13.8-7.9V65.5l-13.8-7.9L11,65.5z"/>
		<path class="st1" d="M41.9,65.5v15.9l13.7,7.9l13.8-7.9V65.5l-13.8-7.9L41.9,65.5z"/>
		<path class="st0" d="M55.6,72.4c-2.4,0-4.3-1.9-4.3-4.3v-0.7c0-2.4,1.9-4.3,4.3-4.3c2.4,0,4.3,1.9,4.3,4.3v0.7
			C59.9,70.5,58,72.4,55.6,72.4z M55.6,64.4c-1.6,0-3,1.3-3,3v0.7c0,1.6,1.3,3,3,3c1.6,0,3-1.3,3-3v-0.7
			C58.6,65.7,57.2,64.4,55.6,64.4L55.6,64.4z"/>
		<path class="st0" d="M55.6,63.2c2.3,0,4.2,1.9,4.2,4.2v0.7c0,2.3-1.9,4.2-4.2,4.2l0,0c-2.3,0-4.2-1.9-4.2-4.2v-0.7
			C51.4,65.1,53.3,63.2,55.6,63.2L55.6,63.2 M55.6,71.2L55.6,71.2c0.8,0,1.6-0.3,2.2-0.9c0.6-0.6,0.9-1.4,0.9-2.2v-0.7
			c0-1.7-1.4-3.1-3.1-3.1c-1.7,0-3.1,1.4-3.1,3.1v0.7C52.5,69.8,53.9,71.2,55.6,71.2 M55.6,63c-2.4,0-4.4,2-4.4,4.4v0.7
			c0,2.4,2,4.4,4.4,4.4c2.4,0,4.4-2,4.4-4.4v-0.7C60,65,58,63,55.6,63z M55.6,71c-1.6,0-2.9-1.3-2.9-2.9v-0.7c0-1.6,1.3-2.9,2.9-2.9
			c1.6,0,2.9,1.3,2.9,2.9v0.7C58.5,69.7,57.2,71,55.6,71z"/>
		<rect x="51" y="79.4" class="st0" width="1.3" height="10.1"/>
		<path class="st0" d="M52.2,79.5v9.9h-1.1v-9.9H52.2 M52.4,79.3h-1.5v10.3h1.5L52.4,79.3L52.4,79.3z"/>
		<rect x="58.9" y="79.4" class="st0" width="1.3" height="10.1"/>
		<path class="st0" d="M60.2,79.5v9.9H59v-9.9H60.2 M60.4,79.3h-1.6v10.3h1.6V79.3L60.4,79.3z"/>
		<path class="st0" d="M62.3,86.3v-8.6c0-1.2-0.7-2.2-1.8-2.5c-3.1-1-6.5-1-9.6,0c-1.1,0.4-1.8,1.4-1.8,2.5v8.6h-1.3v-8.6
			c0-1.7,1.1-3.3,2.8-3.8c3.4-1.1,7.1-1.1,10.5,0c1.6,0.5,2.8,2.1,2.8,3.8v8.6H62.3z"/>
		<path class="st0" d="M55.6,73.1c1.8,0,3.5,0.3,5.2,0.8c1.6,0.5,2.7,2,2.7,3.7v8.5h-1.1v-8.5c0-1.2-0.8-2.3-1.9-2.6
			c-1.6-0.5-3.2-0.8-4.8-0.8c-1.6,0-3.3,0.3-4.8,0.8c-1.1,0.4-1.9,1.4-1.9,2.6v8.5h-1.2v-8.5c0-1.7,1.1-3.2,2.7-3.7
			C52.1,73.4,53.8,73.1,55.6,73.1 M55.6,72.9c-1.8,0-3.6,0.3-5.3,0.8c-1.7,0.6-2.8,2.2-2.8,3.9v8.7h1.5v-8.8c0-1.1,0.7-2.1,1.8-2.5
			c3.1-1,6.5-1,9.6,0c1.1,0.4,1.8,1.3,1.8,2.5v8.8h1.6v-8.8c0-1.8-1.1-3.4-2.8-3.9C59.2,73.2,57.4,72.9,55.6,72.9z"/>
		<polygon class="st1" points="10.6,65.3 10.6,81.6 24.8,89.8 38.9,81.6 38.9,65.3 24.8,57.1 		"/>
		<polygon class="st1" points="41.5,65.3 41.5,81.6 55.6,89.8 69.8,81.6 69.8,65.3 55.6,57.1 		"/>
		<polygon class="st1" points="54.4,54.9 54.4,38.6 40.3,30.4 40.2,30.4 26,38.6 26,54.9 40.2,63.1 		"/>
		<path class="st2" d="M78.4,61.4l-1-1.6l-6.2,3.6l-0.2,0.1l-0.2-0.1l-14.2-8.2l-0.2-0.1V37.3l-15.2-8.8l-0.2-0.1V21h-1.9v7.4
			l-0.2,0.1l-15.3,8.8v17.8l-0.2,0.1L9.5,63.4l-0.2,0.1l-0.2-0.1l-6.2-3.6L2,61.4L8.2,65l0.2,0.1v17.8l15.3,8.8l0.2,0.1v7.4h1.9
			v-7.4l0.2-0.1l14.2-8.2l0.2-0.1l0.2,0.1l14.2,8.2l0.2,0.1v7.4h1.9v-7.4l0.2-0.1L72,82.9V65.1l0.2-0.1L78.4,61.4z M39.2,65.3v16.6
			l-0.2,0.1l-14.2,8.2l-0.2,0.1l-0.2-0.1l-14.2-8.2l-0.2-0.1V65.1l0.2-0.1l14.2-8.2l0.2-0.1l0.2,0.1L39.1,65l0.2,0.1L39.2,65.3z
			 M40.2,63.5L40,63.4l-14.2-8.2l-0.2-0.1V38.4l0.2-0.1L40,30.1l0.2-0.1l0.2,0.1l0.1,0.1l14.1,8.1l0.2,0.1v16.7l-0.2,0.1l-14.2,8.2
			L40.2,63.5z M70.1,65.3v16.6l-0.2,0.1l-14.2,8.2l-0.2,0.1l-0.2-0.1l-14.2-8.2l-0.2-0.1V65.1l0.2-0.1l14.2-8.2l0.2-0.1l0.2,0.1
			l14.2,8.2l0.2,0.1V65.3z"/>
	</g>
</g>
<g id="Layer_2_2_">
	<g id="Cogwheels">
		<path class="st3" d="M91.4,18.1l-3.3-0.2c-0.5-1.2-1.2-2.3-2-3.3l1.3-3.1c0.2-0.3,0.1-0.8-0.2-1l-3.9-2.8c-0.3-0.2-0.8-0.2-1,0.2
			l0,0L79.7,10c-1.2-0.5-2.5-0.8-3.8-0.9L74.7,6c-0.1-0.4-0.4-0.7-0.8-0.6l-4.8,0.7c-0.4,0.1-0.7,0.4-0.6,0.8l0,0l-0.2,3.3
			c-1.2,0.5-2.3,1.2-3.3,2l-3.1-1.3c-0.3-0.2-0.8-0.1-1,0.2l-2.9,4c-0.2,0.3-0.1,0.8,0.2,1l2.2,2.5c-0.5,1.2-0.7,2.5-0.9,3.8
			l-3.1,1.2c-0.4,0.1-0.6,0.4-0.6,0.8l0.7,4.8c0.1,0.4,0.4,0.7,0.8,0.6l3.3,0.2c0.5,1.2,1.2,2.3,2,3.3l-1.3,3.1
			c-0.2,0.3-0.1,0.8,0.2,1l3.9,2.9c0.3,0.2,0.8,0.1,1-0.2L69,38c1.2,0.4,2.5,0.7,3.8,0.9L74,42c0.1,0.4,0.4,0.7,0.8,0.6l4.7-0.7
			c0.4-0.1,0.7-0.4,0.6-0.8l0.2-3.3c1.2-0.5,2.3-1.2,3.3-2l3.1,1.3c0.3,0.2,0.8,0.1,1-0.2l2.8-3.9c0.2-0.3,0.1-0.8-0.2-1l-2.2-2.5
			c0.5-1.2,0.8-2.5,0.9-3.8l3.1-1.2c0.4-0.1,0.7-0.4,0.6-0.8l-0.8-4.8C92.2,18.3,91.8,18,91.4,18.1L91.4,18.1z M77.8,29.8
			c-3.2,1.9-7.4,0.8-9.3-2.4c-1.9-3.2-0.8-7.4,2.4-9.3c3.2-1.9,7.4-0.8,9.3,2.4C82.1,23.7,81.1,27.9,77.8,29.8L77.8,29.8L77.8,29.8z
			"/>
	</g>
</g>
</svg>
