<?xml version="1.0" encoding="utf-8"?>
<!-- Generator: Adobe Illustrator 22.1.0, SVG Export Plug-In . SVG Version: 6.00 Build 0)  -->
<svg version="1.1" id="Layer_1" xmlns="http://www.w3.org/2000/svg" xmlns:xlink="http://www.w3.org/1999/xlink" x="0px" y="0px"
	 viewBox="0 0 100 100" style="enable-background:new 0 0 100 100;" xml:space="preserve">
<style type="text/css">
	.st0{fill:#242E3C;}
	.st1{fill:#E60000;}
</style>
<title></title>
<path class="st0" d="M57.4,90.8H36.2l4-4c0.4-0.4,0.4-1,0-1.4c-0.4-0.4-1-0.4-1.4,0L33,91.1c0,0,0,0,0,0c-0.4,0.4-0.4,1,0,1.4
	l5.8,5.8c0.4,0.4,1,0.4,1.4,0c0.4-0.4,0.4-1,0-1.4l-4-4h21.3c22.7,0,41.1-18.4,41.1-41.1V28.1c0-0.6-0.5-1-1-1s-1,0.5-1,1v23.7
	C96.4,73.4,79,90.8,57.4,90.8z"/>
<path class="st0" d="M59.4,1.3c-0.4,0.4-0.4,1.1,0,1.4l4,4H42.2C19.5,6.8,1.1,25.2,1.1,47.9v23.7c0,0.6,0.5,1,1,1s1-0.5,1-1V47.9
	c0-21.6,17.5-39,39.1-39.1h21.3l-4.1,4c-0.4,0.4-0.4,1,0,1.4c0.4,0.4,1,0.4,1.4,0l5.8-5.8c0,0,0,0,0,0c0.4-0.4,0.4-1,0-1.4l-5.8-5.8
	c0,0,0,0,0,0C60.5,0.9,59.8,0.9,59.4,1.3C59.4,1.3,59.4,1.3,59.4,1.3z"/>
<path class="st0" d="M49,70.7C37,70.7,27.3,61,27.3,49S37,27.3,49,27.3S70.7,37,70.7,49S61,70.7,49,70.7z M49,25.1
	c-13.2,0-23.9,10.7-23.9,23.9S35.8,72.9,49,72.9c13.2,0,23.9-10.7,23.9-23.9S62.2,25.1,49,25.1z M60.7,63.4L60,63.8L58,65l-1.2,0.9
	c-0.9,0.4-1.8,0.8-2.8,1v-1.2l-0.3-2.7c0,0-0.2-1.6-0.4-2c-0.3-0.4-0.8-1-1.4-1.2c-0.6-0.2-1-0.2-1.4-0.7c-0.3-0.4-0.6-1.2-1-1.8
	c-0.4-0.7-0.9-1.3-0.9-1.6s0-3.7,0-3.7l0.4-3.1l0.9-0.7L51,47l0.8-0.2l2.6,0.5h1.9l0.8,1.6l1.8,1.4l1.1,1.7l1.4,0.5h1.6l1.1,1.3
	l0.7,1.4l0.3,1v1.6l-0.2,1C63.7,60.5,62.3,62.1,60.7,63.4z M54.2,35l-1.9,1l-0.7,1.9l-1.1,1h-3.6l-1.7,0.7l-0.1,1.3l-0.7,1.1
	l-0.2,1.2l0.3,1l0.4,1c0,0,1,1.1,0,2c0,0-1.3,0-1.5-0.4c-0.3-0.4-2.1-1.6-2.5-1.9c-0.3-0.3-1.4-0.7-1.4-0.7l-1.4-0.5l-1.3-0.1
	l0.1-1.7l-0.1-1.5l-0.5-1.1l-1.4-1.1L35,37l0.2-0.6c3.4-3.3,8.1-5.4,13.3-5.4c2.9,0,5.7,0.7,8.2,1.9l-0.1,0.4L54.2,35z"/>
<g id="Layer_2_1_">
	<g id="EA-logo">
		<path class="st1" d="M21,85l-2-0.6c-0.1,0-0.2,0-0.3,0.1l-2.8,2.8l-2.8-2.8c-0.1-0.1-0.1-0.1-0.2-0.1c0,0-0.1,0-0.1,0L10.8,85
			C9.8,85.4,9,86.4,9,87.5v5.3c0,0.1,0,0.2,0.1,0.2c0.1,0.1,0.1,0.1,0.2,0.1h13.1c0.2,0,0.3-0.1,0.3-0.3v-5.3
			C22.8,86.4,22,85.4,21,85z M21.1,91.5h-1.9v-2.7c0-0.2-0.1-0.3-0.3-0.3c-0.1,0-1.2,0-1.2,0.1c-0.1,0.1-0.1,0.1-0.1,0.2v2.7h-3.4
			v-2.7c0-0.2-0.1-0.3-0.3-0.3c-0.1,0-1.2,0-1.2,0.1c-0.1,0.1-0.1,0.1-0.1,0.2v2.7h-1.9v-3c0-0.9,0.2-1.6,1-1.9l1.1-0.5l2.9,2.9
			c0.1,0.1,0.3,0.1,0.4,0l2.9-2.9l1.4,0.5c0.8,0.3,0.7,1,0.7,1.9V91.5z"/>
		<path class="st1" d="M15.9,84.1c2.1,0,3.8-1.7,3.8-3.8s-1.7-3.8-3.8-3.8s-3.8,1.7-3.8,3.8l0,0C12.1,82.3,13.8,84.1,15.9,84.1z
			 M15.9,78.2L15.9,78.2c1.1,0,2,0.9,2,2c0,1.1-0.9,2-2,2s-2-0.9-2-2c0,0,0,0,0,0C13.9,79.1,14.8,78.2,15.9,78.2z"/>
	</g>
</g>
<path id="XMLID_11_" class="st1" d="M84.2,3.2c6.7,0,12.1,5.4,12.1,12.1s-5.5,12.1-12.1,12.1c-6.7,0-12.1-5.4-12.1-12.1
	S77.4,3.2,84.2,3.2L84.2,3.2z M84.2,1c-7.9,0-14.3,6.4-14.3,14.3s6.4,14.3,14.3,14.3s14.3-6.4,14.3-14.3S92.1,1,84.2,1z"/>
<path id="XMLID_8_" class="st1" d="M82.8,15.7l5.8-5.8C89.5,9,91,9,91.9,9.9c0.9,0.9,0.9,2.3,0,3.3c-2.5,2.4-4.9,4.9-7.4,7.4
	c-0.9,0.9-2.2,0.9-3.1,0.1c-0.1-0.1-0.1-0.1-0.1-0.1l-4.2-4.2c-0.9-0.9-0.9-2.3,0-3.3c0.9-0.9,2.3-0.9,3.3,0L82.8,15.7L82.8,15.7z
	 M82.8,18l-3.1-3.1c-0.6-0.6-1.1-0.7-1.3-0.7c-0.8,0-0.3,1,0.4,1.6l2.9,2.9l0,0l0,0c0.6,0.6,1.1,1.1,2.1,0c5.7-5.6,0.5-0.5,6.2-6.1
	c0.6-0.6,1.2-0.9,0.6-1.5s-0.9,0.1-1.5,0.6L82.8,18z"/>
<path id="XMLID_1_" class="st1" d="M15.9,72.3c6.7,0,12.1,5.4,12.1,12.1s-5.5,12.1-12.1,12.1S3.8,91.2,3.8,84.4S9.2,72.3,15.9,72.3
	L15.9,72.3z M15.9,70.1C8,70.1,1.5,76.5,1.5,84.4S8,98.8,15.9,98.8s14.3-6.4,14.3-14.3S23.8,70.1,15.9,70.1z"/>
</svg>
