<svg xmlns="http://www.w3.org/2000/svg" viewBox="0 0 52.61 100"><defs><style>.cls-1{fill:#242e3c;}.cls-2{fill:#e60000;}</style></defs><title>Mouse</title><g id="Layer_2" data-name="Layer 2"><g id="Mouse"><path class="cls-1" d="M26.31,100A26.34,26.34,0,0,1,0,73.69V42.31H52.61V73.69A26.33,26.33,0,0,1,26.31,100ZM2.57,44.88V73.69a23.74,23.74,0,1,0,47.47,0V44.88Z"/><path class="cls-2" d="M15.23,89a20.53,20.53,0,0,1-9-17V58.35H8.75V72a17.93,17.93,0,0,0,7.92,14.87Z"/><path class="cls-2" d="M26.69,92.49a20.28,20.28,0,0,1-7.36-1.37l.92-2.4a17.69,17.69,0,0,0,6.44,1.2Z"/><rect class="cls-2" x="25.02" width="2.57" height="14.34"/><path class="cls-1" d="M26.21,38.62a5,5,0,0,1-5-5V25.78a5,5,0,0,1,9.92,0v7.88A5,5,0,0,1,26.21,38.62Zm0-15.23a2.39,2.39,0,0,0-2.39,2.39v7.88a2.39,2.39,0,0,0,4.78,0V25.78A2.39,2.39,0,0,0,26.21,23.39Z"/><path class="cls-1" d="M27.59,44.88H0V39.37A26.34,26.34,0,0,1,26.31,13.06h1.28V23.43l-1.45,0a2.4,2.4,0,0,0-2.32,2.39v7.88a2.39,2.39,0,0,0,2.33,2.39h.12l1.32,0Zm-25-2.57H25V38.48a5,5,0,0,1-3.77-4.82V25.78A5,5,0,0,1,25,21V15.66A23.77,23.77,0,0,0,2.57,39.37Z"/><path class="cls-1" d="M52.61,44.88H25v-8.8l1.25,0a2.37,2.37,0,0,0,2.33-2.38V25.78a2.38,2.38,0,0,0-2.33-2.38l-1.25,0V13.06h1.29a26.33,26.33,0,0,1,26.3,26.31Zm-25-2.57H50V39.37A23.77,23.77,0,0,0,27.59,15.66V21a4.93,4.93,0,0,1,3.58,4.76v7.88a4.93,4.93,0,0,1-3.58,4.76Z"/></g></g></svg>