<?xml version="1.0" encoding="utf-8"?>
<!-- Generator: Adobe Illustrator 22.1.0, SVG Export Plug-In . SVG Version: 6.00 Build 0)  -->
<svg version="1.1" xmlns="http://www.w3.org/2000/svg" xmlns:xlink="http://www.w3.org/1999/xlink" x="0px" y="0px"
	 viewBox="0 0 100 100" style="enable-background:new 0 0 100 100;" xml:space="preserve">
<style type="text/css">
	.st0{display:none;}
	.st1{display:inline;}
	.st2{fill:#949494;}
	.st3{fill:#E60000;}
</style>
<g id="Layer_1" class="st0">
	<g id="XMLID_4926_" class="st1">
		<g id="XMLID_4921_">
			<g id="XMLID_4931_">
				<polyline id="XMLID_4936_" points="-6887,-3719.9 -6982.9,-3719.9 -6982.9,-3816.3 				"/>
				<g id="XMLID_4932_">
					<path id="XMLID_4933_" d="M-6879.7-3323.5h-388.1v-500h295.7l92.4,96.7V-3323.5z M-7253.3-3338.1h359V-3721l-84.1-88h-274.9
						V-3338.1z"/>
				</g>
			</g>
			<g id="XMLID_4927_">
				<path id="XMLID_4928_" d="M-6921.2-3365.1h-305.3v-272.3h305.3V-3365.1z M-7211.8-3379.7h276.1v-243.2h-276.1V-3379.7z"/>
			</g>
			<g id="XMLID_4924_">
				
					<rect id="XMLID_4925_" x="-6874.9" y="-3632.3" transform="matrix(0.7516 -0.6596 0.6596 0.7516 669.9969 -5424.6616)" width="14.5" height="60.8"/>
			</g>
			<g id="XMLID_4922_">
				
					<rect id="XMLID_4923_" x="-7309.9" y="-3608.9" transform="matrix(0.6596 -0.7516 0.7516 0.6596 229.1388 -6697.2891)" width="60.8" height="14.5"/>
			</g>
		</g>
		<path id="XMLID_7465_" d="M-7305.3-3583.7v164.9h463v-164.9H-7305.3z M-7143.6-3481.4c2.7,3.6,6.3,5.3,10.9,5.3
			c4.5,0,7.9-1.2,10.3-3.5c2.3-2.4,3.5-5.8,3.5-10.2h10.6l0.1,0.3c0.1,6.7-2,12-6.5,16.1c-4.4,4.1-10.5,6.1-18,6.1
			c-7.7,0-13.9-2.6-18.7-7.8c-4.8-5.2-7.2-11.8-7.2-19.9v-12.6c0-8,2.4-14.7,7.1-19.9s10.9-7.8,18.5-7.8c7.8,0,13.9,2,18.4,5.9
			c4.5,4,6.6,9.4,6.5,16.3l-0.1,0.3h-10.7c0-4.4-1.2-7.8-3.6-10.1s-5.9-3.5-10.5-3.5c-4.5,0-8,1.8-10.6,5.3c-2.6,3.6-3.9,8-3.9,13.5
			v12.7C-7147.5-3489.5-7146.2-3485-7143.6-3481.4z M-7055.4-3472.2c-4.3,3.3-9.9,4.9-16.9,4.9c-6.7,0-12.6-1.8-17.6-5.4
			c-5-3.6-7.4-8.6-7.3-15.1l0.1-0.3h10.6c0,4,1.4,6.9,4.1,9c2.7,2,6.1,3,10,3s6.9-0.8,9.1-2.5c2.2-1.6,3.2-3.9,3.2-6.7s-1-5-2.9-6.8
			c-2-1.8-5.4-3.3-10.4-4.7c-7.1-2-12.6-4.5-16.4-7.7c-3.9-3.2-5.8-7.4-5.8-12.5c0-5.3,2.1-9.7,6.4-13.2c4.2-3.4,9.7-5.2,16.3-5.2
			c7.1,0,12.8,1.9,17.1,5.7c4.3,3.8,6.3,8.6,6.2,14.2l-0.1,0.3h-10.6c0-3.5-1.2-6.2-3.5-8.3s-5.4-3.1-9.2-3.1
			c-3.7,0-6.6,0.9-8.6,2.6c-2,1.8-3,4-3,6.8c0,2.5,1.1,4.6,3.3,6.3c2.2,1.6,5.9,3.2,11,4.7c6.9,1.9,12.2,4.6,15.8,7.9
			c3.6,3.3,5.4,7.6,5.4,12.8C-7048.9-3479.8-7051.1-3475.5-7055.4-3472.2z M-6995.5-3472.2c-4.3,3.3-9.9,4.9-16.9,4.9
			c-6.7,0-12.6-1.8-17.6-5.4c-5-3.6-7.4-8.6-7.3-15.1l0.1-0.3h10.6c0,4,1.4,6.9,4.1,9c2.7,2,6.1,3,10,3s6.9-0.8,9.1-2.5
			c2.2-1.6,3.2-3.9,3.2-6.7s-1-5-2.9-6.8c-2-1.8-5.4-3.3-10.4-4.7c-7.1-2-12.6-4.5-16.4-7.7c-3.9-3.2-5.8-7.4-5.8-12.5
			c0-5.3,2.1-9.7,6.4-13.2c4.2-3.4,9.7-5.2,16.3-5.2c7.1,0,12.8,1.9,17.1,5.7c4.3,3.8,6.3,8.6,6.2,14.2l-0.1,0.3h-10.6
			c0-3.5-1.2-6.2-3.5-8.3s-5.4-3.1-9.2-3.1c-3.7,0-6.6,0.9-8.6,2.6c-2,1.8-3,4-3,6.8c0,2.5,1.1,4.6,3.3,6.3c2.2,1.6,5.9,3.2,11,4.7
			c6.9,1.9,12.2,4.6,15.8,7.9s5.4,7.6,5.4,12.8C-6989-3479.8-6991.2-3475.5-6995.5-3472.2z"/>
	</g>
	<g id="XMLID_7392_" class="st1">
		<g id="XMLID_5935_">
			<g id="XMLID_5949_">
				<path id="XMLID_5950_" class="st2" d="M88.6,24.3H78.1c-4.1,0-7.5-3.4-7.5-7.5V6.2h2.7v10.6c0,2.6,2.1,4.8,4.8,4.8h10.6
					L88.6,24.3L88.6,24.3z"/>
			</g>
			<g id="XMLID_5947_">
				<path id="XMLID_5948_" class="st2" d="M82.5,95.4H27.1c-4.1,0-7.5-3.4-7.5-7.5V44.7h2.7v43.2c0,2.6,2.1,4.8,4.8,4.8h55.4
					c2.6,0,4.8-2.1,4.8-4.8V23.5L72,7.6H43.4V4.8h29.9L90,22.4v65.5C90,92.1,86.7,95.4,82.5,95.4z"/>
			</g>
			<g id="XMLID_5936_">
				<g id="XMLID_5945_">
					<rect id="XMLID_5946_" x="28" y="54.9" class="st2" width="53.5" height="2.7"/>
				</g>
				<g id="XMLID_5943_">
					<rect id="XMLID_5944_" x="28" y="62" class="st2" width="38" height="2.7"/>
				</g>
				<g id="XMLID_5941_">
					<rect id="XMLID_5942_" x="28" y="69.1" class="st2" width="25.1" height="2.7"/>
				</g>
				<g id="XMLID_5939_">
					<rect id="XMLID_5940_" x="28" y="76.2" class="st2" width="51.5" height="2.7"/>
				</g>
				<g id="XMLID_5937_">
					<rect id="XMLID_5938_" x="28" y="83.2" class="st2" width="47.3" height="2.7"/>
				</g>
			</g>
		</g>
	</g>
	<g class="st1">
		<path class="st3" d="M48.6,35.2H20.5c-4.2,0-9-3.4-9-7.7v-6.7L9,17.9v9.6c0,6.3,5.2,10.4,11.5,10.4h28.1v4.6l5.2-6l-5.2-6V35.2z"
			/>
		<path class="st3" d="M43.5,13.3h-29V8.5l-5.4,5.6l5.4,6.2V16l29,0.2c4.2,0,7.7,2.3,7.7,6.5v6.7l2.7,2.9v-9.6
			C53.9,16.4,49.8,13.3,43.5,13.3z"/>
	</g>
</g>
<g id="Layer_2">
	<g>
		<path class="st2" d="M86.7,88.1h-4.5V49.3h4.1c1,0,1.8-0.8,1.8-1.8s-0.8-1.8-1.8-1.8h-4.1V23.9c0-1-0.8-1.8-1.8-1.8H50.6v-2.5h15
			c1,0,1.8-0.8,1.8-1.8v-7.6c0-1-0.8-1.8-1.8-1.8H48.9c-1,0-1.8,0.8-1.8,1.8v7.6v4.3H17.3c-1,0-1.8,0.8-1.8,1.8v21.8h-4.2
			c-1,0-1.8,0.8-1.8,1.8c0,1,0.8,1.8,1.8,1.8h4.9v21.1c0,1,0.8,1.8,1.8,1.8c1,0,1.8-0.8,1.8-1.8V49.3h5.9v38.8h-5.9v-7.8
			c0-1-0.8-1.8-1.8-1.8s-1.8,0.8-1.8,1.8v7.8h-4.5c-1,0-1.8,0.8-1.8,1.8s0.8,1.8,1.8,1.8H18h9.4h12.4h18.7h12.4h9.4h6.3
			c1,0,1.8-0.8,1.8-1.8S87.7,88.1,86.7,88.1z M50.6,11.9h13.2v4H50.6V11.9z M19.1,45.7v-20h59.5v20h-7.7H27.5L19.1,45.7L19.1,45.7z
			 M29.3,49.3h39.9v38.8h-8.8V63c0-6.1-5-11.1-11.1-11.1s-11.1,5-11.1,11.1v25.1h-8.8L29.3,49.3L29.3,49.3z M56.8,63v1.2H51v-8.5
			C54.3,56.5,56.8,59.5,56.8,63z M47.4,64.1h-5.8V63c0-3.5,2.5-6.5,5.8-7.3V64.1z M41.7,67.7h5.8v8.1h-5.8V67.7z M51,67.7h5.8v8.1
			H51V67.7z M41.7,79.4h5.8v8.7h-5.8V79.4z M51,88.1v-8.7h5.8v8.7H51z M72.7,88.1V49.3h5.9v38.8H72.7z"/>
		<path class="st3" d="M37.7,39.5v-7.6c0-1-0.8-1.8-1.8-1.8H24.5c-1,0-1.8,0.8-1.8,1.8v7.6c0,1,0.8,1.8,1.8,1.8h11.3
			C36.9,41.2,37.7,40.4,37.7,39.5z M34.1,37.7h-7.8v-4h7.8V37.7z"/>
		<path class="st3" d="M43.2,41.2h11.3c1,0,1.8-0.8,1.8-1.8v-7.6c0-1-0.8-1.8-1.8-1.8H43.2c-1,0-1.8,0.8-1.8,1.8v7.6
			C41.4,40.4,42.2,41.2,43.2,41.2z M45,33.7h7.8v4H45V33.7z"/>
		<path class="st3" d="M61.8,41.2h11.3c1,0,1.8-0.8,1.8-1.8v-7.6c0-1-0.8-1.8-1.8-1.8H61.8c-1,0-1.8,0.8-1.8,1.8v7.6
			C60,40.4,60.9,41.2,61.8,41.2z M63.6,33.7h7.8v4h-7.8V33.7z"/>
	</g>
</g>
</svg>
