<?xml version="1.0" encoding="utf-8"?>
<!-- Generator: Adobe Illustrator 22.1.0, SVG Export Plug-In . SVG Version: 6.00 Build 0)  -->
<svg version="1.1" id="Layer_1" xmlns="http://www.w3.org/2000/svg" xmlns:xlink="http://www.w3.org/1999/xlink" x="0px" y="0px"
	 viewBox="0 0 100 100" style="enable-background:new 0 0 100 100;" xml:space="preserve">
<style type="text/css">
	.st0{fill:#242E3C;}
	.st1{fill:#E60000;}
</style>
<g>
	<g id="Icon-Close-O" transform="translate(378.000000, 278.000000)">
		<path id="Fill-52" class="st0" d="M-328.3-187c-22.9,0-41.5-18.6-41.5-41.4c0-22.9,18.6-41.4,41.5-41.4s41.4,18.6,41.4,41.4
			C-286.9-205.7-305.5-187-328.3-187L-328.3-187z M-328.3-267.3c-20.9,0-38,17.4-38,38.6s17.1,38.6,38,38.6s38-17.4,38-38.6
			S-307.5-267.3-328.3-267.3L-328.3-267.3z"/>
		<polyline id="Fill-53" class="st1" points="-346.4,-207.3 -349.7,-210.6 -310.5,-249.8 -307.2,-246.5 -346.4,-207.3 		"/>
		<polyline id="Fill-54" class="st1" points="-310.5,-207.3 -349.7,-246.5 -346.4,-249.8 -307.2,-210.6 -310.5,-207.3 		"/>
	</g>
</g>
</svg>
