<?xml version="1.0" encoding="utf-8"?>
<!-- Generator: Adobe Illustrator 22.1.0, SVG Export Plug-In . SVG Version: 6.00 Build 0)  -->
<svg version="1.1" id="avatar" xmlns="http://www.w3.org/2000/svg" xmlns:xlink="http://www.w3.org/1999/xlink" x="0px" y="0px"
	 viewBox="0 0 100 100" style="enable-background:new 0 0 100 100;" xml:space="preserve">
<style type="text/css">
	.st0{fill:#E60000;}
	.st1{fill:#949494;}
</style>
<g id="avatar-avatar">
	<rect x="39.3" y="90.1" class="st0" width="13.5" height="2.7"/>
	<path class="st1" d="M67,83.2c-1.8-2.8-6.3-4.5-11.5-6.5c-1.4-0.5-2.8-1.1-4.3-1.7c-4.2-1.8-6.4-2.8-7.3-3.3l0-4.9
		c0.8-0.9,2.3-3,3-7.1c0.3-0.1,0.6-0.2,0.9-0.5c1.4-1,2.4-3.1,2.5-4.5c0,0,0.2-4.2-1.6-5.7c-0.1-0.1-0.2-0.2-0.4-0.3
		c0.4-3.1,0.5-4.8,0.4-6c-0.6-5.7-6.1-11.6-14.5-11.6s-13.9,5.9-14.5,11.6c-0.1,1.1,0,2.9,0.4,6c-0.1,0.1-0.3,0.2-0.4,0.3
		c-1.8,1.6-1.6,5.7-1.6,5.7c0.1,1.4,1.1,3.4,2.5,4.5c0.3,0.2,0.6,0.4,0.9,0.5c0.7,4.1,2.2,6.2,3,7.1l0,4.9c-0.9,0.5-3.1,1.5-7.3,3.3
		c-1.4,0.6-2.9,1.2-4.3,1.7c-5.2,2-9.7,3.8-11.5,6.5c-1.9,3-1.5,14.5-1.4,16.8l2.7-0.1c-0.2-5.3,0-13.6,1-15.2
		c1.3-2,5.6-3.7,10.2-5.5c1.4-0.5,2.9-1.1,4.3-1.7c6.6-2.7,8.2-3.7,8.3-3.8l0.6-0.4l0.1-7.1l0-0.7l-0.5-0.4c0,0-2.1-1.8-2.7-6.9
		L24,56.7l-1.5,0.4C22,57,21,55.5,20.9,54.6c-0.1-1.4,0.2-3,0.6-3.4l1.8,0.4L23,49.6c-0.3-2.4-0.7-5.3-0.5-6.6
		c0.4-4.5,5-9.2,11.8-9.2c6.8,0,11.4,4.7,11.8,9.2c0.1,1.3-0.2,4.2-0.5,6.6l-0.2,1.8l1.7-0.3c0.3,0.4,0.7,2.1,0.6,3.4
		c-0.1,0.9-1.1,2.5-1.5,2.5l-1.5-0.4l-0.2,1.6c-0.7,5.2-2.7,6.9-2.7,6.9l-0.5,0.4l0.1,7.7l0.6,0.4c0.1,0,1.7,1,8.3,3.8
		c1.5,0.6,2.9,1.2,4.3,1.7c4.6,1.8,8.9,3.5,10.2,5.5c1.1,1.7,1.2,9.9,1,15.2l2.7,0.1C68.5,97.7,68.9,86.2,67,83.2z"/>
</g>
<path class="st0" d="M84.8,44.8L84.8,44.8c-0.3,0.1-0.6,0-0.8-0.3c-2.9-3.5-6-3.7-9.5-0.9c-0.2,0.2-0.6,0.2-0.8,0.1
	c-0.3-0.1-0.5-0.4-0.5-0.7c-0.3-4.5-2.6-6.6-7.2-6.3c-0.3,0-0.6-0.1-0.7-0.4c-0.2-0.3-0.1-0.6,0-0.8c2.4-3.9,1.7-6.8-2.1-9.3
	c-0.3-0.2-0.4-0.5-0.4-0.8c0-0.3,0.2-0.6,0.5-0.7c4.2-1.7,5.4-4.5,3.8-8.8c-0.1-0.3-0.1-0.6,0.1-0.8c0.2-0.2,0.5-0.3,0.8-0.2
	c1.5,0.4,2.8,0.4,3.9,0.2l0,0c2.1-0.5,3.6-2.1,4.3-5c0.2-0.6,1-0.8,1.4-0.3c3,3.5,6,3.7,9.5,0.9c0.2-0.2,0.6-0.2,0.8-0.1
	c0.3,0.1,0.5,0.4,0.5,0.7c0.3,4.6,2.6,6.6,7.2,6.3c0.3,0,0.6,0.1,0.7,0.4c0.2,0.3,0.1,0.6,0,0.8c-2.4,3.9-1.7,6.8,2.1,9.3
	c0.3,0.2,0.4,0.5,0.4,0.8c0,0.3-0.2,0.6-0.5,0.7c-4.2,1.7-5.4,4.5-3.8,8.8c0.1,0.3,0,0.6-0.1,0.8c-0.2,0.2-0.5,0.3-0.8,0.3
	c-4.4-1.1-7,0.5-8.2,4.9C85.3,44.5,85.1,44.7,84.8,44.8z M77.6,40.2c2.4-0.5,4.6,0.2,6.7,2.2c1.5-3.8,4.3-5.5,8.4-4.9
	c-1.1-3.9,0.3-7,3.9-8.9c-3.2-2.6-3.9-5.8-2.1-9.5c-4.1-0.2-6.6-2.4-7.3-6.4c-3.4,2.2-6.7,1.9-9.7-0.9c-1,2.7-2.7,4.3-5.1,4.9l0,0
	c-1,0.2-2.1,0.2-3.2,0.1c1.1,3.9-0.3,7-3.9,8.9c3.2,2.6,3.9,5.8,2.1,9.5c4.1,0.2,6.6,2.4,7.3,6.4C75.6,40.9,76.6,40.5,77.6,40.2z"/>
<path class="st1" d="M82.7,35.2c-4.5,1-8.9-1.8-9.9-6.3c-1-4.5,1.8-8.9,6.3-9.9c4.5-1,8.9,1.8,9.9,6.3
	C89.9,29.8,87.1,34.2,82.7,35.2z M79.4,20.6c-3.6,0.8-5.9,4.4-5.1,8c0.8,3.6,4.4,5.9,8,5.1c3.6-0.8,5.9-4.4,5.1-8
	C86.6,22.1,83,19.8,79.4,20.6z"/>
<path class="st0" d="M81.9,31.6c-2.4,0.5-4.9-1-5.4-3.4c-0.5-2.4,1-4.9,3.4-5.4c2.4-0.5,4.9,1,5.4,3.4C85.9,28.6,84.3,31,81.9,31.6z
	 M80.2,24.3c-1.6,0.4-2.6,1.9-2.2,3.5c0.4,1.6,1.9,2.6,3.5,2.2c1.6-0.4,2.6-1.9,2.2-3.5S81.8,23.9,80.2,24.3z"/>
<path class="st0" d="M68.1,64.5c-0.3,0.1-0.6,0-0.8-0.3c-2.2-2.6-4.5-2.8-7.2-0.7c-0.2,0.2-0.6,0.2-0.8,0.1
	c-0.3-0.1-0.5-0.4-0.5-0.7c-0.3-3.4-2-4.9-5.4-4.8c-0.3,0-0.6-0.1-0.7-0.4s-0.1-0.6,0-0.8c1.8-2.9,1.3-5.2-1.6-7
	c-0.3-0.2-0.4-0.5-0.4-0.8s0.2-0.6,0.5-0.7c3.2-1.3,4.1-3.4,2.9-6.6c-0.1-0.3-0.1-0.6,0.1-0.8c0.2-0.2,0.5-0.3,0.8-0.3
	c3.3,0.8,5.3-0.3,6.2-3.7c0.2-0.6,1-0.8,1.4-0.3c2.2,2.6,4.5,2.8,7.2,0.7c0.3-0.3,0.9-0.2,1.1,0.1c0.3,0.3,0.2,0.9-0.1,1.1
	c-3,2.4-5.9,2.4-8.5,0.1c-1.2,2.8-3.3,4.1-6.3,3.8c0.7,3-0.3,5.3-2.9,6.8c2.3,2,2.9,4.4,1.6,7.2c3,0.2,4.9,1.9,5.5,4.9
	c2.6-1.6,5.1-1.4,7.3,0.7c1.2-2.8,3.3-4.1,6.3-3.8c-0.7-3,0.3-5.3,2.9-6.8c-2.6-2.3-3-5.1-1-8.4c0.2-0.4,0.7-0.5,1.1-0.3
	c0.4,0.2,0.5,0.7,0.3,1.1c-1.8,2.9-1.3,5.2,1.6,7c0.3,0.2,0.4,0.5,0.4,0.8c0,0.3-0.2,0.6-0.5,0.7c-3.2,1.3-4.1,3.4-2.9,6.6
	c0.1,0.3,0.1,0.6-0.1,0.8c-0.2,0.2-0.5,0.3-0.8,0.3c-3.3-0.8-5.3,0.3-6.2,3.7C68.6,64.2,68.4,64.5,68.1,64.5z"/>
<path class="st1" d="M66.5,57.1c-3.6,0.8-7.1-1.5-7.9-5c-0.8-3.6,1.5-7.1,5-7.9s7.1,1.5,7.9,5C72.3,52.7,70,56.3,66.5,57.1z
	 M63.9,45.7c-2.7,0.6-4.4,3.3-3.8,6c0.6,2.7,3.3,4.4,6,3.8c2.7-0.6,4.4-3.3,3.8-6C69.3,46.8,66.6,45.1,63.9,45.7z"/>
<path class="st0" d="M65.8,54.2c-2,0.4-4-0.8-4.4-2.8c-0.4-2,0.8-4,2.8-4.4c2-0.4,4,0.8,4.4,2.8C69.1,51.8,67.8,53.8,65.8,54.2z
	 M64.5,48.5c-1.1,0.3-1.9,1.4-1.6,2.5c0.3,1.1,1.4,1.9,2.5,1.6c1.1-0.3,1.9-1.4,1.6-2.5S65.7,48.3,64.5,48.5z"/>
</svg>
