<?xml version="1.0" encoding="utf-8"?>
<!-- Generator: Adobe Illustrator 22.1.0, SVG Export Plug-In . SVG Version: 6.00 Build 0)  -->
<svg version="1.1" id="Layer_1" xmlns="http://www.w3.org/2000/svg" xmlns:xlink="http://www.w3.org/1999/xlink" x="0px" y="0px"
	 viewBox="0 0 100 100" style="enable-background:new 0 0 100 100;" xml:space="preserve">
<style type="text/css">
	.st0{fill:#949494;}
	.st1{fill:#E60000;}
</style>
<path class="st0" d="M64.9,42.5h-3.1h-6.1h-3.1h-3.1h-3.1h-3.1h-6.1h-3.1c-3.4,0-6.1,2.7-6.1,6.1v3.1c0,2.3,1.2,4.2,3.1,5.3v10h12.2
	V73h12.2v-6.1h12.2v-10c1.8-1.1,3.1-3,3.1-5.3v-3.1C71,45.2,68.3,42.5,64.9,42.5z M40.5,63.8h-6.1V51.6h-3.1v-3.1
	c0-1.7,1.4-3.1,3.1-3.1h3.9c-0.5,0.9-0.8,1.9-0.8,3.1v6.1c0,2.3,1.2,4.2,3.1,5.3V63.8z M55.7,57.7v-6.1h-3.1v18.3h-6.1V51.6h-3.1
	v6.1c-1.7,0-3.1-1.4-3.1-3.1v-6.1c0-1.7,1.4-3.1,3.1-3.1h12.2c1.7,0,3.1,1.4,3.1,3.1v6.1C58.8,56.4,57.4,57.7,55.7,57.7z M67.9,51.6
	h-3.1v12.2h-6.1v-3.9c1.8-1.1,3.1-3,3.1-5.3v-6.1c0-1.1-0.3-2.2-0.8-3.1h3.9c1.7,0,3.1,1.4,3.1,3.1V51.6z M42.7,39.3
	c1.7,1.9,4.1,3.2,6.9,3.2c2.8,0,5.2-1.2,6.9-3.2c1,1.9,3,3.2,5.3,3.2c3.4,0,6.1-2.7,6.1-6.1s-2.7-6.1-6.1-6.1c-1.2,0-2.4,0.4-3.3,1
	c-0.9-4.1-4.6-7.1-8.9-7.1s-8,3-8.9,7.1c-1-0.6-2.1-1-3.3-1c-3.4,0-6.1,2.7-6.1,6.1s2.7,6.1,6.1,6.1C39.7,42.5,41.7,41.2,42.7,39.3z
	 M61.8,33.3c1.7,0,3.1,1.4,3.1,3.1s-1.4,3.1-3.1,3.1c-1.7,0-3.1-1.4-3.1-3.1S60.2,33.3,61.8,33.3z M49.6,27.2c3.4,0,6.1,2.7,6.1,6.1
	s-2.7,6.1-6.1,6.1c-3.4,0-6.1-2.7-6.1-6.1S46.3,27.2,49.6,27.2z M37.9,39.4c-2.1,0.3-3.8-1.4-3.5-3.5c0.2-1.3,1.2-2.3,2.5-2.5
	c2.1-0.3,3.8,1.4,3.5,3.5C40.2,38.1,39.2,39.2,37.9,39.4z"/>
<path class="st1" d="M49.6,93.4C73.7,93.4,93,73.8,93,50S73.4,6.6,49.6,6.6S6.2,26.2,6.2,50l0,0C6.2,73.8,25.5,93.4,49.6,93.4z
	 M49.6,9.8L49.6,9.8c21.8,0,39.9,17.8,39.9,39.9S71.7,89.6,49.6,89.6S9.7,71.8,9.7,49.7l0,0C10,27.6,27.8,10.2,49.6,9.8z"/>
</svg>
