<?xml version="1.0" encoding="utf-8"?>
<!-- Generator: Adobe Illustrator 22.1.0, SVG Export Plug-In . SVG Version: 6.00 Build 0)  -->
<svg version="1.1" id="Layer_1" xmlns="http://www.w3.org/2000/svg" xmlns:xlink="http://www.w3.org/1999/xlink" x="0px" y="0px"
	 viewBox="0 0 100 100" style="enable-background:new 0 0 100 100;" xml:space="preserve">
<style type="text/css">
	.st0{display:none;}
	.st1{fill:#242E3C;}
	.st2{fill:none;stroke:#E60000;stroke-width:3;stroke-miterlimit:10;}
</style>
<circle class="st0" cx="50" cy="50" r="43.2"/>
<path class="st1" d="M91.2,32.3L72.3,13.5c-0.3-0.3-0.7-0.4-1.1-0.4H29.9c-0.4,0-0.8,0.1-1.1,0.4L9.9,32.3c-2.4,2.4-2.4,6.3,0,8.7
	l9.7,9.7c-2.4,2.5-2.6,6.3-0.1,8.8c1.3,1.3,3.1,1.9,5,1.8c-0.2,1.9,0.4,3.7,1.8,5c1.3,1.3,3.2,1.9,5,1.8c-0.2,1.9,0.4,3.7,1.8,5
	c0.5,0.5,1.6,1.2,1.6,1.2l3.7-12.8l12.3-4.6l13.2,5.5l2.4,12.1c0,0,1.4-0.7,1.9-1.3c1.3-1.3,1.9-3.1,1.8-5c1.9,0.2,3.7-0.4,5-1.8
	c1.3-1.3,1.9-3.1,1.8-5c1.9,0.2,3.7-0.4,5-1.8c2.5-2.5,2.4-6.4-0.1-8.8l9.7-9.7C93.6,38.7,93.6,34.7,91.2,32.3z M26.2,57.5
	c-1.3,1.3-3.5,1.3-4.8,0s-1.3-3.5,0-4.8L26,48c1.3-1.3,3.5-1.3,4.8,0c1.3,1.3,1.3,3.5,0,4.8L26.2,57.5z M32.9,64.3
	c-1.3,1.3-3.5,1.3-4.8,0c-1.3-1.3-1.3-3.5-0.1-4.8l4.8-4.8c1.3-1.3,3.4-1.2,4.8,0.1c1.3,1.3,1.3,3.5,0,4.8L32.9,64.3z M34.9,71.1
	c0,0-1.3-3.5,0-4.8l4.8-4.8c0.5-0.5,1.7-0.9,1.7-0.9l-4.9,2.8L34.9,71.1z M79.7,57.5c-1.3,1.3-3.5,1.3-4.8,0l-8.3-8.3
	c-1.3-1.3-3.2,0.7-1.9,1.9l8.3,8.3c1.3,1.3,1.3,3.5,0,4.8c-1.3,1.3-3.5,1.3-4.8,0L59.8,56c-1.3-1.3-3.2,0.7-1.9,1.9l8.3,8.3
	c1.3,1.3,0,4.8,0,4.8l-0.9-5.2L59.8,59l-8.8-2.6l-8.7,1.5c0,0-0.4,0-0.7,0c0.2-1.9-0.4-3.7-1.8-5c-1.3-1.3-3.1-1.9-5-1.8
	c0.2-1.9-0.4-3.7-1.8-5c-2.4-2.4-6.3-2.4-8.7,0l-2.7,2.7L12,39.1c-1.3-1.3-1.3-3.5,0-4.8l18.5-18.5h16.9L35.5,27.7
	c-3.4,3.4-3.5,8.8,0,12.3c3.3,3.3,9,3.3,12.4-0.1l7.1-7.1c1.3-1.3,3.5-1.3,4.8,0l20,20C81,54.1,81,56.3,79.7,57.5z M89.3,39.1
	l-9.7,9.7l-18-17.9c-2.4-2.4-6.3-2.4-8.7,0L45.8,38c-2.4,2.4-6.1,2.5-8.5,0.1c-2.2-2.2-2.3-6.2,0-8.5L51,15.8h19.6l18.5,18.5
	C90.5,35.6,90.5,37.8,89.3,39.1z"/>
<path class="st2" d="M50.6,56.8c-8.9,0-16.1,7.2-16.1,16.1c0,8.9,7.2,16.1,16.1,16.1c8.9,0,16.1-7.2,16.1-16.1
	C66.6,64,59.4,56.8,50.6,56.8L50.6,56.8z"/>
<path class="st1" d="M55.2,79.3c-0.7,0.9-1.6,1.4-2.7,1.7c-0.4,0.1-0.7,0.4-0.7,0.9c0,0.4,0,1,0,1.4c0,0.4-0.2,0.7-0.7,0.7
	c-0.5,0-1,0-1.6,0c-0.4,0-0.7-0.3-0.7-0.7v-1c0-0.7-0.1-0.8-0.7-0.9c-1-0.1-1.9-0.4-2.8-0.7c-0.7-0.3-0.7-0.5-0.5-1.2
	c0.1-0.5,0.3-1,0.4-1.6c0.1-0.6,0.4-0.7,0.9-0.4c1,0.5,1.9,0.7,3,0.9c0.7,0.1,1.3,0,2-0.3c1.2-0.5,1.3-1.9,0.4-2.7
	c-0.4-0.3-0.7-0.5-1.1-0.7c-1-0.4-2.2-0.8-3.1-1.4c-1.6-1-2.6-2.2-2.5-4.2c0.1-2.2,1.3-3.6,3.3-4.3c0.8-0.3,0.8-0.3,0.8-1.1v-0.9
	c0-0.7,0.1-0.7,0.7-0.7h0.6c1.4,0,1.4,0,1.4,1.4c0,1,0,1,1,1.1c0.7,0.1,1.5,0.3,2.2,0.7c0.4,0.1,0.5,0.4,0.4,0.8
	c-0.1,0.6-0.3,1.2-0.5,1.8c-0.1,0.5-0.4,0.7-0.9,0.4c-1.1-0.5-2.2-0.7-3.4-0.7c-0.3,0-0.6,0.1-0.9,0.1c-1,0.4-1.2,1.6-0.3,2.3
	c0.4,0.4,1,0.6,1.5,0.8c0.9,0.4,1.9,0.7,2.7,1.3C56.4,73.5,57.1,76.9,55.2,79.3L55.2,79.3z"/>
</svg>
