<?xml version="1.0" encoding="utf-8"?>
<!-- Generator: Adobe Illustrator 22.1.0, SVG Export Plug-In . SVG Version: 6.00 Build 0)  -->
<svg version="1.1" id="Layer_1" xmlns="http://www.w3.org/2000/svg" xmlns:xlink="http://www.w3.org/1999/xlink" x="0px" y="0px"
	 viewBox="0 0 100 100" style="enable-background:new 0 0 100 100;" xml:space="preserve">
<style type="text/css">
	.st0{fill:#242E3C;}
	.st1{fill:#E60000;}
</style>
<title></title>
<g id="Layer_2_1_">
	<g id="Layer_3">
		<path class="st0" d="M87.1,91V68.4H71V91H60.7V15.9H44.5V91H34.2V47.3H18.1V91H9.2V4.9h-4V95h90.1v-4C95.3,91,87.1,91,87.1,91z
			 M22.1,91V51.3h8.1V91H22.1z M48.5,91V19.9h8.1V91H48.5z M75,91V72.4h8.1V91H75z"/>
	</g>
</g>
<g id="Layer_2_2_">
	<g id="Layer_3_1_">
		<path class="st1" d="M87.1,91V68.4H71V91H60.7H44.5H34.2V47.3H18.1V91H87.1z M22.1,91V51.3h8.1V91H22.1z M75,91V72.4h8.1V91H75z"
			/>
	</g>
</g>
</svg>
