<?xml version="1.0" encoding="utf-8"?>
<!-- Generator: Adobe Illustrator 22.1.0, SVG Export Plug-In . SVG Version: 6.00 Build 0)  -->
<svg version="1.1" id="Layer_1" xmlns="http://www.w3.org/2000/svg" xmlns:xlink="http://www.w3.org/1999/xlink" x="0px" y="0px"
	 viewBox="0 0 150 150" style="enable-background:new 0 0 150 150;" xml:space="preserve">
<style type="text/css">
	.st0{fill:none;stroke:#E60000;stroke-width:3.344;stroke-miterlimit:10;}
	.st1{fill:none;stroke:#F5CF87;stroke-width:3.344;stroke-miterlimit:10;}
	.st2{fill:#242E3C;}
	.st3{display:none;}
</style>
<g id="Layer_1_1_">
	<g>
		<circle class="st0" cx="74.6" cy="74.6" r="55.7"/>
	</g>
	<g>
		<path class="st1" d="M48.4,102.5c-7.7,0-10.8-5.4-7-12.1L67.6,45c3.8-6.6,10.1-6.6,13.9,0l26.2,45.4c3.8,6.6,0.7,12.1-7,12.1H48.4
			z"/>
	</g>
	<g>
		<path class="st2" d="M78.1,74.6c0,1.9-1.6,3.5-3.5,3.5l0,0c-1.9,0-3.5-1.6-3.5-3.5V60.7c0-1.9,1.6-3.5,3.5-3.5l0,0
			c1.9,0,3.5,1.6,3.5,3.5V74.6z"/>
	</g>
	<g>
		<path class="st2" d="M78.1,88.5c0,1.9-1.6,3.5-3.5,3.5l0,0c-1.9,0-3.5-1.6-3.5-3.5l0,0c0-1.9,1.6-3.5,3.5-3.5l0,0
			C76.5,85,78.1,86.6,78.1,88.5L78.1,88.5z"/>
	</g>
</g>
<g id="Layer_2_1_" class="st3">
</g>
</svg>
