<?xml version="1.0" encoding="utf-8"?>
<!-- Generator: Adobe Illustrator 22.1.0, SVG Export Plug-In . SVG Version: 6.00 Build 0)  -->
<svg version="1.1" id="Layer_1" xmlns="http://www.w3.org/2000/svg" xmlns:xlink="http://www.w3.org/1999/xlink" x="0px" y="0px"
	 viewBox="0 0 100 100" style="enable-background:new 0 0 100 100;" xml:space="preserve">
<style type="text/css">
	.st0{fill:none;stroke:#242E3C;stroke-width:2.337;stroke-linejoin:round;}
	.st1{fill:none;stroke:#E60000;stroke-width:2.337;stroke-linejoin:round;}
	.st2{fill:none;stroke:#E60000;stroke-width:2.337;stroke-linecap:round;stroke-linejoin:round;}
</style>
<title>PaymentCards</title>
<g id="Layer_2_1_">
	<g id="Card-Payment">
		<path class="st0" d="M10.2,39.6H69c2.9,0,5.2,2.3,5.2,5.2v38c0,2.9-2.3,5.2-5.2,5.2H10.2C7.3,88,5,85.7,5,82.8v-38
			C5,42,7.3,39.6,10.2,39.6z"/>
		<rect x="15.4" y="50" class="st1" width="10.4" height="10.4"/>
		<line class="st2" x1="15.4" y1="70.7" x2="22.3" y2="70.7"/>
		<line class="st2" x1="15.4" y1="77.6" x2="32.7" y2="77.6"/>
		<line class="st2" x1="29.2" y1="70.7" x2="36.1" y2="70.7"/>
		<line class="st2" x1="43.1" y1="70.7" x2="50" y2="70.7"/>
		<line class="st2" x1="56.9" y1="70.7" x2="63.8" y2="70.7"/>
		<path class="st1" d="M62.1,46.5c-1.3,0-2.5,0.5-3.5,1.3c-2.1-1.9-5.4-1.8-7.3,0.3s-1.8,5.4,0.4,7.3c2,1.8,5,1.8,7,0
			c2.1,1.9,5.4,1.8,7.3-0.3c1.9-2.1,1.8-5.4-0.3-7.3C64.7,47.1,63.4,46.6,62.1,46.5L62.1,46.5z"/>
		<path class="st0" d="M74.2,77.6l0.8,0.3c2.7,1,5.7-0.4,6.6-3.1c0,0,0,0,0,0L94.7,39c1-2.7-0.4-5.7-3.1-6.6c0,0,0,0,0,0L36.3,12.3
			c-2.7-1-5.7,0.4-6.6,3.1c0,0,0,0,0,0l-8.8,24.2"/>
		<line class="st0" x1="24.3" y1="30" x2="50.8" y2="39.6"/>
		<line class="st0" x1="92.9" y1="43.9" x2="27.8" y2="20.3"/>
		<line class="st0" x1="74.2" y1="48.2" x2="89.3" y2="53.6"/>
	</g>
</g>
</svg>
