<svg xmlns="http://www.w3.org/2000/svg" viewBox="0 0 100 95.22"><defs><style>.cls-1{fill:none;}.cls-2{fill:#e60000;}.cls-3{fill:#242e3c;}</style></defs><title>PenPaper</title><g id="Layer_2" data-name="Layer 2"><g id="Pen-Paper"><rect class="cls-1" x="76.66" y="46.75" width="12.27" height="25.01"/><polygon class="cls-1" points="82.78 86.36 88.92 75.74 76.66 75.74 82.78 86.36"/><rect class="cls-1" x="76.66" y="12.72" width="12.27" height="22.21"/><path class="cls-1" d="M3.21,92H64.85V3.21H3.21ZM51.7,76.74H27.93a2,2,0,1,1,0-3.94H51.7a2,2,0,0,1,0,3.94ZM27.93,13.37H56.65a2,2,0,1,1,0,3.93H27.93a2,2,0,1,1,0-3.93Zm0,27.71a2,2,0,1,1,0-3.94H51.7a2,2,0,0,1,0,3.94ZM47.21,51a2,2,0,0,1-2,2H27.93a2,2,0,1,1,0-3.93H45.25A2,2,0,0,1,47.21,51ZM51.7,29.19H27.93a2,2,0,1,1,0-3.94H51.7a2,2,0,0,1,0,3.94ZM27.93,60.91H56.65a2,2,0,0,1,0,3.94H27.93a2,2,0,0,1,0-3.94Zm-20-47.82a2,2,0,0,1,2.78,0l3,3,5.7-5.7a2,2,0,1,1,2.79,2.78l-7.1,7.09a2,2,0,0,1-2.78,0l-4.4-4.39A2,2,0,0,1,7.93,13.09Zm0,23.78a2,2,0,0,1,2.78,0l3,3,5.7-5.7a2,2,0,0,1,2.79,0,2,2,0,0,1,0,2.78l-7.1,7.1a2,2,0,0,1-2.78,0l-4.4-4.4A2,2,0,0,1,7.93,36.87Z"/><rect class="cls-1" x="76.66" y="38.87" width="12.27" height="3.94"/><path class="cls-1" d="M76.68,8.8H88.89a6.13,6.13,0,0,0-12.21,0Z"/><path class="cls-2" d="M51.7,26H27.93a1.24,1.24,0,1,0,0,2.48H51.7a1.24,1.24,0,0,0,0-2.48Z"/><path class="cls-2" d="M27.93,64.13H56.65a1.25,1.25,0,1,0,0-2.49H27.93a1.25,1.25,0,0,0,0,2.49Z"/><path class="cls-2" d="M46.49,51a1.25,1.25,0,0,0-1.24-1.25H27.93a1.25,1.25,0,0,0,0,2.49H45.25A1.25,1.25,0,0,0,46.49,51Z"/><path class="cls-2" d="M8.44,39.14l4.4,4.39a1.23,1.23,0,0,0,.88.37,1.22,1.22,0,0,0,.88-.37l7.09-7.09a1.24,1.24,0,0,0-1.75-1.76l-5.71,5.7-.51.52-.51-.52-3-3A1.22,1.22,0,0,0,9.32,37a1.25,1.25,0,0,0-1.24,1.25A1.27,1.27,0,0,0,8.44,39.14Z"/><path class="cls-2" d="M8.44,15.36l4.4,4.4a1.22,1.22,0,0,0,.88.36,1.21,1.21,0,0,0,.88-.36l7.09-7.09a1.23,1.23,0,0,0,.37-.88,1.22,1.22,0,0,0-.37-.88,1.24,1.24,0,0,0-1.75,0l-5.71,5.7-.51.51-.51-.51-3-3a1.25,1.25,0,0,0-.88-.36,1.23,1.23,0,0,0-1.24,1.24A1.23,1.23,0,0,0,8.44,15.36Z"/><path class="cls-2" d="M51.7,73.53H27.93a1.24,1.24,0,0,0,0,2.48H51.7a1.24,1.24,0,0,0,0-2.48Z"/><path class="cls-2" d="M27.93,16.58H56.65a1.25,1.25,0,1,0,0-2.49H27.93a1.25,1.25,0,0,0,0,2.49Z"/><path class="cls-2" d="M52.94,39.11a1.24,1.24,0,0,0-1.24-1.24H27.93a1.24,1.24,0,1,0,0,2.48H51.7A1.25,1.25,0,0,0,52.94,39.11Z"/><path class="cls-3" d="M92.81,9.53l-.66,0,0-.66a9.34,9.34,0,0,0-18.67.5V76.25a1.54,1.54,0,0,0,.27.78l7.73,13.4.1.17V94A1.25,1.25,0,0,0,84,94V90.6l.1-.17L92,76.87a1.53,1.53,0,0,0,.16-.79V12l.79.07a5.08,5.08,0,0,1,4.6,5V36.9a1.25,1.25,0,1,0,2.49,0V17.06A7.52,7.52,0,0,0,92.81,9.53ZM76,8.74a6.85,6.85,0,0,1,13.65,0l.07.79H75.89Zm13,34.79h-13V38.15H89.65v5.38ZM89.65,46V72.48H75.93V46H89.65Zm-.73-10.36h-13V12H89.65V35.66Zm.63,40.45L83.41,86.72l-.63,1.09-.63-1.09L76,76.11,75.4,75H90.18Z"/><path class="cls-3" d="M66.81,0H1.24A1.25,1.25,0,0,0,0,1.24V94a1.24,1.24,0,0,0,1.24,1.24H66.81A1.24,1.24,0,0,0,68.06,94V1.24A1.25,1.25,0,0,0,66.81,0ZM65.57,3.21V92.74H2.49V2.49H65.57Z"/></g></g></svg>