<?xml version="1.0" encoding="utf-8"?>
<!-- Generator: Adobe Illustrator 23.0.6, SVG Export Plug-In . SVG Version: 6.00 Build 0)  -->
<svg version="1.1" id="Layer_3" xmlns="http://www.w3.org/2000/svg" xmlns:xlink="http://www.w3.org/1999/xlink" x="0px" y="0px"
	 viewBox="0 0 100 100" style="enable-background:new 0 0 100 100;" xml:space="preserve">
<style type="text/css">
	.st0{fill:#949494;}
	.st1{fill:none;stroke:#E60000;stroke-width:3;stroke-linecap:round;stroke-linejoin:round;stroke-miterlimit:10;}
</style>
<g id="layer1" transform="translate(0,-1020.3622)">
	<path id="path5575-93-0-5-6" class="st0" d="M64.2,1023.3c-0.1,0-0.1,0-0.2,0H17.1c-0.9,0-1.7,0.8-1.7,1.7v90.7
		c0,0.9,0.8,1.7,1.7,1.7h70.6c0.9,0,1.7-0.8,1.7-1.7v-67c0-0.3,0-0.7-0.2-1c0,0,0,0,0,0c0,0-0.1-0.1-0.1-0.1c0,0,0,0,0,0
		c0,0-0.1-0.1-0.1-0.1c0,0,0,0,0,0c0,0-0.1-0.1-0.1-0.1l-23.4-23.4C65.2,1023.5,64.7,1023.3,64.2,1023.3z M18.8,1026.7h43.7v21.8
		c0,0.9,0.8,1.7,1.7,1.7H86v63.8H18.8V1026.7z M65.9,1029.1l17.8,17.8H65.9V1029.1z"/>
</g>
<g>
	<circle class="st1" cx="52.4" cy="55.1" r="19.1"/>
	<g>
		<path class="st1" d="M58.8,48.6c0,0-1.2-5.1-7.2-5c-5.4,0.1-5.8,4.4-5.8,5c0,0.5-0.7,5.4,6.5,6.1c7.5,0.7,6.5,7.1,6.5,7.1
			s-0.4,5.2-6.5,4.8c-6.4-0.4-7.2-5.8-7.2-5.8"/>
		<line class="st1" x1="52.3" y1="43.6" x2="52.3" y2="39.4"/>
		<line class="st1" x1="52.3" y1="70.8" x2="52.3" y2="66.5"/>
	</g>
</g>
</svg>
