<svg xmlns="http://www.w3.org/2000/svg" viewBox="0 0 107.82 99.5"><defs><style>.cls-1{fill:none;}.cls-2{fill:#242e3c;}.cls-3{fill:#e60000;}</style></defs><title>Printer</title><g id="Layer_2" data-name="Layer 2"><g id="Printer"><path class="cls-1" d="M87.53,12.84H78.91a1.48,1.48,0,0,1-1.49-1.49V2.73H20.29V34.86H87.53Z"/><path class="cls-1" d="M86.29,49.44A2.73,2.73,0,1,0,89,46.7,2.73,2.73,0,0,0,86.29,49.44Z"/><polygon class="cls-1" points="80.4 4.84 80.4 9.86 85.42 9.86 80.4 4.84"/><path class="cls-1" d="M20.29,80.7V96.77H87.53V64.64H20.29Zm7.28-9.34H80.24v3H27.57Zm0,9.24H80.24v3H27.57Z"/><path class="cls-1" d="M18.8,37.84H2.73V79.22H17.31V64.64H10v-3H97.8v3H90.51V79.22h14.58V37.84H18.8Zm75.55,11.6A5.33,5.33,0,1,1,89,44.1,5.33,5.33,0,0,1,94.35,49.44Z"/><path class="cls-2" d="M106.58,35.11H90.26V11.35a1.19,1.19,0,0,0-.13-.54l0-.07a1.46,1.46,0,0,0-.19-.26L79.78.36a2.21,2.21,0,0,0-.26-.19l-.07,0A1.19,1.19,0,0,0,78.91,0H18.8a1.24,1.24,0,0,0-1.24,1.24V35.11H1.24A1.25,1.25,0,0,0,0,36.35V80.7A1.25,1.25,0,0,0,1.24,82H17.56V98.26A1.24,1.24,0,0,0,18.8,99.5H89a1.25,1.25,0,0,0,1.24-1.24V82h16.32a1.25,1.25,0,0,0,1.24-1.25V36.35A1.25,1.25,0,0,0,106.58,35.11ZM80.15,9.86V4.24l.42.42,5,5,.43.42H80.15ZM20,34.86V2.48H77.67v8.87a1.23,1.23,0,0,0,1.24,1.24h8.87V35.11H20ZM87.78,64.64V97H20V64.39H87.78Zm17.56-26.8V79.47H90.26V64.39h7.29V61.91H10.27v2.48h7.29V79.47H2.48V37.59H105.34Z"/><rect class="cls-3" x="27.82" y="71.61" width="52.17" height="2.48"/><rect class="cls-3" x="27.82" y="80.85" width="52.17" height="2.48"/><path class="cls-1" d="M89,46.83a2.61,2.61,0,1,0,2.61,2.61A2.61,2.61,0,0,0,89,46.83Z"/><path class="cls-3" d="M89,44.23a5.21,5.21,0,1,0,5.21,5.21A5.21,5.21,0,0,0,89,44.23Zm0,8.06a2.86,2.86,0,1,1,2.86-2.85A2.86,2.86,0,0,1,89,52.29Z"/></g></g></svg>