<?xml version="1.0" encoding="utf-8"?>
<!-- Generator: Adobe Illustrator 23.0.6, SVG Export Plug-In . SVG Version: 6.00 Build 0)  -->
<svg version="1.1" id="Layer_1" xmlns="http://www.w3.org/2000/svg" xmlns:xlink="http://www.w3.org/1999/xlink" x="0px" y="0px"
	 viewBox="0 0 100 100" style="enable-background:new 0 0 100 100;" xml:space="preserve">
<style type="text/css">
	.st0{display:none;}
	.st1{display:inline;}
	.st2{fill:none;}
	.st3{fill:#949494;}
	.st4{fill:#E60000;}
	.st5{fill:#1A1A1A;}
	.st6{display:none;fill:#E60000;}
	.st7{opacity:0.7;}
	.st8{opacity:0.7;fill:#E60000;enable-background:new    ;}
</style>
<g class="st0">
	<g class="st1">
		<path class="st2" d="M1,0h100v100H1V0z"/>
		<path class="st3" d="M100,0H-0.1L0,10v65.5h30V100l20-10.3L70,100V75.5h30V10V0z M97,72H66.5v22L50,85l-16.5,9V72H3V50.4h94V72z
			 M97,47.2H3V3h94V47.2z"/>
		<path id="XMLID_11_" class="st4" d="M49.6,9.2c9,0,16.4,7.3,16.4,16.4S58.6,42,49.6,42s-16.4-7.3-16.4-16.4S40.5,9.2,49.6,9.2
			L49.6,9.2z M49.6,6.2c-10.7,0-19.4,8.7-19.4,19.4S38.9,45,49.6,45S69,36.3,69,25.6S60.3,6.2,49.6,6.2z"/>
		<path id="XMLID_8_" class="st4" d="M46.7,27.4l9.3-9.3c1.4-1.4,3.7-1.4,5.2,0c1.4,1.4,1.4,3.7,0,5.2c-4,3.9-7.9,7.9-11.9,11.8
			c-1.4,1.4-3.5,1.4-4.9,0.2c-0.1-0.1-0.2-0.1-0.2-0.2l-6.7-6.7c-1.4-1.4-1.4-3.7,0-5.2c1.4-1.4,3.7-1.4,5.2,0L46.7,27.4L46.7,27.4z
			 M46.7,31.1l-5-5c-0.9-0.9-1.8-1.1-2-1.1c-1.3,0-0.4,1.6,0.6,2.5l4.7,4.7l0,0l0,0c0.9,0.9,1.8,1.8,3.4,0c9.1-9,0.8-0.8,9.9-9.8
			c0.9-0.9,1.9-1.5,1-2.4s-1.5,0.1-2.4,1L46.7,31.1z"/>
	</g>
	<g class="st1">
		<g>
			<path class="st3" d="M9,92.3l9-4.5l7.2,3.6l7.2-3.6l7.2,3.6l7.2-3.6l7.2,3.6l7.2-3.6l9,4.5V6.9H9V92.3z M12.6,10.5h53.8v76
				L61,83.8l-7.2,3.6l-7.2-3.6l-7.2,3.6l-7.2-3.6L25,87.4l-7-3.6l-5.4,2.7V10.5z"/>
			<path class="st3" d="M39.5,33.8c4.9,0,9-4,9-9s-4-9-9-9s-9,4-9,9S34.6,33.8,39.5,33.8z M39.5,19.4c3,0,5.4,2.4,5.4,5.4
				s-2.4,5.4-5.4,5.4s-5.4-2.4-5.4-5.4S36.5,19.4,39.5,19.4z"/>
			<rect x="19.8" y="44.6" class="st3" width="21.5" height="3.6"/>
			<rect x="52.1" y="44.6" class="st3" width="7.2" height="3.6"/>
			<rect x="19.8" y="53.5" class="st3" width="21.5" height="3.6"/>
			<rect x="52.1" y="53.5" class="st3" width="7.2" height="3.6"/>
			<rect x="19.8" y="62.5" class="st3" width="21.5" height="3.6"/>
			<rect x="52.1" y="62.5" class="st3" width="7.2" height="3.6"/>
			<rect x="19.8" y="71.5" class="st3" width="21.5" height="3.6"/>
			<rect x="52.1" y="71.5" class="st3" width="7.2" height="3.6"/>
		</g>
		<g>
			<polyline class="st3" points="82.9,74.1 86.9,86.3 91,74.1 			"/>
			<polyline class="st3" points="82.9,32.2 82.9,74.1 91,74.1 91,32.2 			"/>
			<path class="st3" d="M88.3,10.6h-2.7c-1.5,0-2.7,1.2-2.7,2.7v18.9H91V13.3C91,11.8,89.8,10.6,88.3,10.6z"/>
			<path class="st3" d="M82.9,16h-2.7c-1.5,0-2.7,1.2-2.7,2.7v13.5"/>
		</g>
	</g>
</g>
<g>
	<title></title>
	<g>
		<g id="Layer_1-2">
			<path class="st5" d="M84.3,22c0,0.1,0,0.3,0,0.4c-0.1,1.8-0.7,3.5-1.9,4.9c-2.7,3.3-7.5,3.8-10.8,1.1c-0.4-0.3-0.8-0.7-1.1-1.1
				c-1.1-1.4-1.8-3.1-1.9-4.9c0-0.1,0-0.3,0-0.4s0-0.3,0-0.5l0,0c0.3-4.2,3.6-7.6,7.8-7.6c4.2,0,7.6,3.3,7.8,7.6l0,0
				C84.3,21.7,84.3,21.9,84.3,22z"/>
			<path class="st4" d="M76.4,30.7c-5.2,0-9.4-4.3-9.4-9.6s4.2-9.6,9.4-9.6s9.4,4.3,9.4,9.6S81.6,30.7,76.4,30.7z M76.4,14.6
				c-3.5,0-6.3,2.9-6.3,6.5s2.8,6.5,6.3,6.5s6.3-2.9,6.3-6.5S79.9,14.6,76.4,14.6L76.4,14.6z"/>
			<path class="st4" d="M53.1,19.1c-0.4,0-0.8-0.2-1.1-0.5l-1.2-1.2c-0.6-0.6-0.5-1.6,0.1-2.2c0.6-0.5,1.5-0.5,2,0l1.2,1.2
				c0.6,0.6,0.6,1.6,0,2.2C53.9,18.9,53.5,19.1,53.1,19.1L53.1,19.1z"/>
			<path class="st4" d="M75.1,41.1c-0.4,0-0.8-0.2-1.1-0.5l-2.5-2.5c-0.6-0.6-0.6-1.6,0-2.2c0.6-0.6,1.6-0.6,2.2,0l2.5,2.5
				c0.6,0.6,0.6,1.6,0,2.2C75.9,40.9,75.5,41.1,75.1,41.1L75.1,41.1z M67.8,33.7c-0.4,0-0.8-0.2-1.1-0.5l-2.5-2.5
				c-0.6-0.6-0.7-1.5-0.2-2.2c0.6-0.6,1.5-0.7,2.2-0.2c0.1,0.1,0.1,0.1,0.2,0.2l2.5,2.5c0.6,0.6,0.6,1.6,0,2.2
				C68.6,33.6,68.2,33.7,67.8,33.7L67.8,33.7z M60.4,26.4c-0.4,0-0.8-0.2-1.1-0.5l-2.5-2.5c-0.6-0.6-0.6-1.6,0-2.2s1.6-0.6,2.2,0
				l2.5,2.5c0.6,0.6,0.6,1.6,0,2.2C61.2,26.2,60.8,26.4,60.4,26.4L60.4,26.4z"/>
			<path class="st4" d="M81.1,47.1c-0.4,0-0.8-0.2-1.1-0.5l-1.2-1.2c-0.6-0.6-0.6-1.6,0-2.2s1.6-0.6,2.2,0l0,0l1.2,1.2
				c0.6,0.6,0.6,1.6,0,2.2C81.9,46.9,81.5,47.1,81.1,47.1z"/>
			<path class="st6" d="M84.9,26.6c-4.5,0-8.9-2-12.9-3.8c-0.7-0.3-1.4-0.6-2.1-0.9c-0.8-0.4-1.1-1.3-0.8-2c0.3-0.8,1.2-1.1,2-0.8
				c0.7,0.3,1.4,0.6,2.1,1c5.1,2.3,10.5,4.7,15.4,2.8l8.8-3.4c0.8-0.3,1.7,0,2,0.8s0,1.7-0.8,2h-0.1l-8.8,3.4
				C88.3,26.3,86.6,26.6,84.9,26.6z"/>
			<path class="st4" d="M32.3,62.5c-0.9,0-1.5-0.7-1.6-1.5c0-0.4,0.2-0.8,0.5-1.1l12.3-12.3c0.6-0.6,1.6-0.6,2.2-0.1
				c0.6,0.6,0.6,1.6,0.1,2.2c0,0,0,0-0.1,0.1L33.4,62.1C33.1,62.4,32.7,62.5,32.3,62.5z"/>
			<path class="st4" d="M37.5,67.7c-0.9,0-1.5-0.7-1.6-1.5c0-0.4,0.2-0.8,0.5-1.1l20.4-20.5c0.6-0.6,1.6-0.6,2.2-0.1
				c0.6,0.6,0.6,1.6,0.1,2.2c0,0,0,0-0.1,0.1L38.6,67.2C38.3,67.5,37.9,67.7,37.5,67.7z"/>
			<path class="st4" d="M42.7,72.9c-0.9,0-1.5-0.7-1.6-1.5c0-0.4,0.2-0.8,0.5-1.1L62,49.8c0.6-0.6,1.6-0.6,2.2-0.1s0.6,1.6,0.1,2.2
				c0,0,0,0-0.1,0.1L43.8,72.4C43.5,72.7,43.1,72.9,42.7,72.9z"/>
			<g class="st7">
				<path class="st4" d="M28.8,74.7c-0.3,0-0.6-0.1-0.8-0.3l-3.4-3.3c-0.5-0.4-0.5-1.2-0.1-1.6c0.4-0.5,1.2-0.5,1.6-0.1l0,0l3.4,3.3
					c0.5,0.4,0.5,1.2,0,1.6C29.4,74.6,29.1,74.7,28.8,74.7L28.8,74.7z"/>
				<path class="st4" d="M33.5,79.2c-0.3,0-0.6-0.1-0.8-0.3l-1.8-1.8c-0.4-0.5-0.4-1.2,0-1.6s1.1-0.4,1.6,0l1.8,1.8
					c0.5,0.4,0.5,1.2,0,1.6C34.1,79.1,33.8,79.2,33.5,79.2L33.5,79.2z"/>
			</g>
			<circle class="st8" cx="21.6" cy="66.6" r="1.5"/>
			<path class="st3" d="M42.7,95.1c-1.4,0-2.7-0.6-3.7-1.5L3.8,58.3c-2-2.1-2-5.4,0-7.4l37.1-37.1c0.3-0.3,0.6-0.6,0.9-1
				c1.8-1.8,3.6-3.7,6.5-4.6c2.1-0.6,4.1-0.7,6.2-0.8c0.7,0,1.4-0.1,2.1-0.1L82.3,5c2.6-0.3,5.3,0.6,7.2,2.5
				c1.9,1.9,2.8,4.5,2.5,7.1l-2.2,28c0,0.3-0.1,0.6-0.1,1c-0.2,2.9-0.4,5.7-2.3,8.6c-1.3,2-3,3.6-4.6,5.1c-0.5,0.5-1.1,1-1.5,1.5
				l-3.1,3.1L70,70.1c-0.6,0.6-1.6,0.6-2.2,0s-0.6-1.6,0-2.2l8.2-8.2l3.1-3.1c0.5-0.5,1.1-1.1,1.6-1.5c1.6-1.5,3.1-2.9,4.2-4.6
				c1.5-2.2,1.6-4.3,1.8-7c0-0.3,0-0.7,0.1-1l2.2-28c0.2-1.7-0.4-3.4-1.6-4.7c-1.3-1.2-3-1.8-4.7-1.6L57,10.5
				c-0.8,0.1-1.5,0.1-2.2,0.2c-1.9,0.1-3.7,0.2-5.4,0.7C47,11.9,45.6,13.3,44,15c-0.3,0.3-0.6,0.7-1,1L5.9,53.1
				c-0.8,0.8-0.8,2.2,0,3L6,56.2l35.1,35.1c0.8,0.8,2.2,0.8,3,0l0.8-0.8c2.1-2.1,3.6-3.5,5.2-5c1.5-1.4,3.1-2.9,5.1-4.9
				c0.6-0.6,1.6-0.6,2.2,0c0.6,0.6,0.6,1.6,0,2.2c-2.1,2.1-3.6,3.5-5.2,5c-1.5,1.4-3.1,2.9-5.1,4.9l-0.8,0.8
				C45.4,94.5,44.1,95.1,42.7,95.1z"/>
			<circle class="st5" cx="28.5" cy="25.3" r="17.7"/>
			<path class="st4" d="M20.9,23.2v-2.8c0-0.9,0.3-1.6,0.8-2.1c0.6-0.5,1.4-0.7,2.1-0.7c0.8,0,1.5,0.2,2.1,0.6
				c0.5,0.4,0.8,1.1,0.8,2V23c0,0.9-0.3,1.6-0.8,2.1c-0.6,0.5-1.4,0.7-2.1,0.7c-0.8,0-1.5-0.2-2.1-0.6
				C21.2,24.8,20.9,24.1,20.9,23.2z M22.8,23.2c0,0.6,0.3,1,1,1s1-0.3,1-1v-2.8c0-0.6-0.3-1-1-1c-0.5-0.1-0.9,0.3-1,0.7
				c0,0.1,0,0.2,0,0.2V23.2z M23.9,32.1c0-0.1,0-0.3,0.1-0.4l6.9-14.4c0.1-0.3,0.5-0.5,0.8-0.5s0.6,0.1,0.8,0.3
				c0.2,0.2,0.4,0.5,0.4,0.8c0,0.1,0,0.3-0.1,0.4l-6.9,14.4c-0.2,0.3-0.5,0.5-0.9,0.5c-0.3,0-0.6-0.1-0.8-0.3
				C24,32.7,23.9,32.4,23.9,32.1z M29.9,29.6v-2.8c0-0.9,0.3-1.6,0.8-2.1c0.6-0.5,1.4-0.7,2.1-0.7c0.8,0,1.5,0.2,2.1,0.6
				c0.5,0.4,0.8,1.1,0.8,2v2.8c0,0.9-0.3,1.6-0.8,2.1c-0.6,0.5-1.4,0.7-2.1,0.7c-0.8,0-1.5-0.2-2.1-0.7
				C30.2,31.2,29.9,30.6,29.9,29.6z M31.9,29.6c-0.1,0.5,0.3,0.9,0.8,1c0.1,0,0.1,0,0.2,0c0.7,0,1-0.3,1-1v-2.8c0-0.6-0.3-1-1-1
				s-1,0.3-1,1L31.9,29.6z"/>
			<path class="st3" d="M28.3,43.8C17.7,43.8,9.1,35.2,9,24.6C9,13.9,17.7,5.3,28.3,5.3s19.2,8.6,19.2,19.2l0,0
				C47.5,35.2,38.9,43.8,28.3,43.8z M28.3,8.4c-8.9,0-16.1,7.2-16.1,16.1s7.2,16.1,16.1,16.1s16.1-7.2,16.1-16.1l0,0
				C44.4,15.7,37.2,8.4,28.3,8.4z"/>
			<path class="st3" d="M60.2,79.5c-0.9,0-1.5-0.7-1.5-1.6c0-0.4,0.2-0.8,0.4-1.1l2-2c0.6-0.6,1.6-0.7,2.2-0.1
				c0.6,0.6,0.7,1.6,0.1,2.2l0,0l-2,2C61.1,79.3,60.7,79.5,60.2,79.5z"/>
			<path class="st3" d="M65.7,74c-0.9,0-1.5-0.7-1.6-1.5c0-0.4,0.2-0.8,0.4-1.1l0.1-0.1c0.6-0.6,1.6-0.6,2.2,0s0.6,1.5,0,2.1
				l-0.1,0.1C66.5,73.8,66.1,74,65.7,74z"/>
		</g>
	</g>
</g>
</svg>
