<svg xmlns="http://www.w3.org/2000/svg" viewBox="0 0 100 78.16"><defs><style>.cls-1{fill:#242e3c;}.cls-2{fill:#e60000;}</style></defs><title>QandA-2</title><g id="Layer_2" data-name="Layer 2"><g id="QandA-2"><path class="cls-1" d="M10.61,62.46a1.27,1.27,0,0,1-.39-.06,1.16,1.16,0,0,1-.77-1.1V47.14H6.58A6.59,6.59,0,0,1,0,40.56v-34A6.59,6.59,0,0,1,6.58,0H50.91A6.59,6.59,0,0,1,57.5,6.58v34a6.59,6.59,0,0,1-6.58,6.58H23.8L11.5,62A1.15,1.15,0,0,1,10.61,62.46Zm-4-60.14A4.26,4.26,0,0,0,2.32,6.58v34a4.26,4.26,0,0,0,4.26,4.26h4A1.16,1.16,0,0,1,11.77,46V58.07L22.35,45.24a1.15,1.15,0,0,1,.9-.42H50.92a4.26,4.26,0,0,0,4.25-4.26v-34a4.26,4.26,0,0,0-4.26-4.26Z"/><path class="cls-1" d="M88.29,78.16a1.18,1.18,0,0,1-.9-.42L75.1,62.84H48.6A6.59,6.59,0,0,1,42,56.25v-7h2.32v7a4.26,4.26,0,0,0,4.26,4.26H75.65a1.19,1.19,0,0,1,.9.42L87.13,73.76V61.67a1.16,1.16,0,0,1,1.16-1.16h5.13a4.26,4.26,0,0,0,4.26-4.26v-34A4.26,4.26,0,0,0,93.42,18H60.47V15.65h33A6.59,6.59,0,0,1,100,22.23v34a6.59,6.59,0,0,1-6.58,6.59h-4V77a1.15,1.15,0,0,1-.77,1.09A1.07,1.07,0,0,1,88.29,78.16Z"/><path class="cls-2" d="M29.1,32.77H25.71A5.67,5.67,0,0,1,20,27.1V17.75a5.67,5.67,0,0,1,5.67-5.67H29.1a5.67,5.67,0,0,1,5.67,5.67V27.1A5.67,5.67,0,0,1,29.1,32.77ZM25.71,14.4a3.35,3.35,0,0,0-3.35,3.35V27.1a3.35,3.35,0,0,0,3.35,3.35H29.1a3.36,3.36,0,0,0,3.35-3.35V17.75A3.36,3.36,0,0,0,29.1,14.4Z"/><path class="cls-2" d="M79.67,49.74H77.35V35a5,5,0,0,0-10.09,0v14.7H64.94V35a7.37,7.37,0,1,1,14.73,0Z"/><rect class="cls-2" x="32.12" y="25.82" width="2.32" height="8.26" transform="translate(-11.43 32.3) rotate(-44.99)"/><rect class="cls-2" x="66.1" y="39.15" width="12.41" height="2.32"/></g></g></svg>