<svg xmlns="http://www.w3.org/2000/svg" viewBox="0 0 91.16 98"><defs><style>.cls-1{fill:none;}.cls-2{fill:#e60000;}.cls-3{fill:#242e3c;}</style></defs><title>QandA</title><g id="Layer_2" data-name="Layer 2"><g id="QandA"><path class="cls-1" d="M54.71,81.32l-4.46-4.45a50.63,50.63,0,0,0-3.38,7.84A50.89,50.89,0,0,0,54.71,81.32Z"/><rect class="cls-1" x="48.61" y="60.94" width="37.6" height="6.47" transform="translate(-25.63 66.45) rotate(-45)"/><path class="cls-1" d="M80,47l4.58,4.57,2.86-2.86a2.9,2.9,0,0,0,0-4.08L87,44.1a2.89,2.89,0,0,0-4.09,0Z"/><path class="cls-1" d="M79.51,47l5.11,5.1,3.12-3.12a3.25,3.25,0,0,0,1-2.31,3.21,3.21,0,0,0-1-2.3l-.49-.5a3.27,3.27,0,0,0-4.61,0Z"/><path class="cls-1" d="M55.3,81.39l-5.11-5.12-.26.39a54.48,54.48,0,0,0-3.42,7.92l-.27.75.75-.27a52.94,52.94,0,0,0,7.92-3.42Z"/><rect class="cls-1" x="48.23" y="60.56" width="38.35" height="7.22" transform="translate(-25.63 66.45) rotate(-45)"/><path class="cls-2" d="M89.48,50.68a5.72,5.72,0,0,0,0-8.1L89,42.09a5.73,5.73,0,0,0-8.09,0L48.59,74.39c-1.46,1.47-3.71,7.18-5.33,12a1.1,1.1,0,0,0,.27,1.13L44,88a1.1,1.1,0,0,0,1.13.27C50,86.7,55.72,84.45,57.18,83Zm-7-7a3.51,3.51,0,0,1,5,0l.49.49a3.5,3.5,0,0,1,0,5l-3.3,3.3L79.16,47ZM55.05,81.85a54,54,0,0,1-8,3.45l-1.26.45.46-1.25a53,53,0,0,1,3.44-8l.42-.66,5.56,5.56Zm-4.11-6.67L78.41,47.71l5.46,5.45L56.4,80.63Z"/><path class="cls-3" d="M70.44,48.22l2.62-2.57V8a8.29,8.29,0,0,0-8.23-8H8.24A8.25,8.25,0,0,0,0,8.24V89.76A8.25,8.25,0,0,0,8.24,98H64.82a8.25,8.25,0,0,0,8.24-8.24V71.41L70.44,74V89.76a5.62,5.62,0,0,1-5.62,5.62H8.24a5.62,5.62,0,0,1-5.62-5.62V8.24A5.62,5.62,0,0,1,8.24,2.62H64.82c3.31,0,5.62,2.72,5.62,6.62Z"/><path class="cls-3" d="M61.51,22.56H30.87a1.16,1.16,0,0,0,0,2.31H61.51a1.16,1.16,0,0,0,0-2.31Z"/><path class="cls-3" d="M48.65,28.1H30.87a1.16,1.16,0,0,0,0,2.31H48.65a1.16,1.16,0,1,0,0-2.31Z"/><path class="cls-3" d="M23.51,30.69A10.69,10.69,0,0,1,22.39,30a6.19,6.19,0,0,0,1.49-4.37,7.11,7.11,0,0,0-.66-3.16,4.78,4.78,0,0,0-2-2.07,6.14,6.14,0,0,0-3.09-.73,6.34,6.34,0,0,0-2.37.41A4.84,4.84,0,0,0,14,21.3a5.09,5.09,0,0,0-1.11,1.89,7.36,7.36,0,0,0-.39,2.45,7.82,7.82,0,0,0,.37,2.42A5.49,5.49,0,0,0,14,30a4.76,4.76,0,0,0,1.8,1.24,6.37,6.37,0,0,0,2.42.43A6.12,6.12,0,0,0,21,31.07c.41.29.79.55,1.13.77a9.38,9.38,0,0,0,.9.51,1.74,1.74,0,0,0,.65.17.75.75,0,0,0,.57-.25.78.78,0,0,0,.23-.51.76.76,0,0,0-.2-.55A4.57,4.57,0,0,0,23.51,30.69Zm-2.24-3.28a3.57,3.57,0,0,1-.72,1.33,5.37,5.37,0,0,0-2.41-1.2.61.61,0,0,0-.43.18.53.53,0,0,0-.2.42.52.52,0,0,0,.2.43,5.49,5.49,0,0,0,.77.42,5.7,5.7,0,0,1,.92.56,3.29,3.29,0,0,1-1.2.24,3,3,0,0,1-2.35-1.08,4.56,4.56,0,0,1-.93-3.07,5.78,5.78,0,0,1,.25-1.77,3.59,3.59,0,0,1,.68-1.29,3,3,0,0,1,1-.77,3.28,3.28,0,0,1,1.3-.26,3.22,3.22,0,0,1,1.75.48,3,3,0,0,1,1.17,1.41,5.3,5.3,0,0,1,.41,2.2A5.94,5.94,0,0,1,21.27,27.41Z"/><path class="cls-2" d="M31.33,49.35H61.51a1.16,1.16,0,0,0,0-2.31H31.33a1.16,1.16,0,0,0,0,2.31Z"/><path class="cls-2" d="M61.51,53H31.33a1.16,1.16,0,0,0,0,2.31H61.51a1.16,1.16,0,0,0,0-2.31Z"/><path class="cls-2" d="M13.55,72.21a1.16,1.16,0,0,0,1.15,1.16H44.16l2.31-2.31H14.7A1.15,1.15,0,0,0,13.55,72.21Z"/><path class="cls-2" d="M13.55,66.21a1.16,1.16,0,0,0,1.15,1.15H49.84l2.31-2.31H14.7A1.16,1.16,0,0,0,13.55,66.21Z"/><path class="cls-2" d="M13.55,60.2a1.16,1.16,0,0,0,1.15,1.16H55.61l2.31-2.31H14.7A1.15,1.15,0,0,0,13.55,60.2Z"/><path class="cls-2" d="M14.82,55.19a.88.88,0,0,0,.75-.3,5.79,5.79,0,0,0,.55-1.23l.55-1.54h4.71l.55,1.51c.08.18.16.41.27.65a2.5,2.5,0,0,0,.28.53,1,1,0,0,0,.34.28,1.16,1.16,0,0,0,1.28-.23,1,1,0,0,0,.33-.74,3.63,3.63,0,0,0-.35-1.24l-3-7.47c-.15-.37-.26-.67-.36-.89a2.72,2.72,0,0,0-.34-.63,1.6,1.6,0,0,0-.52-.48,1.94,1.94,0,0,0-1.63,0,1.66,1.66,0,0,0-.53.49,4.34,4.34,0,0,0-.38.75q-.18.45-.3.78l-3,7.51c-.12.3-.21.54-.26.71a1.4,1.4,0,0,0-.08.49,1,1,0,0,0,.34.73A1.1,1.1,0,0,0,14.82,55.19ZM19,45.73l1.75,4.77H17.29Z"/></g></g></svg>