<?xml version="1.0" encoding="utf-8"?>
<!-- Generator: Adobe Illustrator 23.0.3, SVG Export Plug-In . SVG Version: 6.00 Build 0)  -->
<svg version="1.1" id="Layer_1" xmlns="http://www.w3.org/2000/svg" xmlns:xlink="http://www.w3.org/1999/xlink" x="0px" y="0px"
	 viewBox="0 0 100 100" style="enable-background:new 0 0 100 100;" xml:space="preserve">
<style type="text/css">
	.st0{fill:none;}
	.st1{fill:#242E3C;}
	.st2{fill:#E60000;}
</style>
<path class="st0" d="M1,0h100v100H1V0z"/>
<path class="st1" d="M100,0H-0.1L0,10v65.5h30V100l20-10.3L70,100V75.5h30V10V0z M97,72H66.5v22L50,85l-16.5,9V72H3V50.4h94V72z
	 M97,47.2H3V3h94V47.2z"/>
<g>
	<path class="st1" d="M25.5,69.5V53.5h3.9l2.4,10.9l2.4-10.9h4v15.9h-2.5V56.9l-2.6,12.6h-2.5l-2.6-12.6v12.6H25.5z"/>
	<path class="st1" d="M45.2,69.5V53.5h5.6c1.4,0,2.4,0.1,3,0.4c0.6,0.3,1.1,0.8,1.5,1.5s0.6,1.6,0.6,2.5c0,1.2-0.3,2.3-0.9,3
		s-1.4,1.2-2.6,1.4c0.6,0.4,1,0.9,1.4,1.3c0.4,0.5,0.9,1.3,1.5,2.6l1.6,3.1h-3.1L51.9,66c-0.7-1.3-1.2-2-1.4-2.4
		c-0.2-0.3-0.5-0.5-0.8-0.7c-0.3-0.1-0.7-0.2-1.3-0.2h-0.5v6.7H45.2z M47.8,60.3h2c1.2,0,2-0.1,2.3-0.2c0.3-0.1,0.6-0.3,0.8-0.6
		c0.2-0.3,0.3-0.7,0.3-1.3c0-0.5-0.1-0.9-0.3-1.2c-0.2-0.3-0.5-0.5-0.8-0.6c-0.2-0.1-1-0.1-2.1-0.1h-2.1V60.3z"/>
	<path class="st1" d="M74.6,69.5h-2.9l-1.1-3.6h-5.2l-1.1,3.6h-2.8l5.1-15.9h2.8L74.6,69.5z M69.8,63.2L68,57.3l-1.8,5.9H69.8z"/>
</g>
<g>
	<path class="st2" d="M65.8,34.8H37.7c-4.2,0-9-3.4-9-7.7v-6.7l-2.5-2.9v9.6c0,6.3,5.2,10.4,11.5,10.4h28.1v4.6l5.2-6l-5.2-6V34.8z"
		/>
	<path class="st2" d="M60.7,12.9h-29V8.1l-5.4,5.6l5.4,6.2v-4.3l29,0.2c4.2,0,7.7,2.3,7.7,6.5V29l2.7,2.9v-9.6
		C71.1,16,67,12.9,60.7,12.9z"/>
</g>
</svg>
