<?xml version="1.0" encoding="utf-8"?>
<!-- Generator: Adobe Illustrator 23.0.6, SVG Export Plug-In . SVG Version: 6.00 Build 0)  -->
<svg version="1.1" xmlns="http://www.w3.org/2000/svg" xmlns:xlink="http://www.w3.org/1999/xlink" x="0px" y="0px"
	 viewBox="0 0 100 100" style="enable-background:new 0 0 100 100;" xml:space="preserve">
<style type="text/css">
	.st0{display:none;}
	.st1{display:inline;fill:none;}
	.st2{display:inline;fill:#949494;}
	.st3{display:inline;fill:#E60000;}
	.st4{fill:#949494;}
	.st5{fill:#E60000;}
	.st6{fill:none;stroke:#949494;stroke-width:3;stroke-linecap:round;stroke-linejoin:round;stroke-miterlimit:10;}
</style>
<g id="Layer_1" class="st0">
	<path class="st1" d="M1,0h100v100H1V0z"/>
	<path class="st2" d="M100,0H-0.1L0,10v65.5h30V100l20-10.3L70,100V75.5h30V10V0z M97,72H66.5v22L50,85l-16.5,9V72H3V50.4h94V72z
		 M97,47.2H3V3h94V47.2z"/>
	<path id="XMLID_11_" class="st3" d="M49.6,9.2c9,0,16.4,7.3,16.4,16.4S58.6,42,49.6,42s-16.4-7.3-16.4-16.4S40.5,9.2,49.6,9.2
		L49.6,9.2z M49.6,6.2c-10.7,0-19.4,8.7-19.4,19.4S38.9,45,49.6,45S69,36.3,69,25.6S60.3,6.2,49.6,6.2z"/>
	<path id="XMLID_8_" class="st3" d="M46.7,27.4l9.3-9.3c1.4-1.4,3.7-1.4,5.2,0c1.4,1.4,1.4,3.7,0,5.2c-4,3.9-7.9,7.9-11.9,11.8
		c-1.4,1.4-3.5,1.4-4.9,0.2c-0.1-0.1-0.2-0.1-0.2-0.2l-6.7-6.7c-1.4-1.4-1.4-3.7,0-5.2c1.4-1.4,3.7-1.4,5.2,0L46.7,27.4L46.7,27.4z
		 M46.7,31.1l-5-5c-0.9-0.9-1.8-1.1-2-1.1c-1.3,0-0.4,1.6,0.6,2.5l4.7,4.7l0,0l0,0c0.9,0.9,1.8,1.8,3.4,0c9.1-9,0.8-0.8,9.9-9.8
		c0.9-0.9,1.9-1.5,1-2.4s-1.5,0.1-2.4,1L46.7,31.1z"/>
</g>
<g id="Layer_2">
	<g>
		<path class="st4" d="M9,92.3l9-4.5l7.2,3.6l7.2-3.6l7.2,3.6l7.2-3.6l7.2,3.6l7.2-3.6l9,4.5V6.9H9V92.3z M12.6,10.5h53.8v76
			L61,83.8l-7.2,3.6l-7.2-3.6l-7.2,3.6l-7.2-3.6l-7.2,3.6L18,83.8l-5.4,2.7V10.5z"/>
		<path class="st5" d="M39.5,33.8c4.9,0,9-4,9-9s-4-9-9-9s-9,4-9,9S34.6,33.8,39.5,33.8z M39.5,19.4c3,0,5.4,2.4,5.4,5.4
			s-2.4,5.4-5.4,5.4s-5.4-2.4-5.4-5.4S36.5,19.4,39.5,19.4z"/>
		<rect x="19.8" y="44.6" class="st5" width="21.5" height="3.6"/>
		<rect x="52.1" y="44.6" class="st5" width="7.2" height="3.6"/>
		<rect x="19.8" y="53.5" class="st5" width="21.5" height="3.6"/>
		<rect x="52.1" y="53.5" class="st5" width="7.2" height="3.6"/>
		<rect x="19.8" y="62.5" class="st5" width="21.5" height="3.6"/>
		<rect x="52.1" y="62.5" class="st5" width="7.2" height="3.6"/>
		<rect x="19.8" y="71.5" class="st5" width="21.5" height="3.6"/>
		<rect x="52.1" y="71.5" class="st5" width="7.2" height="3.6"/>
	</g>
	<g>
		<polyline class="st6" points="82.9,74.1 86.9,86.3 91,74.1 		"/>
		<polyline class="st6" points="82.9,32.2 82.9,74.1 91,74.1 91,32.2 		"/>
		<path class="st6" d="M88.3,10.6h-2.7c-1.5,0-2.7,1.2-2.7,2.7v18.9H91V13.3C91,11.8,89.8,10.6,88.3,10.6z"/>
		<path class="st6" d="M82.9,16h-2.7c-1.5,0-2.7,1.2-2.7,2.7v13.5"/>
	</g>
</g>
</svg>
