<?xml version="1.0" encoding="utf-8"?>
<!-- Generator: Adobe Illustrator 23.0.6, SVG Export Plug-In . SVG Version: 6.00 Build 0)  -->
<svg version="1.1" id="Layer_1" xmlns="http://www.w3.org/2000/svg" xmlns:xlink="http://www.w3.org/1999/xlink" x="0px" y="0px"
	 viewBox="0 0 100 100" style="enable-background:new 0 0 100 100;" xml:space="preserve">
<style type="text/css">
	.st0{fill:none;stroke:#E60000;stroke-width:3;stroke-linecap:round;stroke-linejoin:round;}
	.st1{fill:none;stroke:#242E3C;stroke-width:3;stroke-linecap:round;stroke-linejoin:round;}
</style>
<title></title>
<path class="st0" d="M92.5,47.8v-27c0-3.7-3-6.8-6.8-6.8h-71C11,14,8,17,8,20.8v57.5C8,82,11,85,14.8,85h40.6"/>
<line class="st0" x1="8" y1="27.5" x2="92.5" y2="27.5"/>
<path class="st1" d="M79,51.5c9.1,1.9,15,10.8,13.1,20c-1.9,9.1-10.8,15-20,13.1c-9.1-1.9-15-10.8-13.1-20c0.8-3.8,2.8-7.2,5.8-9.6"
	/>
<polyline class="st1" points="65.5,61.3 65.5,54.6 58.7,54.6 "/>
</svg>
