<?xml version="1.0" encoding="utf-8"?>
<!-- Generator: Adobe Illustrator 22.1.0, SVG Export Plug-In . SVG Version: 6.00 Build 0)  -->
<svg version="1.1" id="Layer_1" xmlns="http://www.w3.org/2000/svg" xmlns:xlink="http://www.w3.org/1999/xlink" x="0px" y="0px"
	 viewBox="0 0 100 100" style="enable-background:new 0 0 100 100;" xml:space="preserve">
<style type="text/css">
	.st0{fill:none;stroke:#949494;stroke-width:3.4762;stroke-linecap:round;stroke-linejoin:round;}
	.st1{fill:none;stroke:#E60000;stroke-width:3.4762;stroke-linecap:round;stroke-linejoin:round;}
	.st2{fill:#949494;}
</style>
<title></title>
<path class="st0" d="M93.9,49.8V22c0-3.8-3.1-7-7-7H14c-3.8,0-7,3.1-7,7V73c0,3.8,3.1,7,7,7h36.7"/>
<line class="st0" x1="7" y1="28.9" x2="93.9" y2="28.9"/>
<path class="st1" d="M80,53.6c9.4,1.9,15.5,11.1,13.5,20.5C91.6,83.5,82.4,89.6,73,87.6c-9.4-1.9-15.5-11.1-13.5-20.5
	c0.8-3.9,2.9-7.4,6-9.9"/>
<polyline class="st1" points="68.1,61.7 68.1,54.7 61.1,54.7 "/>
<path class="st2" d="M51.8,53.7h-7.4c-1,0-1.8-0.8-1.8-1.8c0-1,0.8-1.8,1.8-1.8h7.4c1,0,1.8,0.8,1.8,1.8
	C53.7,52.9,52.8,53.7,51.8,53.7z"/>
<path class="st2" d="M35.2,53.7H18.6c-1,0-1.8-0.8-1.8-1.8c0-1,0.8-1.8,1.8-1.8h16.6c1,0,1.8,0.8,1.8,1.8
	C37.1,52.9,36.2,53.7,35.2,53.7z"/>
<path class="st2" d="M18.6,59.2h11.1c1,0,1.8,0.8,1.8,1.8c0,1-0.8,1.8-1.8,1.8H18.6c-1,0-1.8-0.8-1.8-1.8
	C16.8,60.1,17.6,59.2,18.6,59.2z"/>
<line class="st0" x1="6.7" y1="39.7" x2="93.6" y2="39.7"/>
<path class="st2" d="M46.8,62.7h-7.4c-1,0-1.8-0.8-1.8-1.8c0-1,0.8-1.8,1.8-1.8h7.4c1,0,1.8,0.8,1.8,1.8
	C48.7,61.9,47.8,62.7,46.8,62.7z"/>
</svg>
