<?xml version="1.0" encoding="utf-8"?>
<!-- Generator: Adobe Illustrator 22.1.0, SVG Export Plug-In . SVG Version: 6.00 Build 0)  -->
<svg version="1.1" xmlns="http://www.w3.org/2000/svg" xmlns:xlink="http://www.w3.org/1999/xlink" x="0px" y="0px"
	 viewBox="0 0 100 100" style="enable-background:new 0 0 100 100;" xml:space="preserve">
<style type="text/css">
	.st0{display:none;}
	.st1{display:inline;}
	.st2{fill:#242E3C;stroke:#242E3C;stroke-width:0.9568;stroke-miterlimit:10;}
	.st3{fill:#E60000;stroke:#E60000;stroke-width:0.9568;stroke-miterlimit:10;}
	.st4{fill:#242E3C;}
	.st5{fill:#E60000;}
	.st6{fill:none;}
</style>
<g id="Icons" class="st0">
	<g id="content_x2C__management" class="st1">
		<g>
			<rect x="43.2" y="23.2" class="st2" width="22.7" height="1.6"/>
			<rect x="43.2" y="29.7" class="st2" width="32.4" height="1.6"/>
			<path class="st2" d="M67.5,7H14v87.5h71.3V24.8L67.5,7z M81.4,23.2H69.1V10.9L81.4,23.2z M83.7,92.9H15.6V8.6h51.2h0.7v16.2h16.2
				V92.9z"/>
			<rect x="23.7" y="49.1" class="st2" width="51.9" height="1.6"/>
			<rect x="23.7" y="42.6" class="st2" width="51.9" height="1.6"/>
			<rect x="23.7" y="36.1" class="st2" width="51.9" height="1.6"/>
			<path class="st2" d="M39.9,16.7H23.7v16.2h16.2V16.7z M38.3,31.3h-13v-13h13V31.3z"/>
			<path class="st3" d="M49.7,79.9c-3.6,0-6.5,2.9-6.5,6.5c0,1.9,0.9,3.7,2.2,4.9h4.2c-2.7,0-4.9-2.2-4.9-4.9c0-2.7,2.2-4.9,4.9-4.9
				s4.9,2.2,4.9,4.9c0,2.7-2.2,4.9-4.9,4.9h4.2c1.4-1.2,2.2-2.9,2.2-4.9C56.2,82.8,53.2,79.9,49.7,79.9z"/>
			<path class="st3" d="M49.7,71.7c-8.1,0-14.6,6.6-14.6,14.7c0,1.7,0.3,3.3,0.8,4.9h1.7c-0.6-1.5-1-3.1-1-4.9c0-7.2,5.8-13,13-13
				s13,5.8,13,13c0,1.7-0.3,3.4-1,4.9h1.7c0.5-1.5,0.8-3.2,0.8-4.9C64.3,78.3,57.7,71.7,49.7,71.7z"/>
			<path class="st3" d="M71.4,80.1c-0.5-1.6-1.1-3.2-1.9-4.6c0.2-0.3,0.4-0.5,0.5-0.7l3.8-5.4c0.5-0.7,0.4-1.8-0.2-2.5L69,62.3
				c-0.4-0.4-0.9-0.5-1.4-0.5c-0.4,0-0.8,0.1-1.1,0.3L61.3,66c-0.2,0.1-0.5,0.3-0.7,0.5c-1.4-0.8-3-1.4-4.6-1.9
				c0-0.3-0.1-0.6-0.1-0.9l-1.1-6.5c-0.1-0.9-1-1.6-1.9-1.6h-6.5c-0.9,0-1.7,0.7-1.9,1.6l-1.1,6.5c0,0.3-0.1,0.6-0.1,0.9
				c-1.6,0.5-3.1,1.1-4.6,1.9c-0.3-0.2-0.5-0.4-0.7-0.5l-5.4-3.8c-0.3-0.2-0.7-0.3-1.1-0.3c-0.5,0-1,0.2-1.4,0.5L25.5,67
				c-0.6,0.6-0.7,1.7-0.2,2.5l3.8,5.4c0.2,0.2,0.3,0.5,0.5,0.7c-0.8,1.4-1.4,3-1.9,4.6c-0.3,0-0.6,0.1-0.9,0.1l-6.5,1.1
				c-0.9,0.1-1.6,1-1.6,1.9v6.5c0,0.7,0.4,1.3,0.9,1.6h9.3l0,0l-1.1-0.1c-0.3,0-0.6-0.1-0.8-0.1l-6.5-1.1c-0.1,0-0.2-0.2-0.2-0.3
				v-6.5c0-0.1,0.1-0.3,0.2-0.3l6.5-1.1c0.2,0,0.5-0.1,0.8-0.1l1.1-0.1l0.3-1c0.4-1.5,1-2.9,1.8-4.3l0.5-1L31,74.5
				c-0.2-0.2-0.4-0.4-0.5-0.6l-3.8-5.4c-0.1-0.1,0-0.3,0-0.4l4.6-4.6c0,0,0.1-0.1,0.2-0.1s0.1,0,0.2,0l5.4,3.8
				c0.2,0.1,0.4,0.3,0.6,0.5l0.8,0.7l1-0.5c1.3-0.7,2.8-1.3,4.3-1.8l1-0.3l0.1-1.1c0-0.3,0.1-0.6,0.1-0.8l1.1-6.5
				c0-0.1,0.2-0.2,0.3-0.2h6.5c0.1,0,0.3,0.1,0.3,0.2l1.1,6.5c0,0.2,0.1,0.5,0.1,0.8l0.1,1.1l1,0.3c1.5,0.4,2.9,1,4.3,1.8l1,0.5
				l0.8-0.7c0.2-0.2,0.4-0.4,0.6-0.5l5.4-3.8c0,0,0.1,0,0.2,0s0.2,0,0.2,0.1l4.6,4.6c0.1,0.1,0.1,0.3,0,0.4l-3.8,5.4
				c-0.1,0.2-0.3,0.4-0.5,0.6l-0.7,0.8l0.5,1c0.7,1.3,1.3,2.8,1.8,4.3l0.3,1l1.1,0.1c0.3,0,0.6,0.1,0.8,0.1l6.5,1.1
				c0.1,0,0.2,0.2,0.2,0.3v6.5c0,0.1-0.1,0.3-0.2,0.3l-6.5,1c-0.2,0-0.5,0.1-0.8,0.1l-1.1,0.1l0,0h9.3c0.5-0.3,0.9-1,0.9-1.6v-6.5
				c0-0.9-0.7-1.7-1.6-1.9l-6.5-1.1C72.1,80.1,71.8,80.1,71.4,80.1z"/>
			<rect x="43.2" y="16.7" class="st2" width="22.6" height="1.6"/>
		</g>
	</g>
</g>
<g id="Layer_2">
	<path id="Shape_1_" class="st4" d="M70.1,20c-6.8-5.2-15-8-23.6-8c-21.5,0-39,17.5-39,39s17.5,39,39,39c10.4,0,20.2-4.1,27.6-11.4
		c1-1,1-2.5,0-3.5s-2.5-1-3.5,0c-6.4,6.4-15,10-24.1,10c-18.8,0-34.1-15.3-34.1-34.1s15.3-34.1,34.1-34.1
		c15.1,0,28.5,10.1,32.7,24.6c0.4,1.3,1.7,2,3,1.7c1.3-0.4,2-1.7,1.7-3C81.7,32.2,76.8,25,70.1,20z"/>
	<path id="Shape_2_" class="st4" d="M74.3,43.6c-1-1-2.5-1-3.5,0c-1,1-1,2.5,0,3.5l9.2,9.2c0.5,0.5,1.1,0.7,1.7,0.7
		c0.7,0,1.3-0.3,1.7-0.7l9.2-9.2c1-1,1-2.5,0-3.5c-1-1-2.5-1-3.5,0l-7.5,7.5L74.3,43.6z"/>
	<path class="st5" d="M29.8,49c-1.7,0-3,1.3-3,3s1.3,3,3,3s3-1.3,3-3S31.5,49,29.8,49z M29.8,37c-1.7,0-3,1.3-3,3s1.3,3,3,3
		s3-1.3,3-3S31.5,37,29.8,37z M29.8,61.3c-1.5,0-2.7,1.2-2.7,2.7c0,1.5,1.2,2.7,2.7,2.7c1.5,0,2.7-1.2,2.7-2.7
		C32.5,62.5,31.3,61.3,29.8,61.3z M35.8,66h28v-4h-28V66z M35.8,54h28v-4h-28V54z M35.8,38v4h28v-4H35.8z"/>
	<path class="st6" d="M21.8,28h48v48h-48V28z"/>
</g>
</svg>
