<?xml version="1.0" encoding="utf-8"?>
<!-- Generator: Adobe Illustrator 22.1.0, SVG Export Plug-In . SVG Version: 6.00 Build 0)  -->
<svg version="1.1" xmlns="http://www.w3.org/2000/svg" xmlns:xlink="http://www.w3.org/1999/xlink" x="0px" y="0px"
	 viewBox="0 0 100 100" style="enable-background:new 0 0 100 100;" xml:space="preserve">
<style type="text/css">
	.st0{display:none;}
	.st1{display:inline;}
	.st2{fill:#242E3C;stroke:#242E3C;stroke-width:0.9568;stroke-miterlimit:10;}
	.st3{fill:#E60000;stroke:#E60000;stroke-width:0.9568;stroke-miterlimit:10;}
	.st4{fill:none;stroke:#242E3C;stroke-width:3;stroke-linecap:round;stroke-linejoin:round;stroke-miterlimit:2.6131;}
	.st5{fill:none;stroke:#E60000;stroke-width:3;stroke-linecap:round;stroke-linejoin:round;stroke-miterlimit:2.6131;}
	.st6{fill:#E60000;stroke:#E60000;stroke-width:0.25;stroke-miterlimit:10;}
</style>
<g id="Icons" class="st0">
	<g id="content_x2C__management" class="st1">
		<g>
			<rect x="43.2" y="23.2" class="st2" width="22.7" height="1.6"/>
			<rect x="43.2" y="29.7" class="st2" width="32.4" height="1.6"/>
			<path class="st2" d="M67.5,7H14v87.5h71.3V24.8L67.5,7z M81.4,23.2H69.1V10.9L81.4,23.2z M83.7,92.9H15.6V8.6h51.2h0.7v16.2h16.2
				V92.9z"/>
			<rect x="23.7" y="49.1" class="st2" width="51.9" height="1.6"/>
			<rect x="23.7" y="42.6" class="st2" width="51.9" height="1.6"/>
			<rect x="23.7" y="36.1" class="st2" width="51.9" height="1.6"/>
			<path class="st2" d="M39.9,16.7H23.7v16.2h16.2V16.7z M38.3,31.3h-13v-13h13V31.3z"/>
			<path class="st3" d="M49.7,79.9c-3.6,0-6.5,2.9-6.5,6.5c0,1.9,0.9,3.7,2.2,4.9h4.2c-2.7,0-4.9-2.2-4.9-4.9c0-2.7,2.2-4.9,4.9-4.9
				s4.9,2.2,4.9,4.9c0,2.7-2.2,4.9-4.9,4.9h4.2c1.4-1.2,2.2-2.9,2.2-4.9C56.2,82.8,53.2,79.9,49.7,79.9z"/>
			<path class="st3" d="M49.7,71.7c-8.1,0-14.6,6.6-14.6,14.7c0,1.7,0.3,3.3,0.8,4.9h1.7c-0.6-1.5-1-3.1-1-4.9c0-7.2,5.8-13,13-13
				s13,5.8,13,13c0,1.7-0.3,3.4-1,4.9h1.7c0.5-1.5,0.8-3.2,0.8-4.9C64.3,78.3,57.7,71.7,49.7,71.7z"/>
			<path class="st3" d="M71.4,80.1c-0.5-1.6-1.1-3.2-1.9-4.6c0.2-0.3,0.4-0.5,0.5-0.7l3.8-5.4c0.5-0.7,0.4-1.8-0.2-2.5L69,62.3
				c-0.4-0.4-0.9-0.5-1.4-0.5c-0.4,0-0.8,0.1-1.1,0.3L61.3,66c-0.2,0.1-0.5,0.3-0.7,0.5c-1.4-0.8-3-1.4-4.6-1.9
				c0-0.3-0.1-0.6-0.1-0.9l-1.1-6.5c-0.1-0.9-1-1.6-1.9-1.6h-6.5c-0.9,0-1.7,0.7-1.9,1.6l-1.1,6.5c0,0.3-0.1,0.6-0.1,0.9
				c-1.6,0.5-3.1,1.1-4.6,1.9c-0.3-0.2-0.5-0.4-0.7-0.5l-5.4-3.8c-0.3-0.2-0.7-0.3-1.1-0.3c-0.5,0-1,0.2-1.4,0.5L25.5,67
				c-0.6,0.6-0.7,1.7-0.2,2.5l3.8,5.4c0.2,0.2,0.3,0.5,0.5,0.7c-0.8,1.4-1.4,3-1.9,4.6c-0.3,0-0.6,0.1-0.9,0.1l-6.5,1.1
				c-0.9,0.1-1.6,1-1.6,1.9v6.5c0,0.7,0.4,1.3,0.9,1.6h9.3l0,0l-1.1-0.1c-0.3,0-0.6-0.1-0.8-0.1l-6.5-1.1c-0.1,0-0.2-0.2-0.2-0.3
				v-6.5c0-0.1,0.1-0.3,0.2-0.3l6.5-1.1c0.2,0,0.5-0.1,0.8-0.1l1.1-0.1l0.3-1c0.4-1.5,1-2.9,1.8-4.3l0.5-1L31,74.5
				c-0.2-0.2-0.4-0.4-0.5-0.6l-3.8-5.4c-0.1-0.1,0-0.3,0-0.4l4.6-4.6c0,0,0.1-0.1,0.2-0.1s0.1,0,0.2,0l5.4,3.8
				c0.2,0.1,0.4,0.3,0.6,0.5l0.8,0.7l1-0.5c1.3-0.7,2.8-1.3,4.3-1.8l1-0.3l0.1-1.1c0-0.3,0.1-0.6,0.1-0.8l1.1-6.5
				c0-0.1,0.2-0.2,0.3-0.2h6.5c0.1,0,0.3,0.1,0.3,0.2l1.1,6.5c0,0.2,0.1,0.5,0.1,0.8l0.1,1.1l1,0.3c1.5,0.4,2.9,1,4.3,1.8l1,0.5
				l0.8-0.7c0.2-0.2,0.4-0.4,0.6-0.5l5.4-3.8c0,0,0.1,0,0.2,0s0.2,0,0.2,0.1l4.6,4.6c0.1,0.1,0.1,0.3,0,0.4l-3.8,5.4
				c-0.1,0.2-0.3,0.4-0.5,0.6l-0.7,0.8l0.5,1c0.7,1.3,1.3,2.8,1.8,4.3l0.3,1l1.1,0.1c0.3,0,0.6,0.1,0.8,0.1l6.5,1.1
				c0.1,0,0.2,0.2,0.2,0.3v6.5c0,0.1-0.1,0.3-0.2,0.3l-6.5,1c-0.2,0-0.5,0.1-0.8,0.1l-1.1,0.1l0,0h9.3c0.5-0.3,0.9-1,0.9-1.6v-6.5
				c0-0.9-0.7-1.7-1.6-1.9l-6.5-1.1C72.1,80.1,71.8,80.1,71.4,80.1z"/>
			<rect x="43.2" y="16.7" class="st2" width="22.6" height="1.6"/>
		</g>
	</g>
</g>
<g id="Layer_2">
	<g>
		<line class="st4" x1="71.8" y1="17.8" x2="78.3" y2="17.8"/>
		<path class="st4" d="M78.3,17.8c2.3,0,4.2,1.9,4.2,4.2"/>
		<line class="st4" x1="82.4" y1="22.1" x2="82.4" y2="89"/>
		<path class="st4" d="M82.4,89c0,2.3-1.9,4.2-4.2,4.2"/>
		<line class="st4" x1="78.3" y1="93.3" x2="21.7" y2="93.3"/>
		<path class="st4" d="M21.7,93.3c-2.3,0-4.2-1.9-4.2-4.2"/>
		<line class="st4" x1="17.6" y1="89" x2="17.6" y2="22.1"/>
		<path class="st4" d="M17.6,22.1c0-2.3,1.9-4.2,4.2-4.2"/>
		<line class="st4" x1="21.7" y1="17.8" x2="27.3" y2="17.8"/>
		<polyline class="st4" points="67.8,11.7 57.1,11.7 57.1,10.8 		"/>
		<path class="st4" d="M57.1,10.8c0-2.2-1.8-4-4-4"/>
		<line class="st4" x1="53.2" y1="6.7" x2="46.9" y2="6.7"/>
		<path class="st4" d="M46.9,6.7c-2.2,0-4,1.8-4,4"/>
		<polyline class="st4" points="42.9,10.8 42.9,11.7 32.2,11.7 		"/>
		<path class="st4" d="M32.2,11.7c-2.2,0-4,1.8-4,4"/>
		<polyline class="st4" points="28.2,15.7 28.2,39.2 71.8,39.2 71.8,15.7 		"/>
		<path class="st4" d="M71.8,15.7c0-2.2-1.8-4-4-4"/>
		<g>
			<line class="st5" x1="28.4" y1="58.5" x2="32" y2="61.8"/>
			<line class="st5" x1="38.5" y1="54.5" x2="32" y2="61.8"/>
		</g>
		<line class="st5" x1="44.8" y1="58.9" x2="71.6" y2="58.9"/>
		<line class="st5" x1="44.8" y1="75.4" x2="71.6" y2="75.4"/>
	</g>
	<path class="st6" d="M58,22.6V22c0-2.8-2.2-5-5-5h-6c-2.8,0-5,2.2-5,5h2c0-1.7,1.3-3,3-3h6c1.7,0,3,1.3,3,3v0.6l-1.3-1.3l-1.4,1.4
		l3.7,3.7l3.7-3.7l-1.4-1.4L58,22.6z"/>
	<path class="st6" d="M53,31h-6c-1.7,0-3-1.3-3-3v-0.6l1.3,1.3l1.4-1.4L43,23.6l-3.7,3.7l1.4,1.4l1.3-1.3V28c0,2.8,2.2,5,5,5h6
		c2.8,0,5-2.2,5-5h-2C56,29.7,54.7,31,53,31z"/>
</g>
</svg>
