<?xml version="1.0" encoding="utf-8"?>
<!-- Generator: Adobe Illustrator 22.1.0, SVG Export Plug-In . SVG Version: 6.00 Build 0)  -->
<svg version="1.1" id="Layer_1" xmlns="http://www.w3.org/2000/svg" xmlns:xlink="http://www.w3.org/1999/xlink" x="0px" y="0px"
	 viewBox="0 0 100 100" style="enable-background:new 0 0 100 100;" xml:space="preserve">
<style type="text/css">
	.st0{fill:#949494;}
	.st1{fill:#E60000;}
</style>
<g>
	<g>
		<path class="st0" d="M87.6,7.1H23.4c-3,0-5.4,2.4-5.4,5.4v14.9c1.6-1.4,1.4-2.5,3.4-3.2V10.5h68.3v79H21.4V75.8
			c-2-0.7-1.8-1.8-3.4-3.2v14.9c0,3,2.4,5.4,5.4,5.4h64.3c3,0,5.4-2.4,5.4-5.4v-75C93,9.5,90.6,7.1,87.6,7.1z"/>
	</g>
</g>
<path class="st0" d="M78.9,21.2v57.6h-9.4V21.2h8.4 M82.3,17.9H66.2v64.3h16.1V17.9L82.3,17.9z"/>
<path class="st1" d="M29.5,58.1H52v-18H29.5V26.6L5,49.1l24.5,22.5V58.1z M26,63.3L9.8,49.1L26,34.8v8.8h22.5v11H26V63.3z"/>
</svg>
