<svg xmlns="http://www.w3.org/2000/svg" viewBox="0 0 83 98.8"><defs><style>.cls-1,.cls-3{fill:none;}.cls-2{fill:#242e3c;}.cls-3{stroke:#e60000;stroke-miterlimit:10;stroke-width:2.6px;}.cls-4{fill:#e60000;}</style></defs><title>SearchDocument</title><g id="Layer_2" data-name="Layer 2"><g id="DocumentSearch"><polygon class="cls-1" points="15.06 5.28 5.28 15.06 15.06 15.06 15.06 5.28"/><path class="cls-1" d="M67.49,59.63V3.1H18.77V18.77H3.1V95.7H67.49V75.35"/><path class="cls-1" d="M71.35,74c-.13-1.83-.23-3.67-.26-5.5"/><path class="cls-2" d="M68.09,75.35v21H2.5V18.17H18.17V2.5H68.09V60.75l.18.13a13.07,13.07,0,0,1,2.32,2.73V1.25A1.25,1.25,0,0,0,69.34,0H16.47a1.26,1.26,0,0,0-.89.37L.37,15.59a1.22,1.22,0,0,0-.37.88V97.55A1.25,1.25,0,0,0,1.25,98.8H69.34a1.25,1.25,0,0,0,1.25-1.25V77.41A14.63,14.63,0,0,1,68.09,75.35ZM4.85,14.64l9.79-9.79,1-1V15.66H3.83Z"/><line class="cls-1" x1="57.71" y1="55.1" x2="55.1" y2="57.72"/><path class="cls-1" d="M42.9,39.94a3,3,0,1,0,3,3A3,3,0,0,0,42.9,39.94Z"/><path class="cls-1" d="M51.77,39.94a3,3,0,1,0,3,3A3,3,0,0,0,51.77,39.94Z"/><path class="cls-1" d="M54,83.74H12.19a1.86,1.86,0,0,1,0-3.71H54a1.86,1.86,0,0,1,0,3.71Zm0-13H12.19a1.85,1.85,0,0,1,0-3.7H54a1.85,1.85,0,1,1,0,3.7Zm0-52H22.47V15.06H54a1.86,1.86,0,0,1,0,3.71Z"/><path class="cls-2" d="M54,80.63H12.19a1.26,1.26,0,0,0,0,2.51H54a1.26,1.26,0,0,0,0-2.51Z"/><path class="cls-2" d="M55.23,16.91A1.25,1.25,0,0,0,54,15.66H23.07v2.51H54A1.25,1.25,0,0,0,55.23,16.91Z"/><path class="cls-2" d="M54,67.64H12.19a1.25,1.25,0,1,0,0,2.5H54a1.25,1.25,0,1,0,0-2.5Z"/><path class="cls-2" d="M29.71,29.58a4.79,4.79,0,0,1,.62-.92H12.19a1.25,1.25,0,0,0,0,2.5H28.38l.77-1A5.25,5.25,0,0,1,29.71,29.58Z"/><path class="cls-2" d="M27.82,54.65H12.19a1.25,1.25,0,1,0,0,2.5H30A13.61,13.61,0,0,1,27.82,54.65Z"/><path class="cls-2" d="M12.19,44.15H23.88a14.88,14.88,0,0,1,0-2.5H12.19a1.25,1.25,0,1,0,0,2.5Z"/><line class="cls-2" x1="59.08" y1="52.07" x2="59.29" y2="51.68"/><path class="cls-3" d="M58.68,53.08a1,1,0,0,1,1.42,0L81.41,74.4a1,1,0,0,1,0,1.41L75.8,81.43a1,1,0,0,1-1.41,0L53.07,60.11a1,1,0,0,1,0-1.41"/><line class="cls-3" x1="58.47" y1="65.11" x2="65.03" y2="58.55"/><circle class="cls-3" cx="42.94" cy="42.96" r="18.75"/><path class="cls-4" d="M45.3,43a2.37,2.37,0,1,0-2.36,2.36A2.37,2.37,0,0,0,45.3,43Z"/><path class="cls-4" d="M51.8,40.59A2.37,2.37,0,1,0,54.17,43,2.37,2.37,0,0,0,51.8,40.59Z"/><path class="cls-4" d="M34.07,40.59A2.37,2.37,0,1,0,36.43,43,2.37,2.37,0,0,0,34.07,40.59Z"/></g></g></svg>