<svg xmlns="http://www.w3.org/2000/svg" viewBox="0 0 100 80.63"><defs><style>.cls-1{fill:#e60000;}.cls-2{fill:#242e3c;}</style></defs><title>Seminar</title><g id="Layer_2" data-name="Layer 2"><g id="Seminar"><path class="cls-1" d="M61.85,30.57a9.12,9.12,0,0,1-9.11-9.11V19.87a9.11,9.11,0,1,1,18.22,0v1.59A9.12,9.12,0,0,1,61.85,30.57Zm0-17.2a6.51,6.51,0,0,0-6.5,6.5v1.59a6.5,6.5,0,1,0,13,0V19.87A6.51,6.51,0,0,0,61.85,13.37Z"/><rect class="cls-1" x="51.99" y="42.71" width="2.61" height="10.5"/><rect class="cls-1" x="69.09" y="42.71" width="2.61" height="10.5"/><path class="cls-1" d="M47.46,53H44.85V42a8.47,8.47,0,0,1,5.82-8.06,35.76,35.76,0,0,1,22.36,0A8.46,8.46,0,0,1,78.84,42V52.77H76.23V42a5.86,5.86,0,0,0-4-5.58,33,33,0,0,0-20.71,0,5.86,5.86,0,0,0-4,5.58Z"/><path class="cls-2" d="M26.6,70.44h0a9.12,9.12,0,0,1-9.11-9.11V59.74a9.12,9.12,0,0,1,9.1-9.11h0a9.1,9.1,0,0,1,9.1,9.11v1.59a9.12,9.12,0,0,1-9.1,9.11Zm0-17.2a6.5,6.5,0,0,0-6.5,6.5v1.59a6.49,6.49,0,0,0,6.49,6.5h0a6.49,6.49,0,0,0,6.49-6.5V59.74a6.5,6.5,0,0,0-6.49-6.5Z"/><path class="cls-2" d="M42.2,70.44h0a9.12,9.12,0,0,1-9.11-9.11V59.74a9.12,9.12,0,0,1,9.11-9.11h0a9.1,9.1,0,0,1,9.1,9.11v1.59a9.1,9.1,0,0,1-9.1,9.11Zm0-17.2a6.52,6.52,0,0,0-6.5,6.5v1.59a6.49,6.49,0,0,0,6.5,6.5h0a6.49,6.49,0,0,0,6.49-6.5V59.74a6.5,6.5,0,0,0-6.49-6.5Z"/><path class="cls-2" d="M57.8,70.44h0a9.12,9.12,0,0,1-9.11-9.11V59.74a9.12,9.12,0,0,1,9.11-9.11,9,9,0,0,1,6.44,2.67,9.06,9.06,0,0,1,2.67,6.44v1.59a9.12,9.12,0,0,1-9.11,9.11Zm0-17.2a6.52,6.52,0,0,0-6.5,6.5v1.59a6.5,6.5,0,0,0,6.5,6.5h0a6.5,6.5,0,0,0,6.5-6.5V59.74a6.5,6.5,0,0,0-6.5-6.5Z"/><path class="cls-2" d="M73.41,70.44h0a9.1,9.1,0,0,1-9.1-9.11V59.74a9.12,9.12,0,0,1,9.1-9.11h0a9.12,9.12,0,0,1,9.1,9.11v1.59a9.12,9.12,0,0,1-9.1,9.11Zm0-17.2a6.5,6.5,0,0,0-6.49,6.5v1.59a6.49,6.49,0,0,0,6.49,6.5h0a6.49,6.49,0,0,0,6.49-6.5V59.74a6.5,6.5,0,0,0-6.49-6.5Z"/><path class="cls-2" d="M89.32,80.63H73.09l-.33-.82a9,9,0,0,1-.66-3.38V74.84a9.11,9.11,0,1,1,18.21,0v1.59a9,9,0,0,1-.66,3.38ZM74.91,78H87.5a6.54,6.54,0,0,0,.2-1.59V74.84a6.5,6.5,0,1,0-13,0v1.59A6.6,6.6,0,0,0,74.91,78Z"/><path class="cls-2" d="M73.72,80.63H57.49l-.33-.82a9,9,0,0,1-.66-3.38V74.84a9.11,9.11,0,0,1,18.21,0v1.59a9,9,0,0,1-.66,3.38ZM59.31,78H71.89a6.15,6.15,0,0,0,.21-1.59V74.84a6.5,6.5,0,1,0-13,0v1.59A6.6,6.6,0,0,0,59.31,78Z"/><path class="cls-2" d="M58.12,80.63H41.88l-.32-.82a9,9,0,0,1-.67-3.38V74.84a9.11,9.11,0,0,1,18.22,0v1.59a9.24,9.24,0,0,1-.66,3.38ZM43.71,78H56.29a6.15,6.15,0,0,0,.21-1.59V74.84a6.5,6.5,0,0,0-13,0v1.59A6.15,6.15,0,0,0,43.71,78Z"/><path class="cls-2" d="M42.51,80.63H26.28L26,79.81a9,9,0,0,1-.66-3.38V74.84A9.11,9.11,0,0,1,40.84,68.4a9,9,0,0,1,2.66,6.44v1.59a9,9,0,0,1-.66,3.38ZM28.11,78H40.69a6.6,6.6,0,0,0,.2-1.59V74.84a6.5,6.5,0,1,0-13,0v1.59A6.15,6.15,0,0,0,28.11,78Z"/><path class="cls-2" d="M26.91,80.63H10.68l-.33-.82a9,9,0,0,1-.66-3.38V74.84a9.12,9.12,0,0,1,9.11-9.11,9.12,9.12,0,0,1,9.1,9.11v1.59a9,9,0,0,1-.66,3.38ZM12.5,78H25.09a6.6,6.6,0,0,0,.2-1.59V74.84a6.5,6.5,0,1,0-13,0v1.59A6.6,6.6,0,0,0,12.5,78Z"/><rect class="cls-2" y="78.02" width="100" height="2.61"/><polygon class="cls-2" points="97.13 63.96 87.27 63.96 87.27 61.35 94.51 61.35 94.51 2.61 5.49 2.61 5.49 61.35 11.97 61.35 11.97 63.96 2.88 63.96 2.88 0 97.13 0 97.13 63.96"/></g></g></svg>