<?xml version="1.0" encoding="utf-8"?>
<!-- Generator: Adobe Illustrator 23.0.3, SVG Export Plug-In . SVG Version: 6.00 Build 0)  -->
<svg version="1.1" id="Layer_2" xmlns="http://www.w3.org/2000/svg" xmlns:xlink="http://www.w3.org/1999/xlink" x="0px" y="0px"
	 viewBox="0 0 100 100" style="enable-background:new 0 0 100 100;" xml:space="preserve">
<style type="text/css">
	.st0{fill:none;stroke:#242E3C;stroke-width:3;stroke-miterlimit:10;}
	.st1{fill:none;stroke:#242E3C;stroke-miterlimit:10;}
	.st2{fill:none;stroke:#E60000;stroke-width:3;stroke-miterlimit:10;}
</style>
<circle class="st0" cx="50" cy="51" r="46.5"/>
<path class="st1" d="M68.9,28.6c0,0-21.8-9.2-32.9,2.7c-1.3,1.4-5.6,16,0.4,15.2c9.2-1.2,5.5-8.9,10.9-9.5
	c7.8,0.8,28.6,22.6,28.6,22.6l6.6-9l-8.8-14L68.9,28.6z"/>
<path class="st0" d="M19.5,50.1c0,0,29.2,26.2,32.8,29.4c3.7,3.3,3.9-4.6,3.9-4.6l-9.8-8.1"/>
<path class="st0" d="M65,50.1c0,0,13.1,9.2,12.4,12.6c-0.7,3.4-5.1,4.2-7.6,2.4c-2.5-1.9-15.7-11.5-15.7-11.5"/>
<path class="st0" d="M50.4,61.3c0,0,14.9,11.8,17.8,10.8c3.3-1.1,3.7-5,1.1-6.9c-2.5-1.9-15.2-11.8-15.2-11.8"/>
<path class="st0" d="M50.4,61.3c0,0,14.3,9.6,14.3,12.7c0,3.4-3.5,5.1-6.1,3.3c-2.6-1.8-12.2-9.5-12.2-9.5"/>
<rect x="74.9" y="20.2" transform="matrix(0.8498 -0.5271 0.5271 0.8498 -7.4831 47.6798)" class="st2" width="10" height="33.5"/>
<rect x="4.5" y="32" transform="matrix(0.5271 -0.8498 0.8498 0.5271 -21.3666 35.537)" class="st0" width="33.5" height="10"/>
<line class="st0" x1="33.6" y1="28.2" x2="37.3" y2="29.7"/>
<path class="st2" d="M28.3,57.1L28.3,57.1c2.1,1.7,2.4,4.7,0.7,6.8l-3,3.7c-1.7,2.1-4.7,2.4-6.8,0.7l0,0c-2.1-1.7-2.4-4.7-0.7-6.8
	l3-3.7C23.3,55.8,26.3,55.4,28.3,57.1z"/>
<path class="st2" d="M34.7,63.4L34.7,63.4c1.8,1.4,2.1,4,0.6,5.8l-2.9,3.5c-1.4,1.8-4,2.1-5.8,0.6h0c-1.8-1.4-2.1-4-0.6-5.8l2.9-3.5
	C30.3,62.2,32.9,62,34.7,63.4z"/>
<path class="st2" d="M41.3,69.5L41.3,69.5c1.8,1.4,2.1,4,0.6,5.8l-2.9,3.5c-1.4,1.8-4,2.1-5.8,0.6l0,0c-1.8-1.4-2.1-4-0.6-5.8
	l2.9-3.5C36.9,68.3,39.5,68,41.3,69.5z"/>
<path class="st2" d="M47.5,74.1L47.5,74.1c1.5,1.2,1.7,3.4,0.5,4.9l-2.4,3c-1.2,1.5-3.4,1.7-4.9,0.5l0,0c-1.5-1.2-1.7-3.4-0.5-4.9
	l2.4-3C43.8,73.1,46,72.8,47.5,74.1z"/>
<path class="st2" d="M68.8,28.5c0,0-35.6-12.5-36.1,13c0,0-0.1,5.5,3.7,5.1c4.7-0.5,8.1-2.9,8.1-7.1s7.1-1.2,7.1-1.2l24.2,21.1
	L82.2,49"/>
</svg>
