<svg xmlns="http://www.w3.org/2000/svg" viewBox="0 0 108.92 103"><defs><style>.cls-1,.cls-2,.cls-3{fill:none;}.cls-1{stroke:#e60000;}.cls-1,.cls-2{stroke-miterlimit:10;stroke-width:2.6px;}.cls-2{stroke:#242e3c;}.cls-4{fill:#e60000;}</style></defs><title>Stage1</title><g id="Layer_2" data-name="Layer 2"><g id="Stage-1"><polyline class="cls-1" points="87.78 46.29 87.78 32.28 54.49 13.05 21.19 32.28 21.19 46.29"/><polyline class="cls-1" points="21.19 70.72 54.49 89.95 87.78 70.72"/><polyline class="cls-2" points="97.79 47.01 97.79 26.5 54.49 1.5 11.19 26.5 11.19 47.51"/><polyline class="cls-2" points="11.19 70.67 11.19 76.5 54.49 101.5 97.79 76.5 97.79 70.5"/><path class="cls-2" d="M106.65,47H2.32l7,11.36L2.37,70.62H106.65l-6.92-11.8Z"/><path class="cls-3" d="M46.1,55.92c-.11-.31-.21-.65-.31-1-.09.38-.19.72-.3,1s-.2.59-.29.82L44,60.39h3.65l-1.24-3.65C46.3,56.51,46.2,56.24,46.1,55.92Z"/><path class="cls-4" d="M27.49,64.17a3.82,3.82,0,0,0,.88-1.32,4.39,4.39,0,0,0,.3-1.64,3.28,3.28,0,0,0-.24-1.32,2.71,2.71,0,0,0-.62-.92,3.08,3.08,0,0,0-.88-.63,9.27,9.27,0,0,0-1.07-.45l-1.08-.36a7,7,0,0,1-1-.36,2.36,2.36,0,0,1-.75-.51,1.17,1.17,0,0,1-.33-.84,1.52,1.52,0,0,1,.51-1.19,2.16,2.16,0,0,1,1.46-.43,3,3,0,0,1,1,.14,4.58,4.58,0,0,1,.74.32l.49.26L27,55a.65.65,0,0,0,.33.1.4.4,0,0,0,.24-.06.86.86,0,0,0,.23-.26l.66-1.24a3.42,3.42,0,0,0-.62-.43,5.28,5.28,0,0,0-.93-.43,6.85,6.85,0,0,0-1.06-.28,7.24,7.24,0,0,0-1.15-.09,5.07,5.07,0,0,0-1.86.32,4.23,4.23,0,0,0-1.36.84A3.52,3.52,0,0,0,20.33,56a4,4,0,0,0,.24,1.48,3.1,3.1,0,0,0,.62,1,3.22,3.22,0,0,0,.88.63,6.81,6.81,0,0,0,1.05.43c.37.12.73.23,1.08.32a6.68,6.68,0,0,1,1,.35,2.39,2.39,0,0,1,.75.55,1.36,1.36,0,0,1,.32.93A1.67,1.67,0,0,1,25.7,63a2.32,2.32,0,0,1-1.46.42,3.19,3.19,0,0,1-1.17-.19,5.17,5.17,0,0,1-.85-.4l-.64-.39a.76.76,0,0,0-.42-.13.48.48,0,0,0-.26.07.55.55,0,0,0-.21.19l-.8,1.26a5.31,5.31,0,0,0,.73.54,7.46,7.46,0,0,0,1.1.53,7,7,0,0,0,1.21.35,6.36,6.36,0,0,0,1.21.12,5.52,5.52,0,0,0,1.94-.32A4.1,4.1,0,0,0,27.49,64.17Z"/><polygon class="cls-4" points="29.97 54.36 33.48 54.36 33.73 54.36 33.73 54.61 33.73 65.24 36.32 65.24 36.32 54.61 36.32 54.36 36.57 54.36 40.07 54.36 40.07 52.41 29.97 52.41 29.97 54.36"/><path class="cls-4" d="M44.39,52.41l-5,12.83h2a.72.72,0,0,0,.49-.16.77.77,0,0,0,.28-.35L43,62.42l0-.17h5.43l.06.17.78,2.32a.91.91,0,0,0,.29.36.82.82,0,0,0,.5.14h2l-5-12.83ZM44,60.64h-.35l.11-.33L45,56.68c.1-.24.19-.51.3-.82s.2-.66.28-1l.23-.92.26.91c.1.37.2.7.31,1s.19.58.28.81l1.24,3.66.11.33h-.34"/><path class="cls-4" d="M57.65,54.64a4,4,0,0,1,1.67-.33,7.71,7.71,0,0,1,.87,0,4.33,4.33,0,0,1,.75.16,4.71,4.71,0,0,1,.71.27c.22.11.45.24.7.39a.86.86,0,0,0,.43.15h.11a.62.62,0,0,0,.39-.29l.78-1.18a5.16,5.16,0,0,0-.73-.55,5.73,5.73,0,0,0-1.08-.54,8.05,8.05,0,0,0-1.31-.37,8.94,8.94,0,0,0-1.51-.13,7.92,7.92,0,0,0-2.83.49,6.06,6.06,0,0,0-2.13,1.35,5.83,5.83,0,0,0-1.36,2.07,7.1,7.1,0,0,0-.48,2.65,6.57,6.57,0,0,0,.51,2.61,6,6,0,0,0,1.42,2.08,6.6,6.6,0,0,0,2.23,1.37,8.09,8.09,0,0,0,2.9.5A8.34,8.34,0,0,0,62,65.05a6.73,6.73,0,0,0,2-1V58.83H59.8v1.45a.26.26,0,0,0,.09.21.4.4,0,0,0,.29.09h1.56V63l-.15.06a6.22,6.22,0,0,1-.92.31,4.45,4.45,0,0,1-1.07.11,4.64,4.64,0,0,1-1.74-.31,3.71,3.71,0,0,1-1.37-.93,4.26,4.26,0,0,1-.89-1.47,6,6,0,0,1-.3-2A5.48,5.48,0,0,1,55.58,57a4,4,0,0,1,.8-1.43A3.67,3.67,0,0,1,57.65,54.64Z"/><polygon class="cls-4" points="74.7 63.36 69.48 63.36 69.23 63.36 69.23 63.11 69.23 59.93 69.23 59.68 69.48 59.68 73.42 59.68 73.42 57.9 69.48 57.9 69.23 57.9 69.23 57.65 69.23 54.54 69.23 54.29 69.48 54.29 74.7 54.29 74.7 52.41 66.62 52.41 66.62 65.24 74.7 65.24 74.7 63.36"/><path class="cls-4" d="M87,63.69V52.4H85l-3.91,3.27.76,1a.52.52,0,0,0,.13.12.79.79,0,0,0,.23.09h.13l.15,0a.67.67,0,0,0,.29-.13l1.51-1.26.45-.37,0,.58c0,.17,0,.34,0,.52s0,.34,0,.5v7H82.06v1.55h7.09V63.69H87Z"/></g></g></svg>