<?xml version="1.0" encoding="utf-8"?>
<!-- Generator: Adobe Illustrator 22.1.0, SVG Export Plug-In . SVG Version: 6.00 Build 0)  -->
<svg version="1.1" id="Layer_1" xmlns="http://www.w3.org/2000/svg" xmlns:xlink="http://www.w3.org/1999/xlink" x="0px" y="0px"
	 viewBox="0 0 32 32" style="enable-background:new 0 0 32 32;" xml:space="preserve" width="32px" height="32px" preserveAspectRatio="xMinYMid">
<style type="text/css">
	.st0{fill:#2BB673;}
	.st1{fill:none;stroke:#FFFFFF;stroke-width:4.1184;stroke-miterlimit:10;}
</style>
<path id="XMLID_3_" class="st0" d="M32,16C32,16,32,16,32,16c0-0.2,0-0.3,0-0.4c0-0.1,0-0.1,0-0.2c0-0.1,0-0.1,0-0.2
	c0-0.1,0-0.2,0-0.2c0,0,0-0.1,0-0.1c0-0.1,0-0.2,0-0.2c0,0,0-0.1,0-0.1c0-0.1,0-0.2,0-0.3c0,0,0,0,0-0.1C31,6.2,24.2,0,16,0
	S1,6.2,0.1,14.2c0,0,0,0,0,0.1c0,0.1,0,0.2,0,0.3c0,0,0,0.1,0,0.1c0,0.1,0,0.2,0,0.2c0,0,0,0.1,0,0.1c0,0.1,0,0.2,0,0.2
	c0,0.1,0,0.1,0,0.2c0,0.1,0,0.1,0,0.2c0,0.1,0,0.2,0,0.3c0,0,0,0,0,0c0,0,0,0,0,0s0,0,0,0c0,0,0,0,0,0c0,0.1,0,0.2,0,0.3
	c0,0.1,0,0.1,0,0.2c0,0.1,0,0.1,0,0.2c0,0.1,0,0.2,0,0.2c0,0,0,0.1,0,0.1c0,0.1,0,0.2,0,0.2c0,0,0,0.1,0,0.1c0,0.1,0,0.2,0,0.3
	c0,0,0,0,0,0.1C1,25.8,7.8,32,16,32s15-6.2,15.9-14.2c0,0,0,0,0-0.1c0-0.1,0-0.2,0-0.3c0,0,0-0.1,0-0.1c0-0.1,0-0.2,0-0.2
	c0,0,0-0.1,0-0.1c0-0.1,0-0.2,0-0.2c0-0.1,0-0.1,0-0.2c0-0.1,0-0.1,0-0.2C32,16.3,32,16.2,32,16C32,16,32,16,32,16
	C32,16,32,16,32,16C32,16,32,16,32,16z"/>
<g id="XMLID_1_">
	<line id="XMLID_2_" class="st1" x1="11.9" y1="22.8" x2="23.4" y2="11.3"/>
	<line id="XMLID_4_" class="st1" x1="14.8" y1="22.8" x2="8.6" y2="16.7"/>
</g>
</svg>
