<svg xmlns="http://www.w3.org/2000/svg" viewBox="0 0 99.5 95.39"><defs><style>.cls-1{fill:none;}.cls-2{fill:#e60000;}.cls-3{fill:#242e3c;}</style></defs><title>Support</title><g id="Layer_2" data-name="Layer 2"><g id="Support"><path class="cls-1" d="M79.71,15.47A42.39,42.39,0,0,0,9.13,33.33H17a34.89,34.89,0,0,1,65.42,0h7.91A42.2,42.2,0,0,0,79.71,15.47Z"/><path class="cls-2" d="M37.89,40.56a2.65,2.65,0,1,0-2.64-2.65A2.65,2.65,0,0,0,37.89,40.56Z"/><path class="cls-2" d="M61.61,40.56A2.65,2.65,0,1,0,59,37.91,2.65,2.65,0,0,0,61.61,40.56Z"/><path class="cls-2" d="M32.79,57a24.72,24.72,0,0,0,16.86,6.34A25.2,25.2,0,0,0,66.7,57a1.14,1.14,0,0,0,.06-1.61,1.11,1.11,0,0,0-.84-.37,1.14,1.14,0,0,0-.77.3A22.9,22.9,0,0,1,49.67,61a22.11,22.11,0,0,1-15.3-5.72,1.18,1.18,0,0,0-.79-.32,1.16,1.16,0,0,0-1.15,1.19A1.17,1.17,0,0,0,32.79,57Z"/><path class="cls-3" d="M49.75,95.39a6,6,0,0,1-5.81-4.73l0-.17-.17,0A45.71,45.71,0,0,1,5.93,57.73l0-.18H5.69A5.49,5.49,0,0,1,0,52V39.1a5.55,5.55,0,0,1,5.69-5.52h.19l0-.18a45.45,45.45,0,0,1,87.64,0l.05.18h.19A5.55,5.55,0,0,1,99.5,39.1V52a5.7,5.7,0,0,1-5.69,5.54H82.18l-.06.16a34.62,34.62,0,0,1-64.74,0l-.06-.16H8.8l.1.32a42.91,42.91,0,0,0,35,29.78l.21,0,.06-.19a5.93,5.93,0,1,1,5.6,7.9Zm0-9.06a3.13,3.13,0,1,0,3.13,3.13A3.14,3.14,0,0,0,49.75,86.33Zm0-72.71a31.6,31.6,0,0,0-22.49,9.32,32,32,0,0,0-7.63,12.24V55.6a31.82,31.82,0,0,0,60.25.08V35.26A31.8,31.8,0,0,0,49.75,13.62ZM82.69,54.74h4.56V36.39H82.69Zm-70.44,0h4.56V36.39H12.25Zm77.8,0h3.76A2.87,2.87,0,0,0,96.69,52V39.1a2.91,2.91,0,0,0-2.88-2.71H90.05ZM5.69,36.39A2.86,2.86,0,0,0,2.81,39.1V52a2.92,2.92,0,0,0,2.88,2.73H9.45V36.39ZM49.75,10.82A34.39,34.39,0,0,1,74.23,21a34.9,34.9,0,0,1,8,12.46l.06.16h8.43l-.1-.32a42.64,42.64,0,0,0-81.72,0l-.1.32h8.43l.06-.16a34.76,34.76,0,0,1,8-12.46A34.4,34.4,0,0,1,49.75,10.82Z"/><path class="cls-1" d="M49.75,13.87A31.61,31.61,0,0,0,19.87,35.26V55.6a31.57,31.57,0,0,0,59.76,0V35.26A31.61,31.61,0,0,0,49.75,13.87Z"/><rect class="cls-1" x="82.94" y="36.64" width="4.06" height="17.85"/><path class="cls-1" d="M90.37,33.33a42.39,42.39,0,0,0-81.24,0H17a34.89,34.89,0,0,1,65.42,0Z"/><path class="cls-1" d="M3.06,39.1V52a2.68,2.68,0,0,0,2.63,2.48H9.2V36.64H5.69A2.64,2.64,0,0,0,3.06,39.1Z"/><path class="cls-1" d="M49.75,92.33a2.88,2.88,0,1,0-2.88-2.87A2.86,2.86,0,0,0,49.75,92.33Z"/><rect class="cls-1" x="12.5" y="36.64" width="4.06" height="17.85"/><path class="cls-1" d="M93.81,33.83h-.38l-.1-.37a45.2,45.2,0,0,0-87.16,0l-.1.37H5.69A5.3,5.3,0,0,0,.25,39.1V52A5.25,5.25,0,0,0,5.69,57.3h.38l.1.36A45.47,45.47,0,0,0,43.76,90.22l.35,0,.08.35a5.67,5.67,0,1,0,.2-3l-.14.39-.4-.06a43.14,43.14,0,0,1-35.19-30l-.2-.64h9l.12.32a34.38,34.38,0,0,0,64.28,0L82,57.3h11.8A5.5,5.5,0,0,0,99.25,52V39.1A5.3,5.3,0,0,0,93.81,33.83ZM49.75,86.08a3.38,3.38,0,1,1-3.38,3.38A3.38,3.38,0,0,1,49.75,86.08ZM9.7,36.64V55h-4a3.18,3.18,0,0,1-3.13-3V39.1a3.12,3.12,0,0,1,3.13-3h4Zm7.36,0V55H12V36.14h5.06Zm63.07-1.38V55.68l0,.08A32.25,32.25,0,0,1,72.42,68.1a32.06,32.06,0,0,1-53-12.34l0-.07V35.18l0-.08a32.06,32.06,0,0,1,60.7,0l0,.08Zm2-1.43L82,33.5a34.73,34.73,0,0,0-7.94-12.37,34.38,34.38,0,0,0-48.6,0A34.73,34.73,0,0,0,17.51,33.5l-.12.33H8.46l.19-.64A43.08,43.08,0,0,1,19.43,15.11a42.9,42.9,0,0,1,60.64,0A43.08,43.08,0,0,1,90.85,33.19l.19.64H82.11Zm5.39,2.81V55H82.44V36.14H87.5ZM96.94,52a3.13,3.13,0,0,1-3.13,3h-4V36.14h4a3.17,3.17,0,0,1,3.13,3Z"/><path class="cls-1" d="M93.81,36.64H90.3V54.49h3.51A2.65,2.65,0,0,0,96.44,52V39.1A2.67,2.67,0,0,0,93.81,36.64Z"/></g></g></svg>