<?xml version="1.0" encoding="utf-8"?>
<!-- Generator: Adobe Illustrator 22.1.0, SVG Export Plug-In . SVG Version: 6.00 Build 0)  -->
<svg version="1.1" id="Capa_1" xmlns="http://www.w3.org/2000/svg" xmlns:xlink="http://www.w3.org/1999/xlink" x="0px" y="0px"
	 viewBox="0 0 32 32" style="enable-background:new 0 0 32 32;" xml:space="preserve">
<style type="text/css">
	.st0{fill:#E60000;}
</style>
<g>
	<path class="st0" d="M22.7,10.5c2.1,1.9,3.4,4.3,3.4,7.2C26,23.4,21.5,28,16,28c-5.5,0-10-4.6-10-10.2c0-2.7,1-5.3,2.9-7.2L6.1,7.7
		C3.5,10.3,2,13.9,2,17.7C2,25.6,8.3,32,16,32c7.7,0,14-6.4,14-14.3c0-4.1-1.7-7.5-4.7-10.2L22.7,10.5z"/>
	<path class="st0" d="M18,17.6c0,1.2-1.1,2.1-2.3,2.1c-1.3,0-2.3-1-2.3-2.1V2.1C13.3,1,14.4,0,15.7,0C17,0,18,1,18,2.1V17.6z"/>
</g>
</svg>
