<?xml version="1.0" encoding="utf-8"?>
<!-- Generator: Adobe Illustrator 22.1.0, SVG Export Plug-In . SVG Version: 6.00 Build 0)  -->
<svg version="1.1" id="Layer_1" xmlns="http://www.w3.org/2000/svg" xmlns:xlink="http://www.w3.org/1999/xlink" x="0px" y="0px"
	 viewBox="0 0 100 100" style="enable-background:new 0 0 100 100;" xml:space="preserve">
<style type="text/css">
	.st0{fill:#E60000;}
	.st1{fill:#242E3C;}
	.st2{fill:#242E3C;stroke:#000000;stroke-width:0.9987;stroke-miterlimit:10;}
</style>
<g id="_13_Tax">
	<path class="st0" d="M53.2,33.4l5-6.9l5,6.9c0.3,0.4,0.9,0.5,1.4,0.2c0.4-0.3,0.5-0.8,0.3-1.2l-5.4-7.5l5.4-7.5
		c0.3-0.4,0.1-1-0.3-1.2c-0.4-0.2-1-0.1-1.3,0.2l-5,6.9l-5-6.9c-0.3-0.4-0.9-0.5-1.4-0.2c-0.4,0.3-0.5,0.8-0.3,1.2l5.4,7.5l-5.4,7.5
		c-0.3,0.4-0.1,1,0.4,1.2C52.4,33.8,52.9,33.7,53.2,33.4z"/>
	<path class="st0" d="M37.9,33.2l2.7-7.4H45l2.7,7.4c0.2,0.5,0.7,0.7,1.2,0.6c0.5-0.2,0.8-0.7,0.6-1.1l-5.8-16
		c-0.2-0.5-0.7-0.7-1.2-0.6c-0.3,0.1-0.5,0.3-0.6,0.6l-5.8,16c-0.1,0.5,0.2,0.9,0.8,1C37.2,33.7,37.7,33.5,37.9,33.2z M42.7,19.7
		l1.6,4.3h-3.1L42.7,19.7z"/>
	<path class="st0" d="M23.4,17.8h4.8v15.1c0,0.5,0.4,0.9,1,0.9c0.5,0,1-0.4,1-0.9V17.8H35c0.5,0,1-0.4,1-0.9S35.6,16,35,16H23.4
		c-0.5,0-1,0.4-1,0.9C22.5,17.4,22.9,17.8,23.4,17.8z"/>
	<path class="st0" d="M29.2,76.3c0,0.5,0.4,0.9,1,0.9s1-0.4,1-0.9c0-2.1-1.6-3.9-3.9-4.4v-0.5c0-0.5-0.4-0.9-1-0.9s-1,0.4-1,0.9V72
		c-2.6,0.5-4.3,2.8-3.8,5.2c0.4,1.7,1.9,3.1,3.8,3.5V86c-1.2-0.4-1.9-1.4-1.9-2.5c0-0.5-0.4-0.9-1-0.9s-1,0.4-1,0.9
		c0,2.1,1.6,3.9,3.9,4.4v0.5c0,0.5,0.4,0.9,1,0.9s1-0.4,1-0.9v-0.5c2.6-0.5,4.3-2.8,3.8-5.2c-0.4-1.7-1.9-3.1-3.8-3.5v-5.2
		C28.5,74.2,29.2,75.2,29.2,76.3z M25.4,73.8v5c-1.5-0.5-2.3-2-1.7-3.4C24,74.7,24.6,74.1,25.4,73.8L25.4,73.8z M27.3,85.9v-5
		c1.5,0.5,2.3,2,1.7,3.4C28.7,85.1,28.1,85.7,27.3,85.9L27.3,85.9z"/>
	<path class="st1" d="M64.9,47.1H22.5c-0.5,0-1,0.4-1,0.9c0,0.5,0.4,0.9,1,0.9h42.5c0.5,0,1-0.4,1-0.9
		C65.9,47.4,65.5,47.1,64.9,47.1z"/>
	<path class="st1" d="M64.9,54.2H22.5c-0.5,0-1,0.4-1,0.9s0.4,0.9,1,0.9h42.5c0.5,0,1-0.4,1-0.9S65.5,54.2,64.9,54.2z"/>
	<path class="st1" d="M64.9,75.5H43.7c-0.5,0-1,0.4-1,0.9c0,0.5,0.4,0.9,1,0.9h21.2c0.5,0,1-0.4,1-0.9
		C65.9,75.9,65.5,75.5,64.9,75.5z"/>
	<path class="st1" d="M64.9,82.6H43.7c-0.5,0-1,0.4-1,0.9c0,0.5,0.4,0.9,1,0.9h21.2c0.5,0,1-0.4,1-0.9C65.9,83,65.5,82.6,64.9,82.6z
		"/>
	<path class="st1" d="M64.9,61.3H22.5c-0.5,0-1,0.4-1,0.9c0,0.5,0.4,0.9,1,0.9h42.5c0.5,0,1-0.4,1-0.9
		C65.9,61.7,65.5,61.3,64.9,61.3z"/>
	<path class="st1" d="M64.9,40H22.5c-0.5,0-1,0.4-1,0.9c0,0.5,0.4,0.9,1,0.9h42.5c0.5,0,1-0.4,1-0.9C65.9,40.3,65.5,40,64.9,40z"/>
	<path class="st2" d="M86.2,61.3h-4.8c-0.5,0-1,0.4-1,0.9s0.4,0.9,1,0.9h4.8c1.6,0,2.9,1.2,2.9,2.7v23.1c0,2.5-2.2,4.4-4.8,4.4
		s-4.8-2-4.8-4.4V12.4c0-2.5-2.2-4.4-4.8-4.4H12.8C10.2,8,8,10,8,12.4v76.3c0,3.4,3,6.2,6.8,6.2h69.5c3.7,0,6.8-2.8,6.8-6.2V65.7
		C91,63.3,88.8,61.3,86.2,61.3z M79.5,93.2H14.8c-2.7,0-4.8-2-4.8-4.4V12.4c0-1.5,1.3-2.7,2.9-2.7h61.8c1.6,0,2.9,1.2,2.9,2.7v76.3
		C77.5,90.5,78.2,92.1,79.5,93.2z"/>
</g>
</svg>
