<?xml version="1.0" encoding="utf-8"?>
<!-- Generator: Adobe Illustrator 22.1.0, SVG Export Plug-In . SVG Version: 6.00 Build 0)  -->
<svg version="1.1" id="Layer_1" xmlns="http://www.w3.org/2000/svg" xmlns:xlink="http://www.w3.org/1999/xlink" x="0px" y="0px"
	 viewBox="0 0 96.9 99.2" style="enable-background:new 0 0 96.9 99.2;" xml:space="preserve">
<style type="text/css">
	.st0{fill:#E60000;}
	.st1{fill:none;}
	.st2{fill:#242E3C;}
</style>
<title>TechSocieites</title>
<g id="Layer_2_1_">
	<g id="Tech-Societies">
		<path class="st0" d="M28.9,65.2c-3,0-5.5-2.4-5.5-5.5v-0.9c-0.1-3,2.2-5.6,5.2-5.7s5.6,2.2,5.7,5.2c0,0.2,0,0.3,0,0.5v0.9
			C34.3,62.8,31.9,65.2,28.9,65.2z M28.9,55.1c-2.1,0-3.8,1.7-3.8,3.8l0,0v0.9c0,2.1,1.7,3.8,3.8,3.8s3.8-1.7,3.8-3.8v-0.9
			C32.6,56.8,31,55.1,28.9,55.1z"/>
		<path class="st0" d="M28.9,53.5c2.9,0,5.3,2.4,5.3,5.3l0,0v0.9c0,2.9-2.4,5.3-5.3,5.3l0,0c-2.9,0-5.3-2.4-5.3-5.3v-0.9
			C23.5,55.9,25.9,53.5,28.9,53.5 M28.9,63.7L28.9,63.7c1,0,2-0.4,2.8-1.1c0.7-0.7,1.1-1.7,1.1-2.8v-0.9c0-2.1-1.7-3.9-3.9-3.9
			S25,56.7,25,58.8l0,0v0.9C25,61.9,26.7,63.7,28.9,63.7 M28.9,53.3c-3.1,0-5.6,2.5-5.6,5.6v0.9c0,3.1,2.5,5.6,5.6,5.6
			s5.6-2.5,5.6-5.6v-0.9C34.5,55.8,32,53.3,28.9,53.3z M28.9,63.4c-2,0-3.6-1.6-3.6-3.6v-0.9c0-2,1.6-3.6,3.6-3.6s3.6,1.6,3.6,3.6
			v0.9C32.5,61.8,30.9,63.4,28.9,63.4z"/>
		<rect x="23" y="74.1" class="st0" width="1.7" height="12.8"/>
		<path class="st0" d="M24.5,74.2v12.5H23V74.2H24.5 M24.8,74h-1.9v13h2C24.8,87,24.8,74,24.8,74z"/>
		<rect x="33.1" y="74.1" class="st0" width="1.7" height="12.8"/>
		<path class="st0" d="M34.7,74.2v12.5h-1.5V74.2H34.7 M34.9,74H33v13h2L34.9,74L34.9,74z"/>
		<path class="st0" d="M37.3,82.8V71.9c0-1.5-0.9-2.8-2.3-3.2c-4-1.3-8.2-1.3-12.2,0c-1.4,0.5-2.3,1.8-2.3,3.2v10.9h-1.7V71.9
			c0-2.2,1.4-4.1,3.5-4.8c4.3-1.4,9-1.4,13.3,0c2.1,0.7,3.5,2.7,3.5,4.8v10.9H37.3z"/>
		<path class="st0" d="M28.9,66.1c2.2,0,4.5,0.4,6.6,1.1c2,0.7,3.4,2.6,3.4,4.7v10.8h-1.5V71.9c0-1.5-1-2.9-2.4-3.3
			c-2-0.7-4.1-1-6.1-1c-2.1,0-4.2,0.3-6.1,1c-1.4,0.5-2.4,1.8-2.4,3.3v10.8H19V71.9c0-2.1,1.4-4,3.4-4.7
			C24.4,66.5,26.6,66.1,28.9,66.1 M28.9,65.9c-2.3,0-4.5,0.4-6.7,1.1s-3.6,2.7-3.6,5v11h2V71.9c0-1.4,0.9-2.7,2.3-3.1
			c3.9-1.3,8.2-1.3,12.1,0c1.3,0.4,2.2,1.7,2.3,3.1V83h2V71.9c0-2.3-1.4-4.3-3.6-5C33.5,66.2,31.2,65.8,28.9,65.9L28.9,65.9z"/>
		<path class="st0" d="M48.5,31.2c-3,0-5.4-2.5-5.5-5.5v-0.9c-0.1-3,2.2-5.6,5.2-5.7c3-0.1,5.6,2.2,5.7,5.2c0,0.2,0,0.3,0,0.5v0.9
			C53.9,28.8,51.5,31.2,48.5,31.2L48.5,31.2z M48.5,21.1c-2.1,0-3.8,1.7-3.8,3.8l0,0v0.9c0,2.1,1.7,3.8,3.8,3.8c1,0,1.9-0.4,2.6-1.1
			c0.7-0.7,1.1-1.7,1.1-2.7v-0.9C52.2,22.8,50.5,21.1,48.5,21.1L48.5,21.1z"/>
		<path class="st0" d="M48.5,19.5c2.9,0,5.3,2.4,5.3,5.3v0.9c0,2.9-2.4,5.3-5.3,5.3l0,0c-2.9,0-5.3-2.4-5.3-5.3v-0.9
			C43.1,21.9,45.5,19.5,48.5,19.5 M48.5,29.7L48.5,29.7c2.1,0,3.9-1.7,3.9-3.9v-0.9c-0.1-2.2-1.9-3.8-4.1-3.7
			c-2,0.1-3.6,1.7-3.7,3.7v0.9C44.6,27.9,46.3,29.7,48.5,29.7 M48.5,19.3c-3.1,0-5.6,2.5-5.6,5.6v0.9c0.1,3.1,2.7,5.5,5.8,5.4
			c2.9-0.1,5.2-2.5,5.4-5.4v-0.9C54,21.8,51.5,19.3,48.5,19.3z M48.5,29.4c-2,0-3.6-1.6-3.6-3.6v-0.9c0.1-2,1.8-3.6,3.8-3.5
			c1.9,0.1,3.4,1.6,3.5,3.5v0.9C52.1,27.8,50.5,29.4,48.5,29.4L48.5,29.4z"/>
		<rect x="42.5" y="40.1" class="st0" width="1.7" height="12.8"/>
		<path class="st0" d="M44.1,40.2v12.5h-1.5V40.2H44.1 M44.4,40h-2v13h2V40L44.4,40z"/>
		<rect x="52.7" y="40.1" class="st0" width="1.7" height="12.8"/>
		<path class="st0" d="M54.2,40.2v12.5h-1.5V40.2H54.2 M54.5,40h-2v13h2V40L54.5,40z"/>
		<path class="st0" d="M56.9,48.8v-11c0-1.5-0.9-2.8-2.3-3.2c-4-1.3-8.2-1.3-12.2,0c-1.4,0.5-2.4,1.8-2.3,3.3v10.9h-1.7V37.9
			c0-2.2,1.4-4.2,3.5-4.8c4.3-1.4,9-1.4,13.3,0c2.1,0.7,3.5,2.6,3.5,4.8v11L56.9,48.8z"/>
		<path class="st0" d="M48.5,32.1c2.2,0,4.5,0.4,6.6,1.1c2,0.7,3.4,2.6,3.4,4.7v10.8H57V37.9c0-1.5-1-2.9-2.4-3.3
			c-2-0.7-4.1-1-6.2-1c-2.1,0-4.2,0.3-6.1,1c-1.4,0.5-2.4,1.8-2.4,3.3v10.8h-1.4V37.9c0-2.1,1.4-4,3.4-4.7
			C44,32.5,46.2,32.1,48.5,32.1 M48.5,31.9c-2.3,0-4.5,0.4-6.7,1.1s-3.6,2.7-3.6,5v11h2V37.9c0-1.4,0.9-2.7,2.3-3.1
			c3.9-1.3,8.2-1.3,12.1,0c1.3,0.4,2.2,1.7,2.2,3.1V49h2V37.9c0-2.3-1.4-4.3-3.6-5C53,32.2,50.8,31.8,48.5,31.9L48.5,31.9z"/>
		<polygon class="st1" points="43.8,30 43.8,35.3 48.5,38.1 53.1,35.3 53.1,29.9 48.5,27.2 		"/>
		<path class="st1" d="M31,22.6v20.2l17.5,10.1L66,42.8V22.6L48.5,12.5L31,22.6z"/>
		<path class="st1" d="M11.4,56.5v20.2l17.5,10.1l17.5-10.1V56.5L28.9,46.4L11.4,56.5z"/>
		<path class="st1" d="M50.6,56.5v20.2l17.4,10l17.5-10.1V56.5L68,46.4L50.6,56.5z"/>
		<path class="st0" d="M68,65.2c-3,0-5.5-2.4-5.5-5.5v-0.9c0-3,2.4-5.5,5.5-5.5s5.5,2.4,5.5,5.5v0.9C73.5,62.8,71,65.2,68,65.2z
			 M68,55.1c-2.1,0-3.8,1.7-3.8,3.8v0.9c0,2.1,1.7,3.8,3.8,3.8c2.1,0,3.8-1.7,3.8-3.8v-0.9C71.8,56.8,70.1,55.1,68,55.1L68,55.1z"/>
		<path class="st0" d="M68,53.5c2.9,0,5.3,2.4,5.3,5.3v0.9c0,2.9-2.4,5.3-5.3,5.3l0,0c-2.9,0-5.3-2.4-5.3-5.3v-0.9
			C62.7,55.9,65.1,53.5,68,53.5L68,53.5 M68,63.7L68,63.7c1,0,2-0.4,2.8-1.1c0.7-0.7,1.1-1.7,1.1-2.8v-0.9c0-2.1-1.7-3.9-3.9-3.9
			c-2.1,0-3.9,1.7-3.9,3.9v0.9C64.1,61.9,65.9,63.7,68,63.7 M68,53.3c-3.1,0-5.6,2.5-5.6,5.6v0.9c0,3.1,2.5,5.6,5.6,5.6
			s5.6-2.5,5.6-5.6v-0.9C73.6,55.8,71.1,53.3,68,53.3z M68,63.4c-2,0-3.6-1.6-3.6-3.6v-0.9c0-2,1.6-3.6,3.6-3.6s3.6,1.6,3.6,3.6v0.9
			C71.6,61.8,70,63.4,68,63.4z"/>
		<rect x="62.1" y="74.1" class="st0" width="1.7" height="12.8"/>
		<path class="st0" d="M63.7,74.2v12.5h-1.4V74.2H63.7 M63.9,74H62v13h2L63.9,74L63.9,74z"/>
		<rect x="72.2" y="74.1" class="st0" width="1.7" height="12.8"/>
		<path class="st0" d="M73.8,74.2v12.5h-1.4V74.2H73.8 M74.1,74h-2v13h2V74L74.1,74z"/>
		<path class="st0" d="M76.5,82.8V71.9c0-1.5-0.9-2.8-2.3-3.2c-4-1.3-8.2-1.3-12.2,0c-1.4,0.5-2.3,1.8-2.3,3.2v10.9H58V71.9
			c0-2.2,1.4-4.2,3.5-4.8c4.3-1.4,9-1.4,13.3,0c2.1,0.7,3.5,2.6,3.5,4.8v11L76.5,82.8L76.5,82.8z"/>
		<path class="st0" d="M68,66.1c2.2,0,4.5,0.4,6.6,1.1c2,0.7,3.4,2.6,3.4,4.7v10.8h-1.4V71.9c0-1.5-1-2.9-2.4-3.3
			c-2-0.7-4.1-1-6.1-1c-2.1,0-4.2,0.3-6.1,1c-1.4,0.5-2.4,1.8-2.4,3.3v10.8H58V71.9c0-2.1,1.4-4,3.4-4.7
			C63.5,66.5,65.8,66.1,68,66.1 M68,65.9c-2.3,0-4.5,0.4-6.7,1.1s-3.6,2.7-3.6,5v11h2V71.9c0-1.4,0.9-2.7,2.3-3.1
			c3.9-1.3,8.2-1.3,12.1,0c1.3,0.4,2.2,1.7,2.3,3.1V83h2V71.9c0-2.3-1.4-4.3-3.6-5C72.6,66.2,70.3,65.8,68,65.9z"/>
		<polygon class="st1" points="10.9,56.2 10.9,76.9 28.9,87.3 46.8,76.9 46.8,56.2 28.9,45.8 		"/>
		<polygon class="st1" points="50.1,56.2 50.1,76.9 68,87.3 86,76.9 86,56.2 68,45.8 		"/>
		<polygon class="st1" points="66.4,43 66.4,22.3 48.6,12 48.5,11.9 30.5,22.3 30.5,43 48.5,53.4 		"/>
		<path class="st2" d="M96.9,51.3l-1.2-2.1l-7.9,4.6l-0.2,0.1l-0.2-0.1l-18-10.4l-0.2-0.1V20.6L49.9,9.5l-0.2-0.1V0h-2.4v9.4L47,9.5
			L27.7,20.6v22.6l-0.2,0.1l-18,10.4l-0.2,0.1l-0.2-0.1l-7.9-4.6L0,51.3l7.9,4.6L8.1,56v22.6l19.4,11.2l0.2,0.1v9.3h2.4v-9.3
			l0.2-0.1l18-10.4l0.2-0.1l0.2,0.1l18,10.4l0.2,0.1v9.3h2.4v-9.3l0.2-0.1l19.3-11.2V56l0.2-0.1L96.9,51.3z M47.2,56.2v21L47,77.3
			L29,87.7l-0.2,0.1l-0.2-0.1l-18-10.4l-0.2-0.1V56l0.2-0.1l18-10.4l0.2-0.1l0.2,0.1l18,10.3l0.2,0.1V56.2z M48.5,53.8l-0.2-0.1
			l-18-10.4l-0.3,0V22l0.2-0.1l18-10.4l0.2-0.1l0.2,0.1l0.1,0.1l17.8,10.3l0.2,0.1v21.2l-0.2,0.1L48.5,53.8L48.5,53.8z M86.4,56.2
			v21l-0.2,0.1l-18,10.4L68,87.8l-0.2-0.1l-18-10.4l-0.2-0.1V56l0.2-0.1l18-10.4l0.2-0.1l0.2,0.1l18,10.4l0.2,0.1
			C86.4,56,86.4,56.2,86.4,56.2z"/>
	</g>
</g>
</svg>
