<svg xmlns="http://www.w3.org/2000/svg" viewBox="0 0 96.91 99.2"><defs><style>.cls-1{fill:#e60000;}.cls-2{fill:none;}.cls-3{fill:#242e3c;}</style></defs><title>TechSocieites</title><g id="Layer_2" data-name="Layer 2"><g id="Tech-Societies"><path class="cls-1" d="M28.88,65.24a5.47,5.47,0,0,1-5.46-5.46v-.94a5.47,5.47,0,1,1,10.93,0v.94a5.47,5.47,0,0,1-5.47,5.46Zm0-10.17a3.77,3.77,0,0,0-3.77,3.77v.94a3.77,3.77,0,0,0,3.77,3.76,3.77,3.77,0,0,0,3.77-3.76v-.94A3.77,3.77,0,0,0,28.88,55.07Z"/><path class="cls-1" d="M28.88,53.5a5.34,5.34,0,0,1,5.34,5.34v.94a5.35,5.35,0,0,1-5.34,5.34h0a5.35,5.35,0,0,1-5.34-5.34v-.94a5.35,5.35,0,0,1,5.34-5.34m0,10.17h0a3.87,3.87,0,0,0,2.75-1.14,3.83,3.83,0,0,0,1.14-2.75v-.94a3.89,3.89,0,0,0-7.78,0v.94a3.9,3.9,0,0,0,3.89,3.89m0-10.42a5.59,5.59,0,0,0-5.59,5.59v.94a5.59,5.59,0,0,0,11.18,0v-.94a5.59,5.59,0,0,0-5.59-5.59Zm0,10.17a3.64,3.64,0,0,1-3.64-3.64v-.94a3.64,3.64,0,0,1,7.28,0v.94a3.64,3.64,0,0,1-3.64,3.64Z"/><rect class="cls-1" x="22.97" y="74.09" width="1.7" height="12.75"/><path class="cls-1" d="M24.55,74.22v12.5H23.09V74.22h1.45M24.8,74H22.85V87h1.95V74Z"/><rect class="cls-1" x="33.09" y="74.09" width="1.7" height="12.75"/><path class="cls-1" d="M34.66,74.22v12.5H33.21V74.22h1.45m.25-.25H33V87h1.95V74Z"/><path class="cls-1" d="M37.31,82.85V71.9A3.4,3.4,0,0,0,35,68.67a19.47,19.47,0,0,0-12.2,0,3.39,3.39,0,0,0-2.33,3.23V82.84h-1.7V71.9a5.09,5.09,0,0,1,3.49-4.84,21.14,21.14,0,0,1,13.28,0A5.09,5.09,0,0,1,39,71.9V82.85Z"/><path class="cls-1" d="M28.88,66.12a20.87,20.87,0,0,1,6.6,1.06,5,5,0,0,1,3.41,4.72V82.72H37.44V71.9A3.5,3.5,0,0,0,35,68.56a19.44,19.44,0,0,0-6.14-1,19.72,19.72,0,0,0-6.14,1,3.52,3.52,0,0,0-2.42,3.35V82.72H18.87V71.9a5,5,0,0,1,3.41-4.72,20.87,20.87,0,0,1,6.6-1.06m0-.25a21.23,21.23,0,0,0-6.68,1.07,5.22,5.22,0,0,0-3.58,5V83h1.95V71.9a3.28,3.28,0,0,1,2.25-3.11,19.41,19.41,0,0,1,12.12,0,3.28,3.28,0,0,1,2.25,3.11V83h2V71.9a5.22,5.22,0,0,0-3.58-5,21.18,21.18,0,0,0-6.68-1.07Z"/><path class="cls-1" d="M48.45,31.24A5.47,5.47,0,0,1,43,25.78v-.94a5.47,5.47,0,1,1,10.93,0v.94a5.47,5.47,0,0,1-5.46,5.46Zm0-10.17a3.77,3.77,0,0,0-3.77,3.77v.94a3.77,3.77,0,0,0,6.43,2.66,3.73,3.73,0,0,0,1.1-2.66v-.94A3.77,3.77,0,0,0,48.46,21.07Z"/><path class="cls-1" d="M48.46,19.5a5.35,5.35,0,0,1,5.34,5.34v.94a5.36,5.36,0,0,1-5.34,5.34h0a5.35,5.35,0,0,1-5.34-5.34v-.94a5.35,5.35,0,0,1,5.35-5.34m0,10.17h0a3.89,3.89,0,0,0,3.89-3.89v-.94a3.9,3.9,0,0,0-7.79,0v.94a3.9,3.9,0,0,0,3.89,3.89m0-10.42a5.6,5.6,0,0,0-5.6,5.59v.94a5.6,5.6,0,0,0,11.19,0v-.94a5.59,5.59,0,0,0-5.59-5.59Zm0,10.17a3.65,3.65,0,0,1-3.64-3.64v-.94a3.65,3.65,0,0,1,7.29,0v.94a3.65,3.65,0,0,1-3.64,3.64Z"/><rect class="cls-1" x="42.54" y="40.09" width="1.7" height="12.75"/><path class="cls-1" d="M44.12,40.22v12.5H42.67V40.22h1.45m.25-.25H42.42V53h1.95V40Z"/><rect class="cls-1" x="52.66" y="40.09" width="1.7" height="12.75"/><path class="cls-1" d="M54.24,40.22v12.5H52.78V40.22h1.45m.25-.25h-2V53h1.95V40Z"/><path class="cls-1" d="M56.89,48.85v-11a3.41,3.41,0,0,0-2.33-3.23,19.51,19.51,0,0,0-12.21,0A3.4,3.4,0,0,0,40,37.9V48.84h-1.7V37.9a5.08,5.08,0,0,1,3.5-4.84,21.11,21.11,0,0,1,13.27,0,5.1,5.1,0,0,1,3.5,4.84v11Z"/><path class="cls-1" d="M48.45,32.12a20.82,20.82,0,0,1,6.6,1.06,5,5,0,0,1,3.41,4.72V48.72H57V37.9a3.51,3.51,0,0,0-2.41-3.34,19.46,19.46,0,0,0-6.15-1,19.72,19.72,0,0,0-6.14,1,3.54,3.54,0,0,0-2.42,3.35V48.72H38.44V37.9a5,5,0,0,1,3.42-4.72,20.8,20.8,0,0,1,6.59-1.06m0-.25a21.17,21.17,0,0,0-6.67,1.07,5.21,5.21,0,0,0-3.59,5V49h2V37.9a3.29,3.29,0,0,1,2.25-3.11,19.45,19.45,0,0,1,12.13,0,3.28,3.28,0,0,1,2.24,3.11V49h2V37.9a5.22,5.22,0,0,0-3.58-5,21.18,21.18,0,0,0-6.68-1.07Z"/><polygon class="cls-2" points="43.77 29.95 43.77 35.35 48.45 38.06 53.14 35.35 53.14 29.94 48.45 27.24 43.77 29.95"/><path class="cls-2" d="M31,22.57V42.73L48.45,52.81,65.91,42.73V22.57L48.45,12.49Z"/><path class="cls-2" d="M11.42,56.47V76.63L28.88,86.71,46.34,76.63V56.47L28.88,46.39Z"/><path class="cls-2" d="M50.57,56.47V76.63L68,86.71,85.49,76.63V56.47L68,46.39Z"/><path class="cls-1" d="M68,65.24a5.47,5.47,0,0,1-5.47-5.46v-.94a5.47,5.47,0,1,1,10.94,0v.94A5.48,5.48,0,0,1,68,65.24Zm0-10.17a3.77,3.77,0,0,0-3.77,3.77v.94A3.77,3.77,0,0,0,68,63.54a3.77,3.77,0,0,0,3.77-3.76v-.94A3.77,3.77,0,0,0,68,55.07Z"/><path class="cls-1" d="M68,53.5a5.35,5.35,0,0,1,5.34,5.34v.94A5.35,5.35,0,0,1,68,65.12h0a5.35,5.35,0,0,1-5.34-5.34v-.94A5.34,5.34,0,0,1,68,53.5m0,10.17h0a3.87,3.87,0,0,0,2.75-1.14,3.83,3.83,0,0,0,1.14-2.75v-.94a3.89,3.89,0,0,0-7.78,0v.94A3.89,3.89,0,0,0,68,63.67m0-10.42a5.59,5.59,0,0,0-5.59,5.59v.94a5.59,5.59,0,0,0,11.18,0v-.94A5.59,5.59,0,0,0,68,53.25Zm0,10.17a3.64,3.64,0,0,1-3.64-3.64v-.94a3.64,3.64,0,0,1,7.28,0v.94A3.65,3.65,0,0,1,68,63.42Z"/><rect class="cls-1" x="62.12" y="74.09" width="1.7" height="12.75"/><path class="cls-1" d="M63.69,74.22v12.5H62.24V74.22h1.45m.25-.25H62V87h1.95V74Z"/><rect class="cls-1" x="72.24" y="74.09" width="1.7" height="12.75"/><path class="cls-1" d="M73.81,74.22v12.5H72.36V74.22h1.45m.25-.25h-2V87h2V74Z"/><path class="cls-1" d="M76.46,82.85V71.9a3.4,3.4,0,0,0-2.33-3.23,19.51,19.51,0,0,0-12.21,0,3.4,3.4,0,0,0-2.33,3.23V82.84h-1.7V71.9a5.1,5.1,0,0,1,3.5-4.84,21.14,21.14,0,0,1,13.28,0,5.09,5.09,0,0,1,3.49,4.84V82.85Z"/><path class="cls-1" d="M68,66.12a20.91,20.91,0,0,1,6.6,1.06A5,5,0,0,1,78,71.9V82.72H76.59V71.9a3.5,3.5,0,0,0-2.42-3.34,19.44,19.44,0,0,0-6.14-1,19.72,19.72,0,0,0-6.14,1,3.52,3.52,0,0,0-2.42,3.35V82.72H58V71.9a5,5,0,0,1,3.41-4.72A20.87,20.87,0,0,1,68,66.12m0-.25a21.18,21.18,0,0,0-6.68,1.07,5.22,5.22,0,0,0-3.58,5V83h1.95V71.9A3.28,3.28,0,0,1,62,68.79a19.45,19.45,0,0,1,12.13,0,3.29,3.29,0,0,1,2.25,3.11V83h2V71.9a5.22,5.22,0,0,0-3.58-5A21.23,21.23,0,0,0,68,65.87Z"/><polygon class="cls-2" points="10.91 56.18 10.91 76.92 28.88 87.29 46.84 76.92 46.84 56.18 28.88 45.81 10.91 56.18"/><polygon class="cls-2" points="50.06 56.18 50.06 76.92 68.03 87.29 85.99 76.92 85.99 56.18 68.03 45.81 50.06 56.18"/><polygon class="cls-2" points="66.42 43.02 66.42 22.28 48.58 11.98 48.45 11.91 30.49 22.28 30.49 43.02 48.45 53.39 66.42 43.02"/><path class="cls-3" d="M96.91,51.27,95.7,49.18l-7.9,4.56-.2.11-.2-.11-18-10.37-.2-.12V20.65L49.86,9.46l-.2-.11V0H47.24V9.35l-.2.11L27.67,20.65v22.6l-.2.12-18,10.37-.2.11-.2-.11-7.9-4.56L0,51.27l7.9,4.56.2.12v22.6L27.47,89.74l.2.11V99.2h2.42V89.85l.2-.11,18-10.37.2-.12.2.12,18,10.37.2.11V99.2h2.42V89.85l.2-.11L88.81,78.55V56l.2-.12ZM47.24,56.18v21l-.2.12-18,10.37-.2.12-.2-.12-18-10.37-.2-.12V56l.2-.12,18-10.37.2-.11.2.11L47,55.83l.2.12Zm1.21-2.33-.2-.11-18-10.37-.2-.12V22.05l.2-.12,18-10.37.2-.12.2.12.13.07,17.84,10.3.2.12v21.2l-.2.12-18,10.37Zm37.94,2.33v21l-.2.12-18,10.37-.2.12-.2-.12-18-10.37-.2-.12V56l.2-.12,18-10.37.2-.11.2.11,18,10.37.2.12Z"/></g></g></svg>