<svg xmlns="http://www.w3.org/2000/svg" viewBox="0 0 100 88.15"><defs><style>.cls-1{fill:#e60000;}.cls-2{fill:#242e3c;}</style></defs><title>Tools</title><g id="Layer_2" data-name="Layer 2"><g id="Tools"><g id="_7" data-name="7"><path class="cls-1" d="M55.82,40a1.32,1.32,0,0,1-1-.4,1.35,1.35,0,0,1,0-1.9l10.6-10.6a1.34,1.34,0,0,1,1.9,1.9l-10.6,10.6A1.3,1.3,0,0,1,55.82,40Z"/><path class="cls-1" d="M66.09,50.3a1.34,1.34,0,0,1-1-2.29L75.66,37.48a1.35,1.35,0,0,1,1.91,1.9L67,49.91A1.35,1.35,0,0,1,66.09,50.3Z"/><path class="cls-1" d="M25.38,88.15h0a8.36,8.36,0,0,1-5.88-2.45l-.31-.31a8.43,8.43,0,0,1,0-11.9L44.6,48a1.35,1.35,0,0,1,1.91,1.9L21,75.39a5.73,5.73,0,0,0,0,8.09l.32.31a5.56,5.56,0,0,0,4,1.67h0a5.58,5.58,0,0,0,3.95-1.63L54.87,58.28a1.34,1.34,0,0,1,1.9,1.9L31.23,85.73A8.26,8.26,0,0,1,25.38,88.15Z"/><path class="cls-1" d="M82.12,40.71A17.9,17.9,0,0,1,69.47,10.14,17.24,17.24,0,0,1,81.79,4.72,16.54,16.54,0,0,1,89.15,6.4a1.34,1.34,0,0,1,.31,2.13L79.23,18.76l1.89,5,5.08,1.84L96.39,15.46a1.35,1.35,0,0,1,2.17.39A18.54,18.54,0,0,1,100,22.36a17.07,17.07,0,0,1-5.19,13.1A17.76,17.76,0,0,1,82.12,40.71Zm-.33-33.3A14.47,14.47,0,0,0,71.37,12,15.22,15.22,0,1,0,92.89,33.56a14.32,14.32,0,0,0,4.41-11,17.15,17.15,0,0,0-.54-3.68L87.5,28.15a1.36,1.36,0,0,1-1.41.32l-6.47-2.34a1.35,1.35,0,0,1-.8-.8L76.41,18.9a1.37,1.37,0,0,1,.31-1.43l9.4-9.39A14.52,14.52,0,0,0,81.79,7.41Z"/><path class="cls-2" d="M86.26,88.06a8.42,8.42,0,0,1-6-2.47L26.92,32.23a1.35,1.35,0,0,1,1.9-1.91L82.18,83.69a5.82,5.82,0,0,0,8.22,0l.13-.13a5.79,5.79,0,0,0,0-8.19L65.14,49.91,37.22,22a1.33,1.33,0,0,1,0-1.9,1.35,1.35,0,0,1,1.9,0L92.46,73.44a8.48,8.48,0,0,1,0,12l-.12.12A8.53,8.53,0,0,1,86.26,88.06Z"/><circle class="cls-1" cx="26.31" cy="78.54" r="2.18"/><path class="cls-2" d="M12.82,43.54A4.39,4.39,0,0,1,9.7,42.25L1.29,33.84a4.42,4.42,0,0,1,0-6.24L5,23.93a1.38,1.38,0,0,1,1.11-.39l3.25.37a1.69,1.69,0,0,0,1.48-.56A1.73,1.73,0,0,0,11.23,22l-.37-3.26a1.33,1.33,0,0,1,.38-1.1L21.9,7A23.71,23.71,0,0,1,33.32.58,21.38,21.38,0,0,1,38.24,0a18.8,18.8,0,0,1,8.64,2c.85.44,3.65,2,3.65,3.48A1.4,1.4,0,0,1,49.1,6.92H49c-.51,0-1,0-1.51,0-7.75,0-11.29,3.46-12.85,6l5.83,5.84a1.31,1.31,0,0,1,.4.95,1.35,1.35,0,0,1-.4.95L27.31,33.73a1.34,1.34,0,0,1-1.29.34L21.85,33a1.74,1.74,0,0,0-1.73.52,1.69,1.69,0,0,0-.42,1.34L20,37.47a1.31,1.31,0,0,1-.38,1.1l-3.68,3.68A4.38,4.38,0,0,1,12.82,43.54ZM6.41,26.29,3.19,29.51a1.72,1.72,0,0,0,0,2.43l8.41,8.41a1.74,1.74,0,0,0,1.22.5,1.7,1.7,0,0,0,1.21-.5l3.22-3.22-.23-2a4.42,4.42,0,0,1,4.38-4.91,4.33,4.33,0,0,1,1.13.15l3.43.9L37.64,19.67,32,14.08a1.35,1.35,0,0,1-.25-1.55c1.43-2.88,5-7.57,13.57-8.26a16.17,16.17,0,0,0-7.12-1.58,18.92,18.92,0,0,0-4.31.51A21.12,21.12,0,0,0,23.8,8.89L13.6,19.09l.3,2.61A4.42,4.42,0,0,1,9,26.59Z"/></g></g></g></svg>