<svg xmlns="http://www.w3.org/2000/svg" viewBox="0 0 99.54 100"><defs><style>.cls-1{fill:#242e3c;}.cls-2{fill:#e60000;}</style></defs><title>Tool</title><g id="Layer_2" data-name="Layer 2"><g id="Tool"><g id="_10" data-name="10"><path class="cls-1" d="M25.38,63.36a1.36,1.36,0,0,1-.74-.22,1.37,1.37,0,0,1-.41-1.9,10.69,10.69,0,0,1,1.38-1.7L60.74,24.42a1.37,1.37,0,0,1,1.94,1.94L27.55,61.48a7.57,7.57,0,0,0-1,1.25A1.37,1.37,0,0,1,25.38,63.36Z"/><path class="cls-1" d="M37.79,75.84a1.37,1.37,0,0,1-.74-2.53,7.72,7.72,0,0,0,1.27-1L73.49,37.13a1.36,1.36,0,0,1,1.94,0,1.38,1.38,0,0,1,0,1.94L40.26,74.23a9.59,9.59,0,0,1-1.73,1.39A1.33,1.33,0,0,1,37.79,75.84Z"/><path class="cls-2" d="M79.56,40.18a19.81,19.81,0,0,1-14.1-5.84,20,20,0,0,1,0-28.3A19,19,0,0,1,79.23,0a18.5,18.5,0,0,1,8.25,1.89,1.37,1.37,0,0,1,.7,1,1.34,1.34,0,0,1-.38,1.16l-9.58,9.58L79.8,20l6.38,1.52L95.7,12a1.36,1.36,0,0,1,1.2-.38,1.38,1.38,0,0,1,1,.77,20.83,20.83,0,0,1,1.61,7.29A19.14,19.14,0,0,1,93.73,34.3,19.91,19.91,0,0,1,79.56,40.18ZM79.23,2.74A16.4,16.4,0,0,0,67.42,8a17.28,17.28,0,0,0,0,24.42,17.23,17.23,0,0,0,24.39,0,16.22,16.22,0,0,0,5-12.5,19.63,19.63,0,0,0-.69-4.41L87.58,24a1.38,1.38,0,0,1-1.29.37l-7.93-1.89a1.4,1.4,0,0,1-1-1l-2-7.89a1.38,1.38,0,0,1,.37-1.31L84.4,3.58A16.64,16.64,0,0,0,79.23,2.74Z"/><path class="cls-2" d="M20.32,100h0a18.52,18.52,0,0,1-8.27-1.9,1.35,1.35,0,0,1-.7-1,1.37,1.37,0,0,1,.38-1.16l9.58-9.58L19.73,80l-6.38-1.52L3.84,88a1.37,1.37,0,0,1-2.22-.39A20.53,20.53,0,0,1,0,80.35,19.12,19.12,0,0,1,5.81,65.69,20,20,0,1,1,34.06,94,19,19,0,0,1,20.32,100Zm-5.19-3.59a16.78,16.78,0,0,0,5.19.84A16.34,16.34,0,0,0,32.12,92,17.24,17.24,0,1,0,7.75,67.63a16.22,16.22,0,0,0-5,12.5,19.13,19.13,0,0,0,.68,4.41L12,76a1.37,1.37,0,0,1,1.28-.36l7.94,1.89a1.38,1.38,0,0,1,1,1l2,7.89a1.38,1.38,0,0,1-.36,1.3Z"/></g></g></g></svg>