<?xml version="1.0" encoding="utf-8"?>
<!-- Generator: Adobe Illustrator 22.1.0, SVG Export Plug-In . SVG Version: 6.00 Build 0)  -->
<svg version="1.1" id="Слой_1" xmlns="http://www.w3.org/2000/svg" xmlns:xlink="http://www.w3.org/1999/xlink" x="0px" y="0px"
	 viewBox="0 0 100 100" style="enable-background:new 0 0 100 100;" xml:space="preserve">
<style type="text/css">
	.st0{fill:#485A65;stroke:#485A65;stroke-width:0.6746;stroke-miterlimit:10;}
	.st1{fill:#E60000;}
</style>
<g>
	<g>
		<g>
			<path class="st0" d="M54.7,31.7h-14c-0.4,0-0.7-0.3-0.7-0.7c0-0.4,0.3-0.7,0.7-0.7h14c0.4,0,0.7,0.3,0.7,0.7S55.1,31.7,54.7,31.7
				z"/>
		</g>
		<g>
			<path class="st0" d="M59.4,36.3H36c-0.4,0-0.7-0.3-0.7-0.7c0-0.4,0.3-0.7,0.7-0.7h23.3c0.4,0,0.7,0.3,0.7,0.7
				S59.8,36.3,59.4,36.3z"/>
		</g>
		<g>
			<path class="st0" d="M59.4,41H36c-0.4,0-0.7-0.3-0.7-0.7c0-0.4,0.3-0.7,0.7-0.7h23.3c0.4,0,0.7,0.3,0.7,0.7S59.8,41,59.4,41z"/>
		</g>
		<g>
			<path class="st0" d="M59.4,45.6H36c-0.4,0-0.7-0.3-0.7-0.7s0.3-0.7,0.7-0.7h23.3c0.4,0,0.7,0.3,0.7,0.7S59.8,45.6,59.4,45.6z"/>
		</g>
		<g>
			<path class="st0" d="M28.9,76.9h-1c-0.1,0-0.3,0-0.4-0.1c-0.1,0-0.1,0-0.1,0c-0.1,0-0.2-0.1-0.3-0.1c-0.1,0-0.1,0-0.1-0.1
				c-0.1-0.1-0.2-0.1-0.4-0.1l0,0c-0.1-0.1-0.2-0.1-0.3-0.2c0,0,0,0-0.1,0l19.3-17.6c0.6-0.5,1.4-0.8,2.2-0.8c0.7,0,1.6,0.3,2.2,0.8
				l4.1,3.8c0.2-0.5,0.4-0.9,0.6-1.3L53,59.8l17.7-16.3v9.2c0.5,0.2,0.9,0.4,1.4,0.6V42c0-0.1,0-0.1-0.1-0.2v-0.1
				C72,41.7,72,41.6,72,41.5l0,0l0,0c0,0,0,0-0.1-0.1l-2.5-2.3V26.3c0-3-2.4-5.4-5.4-5.4H31.4c-3,0-5.4,2.4-5.4,5.4v12.9l-2.5,2.3
				c0,0,0,0-0.1,0.1l0,0l0,0c-0.1,0.1-0.1,0.1-0.1,0.2c0,0,0,0,0,0.1s-0.1,0.1-0.1,0.2v31.6c0,1.3,0.5,2.5,1.4,3.3l0,0
				c0.1,0.1,0.1,0.1,0.1,0.1c0.1,0.1,0.1,0.1,0.2,0.2c0.1,0.1,0.1,0.1,0.2,0.1c0.1,0.1,0.1,0.1,0.2,0.1c0.1,0.1,0.1,0.1,0.2,0.1
				c0.1,0.1,0.1,0.1,0.2,0.1c0.1,0.1,0.1,0.1,0.2,0.1c0.1,0.1,0.1,0.1,0.2,0.1c0.1,0.1,0.2,0.1,0.2,0.1c0.1,0,0.1,0.1,0.2,0.1
				c0.1,0.1,0.2,0.1,0.3,0.1s0.1,0.1,0.2,0.1c0.1,0,0.2,0.1,0.3,0.1c0.1,0,0.1,0,0.1,0c0.1,0,0.3,0.1,0.5,0.1h27.1
				c-0.7-0.4-1.2-0.9-1.8-1.4L28.9,76.9L28.9,76.9z M69.4,41.1l1,0.9l-1,0.9V41.1z M27.4,26.3c0-2.2,1.8-4,4-4H64c2.2,0,4,1.8,4,4
				v17.9L52.1,58.9l-1.1-1.1c-0.8-0.8-2-1.2-3.1-1.2c-1.1,0-2.3,0.4-3.1,1.2l-1.1,1.1L27.4,44.2V26.3z M26,41.1v1.9L25,42L26,41.1z
				 M25.2,75.5c-0.4-0.5-0.5-1.1-0.5-1.8V43.5l17.7,16.3L25.2,75.5z"/>
		</g>
	</g>
</g>
<g>
	<g>
		<g>
			<path class="st1" d="M71.6,63.7c-0.5-0.5-1.3-0.5-1.9,0l-2.8,2.8L64,63.7c-0.5-0.5-1.3-0.5-1.9,0c-0.5,0.5-0.5,1.3,0,1.9l2.8,2.8
				l-2.8,2.8c-0.5,0.5-0.5,1.3,0,1.9c0.3,0.3,0.6,0.3,1,0.3c0.3,0,0.7-0.1,1-0.3l2.8-2.8l2.8,2.8c0.3,0.3,0.6,0.3,1,0.3
				c0.3,0,0.7-0.1,1-0.3c0.5-0.5,0.5-1.3,0-1.9L69,68.4l2.8-2.8C72.1,65.1,72.1,64.3,71.6,63.7z"/>
			<path class="st1" d="M67.3,55.4c-7,0-12.7,5.7-12.7,12.7s5.7,12.7,12.7,12.7c7.1,0,12.7-5.7,12.7-12.7S74.3,55.4,67.3,55.4z
				 M67.3,78.8c-5.9,0-10.7-4.8-10.7-10.7c0-5.9,4.8-10.7,10.7-10.7S78,62.2,78,68.1C78,74,73.1,78.8,67.3,78.8z"/>
		</g>
	</g>
</g>
</svg>
