<svg xmlns="http://www.w3.org/2000/svg" viewBox="0 0 99.75 88.8"><defs><style>.cls-1{fill:none;}.cls-2{fill:#e60000;}.cls-3{fill:#242e3c;}</style></defs><title>UserQuestion</title><g id="Layer_2" data-name="Layer 2"><g id="Question"><path class="cls-1" d="M52.39,39.65V5.49A2.54,2.54,0,0,0,49.85,3H5.66A2.54,2.54,0,0,0,3.13,5.49V39.65a2.54,2.54,0,0,0,2.53,2.54H33.37a1.61,1.61,0,0,1,1.1.44l9.1,8.61V43.79a1.6,1.6,0,0,1,1.6-1.6h4.68A2.54,2.54,0,0,0,52.39,39.65ZM16.9,21.13v2.95H13.7v-3.2h3.2Zm6.22,0v2.95h-3.2v-3.2h3.2Zm6.21,0v2.95h-3.2v-3.2h3.2Zm6.21,0v2.95h-3.2v-3.2h3.2Zm6.21,0v2.95h-3.2v-3.2h3.2Z"/><path class="cls-1" d="M67.67,52.79a7,7,0,0,0,7-7V44a7,7,0,0,0-14,0v1.76A7,7,0,0,0,67.67,52.79Z"/><path class="cls-2" d="M67.67,55.74h0a10,10,0,0,0,10-10V44a9.95,9.95,0,0,0-19.9,0v1.75A10,10,0,0,0,67.67,55.74ZM60.42,44a7.25,7.25,0,0,1,14.5,0v1.76a7.25,7.25,0,1,1-14.5,0Z"/><rect class="cls-2" x="56.89" y="72.68" width="2.7" height="14.77"/><path class="cls-2" d="M97.47,35a4.92,4.92,0,0,0-2.66-.79,4.89,4.89,0,0,0-4.68,3.44l-2.65,8.56A12.61,12.61,0,0,1,83,52.57l-2.71,2a12.23,12.23,0,0,1-8,3H67.66a38.9,38.9,0,0,0-12.29,2A9.25,9.25,0,0,0,49,68.37V87.45h2.7V68.37a6.56,6.56,0,0,1,4.5-6.24,36.48,36.48,0,0,1,11.44-1.84h4.63A14.89,14.89,0,0,0,82,56.72l2.64-2A15.27,15.27,0,0,0,90.06,47l2.65-8.56A2.18,2.18,0,0,1,94.06,37a2.15,2.15,0,0,1,.75-.13,2.12,2.12,0,0,1,1.18.36,2.17,2.17,0,0,1,.92,2.4l-3.7,13.71a12.64,12.64,0,0,1-5.31,7.31l-7.17,4.7a11.51,11.51,0,0,0-5,9.49v12.6h2.7V74.85a8.8,8.8,0,0,1,3.8-7.25l7.14-4.68a15.42,15.42,0,0,0,6.44-8.87l3.7-13.71A4.89,4.89,0,0,0,97.47,35Z"/><path class="cls-3" d="M55.34,39.65V5.49A5.49,5.49,0,0,0,49.85,0H5.66A5.49,5.49,0,0,0,.18,5.49V39.65a5.49,5.49,0,0,0,5.48,5.49H32.83L44.24,56a1.36,1.36,0,0,0,.93.36,1.23,1.23,0,0,0,.53-.11A1.34,1.34,0,0,0,46.52,55V45.14h3.33A5.49,5.49,0,0,0,55.34,39.65ZM45.17,42.44a1.34,1.34,0,0,0-1.35,1.35v8l-9.52-9a1.35,1.35,0,0,0-.93-.37H5.66a2.79,2.79,0,0,1-2.78-2.79V5.49A2.79,2.79,0,0,1,5.66,2.7H49.85a2.79,2.79,0,0,1,2.79,2.79V39.65a2.79,2.79,0,0,1-2.79,2.79Z"/><path class="cls-2" d="M26.38,23.83h2.7v-2.7h-2.7Z"/><path class="cls-2" d="M20.17,23.83h2.7v-2.7h-2.7Z"/><path class="cls-2" d="M14,23.83h2.7v-2.7H14Z"/><path class="cls-2" d="M32.59,23.83h2.7v-2.7h-2.7Z"/><path class="cls-2" d="M38.8,23.83h2.7v-2.7H38.8Z"/><rect class="cls-3" y="86.22" width="99.75" height="2.58"/></g></g></svg>