<svg xmlns="http://www.w3.org/2000/svg" viewBox="0 0 99 95.15"><defs><style>.cls-1{fill:none;}.cls-2{fill:#242e3c;}.cls-3{fill:#e60000;}</style></defs><title>UserMoney</title><g id="Layer_2" data-name="Layer 2"><g id="UserMoney"><path class="cls-1" d="M65.68,68.73h4.18L83,55.58a5.28,5.28,0,0,0-1.77-.32,4.84,4.84,0,0,0-3.45,1.37Z"/><path class="cls-1" d="M53.35,3.34A23.08,23.08,0,1,0,76.42,26.42,23.11,23.11,0,0,0,53.35,3.34ZM51.42,24.5h3.85a7.69,7.69,0,0,1,0,15.38v3.85a1.93,1.93,0,0,1-3.85,0V39.88H45.65a1.92,1.92,0,0,1,0-3.84h9.62a3.85,3.85,0,1,0,0-7.69H51.42a7.69,7.69,0,0,1,0-15.38h0V9.11a1.93,1.93,0,0,1,3.85,0V13H61a1.93,1.93,0,0,1,0,3.85H51.42a3.85,3.85,0,0,0,0,7.69Z"/><path class="cls-1" d="M94.86,57.19l-.57-.56a5,5,0,0,0-6.89,0L72,72a1.87,1.87,0,0,1-1.36.57h-24a2.89,2.89,0,1,1,0-5.77H57.25A5.79,5.79,0,0,0,63,61H39.88a12,12,0,0,0-8.48,3.52l-4.18,4.18a6.56,6.56,0,0,1-4.64,1.92V88h22.8l26.19-7.48Z"/><path class="cls-1" d="M66.87,59.11V61a8.72,8.72,0,0,1-.07,1.14l6.6-6.6a5.29,5.29,0,0,0-1.78-.31,4.81,4.81,0,0,0-3.44,1.36L66.6,58.2A2,2,0,0,1,66.87,59.11Z"/><path class="cls-2" d="M53.35,52.84A26.42,26.42,0,1,0,26.92,26.42,26.45,26.45,0,0,0,53.35,52.84Zm0-50a23.58,23.58,0,0,1,0,47.16h0a23.58,23.58,0,0,1,0-47.16Z"/><path class="cls-2" d="M11,87.46a3.35,3.35,0,1,0-3.35-3.34A3.35,3.35,0,0,0,11,87.46Z"/><path class="cls-3" d="M61,16.31a1.43,1.43,0,0,0,0-2.85H54.77V9.11a1.43,1.43,0,0,0-2.85,0v4.35h-.5a7.19,7.19,0,0,0,0,14.38h3.85a4.35,4.35,0,1,1,0,8.69H45.65a1.42,1.42,0,0,0,0,2.84h6.27v4.35a1.43,1.43,0,0,0,2.85,0V39.38h.5a7.19,7.19,0,0,0,0-14.38H51.42a4.35,4.35,0,0,1,0-8.69Z"/><path class="cls-2" d="M73,83.56a1.61,1.61,0,0,0,.62-.36l25-25a1.42,1.42,0,0,0,0-2l-1.92-1.92a8.17,8.17,0,0,0-5.82-2.34,8.36,8.36,0,0,0-4.53,1.31l-.27.18-.28-.18a8.5,8.5,0,0,0-9.07,0l-.27.18-.27-.18a8.41,8.41,0,0,0-4.54-1.31,8.15,8.15,0,0,0-5.82,2.34l-3.27,3.29-.15.14H39.88A15.45,15.45,0,0,0,29,62.19l-4.18,4.17a3.21,3.21,0,0,1-2.27,1h-.5V63a1.42,1.42,0,0,0-1.42-1.42H1.42a1.42,1.42,0,0,0,0,2.84H19.23V92.31H1.42a1.42,1.42,0,1,0,0,2.84H20.65a1.41,1.41,0,0,0,1-.41,1.44,1.44,0,0,0,.42-1V91.3H45.62l.46-.06ZM66.24,57.85l1.57-1.58a5.39,5.39,0,0,1,3.8-1.5,5.72,5.72,0,0,1,2,.34l.74.27-.56.56-6.59,6.59-1,1,.17-1.42A10,10,0,0,0,66.36,61V59.11a1.4,1.4,0,0,0-.21-.67L66,58.11Zm-.91,10.53,12.1-12.11a5.34,5.34,0,0,1,3.8-1.51,5.68,5.68,0,0,1,1.94.35l.74.27-.55.56L70.21,69.08l-.15.15H64.48ZM45.52,88.44l-.07,0H22.08V70.15h.5a6.05,6.05,0,0,0,4.29-1.77l4.18-4.18a12.55,12.55,0,0,1,8.83-3.67H63.22l.15.15.15.15V61a6.3,6.3,0,0,1-6.27,6.27H46.62a2.39,2.39,0,1,0,0,4.77h24a1.42,1.42,0,0,0,1-.42L87,56.27a5.55,5.55,0,0,1,7.61,0l.56.56.35.36-.35.35L71.92,80.83l-.09.09-.13,0Z"/></g></g></svg>