<svg xmlns="http://www.w3.org/2000/svg" viewBox="0 0 103 103"><defs><style>.cls-1,.cls-2{fill:none;}.cls-1{stroke:#242e3c;stroke-miterlimit:10;stroke-width:3px;}.cls-3{fill:#e60000;}</style></defs><title>User</title><g id="Layer_2" data-name="Layer 2"><g id="EA-logo"><circle class="cls-1" cx="51.5" cy="51.5" r="50"/><path class="cls-2" d="M69.67,58.16l-5.9-1.77L53.37,66.8a2.7,2.7,0,0,1-3.73,0L39.23,56.39l-5.87,1.76A6.18,6.18,0,0,0,29.18,64V77.66h4.34V68.78a2.64,2.64,0,1,1,5.27,0v8.88H64.22V68.78a2.64,2.64,0,1,1,5.27,0v8.88h4.34V64A6.17,6.17,0,0,0,69.67,58.16Z"/><path class="cls-2" d="M51.5,46.94a10.8,10.8,0,1,0-10.8-10.8A10.84,10.84,0,0,0,51.5,46.94Z"/><path class="cls-3" d="M70.83,54.5l-7.47-2.23a1.17,1.17,0,0,0-1.19.3L51.5,63.23,40.84,52.57a1.21,1.21,0,0,0-.86-.35,1,1,0,0,0-.34.05l-7.43,2.22A10,10,0,0,0,25.34,64V80.3a1.19,1.19,0,0,0,.35.85,1.23,1.23,0,0,0,.85.35H76.46a1.21,1.21,0,0,0,1.2-1.2V64A10,10,0,0,0,70.83,54.5Zm4.43,24.59h-7.2V68.78a1.21,1.21,0,0,0-1.2-1.21,1.18,1.18,0,0,0-.85.36,1.15,1.15,0,0,0-.35.84V79.09H37.35V68.78a1.2,1.2,0,0,0-2.06-.85,1.15,1.15,0,0,0-.35.84V79.09h-7.2V64a7.52,7.52,0,0,1,5.18-7.19l6.7-2,11,11a1.24,1.24,0,0,0,1.7,0l11-11,6.74,2A7.61,7.61,0,0,1,75.26,64Z"/><path class="cls-3" d="M51.5,50.78A14.64,14.64,0,1,0,36.86,36.14,14.66,14.66,0,0,0,51.5,50.78Zm0-26.88h0A12.24,12.24,0,1,1,39.27,36.14,12.3,12.3,0,0,1,51.5,23.9Z"/></g></g></svg>