<svg xmlns="http://www.w3.org/2000/svg" viewBox="0 0 98.5 98.5"><defs><style>.cls-1{fill:none;}.cls-2{fill:#e60000;}.cls-3{fill:#242e3c;}</style></defs><title>UserControl</title><g id="Layer_2" data-name="Layer 2"><g id="User-Control"><path class="cls-1" d="M57.58,49.71a11.31,11.31,0,0,1,6.35,0,11.31,11.31,0,0,0-6.35,0Z"/><path class="cls-1" d="M50,60.79A10.79,10.79,0,1,0,60.79,50,10.81,10.81,0,0,0,50,60.79Z"/><path class="cls-1" d="M33.86,71.3c.27.67.55,1.33.86,2-.31-.64-.59-1.3-.86-2Z"/><path class="cls-1" d="M34.61,75.38l.21-.27-.21-.37Z"/><polygon class="cls-1" points="33.86 77.63 35.71 75.17 35.71 75.17 33.86 77.63 33.86 77.63"/><path class="cls-1" d="M57.07,49.88a11.27,11.27,0,0,0-3,1.51A11.27,11.27,0,0,1,57.07,49.88Z"/><path class="cls-1" d="M52.28,53q.38-.41.78-.78Q52.66,52.62,52.28,53Z"/><path class="cls-1" d="M66.28,50.65a10.82,10.82,0,0,0-1.67-.73A10.82,10.82,0,0,1,66.28,50.65Z"/><path class="cls-2" d="M97.22,55.2,88.59,54l-.48-.07L88,53.42a28.51,28.51,0,0,0-2.76-6.64L85,46.35l.3-.4,5.22-7a1.17,1.17,0,0,0,0-1.43A38.59,38.59,0,0,0,84,31.1a1.19,1.19,0,0,0-.73-.26,1.1,1.1,0,0,0-.7.24l-7,5.23-.39.3-.43-.25a27.89,27.89,0,0,0-6.65-2.76l-.47-.13L67.61,33l-1.24-8.62a1.17,1.17,0,0,0-1-1,37.35,37.35,0,0,0-9.13,0,1.18,1.18,0,0,0-1,1L54,33l-.07.49-.47.13a28.23,28.23,0,0,0-6.65,2.76l-.43.25-.4-.3-4.12-3.09-.94.59c-.56.36-1.14.73-1.73,1.09a17,17,0,0,1,1.41,2.16l.34-.57.43-.7.66.49L45.58,39a1.2,1.2,0,0,0,.71.23,1.18,1.18,0,0,0,.63-.18,25.67,25.67,0,0,1,8.28-3.45,1.17,1.17,0,0,0,.91-1l1.2-8.41.09-.59.59-.05c1-.08,1.9-.12,2.8-.12s1.81,0,2.8.12l.59.05.09.59,1.2,8.41a1.15,1.15,0,0,0,.9,1A25.72,25.72,0,0,1,74.66,39a1.13,1.13,0,0,0,.63.18A1.17,1.17,0,0,0,76,39l6.81-5.11.48-.36.46.39a36.64,36.64,0,0,1,3.94,3.94l.39.46-.36.48-5.1,6.82a1.18,1.18,0,0,0,0,1.33A25.79,25.79,0,0,1,86,55.2a1.18,1.18,0,0,0,1,.91l8.42,1.2.59.08L96,58c.08,1,.11,1.89.11,2.8s0,1.82-.11,2.79l-.05.6-.59.08L87,65.47a1.16,1.16,0,0,0-1,.91,25.65,25.65,0,0,1-3.44,8.27,1.19,1.19,0,0,0,0,1.34l5.1,6.81.36.48-.39.46a35.75,35.75,0,0,1-3.94,3.94l-.46.4-.48-.37L76,82.61a1.1,1.1,0,0,0-.7-.24,1.17,1.17,0,0,0-.63.19A25.61,25.61,0,0,1,66.37,86a1.16,1.16,0,0,0-.9,1l-1.2,8.41-.09.6-.59,0c-1,.09-1.9.13-2.8.13S59,96.12,58,96l-.59,0-.09-.6L56.11,87a1.16,1.16,0,0,0-.9-1,25.61,25.61,0,0,1-8.29-3.44,1.19,1.19,0,0,0-.63-.19,1.1,1.1,0,0,0-.7.24l-6.81,5.1-.48.36-.46-.39a35.84,35.84,0,0,1-4-3.94l-.39-.46.36-.48L39,76A1.19,1.19,0,0,0,39,74.65a25.33,25.33,0,0,1-3.44-8.28,1.17,1.17,0,0,0-1-.9l-.84-.12-.65-.1V63.83l.6-.12a1.13,1.13,0,0,0,.3-.23A15.72,15.72,0,0,1,30.77,63V84.67A30.53,30.53,0,0,0,34.3,87.6l.05,0,0,0a38.79,38.79,0,0,0,3.16,2.8,1.13,1.13,0,0,0,.72.25A1.2,1.2,0,0,0,39,90.5l7-5.23.4-.3.42.25A28.13,28.13,0,0,0,53.43,88l.47.13.07.49,1.23,8.62a1.2,1.2,0,0,0,1,1,37.27,37.27,0,0,0,9.12,0,1.18,1.18,0,0,0,1-1l1.24-8.61.07-.49.47-.13a27.89,27.89,0,0,0,6.65-2.76l.43-.25.4.3,7,5.23a1.2,1.2,0,0,0,1.44,0A38.59,38.59,0,0,0,90.48,84a1.17,1.17,0,0,0,0-1.43l-5.22-7-.3-.4.25-.42A28.41,28.41,0,0,0,88,68.15l.13-.48.49-.07,8.62-1.23a1.16,1.16,0,0,0,1-1,36.07,36.07,0,0,0,0-9.13A1.18,1.18,0,0,0,97.22,55.2ZM33.11,77.63V67.33L34.56,71a28.61,28.61,0,0,0,1.8,3.77l.24.42-.29.4-1.85,2.46-1.35,1.8Z"/><path class="cls-2" d="M60.79,75.42A14.64,14.64,0,1,0,46.15,60.79,14.65,14.65,0,0,0,60.79,75.42Zm0-26.92a12.29,12.29,0,0,1,0,24.57h0a12.29,12.29,0,1,1,0-24.57Z"/><path class="cls-1" d="M20.4,3.09a7.7,7.7,0,1,0,7.69,7.7A7.71,7.71,0,0,0,20.4,3.09Z"/><path class="cls-1" d="M20.4,3.09a7.7,7.7,0,1,0,7.69,7.7A7.71,7.71,0,0,0,20.4,3.09Z"/><path class="cls-1" d="M34.37,27.78l-3.84-1.32-8.77,8.77a1.93,1.93,0,0,1-2.72,0l-8.77-8.77L6.41,27.79a4.86,4.86,0,0,0-3.32,4.6V55a5.76,5.76,0,0,0,3.85,5.41V39.63a1.93,1.93,0,0,1,3.85,0V95.41h7.7V62.71a1.93,1.93,0,0,1,3.85,0v32.7H30V39.63a1.92,1.92,0,1,1,3.84,0v20.8A5.76,5.76,0,0,0,37.71,55V32.39A4.88,4.88,0,0,0,34.37,27.78Z"/><path class="cls-1" d="M34.54,27.31,30.69,26l-.3-.11-.22.23-8.76,8.76a1.42,1.42,0,0,1-1,.42,1.38,1.38,0,0,1-1-.42l-8.77-8.76-.22-.23-.3.11L6.25,27.31a5.34,5.34,0,0,0-3.66,5.08V55A6.29,6.29,0,0,0,6.77,60.9l.67.24V39.63a1.43,1.43,0,0,1,2.85,0V95.91H19V62.71a1.43,1.43,0,0,1,2.85,0v33.2h8.69V39.63a1.42,1.42,0,1,1,2.84,0V61.14L34,60.9A6.29,6.29,0,0,0,38.21,55V32.39A5.33,5.33,0,0,0,34.54,27.31Z"/><path class="cls-1" d="M20.4,19.11V19a8.2,8.2,0,1,0-8.19-8.19A8.21,8.21,0,0,0,20.4,19v.13Z"/><path class="cls-3" d="M35.37,24.85l-5-1.71a1.22,1.22,0,0,0-.38-.07,1.16,1.16,0,0,0-.83.35l-8.26,8.25-.53.54-.53-.54-8.25-8.25a1.18,1.18,0,0,0-.83-.35,1.22,1.22,0,0,0-.38.07l-5,1.71A7.92,7.92,0,0,0,0,32.38V55A8.87,8.87,0,0,0,7.09,63.7l.6.12V97.33a1.17,1.17,0,0,0,.34.83,1.2,1.2,0,0,0,.84.34H31.94a1.18,1.18,0,0,0,1.17-1.17V63.83l.6-.13A8.88,8.88,0,0,0,40.81,55V32.39A8,8,0,0,0,35.37,24.85ZM38.46,55a6.54,6.54,0,0,1-4.34,6.12l-1,.36V39.63a1.17,1.17,0,1,0-2.34,0V96.16H21.58V62.71a1.18,1.18,0,0,0-2.35,0V96.16H10V39.63a1.18,1.18,0,0,0-2.35,0V61.5l-1-.36A6.55,6.55,0,0,1,2.34,55V32.39a5.57,5.57,0,0,1,3.83-5.31L10,25.75l.44-.15.33.33,8.77,8.77a1.17,1.17,0,0,0,.83.34,1.21,1.21,0,0,0,.84-.35L30,25.93l.33-.33.44.15,3.85,1.32a5.59,5.59,0,0,1,3.84,5.32Z"/><path class="cls-3" d="M9.62,10.79A10.79,10.79,0,1,0,20.4,0,10.79,10.79,0,0,0,9.62,10.79ZM20.4,2.34a8.45,8.45,0,0,1,0,16.89h0a8.45,8.45,0,0,1,0-16.89Z"/><polygon class="cls-3" points="20.4 19.11 20.4 19.11 20.4 19.23 20.4 19.11 20.4 19.11"/></g></g></svg>