<svg xmlns="http://www.w3.org/2000/svg" viewBox="0 0 73.27 100"><defs><style>.cls-1{fill:#e60000;}.cls-2{fill:#242e3c;}</style></defs><title>UserTablet</title><g id="Layer_2" data-name="Layer 2"><g id="User-Tablet"><path class="cls-1" d="M70.14,90.26H47.8a1.18,1.18,0,0,1-1.18-1.18c0-1.14-1.85-3.52-3.21-5.26-.6-.77-1.19-1.52-1.68-2.21L30.59,65.78a4.08,4.08,0,0,1,.22-5.32c1.52-1.65,4-1.43,5.65-.36L42.65,64l1.62-25.64a3.75,3.75,0,0,1,7.48-.14L53.13,51.8A4.83,4.83,0,0,1,55.89,51a5,5,0,0,1,4,2.6,5.07,5.07,0,0,1,2.95-.84,4.09,4.09,0,0,1,3.82,2.64,3.51,3.51,0,0,1,1.92-.57c1.73,0,4.66,1.2,4.66,5.71l-.13,19.66a8.15,8.15,0,0,1-.92,4.08c-.45.9-.91,1.84-.91,4.82A1.17,1.17,0,0,1,70.14,90.26ZM48.78,87.91H69a10.05,10.05,0,0,1,1.12-4.68,5.85,5.85,0,0,0,.68-3.06l.13-19.66c0-3.11-1.76-3.35-2.31-3.35-.93,0-1.44,1.15-1.44,1.16a1.16,1.16,0,0,1-1.31.71,1.18,1.18,0,0,1-1-1.14c0-.72-.39-2.8-2-2.8-1.93,0-2.33,1.28-2.33,1.3a1.17,1.17,0,0,1-2.3-.33,2.82,2.82,0,0,0-2.35-2.73,2.85,2.85,0,0,0-2.55,1.75,1.17,1.17,0,0,1-2.27-.29L49.41,38.4A1.39,1.39,0,0,0,48,37.14a1.41,1.41,0,0,0-1.4,1.32l-1.74,27.6a1.2,1.2,0,0,1-.63,1,1.17,1.17,0,0,1-1.16,0L35.2,62.09a2.16,2.16,0,0,0-2.67,0,1.77,1.77,0,0,0-.08,2.29l0,.06L43.66,80.25c.46.67,1,1.39,1.6,2.13C46.8,84.35,48.27,86.23,48.78,87.91Z"/><rect class="cls-1" x="58.24" y="56.05" width="2.35" height="3.58"/><rect class="cls-1" x="51.08" y="54.67" width="2.35" height="4.39" transform="translate(-0.3 0.27) rotate(-0.3)"/><rect class="cls-1" x="64.91" y="57.82" width="2.35" height="3.01"/><path class="cls-2" d="M35.3,81.07H7.39A7.39,7.39,0,0,1,0,73.69V7.38A7.39,7.39,0,0,1,7.39,0H61.11a7.39,7.39,0,0,1,7.38,7.38V49.76H66.14V7.38a5,5,0,0,0-5-5H7.39a5,5,0,0,0-5,5V73.69a5,5,0,0,0,5,5H35.3Z"/><polygon class="cls-2" points="28.78 69.67 6.81 69.67 6.81 11.72 61.69 11.72 61.69 48.83 59.34 48.83 59.34 14.06 9.16 14.06 9.16 67.32 28.78 67.32 28.78 69.67"/><rect class="cls-2" x="26.88" y="6.21" width="3.11" height="2.35"/><rect class="cls-2" x="32.01" y="6.21" width="9.61" height="2.35"/><path class="cls-2" d="M55.47,31.33H13v-13H55.47ZM15.37,29H53.12V20.71H15.37Z"/><rect class="cls-2" x="19.93" y="23.67" width="28.64" height="2.35"/><rect class="cls-2" x="14.2" y="35.22" width="19.27" height="2.35"/><rect class="cls-2" x="14.2" y="46.16" width="14.24" height="2.35"/><rect class="cls-2" x="14.2" y="40.69" width="25" height="2.35"/><polygon class="cls-2" points="73.27 100 70.92 100 70.92 90.26 42.58 90.26 42.58 100 40.23 100 40.23 87.91 73.27 87.91 73.27 100"/><rect class="cls-2" x="44.98" y="93.12" width="2.35" height="2.11"/><rect class="cls-2" x="44.98" y="97.76" width="2.35" height="2.11"/></g></g></svg>