<svg xmlns="http://www.w3.org/2000/svg" viewBox="0 0 74.81 100"><defs><style>.cls-1{fill:#e60000;}.cls-2{fill:#242e3c;}</style></defs><title>UserComputer</title><g id="Layer_2" data-name="Layer 2"><g id="UserDesk"><path class="cls-1" d="M20.4,29.19h0a9.48,9.48,0,0,1-9.47-9.47V18.05a9.48,9.48,0,1,1,19,0v1.67a9.47,9.47,0,0,1-9.47,9.47Zm0-18a6.92,6.92,0,0,0-6.91,6.91v1.67a6.91,6.91,0,0,0,6.9,6.9h0a6.9,6.9,0,0,0,6.9-6.9V18.05A6.92,6.92,0,0,0,20.4,11.14Z"/><path class="cls-1" d="M38.29,99.14,31.68,80.27a2.46,2.46,0,0,0-2.33-1.65H19a12.06,12.06,0,0,1-12-12.06V40.34a8.56,8.56,0,0,1,8.55-8.56H19a8.87,8.87,0,0,1,6.31,2.62l8.52,8.52a5,5,0,0,0,3.54,1.47h6.27a5.76,5.76,0,0,1,0,11.51H28.88a7.51,7.51,0,0,1-5.35-2.21l-6.9-6.9L18.45,45l6.89,6.9a5,5,0,0,0,3.54,1.46h14.8a3.19,3.19,0,0,0,0-6.37H37.41a7.54,7.54,0,0,1-5.36-2.22l-8.52-8.52A6.32,6.32,0,0,0,19,34.36H15.49a6,6,0,0,0-6,6V66.56A9.5,9.5,0,0,0,19,76.05H29.35a5,5,0,0,1,4.76,3.37l6.61,18.87Z"/><path class="cls-1" d="M48.15,99,42.08,70.83a7.57,7.57,0,0,0-7.36-5.94H26.19a4,4,0,0,1-4-4V51.79h2.57v9.07a1.47,1.47,0,0,0,1.46,1.46h8.53a10.14,10.14,0,0,1,9.87,8l6.07,28.16Z"/><path class="cls-2" d="M28.58,85.55h-11A17.56,17.56,0,0,1,0,68V33.07H2.57V68a15,15,0,0,0,15,15h11Z"/><rect class="cls-2" x="43.68" y="53.33" width="31.13" height="2.57"/><polygon class="cls-2" points="66.95 54.62 64.38 54.62 64.38 26.01 58.94 26.01 58.94 23.44 66.95 23.44 66.95 54.62"/><path class="cls-2" d="M52.62,43.13H49.56V0h3.06a7.61,7.61,0,0,1,7.6,7.61V35.52A7.61,7.61,0,0,1,52.62,43.13Zm-.49-2.57h.49a5,5,0,0,0,5-5V7.61a5,5,0,0,0-5-5h-.49Z"/><rect class="cls-2" x="17.49" y="84.27" width="2.57" height="14.45"/><rect class="cls-2" x="11.39" y="97.43" width="14.77" height="2.57"/><rect class="cls-2" x="69.2" y="54.62" width="2.57" height="44.1"/></g></g></svg>