<svg xmlns="http://www.w3.org/2000/svg" viewBox="0 0 75.42 98.5"><defs><style>.cls-1{fill:none;}.cls-2,.cls-3{fill:#e60000;}.cls-3{stroke:#e60000;stroke-miterlimit:10;stroke-width:0.5px;}.cls-4{fill:#242e3c;}</style></defs><title>UserAdd</title><g id="Layer_2" data-name="Layer 2"><g id="User-Add"><path class="cls-1" d="M62.71,41.66a9.62,9.62,0,1,0,9.61,9.62A9.63,9.63,0,0,0,62.71,41.66ZM67.2,52.92H64.35v2.85a1.64,1.64,0,1,1-3.28,0V52.92H58.23a1.64,1.64,0,1,1,0-3.28h2.84V46.8a1.64,1.64,0,1,1,3.28,0v2.84H67.2a1.64,1.64,0,1,1,0,3.28Z"/><path class="cls-2" d="M62.71,38.57A12.71,12.71,0,1,0,75.42,51.28,12.73,12.73,0,0,0,62.71,38.57Zm0,23.08h0A10.37,10.37,0,1,1,73.07,51.28,10.4,10.4,0,0,1,62.71,61.65Z"/><path class="cls-3" d="M67.2,50.39H63.6V46.8a.89.89,0,0,0-1.78,0v3.59H58.23a.89.89,0,0,0,0,1.78h3.59v3.6a.89.89,0,0,0,1.78,0v-3.6h3.6a.89.89,0,1,0,0-1.78Z"/><path class="cls-1" d="M20.4,3.09a7.7,7.7,0,1,0,7.69,7.7A7.71,7.71,0,0,0,20.4,3.09Z"/><path class="cls-1" d="M34.37,27.78l-3.84-1.32-8.77,8.77a1.93,1.93,0,0,1-2.72,0l-8.77-8.77L6.41,27.79a4.86,4.86,0,0,0-3.32,4.6V55a5.76,5.76,0,0,0,3.85,5.41V39.63a1.93,1.93,0,0,1,3.85,0V95.41h7.7V62.71a1.93,1.93,0,0,1,3.85,0v32.7H30V39.63a1.92,1.92,0,1,1,3.84,0v20.8A5.76,5.76,0,0,0,37.71,55V32.39A4.88,4.88,0,0,0,34.37,27.78Z"/><path class="cls-1" d="M34.54,27.31,30.69,26l-.3-.11-.22.23-8.76,8.76a1.42,1.42,0,0,1-1,.42,1.38,1.38,0,0,1-1-.42l-8.77-8.76-.22-.23-.3.11L6.25,27.31a5.34,5.34,0,0,0-3.66,5.08V55A6.29,6.29,0,0,0,6.77,60.9l.67.24V39.63a1.43,1.43,0,0,1,2.85,0V95.91H19V62.71a1.43,1.43,0,0,1,2.85,0v33.2h8.69V39.63a1.42,1.42,0,1,1,2.84,0V61.14L34,60.9A6.29,6.29,0,0,0,38.21,55V32.39A5.33,5.33,0,0,0,34.54,27.31Z"/><path class="cls-1" d="M20.4,19.11V19a8.2,8.2,0,1,0-8.19-8.19A8.21,8.21,0,0,0,20.4,19v.13Z"/><path class="cls-4" d="M35.37,24.85l-5-1.71a1.22,1.22,0,0,0-.38-.07,1.16,1.16,0,0,0-.83.35l-8.26,8.25-.53.54-.53-.54-8.25-8.25a1.18,1.18,0,0,0-.83-.35,1.22,1.22,0,0,0-.38.07l-5,1.71A7.92,7.92,0,0,0,0,32.38V55A8.87,8.87,0,0,0,7.09,63.7l.6.12V97.33a1.17,1.17,0,0,0,.34.83,1.2,1.2,0,0,0,.84.34H31.94a1.18,1.18,0,0,0,1.17-1.17V63.83l.6-.13A8.88,8.88,0,0,0,40.81,55V32.39A8,8,0,0,0,35.37,24.85ZM38.46,55a6.54,6.54,0,0,1-4.34,6.12l-1,.36V39.63a1.17,1.17,0,1,0-2.34,0V96.16H21.58V62.71a1.18,1.18,0,0,0-2.35,0V96.16H10V39.63a1.18,1.18,0,0,0-2.35,0V61.5l-1-.36A6.55,6.55,0,0,1,2.34,55V32.39a5.57,5.57,0,0,1,3.83-5.31L10,25.75l.44-.15.33.33,8.77,8.77a1.17,1.17,0,0,0,.83.34,1.21,1.21,0,0,0,.84-.35L30,25.93l.33-.33.44.15,3.85,1.32a5.59,5.59,0,0,1,3.84,5.32Z"/><path class="cls-4" d="M9.62,10.79A10.79,10.79,0,1,0,20.4,0,10.79,10.79,0,0,0,9.62,10.79ZM20.4,2.34a8.45,8.45,0,0,1,0,16.89h0a8.45,8.45,0,0,1,0-16.89Z"/><polygon class="cls-4" points="20.4 19.11 20.4 19.11 20.4 19.23 20.4 19.11 20.4 19.11"/></g></g></svg>