<?xml version="1.0" encoding="utf-8"?>
<!-- Generator: Adobe Illustrator 22.1.0, SVG Export Plug-In . SVG Version: 6.00 Build 0)  -->
<svg version="1.1" xmlns="http://www.w3.org/2000/svg" xmlns:xlink="http://www.w3.org/1999/xlink" x="0px" y="0px"
	 viewBox="0 0 100 100" style="enable-background:new 0 0 100 100;" xml:space="preserve">
<style type="text/css">
	.st0{display:none;}
	.st1{display:inline;}
	.st2{fill:#E60000;}
	.st3{fill:none;}
	.st4{fill:#2D2D2D;}
	.st5{fill:none;stroke:#EE3E36;stroke-width:2.5313;stroke-linecap:round;stroke-linejoin:round;stroke-miterlimit:10;}
	.st6{fill:#313335;}
	.st7{fill:#242E3C;}
	.st8{display:inline;fill:none;}
</style>
<g id="Layer_1" class="st0">
	<g class="st1">
		<path class="st2" d="M64,27.4H34.8c-0.7,0-1.3-0.6-1.3-1.3v-4.2c0-3,2.5-5.5,5.5-5.5h20.8c3,0,5.5,2.5,5.5,5.5v4.2
			C65.3,26.8,64.7,27.4,64,27.4z M36,24.8h26.7v-3c0-1.6-1.3-3-3-3H39c-1.6,0-3,1.3-3,3V24.8z"/>
	</g>
	<g class="st1">
		<path class="st3" d="M17.3,59.4c0.2,0,0.5,0.1,0.7,0.1C17.8,59.5,17.6,59.5,17.3,59.4z"/>
	</g>
	<g class="st1">
		<path class="st4" d="M82.4,35.7c0.1,0,0.2-0.1,0.3-0.1C82.6,35.7,82.5,35.7,82.4,35.7z"/>
	</g>
	<g class="st1">
		<path class="st4" d="M81.4,35.9c0.2,0,0.5,0,0.7-0.1C81.8,35.8,81.6,35.9,81.4,35.9z"/>
	</g>
	<g class="st1">
		<path class="st3" d="M16.7,59.3c0.1,0,0.2,0.1,0.3,0.1C16.9,59.3,16.8,59.3,16.7,59.3z"/>
	</g>
	<g class="st1">
		<g>
			<path class="st4" d="M81.4,60.8H58.2c-0.7,0-1.3-0.6-1.3-1.3s0.6-1.3,1.3-1.3h23.1c0.2,0,0.4,0,0.5-0.1c0,0,0.1,0,0.2,0
				s0.2,0,0.2-0.1c0.2-0.1,0.4-0.2,0.6-0.3c0.9-0.5,1.5-1.5,1.5-2.5v-25c0-1.6-1.3-3-3-3H18.1c-1.6,0-3,1.3-3,3v25
				c0,1,0.5,2,1.5,2.5c0.2,0.1,0.3,0.2,0.6,0.3c0.1,0,0.1,0.1,0.2,0.1s0.2,0,0.2,0c0.1,0,0.3,0.1,0.5,0.1h25.6
				c0.7,0,1.3,0.6,1.3,1.3s-0.6,1.3-1.3,1.3H18.1c-0.4,0-0.7,0-0.9-0.1c-0.1,0-0.3-0.1-0.4-0.1s-0.3-0.1-0.4-0.1
				c-0.4-0.1-0.8-0.3-1.1-0.5c-1.7-1-2.7-2.8-2.7-4.7v-25c0-3,2.5-5.5,5.5-5.5h63.3c3,0,5.5,2.5,5.5,5.5v25c0,1.9-1,3.7-2.7,4.7
				c-0.3,0.2-0.6,0.3-1,0.5c-0.2,0.1-0.3,0.1-0.4,0.1s-0.2,0.1-0.4,0.1C82,60.7,81.7,60.8,81.4,60.8z"/>
		</g>
	</g>
	<g class="st1">
		<g>
			<path class="st2" d="M34.5,55.4H22.6c-0.3,0-0.6,0-0.8-0.1c-0.1,0-0.2,0-0.3-0.1c-0.1,0-0.2-0.1-0.4-0.1
				c-0.4-0.1-0.6-0.3-0.9-0.4c-1.5-0.9-2.3-2.4-2.3-4.1v-9.7c0-0.7,0.6-1.3,1.3-1.3s1.3,0.6,1.3,1.3v9.7c0,0.8,0.4,1.5,1.1,1.9
				c0.1,0.1,0.3,0.1,0.4,0.2c0.1,0,0.1,0,0.2,0.1c0.1,0,0.1,0,0.2,0s0.2,0,0.4,0h11.9c0.7,0,1.3,0.6,1.3,1.3S35.2,55.4,34.5,55.4z"
				/>
		</g>
		<g>
			<path class="st5" d="M55.9,54.1"/>
		</g>
	</g>
	<g class="st1">
		<g>
			<path class="st6" d="M30.9,78.2h-8.3c-0.2,0-0.4,0-0.6-0.1c-0.1,0-0.2,0-0.3-0.1c-0.1,0-0.2-0.1-0.3-0.1
				c-0.3-0.1-0.5-0.2-0.7-0.3C19.6,77,19,75.9,19,74.5v-6.8c0-0.7,0.6-1.3,1.3-1.3s1.3,0.6,1.3,1.3v6.8c0,0.4,0.2,0.8,0.6,1
				c0.1,0,0.2,0.1,0.2,0.1h0.1c0.1,0,0.2,0,0.3,0h8.3c0.7,0,1.3,0.6,1.3,1.3S31.6,78.2,30.9,78.2z"/>
		</g>
	</g>
	<g class="st1">
		<g>
			<path class="st7" d="M78.9,83H20.6c-3.3,0-5.9-2.7-5.9-5.9V58.9c0-0.7,0.6-1.3,1.3-1.3s1.3,0.6,1.3,1.3v18.2
				c0,1.9,1.5,3.4,3.4,3.4H79c1.9,0,3.4-1.5,3.4-3.4V58.9c0-0.7,0.6-1.3,1.3-1.3c0.7,0,1.3,0.6,1.3,1.3v18.2
				C84.8,80.4,82.1,83,78.9,83z"/>
		</g>
	</g>
	<g class="st1">
		<g>
			<path class="st4" d="M82.7,36.9c-0.5,0-1-0.3-1.2-0.9c-0.2-0.7,0.1-1.4,0.8-1.6c0.2-0.1,0.4-0.2,0.6-0.3l0,0l0,0l0,0l0,0l0,0
				c0.6-0.4,1.4-0.2,1.7,0.4c0.4,0.6,0.2,1.4-0.4,1.7l0,0l0,0l0,0l0,0l0,0l0,0l0,0l0,0c-0.3,0.2-0.7,0.3-1,0.5
				C83,36.9,82.8,36.9,82.7,36.9z M82.8,34.2l0.6,1.1L82.8,34.2z"/>
		</g>
	</g>
	<g class="st1">
		<g>
			<path class="st6" d="M17.3,60.7c-0.1,0-0.1,0-0.2,0s-0.1,0-0.2,0s-0.1,0-0.2,0c-0.7-0.2-1.1-0.9-0.9-1.5c0.2-0.7,0.8-1.1,1.5-0.9
				h0.2c0.7,0.1,1.1,0.8,1,1.5C18.5,60.3,17.9,60.7,17.3,60.7z"/>
		</g>
	</g>
	<g class="st1">
		<g>
			<path class="st6" d="M16.7,60.5c-0.1,0-0.3,0-0.4-0.1c-0.4-0.1-0.7-0.3-1-0.5l0,0l0,0l0,0c-0.6-0.4-0.8-1.1-0.4-1.7
				c0.4-0.6,1.1-0.8,1.7-0.4l0,0c0.2,0.1,0.3,0.2,0.6,0.3c0.7,0.2,1,0.9,0.8,1.6C17.7,60.2,17.2,60.5,16.7,60.5z"/>
		</g>
	</g>
	<g class="st1">
		<g>
			<path class="st4" d="M82.1,37.1c-0.6,0-1.1-0.4-1.2-1c-0.1-0.7,0.3-1.3,1-1.5h0.2c0.7-0.2,1.4,0.2,1.5,0.9
				c0.2,0.7-0.2,1.4-0.9,1.5c-0.1,0-0.1,0-0.2,0s-0.1,0-0.2,0C82.2,37.1,82.2,37.1,82.1,37.1z"/>
		</g>
	</g>
	<g class="st1">
		<path class="st2" d="M55.3,65.1h-8.7c-2.3,0-4.2-1.9-4.2-4.2V56c0-2.3,1.9-4.2,4.2-4.2h8.7c2.3,0,4.2,1.9,4.2,4.2v4.9
			C59.5,63.2,57.6,65.1,55.3,65.1z M46.6,54.3c-0.9,0-1.7,0.7-1.7,1.7v4.9c0,0.9,0.7,1.7,1.7,1.7h8.7c0.9,0,1.7-0.7,1.7-1.7V56
			c0-0.9-0.7-1.7-1.7-1.7H46.6z"/>
	</g>
	<rect id="_x3C_Slice_x3E__6_" x="-8.3" y="-8.3" class="st8" width="116.5" height="116.5"/>
</g>
<g id="Layer_2">
	<g>
		<polygon class="st4" points="65.5,39.5 60.7,39.5 60.7,56.4 54.6,56.4 54.6,84.2 47.4,84.2 47.4,56.4 41.3,56.4 41.3,39.5 
			36.5,39.5 36.5,61.3 42.6,61.3 42.6,89 59.4,89 59.4,61.3 65.5,61.3 		"/>
		<path class="st2" d="M42.6,21.4c0,4.6,3.8,8.4,8.4,8.4s8.4-3.8,8.4-8.4S55.6,13,51,13S42.6,16.8,42.6,21.4z M54.6,21.4
			c0,2-1.6,3.6-3.6,3.6s-3.6-1.6-3.6-3.6s1.6-3.6,3.6-3.6C53,17.8,54.6,19.5,54.6,21.4z"/>
		<path class="st2" d="M22,27.5c0,4.6,3.8,8.4,8.4,8.4s8.4-3.8,8.4-8.4S35.1,19,30.5,19S22,22.8,22,27.5z M34.1,27.5
			c0,2-1.6,3.6-3.6,3.6s-3.6-1.6-3.6-3.6s1.6-3.6,3.6-3.6S34.1,25.5,34.1,27.5z"/>
		<polygon class="st4" points="78.7,62.5 72.7,62.5 72.7,84.2 63.1,84.2 63.1,89 77.5,89 77.5,67.3 83.6,67.3 83.6,43.2 78.7,43.2 
					"/>
		<path class="st2" d="M63.1,27.5c0,4.6,3.8,8.4,8.4,8.4c4.6,0,8.4-3.8,8.4-8.4S76.2,19,71.5,19C66.9,19,63.1,22.8,63.1,27.5z
			 M71.5,23.9c2,0,3.6,1.6,3.6,3.6s-1.6,3.6-3.6,3.6s-3.6-1.6-3.6-3.6S69.5,23.9,71.5,23.9z"/>
		<polygon class="st4" points="29.3,62.5 23.3,62.5 23.3,43.2 18.4,43.2 18.4,67.3 24.5,67.3 24.5,89 38.9,89 38.9,84.2 29.3,84.2 
					"/>
	</g>
</g>
</svg>
