<svg xmlns="http://www.w3.org/2000/svg" viewBox="0 0 100 74.84"><defs><style>.cls-1{fill:#242e3c;}.cls-2{fill:#e60000;}</style></defs><title>Video</title><g id="Layer_2" data-name="Layer 2"><g id="Video"><path class="cls-1" d="M98.65,74.84H1.35A1.35,1.35,0,0,1,0,73.49V1.35A1.34,1.34,0,0,1,1.35,0h97.3A1.34,1.34,0,0,1,100,1.35V73.49A1.35,1.35,0,0,1,98.65,74.84Zm-96-2.7H97.31V2.69H2.69Z"/><path class="cls-1" d="M98.65,63.16H1.35A1.34,1.34,0,0,1,0,61.82V1.35A1.34,1.34,0,0,1,1.35,0h97.3A1.34,1.34,0,0,1,100,1.35V61.82A1.34,1.34,0,0,1,98.65,63.16Zm-96-2.69H97.31V2.69H2.69Z"/><rect class="cls-2" x="7.81" y="66.23" width="7.17" height="2.69"/><rect class="cls-2" x="24.05" y="66.23" width="67.92" height="2.69"/><rect class="cls-2" x="73.96" y="64.49" width="2.7" height="6.05"/><path class="cls-2" d="M35.11,54.06a1.34,1.34,0,0,1-1.34-1.35V10.45a1.33,1.33,0,0,1,.67-1.16,1.36,1.36,0,0,1,1.35,0L72.38,30.42a1.34,1.34,0,0,1,.68,1.16,1.35,1.35,0,0,1-.68,1.17L35.79,53.88A1.36,1.36,0,0,1,35.11,54.06Zm1.35-41.27V50.38L69,31.58Z"/></g></g></svg>