<?xml version="1.0" encoding="utf-8"?>
<!-- Generator: Adobe Illustrator 22.1.0, SVG Export Plug-In . SVG Version: 6.00 Build 0)  -->
<svg version="1.1" id="Layer_1" xmlns="http://www.w3.org/2000/svg" xmlns:xlink="http://www.w3.org/1999/xlink" x="0px" y="0px"
	 viewBox="0 0 16 16" style="enable-background:new 0 0 16 16;" xml:space="preserve">
<style type="text/css">
	.st0{fill:#E60000;}
</style>
<path class="st0" d="M8,6c0,1.1-0.9,2-2,2c0,1.1,0.9,2,2,2s2-0.9,2-2S9.1,6,8,6z M8,2C3.9,2,0,6.6,0,8s3.9,6,8,6s8-4.6,8-6
	S12.1,2,8,2z M8,12c-2.2,0-4-1.8-4-4s1.8-4,4-4s4,1.8,4,4S10.2,12,8,12z"/>
</svg>
