<?xml version="1.0" encoding="utf-8"?>
<!-- Generator: Adobe Illustrator 22.1.0, SVG Export Plug-In . SVG Version: 6.00 Build 0)  -->
<svg version="1.1" id="Layer_1" xmlns="http://www.w3.org/2000/svg" xmlns:xlink="http://www.w3.org/1999/xlink" x="0px" y="0px"
	 viewBox="0 0 100 100" style="enable-background:new 0 0 100 100;" xml:space="preserve">
<style type="text/css">
	.st0{fill:#242E3C;}
	.st1{fill:#E60000;}
</style>
<path class="st0" d="M76.7,26.8c-1.7-1.7-5-1.7-7.6-1.7H31.9c-2.6,0-5.9,0-7.6,1.7c-1.7,1.7-1.7,5-1.7,7.6v21.3c0,2.6,0,5.9,1.7,7.6
	c1.7,1.7,5,1.7,7.6,1.7h37.3c2.6,0,5.9,0,7.6-1.7c1.7-1.7,1.7-5,1.7-7.6V34.4C78.4,31.9,78.4,28.5,76.7,26.8z M74.8,61.4
	c-0.8,0.8-1.8,1.2-3,1.2H29.2c-1.2,0-2.2-0.5-3-1.2c-0.8-0.8-1.2-1.8-1.2-3V31.8c0-1.2,0.5-2.2,1.2-3c0.8-0.8,1.8-1.2,3-1.2h42.6
	c1.2,0,2.2,0.5,3,1.2c0.8,0.8,1.2,1.8,1.2,3v26.6C76,59.6,75.5,60.6,74.8,61.4z"/>
<path class="st1" d="M57.7,43.7L47,37.6c-0.2-0.1-0.5-0.2-0.8-0.2c-0.3,0-0.5,0.1-0.8,0.2c-0.5,0.3-0.8,0.8-0.8,1.4v12.3
	c0,0.6,0.3,1.1,0.8,1.4c0.2,0.1,0.5,0.2,0.8,0.2c0.3,0,0.5-0.1,0.8-0.2l10.7-6.2c0.5-0.3,0.8-0.8,0.8-1.4S58.2,44,57.7,43.7z"/>
<path class="st0" d="M79.6,68.7c0,1.4-1.1,1.5-2.5,1.5H23.8c-1.4,0-2.5-0.1-2.5-1.5l0,0c0-1.4,1.1-0.9,2.5-0.9h53.4
	C78.5,67.8,79.6,67.3,79.6,68.7L79.6,68.7z"/>
<path id="XMLID_11_" class="st0" d="M50.2,12.3c20.9,0,38,16.8,38,37.7s-17.2,37.7-38,37.7s-38-16.8-38-37.7S29.1,12.3,50.2,12.3
	L50.2,12.3z M50.1,9.8C27.9,9.8,9.8,27.9,9.8,50.1s18.1,40.3,40.3,40.3s40.3-18.1,40.3-40.3S72.3,9.8,50.1,9.8z"/>
</svg>
