<?xml version="1.0" encoding="utf-8"?>
<!-- Generator: Adobe Illustrator 22.1.0, SVG Export Plug-In . SVG Version: 6.00 Build 0)  -->
<svg version="1.1" id="Layer_1" xmlns="http://www.w3.org/2000/svg" xmlns:xlink="http://www.w3.org/1999/xlink" x="0px" y="0px"
	 viewBox="0 0 64 64" style="enable-background:new 0 0 64 64;" xml:space="preserve">
<style type="text/css">
	.st0{fill:#E60000;}
	.st1{fill:#FFFFFF;}
</style>
<path class="st0" d="M4.3,47.7V16.3L31.9,0l27.8,16v31.7c0,0-10.5-13.8-27.8-13.8C31.9,33.8,18.2,32.3,4.3,47.7z"/>
<path class="st0" d="M8.6,50.7L31.8,64l23.1-13.3c0,0-9.6-11.7-23-11.7C31.9,39,20.6,37.7,8.6,50.7z"/>
<path class="st1" d="M8.9,17.5c0,0-1.8,0.8-0.1,2.1c0,0,0.8-0.2,0.6-1.2l22.5-13c0,0,0.8-1.7-0.9-0.8L8.9,17.5z"/>
<path class="st1" d="M27.9,43c-2.8,0.7-8.4,2.2-13,6.7c0,0-1.7,0.6-0.8-1c0,0,8-7.1,14.8-6.3C28.9,42.3,29.5,42.5,27.9,43z"/>
</svg>
