<?xml version="1.0" encoding="iso-8859-1"?>
<!-- Generator: Adobe Illustrator 22.0.1, SVG Export Plug-In . SVG Version: 6.00 Build 0)  -->
<svg version="1.1" id="Layer_1" xmlns="http://www.w3.org/2000/svg" xmlns:xlink="http://www.w3.org/1999/xlink" x="0px" y="0px"
	 viewBox="0 0 138.844 179.397" style="enable-background:new 0 0 138.844 179.397;" xml:space="preserve">
<g>
	<path d="M0,157.975v-15.547h11.219v1.828H2.063v4.766h8.578v1.828H2.063v5.297h9.516v1.828H0z"/>
	<path d="M16.148,157.975v-15.547h2.107l8.159,12.207v-12.207h1.969v15.547h-2.106l-8.159-12.208v12.208H16.148z"/>
	<path d="M40.836,151.881v-1.828h6.578v5.762c-1.01,0.806-2.051,1.411-3.124,1.817c-1.073,0.405-2.174,0.608-3.304,0.608
		c-1.525,0-2.911-0.327-4.157-0.981c-1.246-0.653-2.187-1.6-2.822-2.837c-0.635-1.237-0.953-2.619-0.953-4.146
		c0-1.513,0.316-2.925,0.948-4.237c0.632-1.311,1.541-2.285,2.727-2.922c1.186-0.636,2.552-0.954,4.098-0.954
		c1.123,0,2.137,0.183,3.044,0.547c0.907,0.365,1.618,0.873,2.134,1.524c0.515,0.652,0.907,1.502,1.175,2.55l-1.856,0.509
		c-0.233-0.792-0.522-1.414-0.868-1.867c-0.346-0.453-0.839-0.816-1.48-1.088c-0.642-0.273-1.354-0.409-2.137-0.409
		c-0.939,0-1.749,0.144-2.434,0.429c-0.684,0.287-1.236,0.663-1.655,1.129c-0.42,0.467-0.746,0.979-0.979,1.537
		c-0.395,0.961-0.592,2.003-0.592,3.127c0,1.385,0.238,2.543,0.714,3.476c0.476,0.933,1.169,1.626,2.079,2.077
		c0.91,0.453,1.876,0.679,2.899,0.679c0.889,0,1.756-0.171,2.602-0.514c0.846-0.342,1.488-0.708,1.925-1.096v-2.891H40.836z"/>
	<path d="M52.546,157.975v-15.547h2.063v15.547H52.546z"/>
	<path d="M59.936,157.975v-15.547h2.106l8.159,12.207v-12.207h1.969v15.547h-2.106l-8.159-12.208v12.208H59.936z"/>
	<path d="M77.406,157.975v-15.547h11.219v1.828h-9.156v4.766h8.578v1.828h-8.578v5.297h9.516v1.828H77.406z"/>
	<path d="M93.617,157.975v-15.547h11.219v1.828h-9.156v4.766h8.578v1.828h-8.578v5.297h9.516v1.828H93.617z"/>
	<path d="M109.811,157.975v-15.547h6.893c1.384,0,2.437,0.14,3.156,0.419c0.721,0.279,1.296,0.771,1.727,1.479
		s0.646,1.487,0.646,2.342c0,1.103-0.356,2.032-1.069,2.788c-0.714,0.756-1.815,1.236-3.306,1.441
		c0.544,0.262,0.957,0.52,1.239,0.774c0.601,0.552,1.168,1.242,1.702,2.069l2.688,4.234h-2.568l-2.055-3.236
		c-0.601-0.935-1.095-1.648-1.483-2.144c-0.388-0.495-0.736-0.842-1.043-1.039c-0.308-0.198-0.62-0.336-0.938-0.413
		c-0.233-0.05-0.614-0.074-1.144-0.074h-2.384v6.906H109.811z M111.873,149.288h4.417c0.94,0,1.673-0.097,2.201-0.292
		c0.528-0.193,0.93-0.505,1.204-0.932c0.274-0.428,0.412-0.893,0.412-1.395c0-0.734-0.267-1.339-0.798-1.813
		c-0.533-0.473-1.373-0.71-2.521-0.71h-4.915V149.288z"/>
	<path d="M126.485,152.991l1.937-0.172c0.092,0.78,0.306,1.42,0.641,1.919c0.335,0.5,0.855,0.904,1.562,1.213
		c0.705,0.308,1.5,0.462,2.382,0.462c0.783,0,1.475-0.117,2.075-0.351c0.6-0.234,1.046-0.555,1.339-0.963
		c0.293-0.407,0.439-0.852,0.439-1.333c0-0.487-0.142-0.914-0.423-1.278c-0.281-0.364-0.748-0.67-1.398-0.918
		c-0.417-0.163-1.34-0.416-2.768-0.76c-1.428-0.344-2.429-0.668-3.002-0.972c-0.742-0.39-1.295-0.872-1.66-1.449
		c-0.363-0.577-0.546-1.223-0.546-1.938c0-0.786,0.223-1.52,0.668-2.203c0.445-0.683,1.096-1.201,1.95-1.556
		c0.855-0.354,1.807-0.53,2.853-0.53c1.152,0,2.168,0.186,3.048,0.557c0.88,0.37,1.557,0.916,2.03,1.637
		c0.474,0.721,0.729,1.536,0.764,2.447l-1.969,0.156c-0.106-0.984-0.465-1.728-1.076-2.23c-0.612-0.503-1.515-0.754-2.71-0.754
		c-1.244,0-2.15,0.229-2.72,0.685c-0.569,0.457-0.854,1.008-0.854,1.652c0,0.56,0.201,1.02,0.604,1.381
		c0.396,0.361,1.43,0.73,3.102,1.109c1.672,0.379,2.818,0.71,3.441,0.992c0.904,0.417,1.571,0.945,2.003,1.584
		c0.431,0.64,0.646,1.377,0.646,2.21c0,0.827-0.236,1.605-0.71,2.337c-0.473,0.731-1.152,1.3-2.038,1.706
		c-0.887,0.406-1.884,0.609-2.992,0.609c-1.405,0-2.582-0.205-3.532-0.614c-0.949-0.408-1.694-1.024-2.234-1.847
		S126.513,154.028,126.485,152.991z"/>
</g>
<g>
	<path d="M17.129,179.194l4.584-11.969h1.725l4.867,11.969h-1.803l-1.376-3.625h-5.02l-1.308,3.625H17.129z M20.556,174.272h4.072
		l-1.242-3.31c-0.384-1.006-0.671-1.84-0.861-2.503c-0.161,0.779-0.378,1.548-0.651,2.306L20.556,174.272z"/>
	<path d="M38.97,167.225h1.578v6.915c0,1.202-0.136,2.157-0.409,2.865c-0.272,0.707-0.764,1.283-1.475,1.727
		c-0.711,0.443-1.644,0.665-2.799,0.665c-1.122,0-2.04-0.193-2.754-0.579c-0.713-0.387-1.223-0.946-1.528-1.678
		c-0.305-0.732-0.458-1.732-0.458-3v-6.915h1.578v6.911c0,1.04,0.097,1.807,0.291,2.299c0.193,0.493,0.526,0.873,0.999,1.14
		c0.472,0.267,1.05,0.4,1.732,0.4c1.168,0,2.001-0.264,2.498-0.792c0.497-0.528,0.745-1.544,0.745-3.047V167.225z"/>
	<path d="M44.174,175.335l1.5-0.125c0.07,0.604,0.234,1.099,0.492,1.485c0.258,0.387,0.657,0.699,1.2,0.938
		c0.542,0.239,1.152,0.358,1.831,0.358c0.602,0,1.133-0.091,1.594-0.272c0.461-0.181,0.805-0.429,1.029-0.745
		c0.226-0.314,0.338-0.656,0.338-1.025c0-0.373-0.107-0.699-0.323-0.977c-0.215-0.279-0.573-0.514-1.072-0.704
		c-0.321-0.125-1.03-0.32-2.127-0.584c-1.098-0.264-1.867-0.514-2.309-0.748c-0.572-0.3-0.998-0.672-1.279-1.116
		c-0.281-0.444-0.421-0.941-0.421-1.492c0-0.605,0.171-1.171,0.514-1.697c0.343-0.526,0.843-0.926,1.501-1.198
		c0.658-0.272,1.39-0.409,2.194-0.409c0.886,0,1.668,0.143,2.345,0.429c0.677,0.286,1.198,0.707,1.562,1.263
		c0.364,0.556,0.56,1.185,0.587,1.887l-1.516,0.109c-0.082-0.752-0.357-1.32-0.827-1.705c-0.47-0.384-1.164-0.576-2.083-0.576
		c-0.957,0-1.653,0.176-2.09,0.526c-0.438,0.352-0.656,0.775-0.656,1.27c0,0.43,0.155,0.784,0.465,1.062
		c0.304,0.277,1.099,0.563,2.384,0.854c1.285,0.291,2.167,0.545,2.644,0.763c0.696,0.32,1.209,0.727,1.541,1.218
		c0.331,0.492,0.497,1.059,0.497,1.699c0,0.636-0.182,1.234-0.546,1.797c-0.364,0.563-0.887,1-1.57,1.312
		c-0.682,0.313-1.45,0.469-2.303,0.469c-1.082,0-1.988-0.158-2.719-0.476c-0.731-0.316-1.305-0.793-1.721-1.429
		C44.415,176.857,44.196,176.137,44.174,175.335z"/>
	<path d="M60.409,179.194v-10.563h-3.938v-1.406h9.453v1.406h-3.938v10.563H60.409z"/>
	<path d="M69.126,179.194v-11.969h5.308c1.069,0,1.881,0.107,2.438,0.323c0.556,0.215,1,0.595,1.333,1.14
		c0.333,0.545,0.499,1.147,0.499,1.807c0,0.851-0.275,1.567-0.826,2.15c-0.551,0.583-1.401,0.953-2.552,1.111
		c0.419,0.201,0.738,0.399,0.957,0.596c0.463,0.424,0.9,0.954,1.313,1.589l2.076,3.253H77.69l-1.587-2.486
		c-0.463-0.718-0.845-1.267-1.145-1.646c-0.3-0.381-0.568-0.647-0.806-0.802c-0.237-0.153-0.479-0.26-0.724-0.32
		c-0.18-0.038-0.474-0.058-0.883-0.058h-1.841v5.313H69.126z M70.705,172.506h3.411c0.725,0,1.292-0.075,1.7-0.224
		c0.408-0.15,0.718-0.389,0.93-0.718s0.318-0.686,0.318-1.071c0-0.565-0.206-1.03-0.616-1.395c-0.411-0.363-1.061-0.546-1.948-0.546
		h-3.795V172.506z"/>
	<path d="M81.396,179.194l4.584-11.969h1.725l4.867,11.969h-1.804l-1.376-3.625h-5.02l-1.308,3.625H81.396z M84.823,174.272h4.072
		l-1.242-3.31c-0.384-1.006-0.671-1.84-0.861-2.503c-0.161,0.779-0.378,1.548-0.651,2.306L84.823,174.272z"/>
	<path d="M95.299,179.194v-11.969h1.578v10.563h5.906v1.406H95.299z"/>
	<path d="M106.462,179.194v-11.969h1.578v11.969H106.462z"/>
	<path d="M111.052,179.194l4.585-11.969h1.725l4.866,11.969h-1.803l-1.376-3.625h-5.02l-1.308,3.625H111.052z M114.48,174.272h4.072
		l-1.242-3.31c-0.384-1.006-0.671-1.84-0.861-2.503c-0.16,0.779-0.378,1.548-0.651,2.306L114.48,174.272z"/>
</g>
<path style="fill:#E60000;" d="M16.065,92.334V31.5L69.565,0l53.834,31v61.334c0,0-20.333-26.834-53.834-26.834
	C69.565,65.5,42.899,62.667,16.065,92.334z"/>
<path style="fill:#E60000;" d="M24.399,98.166l45,25.834l44.667-25.834c0,0-18.667-22.666-44.501-22.666
	C69.565,75.5,47.566,72.999,24.399,98.166z"/>
<path style="fill:#FFFFFF;" d="M24.953,33.932c0,0-3.499,1.5-0.166,4c0,0,1.499-0.333,1.166-2.333l43.5-25.167
	c0,0,1.502-3.334-1.666-1.5L24.953,33.932z"/>
<path style="fill:#FFFFFF;" d="M61.731,83.251c-5.417,1.416-16.211,4.205-25.167,12.917c0,0-3.333,1.25-1.5-2
	c0,0,15.583-13.668,28.75-12.251C63.814,81.917,64.868,82.43,61.731,83.251z"/>
<g>
</g>
<g>
</g>
<g>
</g>
<g>
</g>
<g>
</g>
<g>
</g>
</svg>
