<?xml version="1.0" encoding="utf-8"?>
<!-- Generator: Adobe Illustrator 22.1.0, SVG Export Plug-In . SVG Version: 6.00 Build 0)  -->
<svg version="1.1" id="Layer_1" xmlns="http://www.w3.org/2000/svg" xmlns:xlink="http://www.w3.org/1999/xlink" x="0px" y="0px"
	 viewBox="0 0 100 100" style="enable-background:new 0 0 100 100;" xml:space="preserve">
<style type="text/css">
	.st0{fill:#E60000;}
	.st1{fill:#FFFFFF;}
</style>
<g>
	<path d="M14.8,84.2V76h6v1h-4.9v2.5h4.6v1h-4.6v2.8H21v1L14.8,84.2L14.8,84.2z"/>
	<path d="M23.5,84.2V76h1.1l4.4,6.5V76H30v8.3h-1.1l-4.4-6.5v6.5H23.5z"/>
	<path d="M36.6,81v-1h3.5v3.1c-0.5,0.4-1.1,0.8-1.7,1c-0.6,0.2-1.2,0.3-1.8,0.3c-0.8,0-1.6-0.2-2.2-0.5c-0.7-0.3-1.2-0.9-1.5-1.5
		c-0.3-0.7-0.5-1.4-0.5-2.2c0-0.8,0.2-1.6,0.5-2.3c0.3-0.7,0.8-1.2,1.5-1.6c0.6-0.3,1.4-0.5,2.2-0.5c0.6,0,1.1,0.1,1.6,0.3
		c0.5,0.2,0.9,0.5,1.1,0.8c0.3,0.3,0.5,0.8,0.6,1.4l-1,0.3c-0.1-0.4-0.3-0.8-0.5-1s-0.4-0.4-0.8-0.6c-0.3-0.1-0.7-0.2-1.1-0.2
		c-0.5,0-0.9,0.1-1.3,0.2c-0.4,0.2-0.7,0.4-0.9,0.6c-0.2,0.2-0.4,0.5-0.5,0.8c-0.2,0.5-0.3,1.1-0.3,1.7c0,0.7,0.1,1.4,0.4,1.9
		c0.3,0.5,0.6,0.9,1.1,1.1c0.5,0.2,1,0.4,1.5,0.4c0.5,0,0.9-0.1,1.4-0.3c0.5-0.2,0.8-0.4,1-0.6V81L36.6,81L36.6,81z"/>
	<path d="M42.9,84.2V76H44v8.3H42.9z"/>
	<path d="M46.8,84.2V76h1.1l4.4,6.5V76h1.1v8.3h-1.1l-4.4-6.5v6.5H46.8z"/>
	<path d="M56.1,84.2V76h6v1h-4.9v2.5h4.6v1h-4.6v2.8h5.1v1L56.1,84.2L56.1,84.2z"/>
	<path d="M64.8,84.2V76h6v1h-4.9v2.5h4.6v1h-4.6v2.8h5.1v1L64.8,84.2L64.8,84.2z"/>
	<path d="M73.4,84.2V76h3.7c0.7,0,1.3,0.1,1.7,0.2c0.4,0.1,0.7,0.4,0.9,0.8c0.2,0.4,0.3,0.8,0.3,1.2c0,0.6-0.2,1.1-0.6,1.5
		c-0.4,0.4-1,0.7-1.8,0.8c0.3,0.1,0.5,0.3,0.7,0.4c0.3,0.3,0.6,0.7,0.9,1.1l1.4,2.3h-1.4l-1.1-1.7c-0.3-0.5-0.6-0.9-0.8-1.1
		c-0.2-0.3-0.4-0.4-0.6-0.6c-0.2-0.1-0.3-0.2-0.5-0.2c-0.1,0-0.3,0-0.6,0h-1.3v3.7L73.4,84.2L73.4,84.2z M74.5,79.6h2.4
		c0.5,0,0.9-0.1,1.2-0.2c0.3-0.1,0.5-0.3,0.6-0.5c0.1-0.2,0.2-0.5,0.2-0.7c0-0.4-0.1-0.7-0.4-1c-0.3-0.3-0.7-0.4-1.3-0.4h-2.6
		C74.5,76.9,74.5,79.6,74.5,79.6z"/>
	<path d="M82.3,81.6l1-0.1c0,0.4,0.2,0.8,0.3,1c0.2,0.3,0.5,0.5,0.8,0.6c0.4,0.2,0.8,0.2,1.3,0.2c0.4,0,0.8-0.1,1.1-0.2
		c0.3-0.1,0.6-0.3,0.7-0.5c0.2-0.2,0.2-0.5,0.2-0.7c0-0.3-0.1-0.5-0.2-0.7s-0.4-0.4-0.7-0.5c-0.2-0.1-0.7-0.2-1.5-0.4
		c-0.8-0.2-1.3-0.4-1.6-0.5c-0.4-0.2-0.7-0.5-0.9-0.8c-0.2-0.3-0.3-0.7-0.3-1c0-0.4,0.1-0.8,0.4-1.2c0.2-0.4,0.6-0.6,1-0.8
		c0.5-0.2,1-0.3,1.5-0.3c0.6,0,1.2,0.1,1.6,0.3c0.5,0.2,0.8,0.5,1.1,0.9c0.3,0.4,0.4,0.8,0.4,1.3l-1.1,0.1c-0.1-0.5-0.2-0.9-0.6-1.2
		c-0.3-0.3-0.8-0.4-1.4-0.4c-0.7,0-1.1,0.1-1.5,0.4c-0.3,0.2-0.5,0.5-0.5,0.9c0,0.3,0.1,0.5,0.3,0.7c0.2,0.2,0.8,0.4,1.7,0.6
		c0.9,0.2,1.5,0.4,1.8,0.5c0.5,0.2,0.8,0.5,1.1,0.8c0.2,0.3,0.3,0.7,0.3,1.2c0,0.4-0.1,0.9-0.4,1.2c-0.3,0.4-0.6,0.7-1.1,0.9
		c-0.5,0.2-1,0.3-1.6,0.3c-0.7,0-1.4-0.1-1.9-0.3c-0.5-0.2-0.9-0.5-1.2-1C82.5,82.6,82.3,82.1,82.3,81.6z"/>
</g>
<g>
	<path d="M24,95.6l2.4-6.4h0.9l2.6,6.4h-1l-0.7-1.9h-2.7l-0.7,1.9H24z M25.8,92.9H28l-0.7-1.8c-0.2-0.5-0.4-1-0.5-1.3
		c-0.1,0.4-0.2,0.8-0.3,1.2L25.8,92.9z"/>
	<path d="M35.6,89.2h0.8v3.7c0,0.6-0.1,1.2-0.2,1.5c-0.1,0.4-0.4,0.7-0.8,0.9c-0.4,0.2-0.9,0.4-1.5,0.4c-0.6,0-1.1-0.1-1.5-0.3
		c-0.4-0.2-0.7-0.5-0.8-0.9c-0.2-0.4-0.2-0.9-0.2-1.6v-3.7h0.8v3.7c0,0.6,0.1,1,0.2,1.2c0.1,0.3,0.3,0.5,0.5,0.6
		c0.3,0.1,0.6,0.2,0.9,0.2c0.6,0,1.1-0.1,1.3-0.4c0.3-0.3,0.4-0.8,0.4-1.6L35.6,89.2L35.6,89.2z"/>
	<path d="M38.4,93.5l0.8-0.1c0,0.3,0.1,0.6,0.3,0.8c0.1,0.2,0.4,0.4,0.6,0.5c0.3,0.1,0.6,0.2,1,0.2c0.3,0,0.6,0,0.9-0.1
		c0.2-0.1,0.4-0.2,0.5-0.4c0.1-0.2,0.2-0.3,0.2-0.5c0-0.2-0.1-0.4-0.2-0.5c-0.1-0.1-0.3-0.3-0.6-0.4c-0.2-0.1-0.5-0.2-1.1-0.3
		c-0.6-0.1-1-0.3-1.2-0.4c-0.3-0.2-0.5-0.4-0.7-0.6c-0.1-0.2-0.2-0.5-0.2-0.8c0-0.3,0.1-0.6,0.3-0.9c0.2-0.3,0.4-0.5,0.8-0.6
		c0.4-0.1,0.7-0.2,1.2-0.2c0.5,0,0.9,0.1,1.3,0.2s0.6,0.4,0.8,0.7s0.3,0.6,0.3,1L42.5,91c0-0.4-0.2-0.7-0.4-0.9
		c-0.3-0.2-0.6-0.3-1.1-0.3c-0.5,0-0.9,0.1-1.1,0.3c-0.2,0.2-0.3,0.4-0.3,0.7c0,0.2,0.1,0.4,0.2,0.6c0.2,0.1,0.6,0.3,1.3,0.5
		c0.7,0.2,1.2,0.3,1.4,0.4c0.4,0.2,0.6,0.4,0.8,0.6c0.2,0.3,0.3,0.6,0.3,0.9c0,0.3-0.1,0.7-0.3,1c-0.2,0.3-0.5,0.5-0.8,0.7
		c-0.4,0.2-0.8,0.3-1.2,0.3c-0.6,0-1.1-0.1-1.5-0.3c-0.4-0.2-0.7-0.4-0.9-0.8C38.5,94.3,38.4,93.9,38.4,93.5z"/>
	<path d="M47.1,95.6v-5.6H45v-0.7h5v0.7h-2.1v5.6H47.1z"/>
	<path d="M51.7,95.6v-6.4h2.8c0.6,0,1,0.1,1.3,0.2c0.3,0.1,0.5,0.3,0.7,0.6c0.2,0.3,0.3,0.6,0.3,1c0,0.5-0.1,0.8-0.4,1.1
		c-0.3,0.3-0.7,0.5-1.4,0.6c0.2,0.1,0.4,0.2,0.5,0.3c0.2,0.2,0.5,0.5,0.7,0.8l1.1,1.7h-1.1l-0.8-1.3c-0.2-0.4-0.5-0.7-0.6-0.9
		c-0.2-0.2-0.3-0.3-0.4-0.4c-0.1-0.1-0.3-0.1-0.4-0.2c-0.1,0-0.3,0-0.5,0h-1v2.8L51.7,95.6L51.7,95.6z M52.5,92h1.8
		c0.4,0,0.7,0,0.9-0.1c0.2-0.1,0.4-0.2,0.5-0.4c0.1-0.2,0.2-0.4,0.2-0.6c0-0.3-0.1-0.5-0.3-0.7c-0.2-0.2-0.6-0.3-1-0.3h-2
		C52.5,89.9,52.5,92,52.5,92z"/>
	<path d="M58.3,95.6l2.4-6.4h0.9l2.6,6.4h-1l-0.7-1.9h-2.7l-0.7,1.9H58.3z M60.1,92.9h2.2l-0.7-1.8c-0.2-0.5-0.4-1-0.5-1.3
		c-0.1,0.4-0.2,0.8-0.3,1.2L60.1,92.9z"/>
	<path d="M65.7,95.6v-6.4h0.8v5.6h3.1v0.7L65.7,95.6L65.7,95.6z"/>
	<path d="M71.6,95.6v-6.4h0.8v6.4H71.6z"/>
	<path d="M74.1,95.6l2.4-6.4h0.9l2.6,6.4h-1l-0.7-1.9h-2.7L75,95.6H74.1z M75.9,92.9h2.2l-0.7-1.8c-0.2-0.5-0.4-1-0.5-1.3
		c-0.1,0.4-0.2,0.8-0.3,1.2L75.9,92.9z"/>
</g>
<path class="st0" d="M23.4,49.2V16.8L51.9,0l28.7,16.5v32.7c0,0-10.8-14.3-28.7-14.3C51.9,34.9,37.7,33.4,23.4,49.2z"/>
<path class="st0" d="M27.9,52.4l24,13.8l23.8-13.8c0,0-10-12.1-23.7-12.1C51.9,40.3,40.2,38.9,27.9,52.4z"/>
<path class="st1" d="M28.2,18.1c0,0-1.9,0.8-0.1,2.1c0,0,0.8-0.2,0.6-1.2L51.9,5.6c0,0,0.8-1.8-0.9-0.8L28.2,18.1z"/>
<path class="st1" d="M47.8,44.4c-2.9,0.8-8.6,2.2-13.4,6.9c0,0-1.8,0.7-0.8-1.1c0,0,8.3-7.3,15.3-6.5C48.9,43.7,49.4,44,47.8,44.4z"
	/>
</svg>
